<svg version="1.1" xmlns="http://www.w3.org/2000/svg" width="650" height="400"><defs><clipPath id="fUsxBTWOWWon"><path fill="none" stroke="none" d="M 68.5 36.5 L 620.5 36.5 L 620.5 294.5 L 68.5 294.5 L 68.5 36.5"/></clipPath><clipPath id="LuTuJnniZsaB"><path fill="none" stroke="none" d="M 68.5 36.5 L 620.5 36.5 L 620.5 294.5 L 68.5 294.5 L 68.5 36.5"/></clipPath><clipPath id="yiBfNaTnfHMJ"><path fill="none" stroke="none" d="M 68.5 36.5 L 620.5 36.5 L 620.5 294.5 L 68.5 294.5 L 68.5 36.5"/></clipPath><clipPath id="IWhlUJlWLpOq"><path fill="none" stroke="none" d="M 68.5 36.5 L 620.5 36.5 L 620.5 294.5 L 68.5 294.5 L 68.5 36.5"/></clipPath><clipPath id="DPvZBAAlJMEr"><path fill="none" stroke="none" d="M 68.5 36.5 L 620.5 36.5 L 620.5 294.5 L 68.5 294.5 L 68.5 36.5"/></clipPath><clipPath id="TRStyubSIGrq"><path fill="none" stroke="none" d="M 68.5 36.5 L 620.5 36.5 L 620.5 294.5 L 68.5 294.5 L 68.5 36.5"/></clipPath><clipPath id="yzbtPbecfCnt"><path fill="none" stroke="none" d="M 68.5 36.5 L 620.5 36.5 L 620.5 294.5 L 68.5 294.5 L 68.5 36.5"/></clipPath><clipPath id="GmTUZtTLnxRS"><path fill="none" stroke="none" d="M 68.5 36.5 L 620.5 36.5 L 620.5 294.5 L 68.5 294.5 L 68.5 36.5"/></clipPath><clipPath id="bQsXqvTNmfkZ"><path fill="none" stroke="none" d="M 68.5 36.5 L 620.5 36.5 L 620.5 294.5 L 68.5 294.5 L 68.5 36.5"/></clipPath><clipPath id="dTrhzpBOAxDJ"><path fill="none" stroke="none" d="M 68.5 36.5 L 620.5 36.5 L 620.5 294.5 L 68.5 294.5 L 68.5 36.5"/></clipPath><clipPath id="FhuTMDrkhDaC"><path fill="none" stroke="none" d="M 68.5 36.5 L 620.5 36.5 L 620.5 294.5 L 68.5 294.5 L 68.5 36.5"/></clipPath><clipPath id="HIzfudTCiTCo"><path fill="none" stroke="none" d="M 68.5 36.5 L 620.5 36.5 L 620.5 294.5 L 68.5 294.5 L 68.5 36.5"/></clipPath><clipPath id="lmPrAsvQQydI"><path fill="none" stroke="none" d="M 68.5 36.5 L 620.5 36.5 L 620.5 294.5 L 68.5 294.5 L 68.5 36.5"/></clipPath><clipPath id="RdGpKmwpwhXy"><path fill="none" stroke="none" d="M 68.5 36.5 L 620.5 36.5 L 620.5 294.5 L 68.5 294.5 L 68.5 36.5"/></clipPath><clipPath id="FLbacgJgRrdv"><path fill="none" stroke="none" d="M 68.5 36.5 L 620.5 36.5 L 620.5 294.5 L 68.5 294.5 L 68.5 36.5"/></clipPath><clipPath id="NuAcQkgyPKQe"><path fill="none" stroke="none" d="M 68.5 36.5 L 620.5 36.5 L 620.5 294.5 L 68.5 294.5 L 68.5 36.5"/></clipPath><clipPath id="CEFaADZKNpnq"><path fill="none" stroke="none" d="M 68.5 36.5 L 620.5 36.5 L 620.5 294.5 L 68.5 294.5 L 68.5 36.5"/></clipPath><clipPath id="nLMFTfpBmcVs"><path fill="none" stroke="none" d="M 68.5 36.5 L 620.5 36.5 L 620.5 294.5 L 68.5 294.5 L 68.5 36.5"/></clipPath><clipPath id="STcbqOZbDTkT"><path fill="none" stroke="none" d="M 68.5 36.5 L 620.5 36.5 L 620.5 294.5 L 68.5 294.5 L 68.5 36.5"/></clipPath><clipPath id="DrKMHdwdTkKC"><path fill="none" stroke="none" d="M 68.5 36.5 L 620.5 36.5 L 620.5 294.5 L 68.5 294.5 L 68.5 36.5"/></clipPath></defs><path fill="rgb(255,255,255)" stroke="none" paint-order="stroke" d="M 0.5 0.5 L 650.5 0.5 L 650.5 400.5 L 0.5 400.5 L 0.5 0.5" fill-opacity="1"/><rect fill="#FFFFFF" stroke="none" x="68" y="36" width="552" height="258" transform="matrix(1, 0, 0, 1, 0.5, 0.5)"/><path fill="rgb(255,255,255)" stroke="none" paint-order="stroke" d="M 68.5 36.5 L 620.5 36.5 L 620.5 294.5 L 68.5 294.5 L 68.5 36.5" fill-opacity="1"/><path fill="none" stroke="rgb(229,229,229)" paint-order="fill" d="M 68.5 36.5 L 620.5 36.5 L 620.5 294.5 L 68.5 294.5 L 68.5 36.5" stroke-opacity="1" stroke-linejoin="bevel" stroke-miterlimit="10" stroke-dasharray=""/><path fill="none" stroke="rgb(211,211,211)" paint-order="fill" d="M 68.5 474.4568942277307 L 620.5 474.4568942277307" stroke-opacity="1" stroke-linejoin="bevel" stroke-miterlimit="10" stroke-width="3" stroke-dasharray="6" clip-path="url(#yiBfNaTnfHMJ)"/><path fill="none" stroke="rgb(211,211,211)" paint-order="fill" d="M 68.5 414.47126281848705 L 620.5 414.47126281848705" stroke-opacity="1" stroke-linejoin="bevel" stroke-miterlimit="10" stroke-width="3" stroke-dasharray="6" clip-path="url(#IWhlUJlWLpOq)"/><path fill="none" stroke="rgb(211,211,211)" paint-order="fill" d="M 68.5 354.48563140924347 L 620.5 354.48563140924347" stroke-opacity="1" stroke-linejoin="bevel" stroke-miterlimit="10" stroke-width="3" stroke-dasharray="6" clip-path="url(#DPvZBAAlJMEr)"/><path fill="none" stroke="rgb(211,211,211)" paint-order="fill" d="M 68.5 294.5 L 620.5 294.5" stroke-opacity="1" stroke-linejoin="bevel" stroke-miterlimit="10" stroke-width="3" stroke-dasharray="6" clip-path="url(#TRStyubSIGrq)"/><path fill="none" stroke="rgb(211,211,211)" paint-order="fill" d="M 68.5 234.51436859075642 L 620.5 234.51436859075642" stroke-opacity="1" stroke-linejoin="bevel" stroke-miterlimit="10" stroke-width="3" stroke-dasharray="6" clip-path="url(#yzbtPbecfCnt)"/><path fill="none" stroke="rgb(211,211,211)" paint-order="fill" d="M 68.5 174.52873718151284 L 620.5 174.52873718151284" stroke-opacity="1" stroke-linejoin="bevel" stroke-miterlimit="10" stroke-width="3" stroke-dasharray="6" clip-path="url(#GmTUZtTLnxRS)"/><path fill="none" stroke="rgb(211,211,211)" paint-order="fill" d="M 68.5 114.54310577226929 L 620.5 114.54310577226929" stroke-opacity="1" stroke-linejoin="bevel" stroke-miterlimit="10" stroke-width="3" stroke-dasharray="6" clip-path="url(#bQsXqvTNmfkZ)"/><path fill="none" stroke="rgb(211,211,211)" paint-order="fill" d="M 68.5 54.55747436302573 L 620.5 54.55747436302573" stroke-opacity="1" stroke-linejoin="bevel" stroke-miterlimit="10" stroke-width="3" stroke-dasharray="6" clip-path="url(#dTrhzpBOAxDJ)"/><path fill="none" stroke="rgb(211,211,211)" paint-order="fill" d="M 68.5 -5.428157046217848 L 620.5 -5.428157046217848" stroke-opacity="1" stroke-linejoin="bevel" stroke-miterlimit="10" stroke-width="3" stroke-dasharray="6" clip-path="url(#FhuTMDrkhDaC)"/><path fill="none" stroke="rgb(211,211,211)" paint-order="fill" d="M 68.5 -65.41378845546143 L 620.5 -65.41378845546143" stroke-opacity="1" stroke-linejoin="bevel" stroke-miterlimit="10" stroke-width="3" stroke-dasharray="6" clip-path="url(#HIzfudTCiTCo)"/><path fill="rgb(0,0,0)" stroke="rgb(0,0,0)" paint-order="fill" d="M 105.88461303710938 196.8771514892578 A 2 2 0 0 1 101.88461303710938 196.8771514892578 A 2 2 0 0 1 105.88461303710938 196.8771514892578" fill-opacity="1" clip-path="url(#lmPrAsvQQydI)" stroke-opacity="1" stroke-linejoin="bevel" stroke-miterlimit="10" stroke-dasharray=""/><path fill="rgb(0,0,0)" stroke="rgb(0,0,0)" paint-order="fill" d="M 417.26922607421875 140.14401245117188 A 2 2 0 0 1 413.26922607421875 140.14401245117188 A 2 2 0 0 1 417.26922607421875 140.14401245117188" fill-opacity="1" clip-path="url(#lmPrAsvQQydI)" stroke-opacity="1" stroke-linejoin="bevel" stroke-miterlimit="10" stroke-dasharray=""/><path fill="rgb(0,0,0)" stroke="rgb(0,0,0)" paint-order="fill" d="M 233.26922607421875 160.2364959716797 A 2 2 0 0 1 229.26922607421875 160.2364959716797 A 2 2 0 0 1 233.26922607421875 160.2364959716797" fill-opacity="1" clip-path="url(#lmPrAsvQQydI)" stroke-opacity="1" stroke-linejoin="bevel" stroke-miterlimit="10" stroke-dasharray=""/><path fill="rgb(0,0,0)" stroke="rgb(0,0,0)" paint-order="fill" d="M 209.6794891357422 182.7310791015625 A 2 2 0 0 1 205.6794891357422 182.7310791015625 A 2 2 0 0 1 209.6794891357422 182.7310791015625" fill-opacity="1" clip-path="url(#lmPrAsvQQydI)" stroke-opacity="1" stroke-linejoin="bevel" stroke-miterlimit="10" stroke-dasharray=""/><path fill="rgb(0,0,0)" stroke="rgb(0,0,0)" paint-order="fill" d="M 610.7051391601562 98.94221496582031 A 2 2 0 0 1 606.7051391601562 98.94221496582031 A 2 2 0 0 1 610.7051391601562 98.94221496582031" fill-opacity="1" clip-path="url(#lmPrAsvQQydI)" stroke-opacity="1" stroke-linejoin="bevel" stroke-miterlimit="10" stroke-dasharray=""/><path fill="none" stroke="rgb(0,0,0)" paint-order="fill" d="M 495.474365234375 98.28327941894531 L 495.474365234375 100.60895538330078" stroke-opacity="1" stroke-linejoin="bevel" stroke-miterlimit="10" stroke-dasharray="" clip-path="url(#RdGpKmwpwhXy)"/><path fill="none" stroke="rgb(0,0,0)" paint-order="fill" d="M 127.47435760498047 173.8329315185547 L 127.47435760498047 177.38458251953125" stroke-opacity="1" stroke-linejoin="bevel" stroke-miterlimit="10" stroke-dasharray="" clip-path="url(#RdGpKmwpwhXy)"/><path fill="none" stroke="rgb(0,0,0)" paint-order="fill" d="M 103.88461303710938 160.55410766601562 L 103.88461303710938 161.7081756591797" stroke-opacity="1" stroke-linejoin="bevel" stroke-miterlimit="10" stroke-dasharray="" clip-path="url(#RdGpKmwpwhXy)"/><path fill="none" stroke="rgb(0,0,0)" paint-order="fill" d="M 80.29486846923828 225.0221405029297 L 80.29486846923828 229.51593017578125" stroke-opacity="1" stroke-linejoin="bevel" stroke-miterlimit="10" stroke-dasharray="" clip-path="url(#RdGpKmwpwhXy)"/><path fill="none" stroke="rgb(0,0,0)" paint-order="fill" d="M 391.6794738769531 157.21072387695312 L 391.6794738769531 162.5212860107422" stroke-opacity="1" stroke-linejoin="bevel" stroke-miterlimit="10" stroke-dasharray="" clip-path="url(#RdGpKmwpwhXy)"/><path fill="none" stroke="rgb(0,0,0)" paint-order="fill" d="M 438.8589782714844 196.5889892578125 L 438.8589782714844 198.40850830078125" stroke-opacity="1" stroke-linejoin="bevel" stroke-miterlimit="10" stroke-dasharray="" clip-path="url(#RdGpKmwpwhXy)"/><path fill="none" stroke="rgb(0,0,0)" paint-order="fill" d="M 415.26922607421875 146.8994598388672 L 415.26922607421875 146.8994598388672" stroke-opacity="1" stroke-linejoin="bevel" stroke-miterlimit="10" stroke-dasharray="" clip-path="url(#RdGpKmwpwhXy)"/><path fill="none" stroke="rgb(0,0,0)" paint-order="fill" d="M 287.8846130371094 132.7718505859375 L 287.8846130371094 134.25355529785156" stroke-opacity="1" stroke-linejoin="bevel" stroke-miterlimit="10" stroke-dasharray="" clip-path="url(#RdGpKmwpwhXy)"/><path fill="none" stroke="rgb(0,0,0)" paint-order="fill" d="M 335.0641174316406 198.8480682373047 L 335.0641174316406 201.87789916992188" stroke-opacity="1" stroke-linejoin="bevel" stroke-miterlimit="10" stroke-dasharray="" clip-path="url(#RdGpKmwpwhXy)"/><path fill="none" stroke="rgb(0,0,0)" paint-order="fill" d="M 311.474365234375 178.58473205566406 L 311.474365234375 183.35157775878906" stroke-opacity="1" stroke-linejoin="bevel" stroke-miterlimit="10" stroke-dasharray="" clip-path="url(#RdGpKmwpwhXy)"/><path fill="none" stroke="rgb(0,0,0)" paint-order="fill" d="M 184.08975219726562 133.3665008544922 L 184.08975219726562 138.07156372070312" stroke-opacity="1" stroke-linejoin="bevel" stroke-miterlimit="10" stroke-dasharray="" clip-path="url(#RdGpKmwpwhXy)"/><path fill="none" stroke="rgb(0,0,0)" paint-order="fill" d="M 231.26922607421875 170.79225158691406 L 231.26922607421875 170.79225158691406" stroke-opacity="1" stroke-linejoin="bevel" stroke-miterlimit="10" stroke-dasharray="" clip-path="url(#RdGpKmwpwhXy)"/><path fill="none" stroke="rgb(0,0,0)" paint-order="fill" d="M 207.6794891357422 203.90298461914062 L 207.6794891357422 203.90298461914062" stroke-opacity="1" stroke-linejoin="bevel" stroke-miterlimit="10" stroke-dasharray="" clip-path="url(#RdGpKmwpwhXy)"/><path fill="none" stroke="rgb(0,0,0)" paint-order="fill" d="M 608.7051391601562 90.42433166503906 L 608.7051391601562 91.37894439697266" stroke-opacity="1" stroke-linejoin="bevel" stroke-miterlimit="10" stroke-dasharray="" clip-path="url(#RdGpKmwpwhXy)"/><path fill="none" stroke="rgb(0,0,0)" paint-order="fill" d="M 552.0897216796875 154.94847106933594 L 552.0897216796875 159.91709899902344" stroke-opacity="1" stroke-linejoin="bevel" stroke-miterlimit="10" stroke-dasharray="" clip-path="url(#RdGpKmwpwhXy)"/><path fill="none" stroke="rgb(0,0,0)" paint-order="fill" d="M 495.474365234375 103.10604095458984 L 495.474365234375 102.68505096435547" stroke-opacity="1" stroke-linejoin="bevel" stroke-miterlimit="10" stroke-dasharray="" clip-path="url(#FLbacgJgRrdv)"/><path fill="none" stroke="rgb(0,0,0)" paint-order="fill" d="M 127.47435760498047 183.6200714111328 L 127.47435760498047 181.73922729492188" stroke-opacity="1" stroke-linejoin="bevel" stroke-miterlimit="10" stroke-dasharray="" clip-path="url(#FLbacgJgRrdv)"/><path fill="none" stroke="rgb(0,0,0)" paint-order="fill" d="M 103.88461303710938 168.96417236328125 L 103.88461303710938 168.96417236328125" stroke-opacity="1" stroke-linejoin="bevel" stroke-miterlimit="10" stroke-dasharray="" clip-path="url(#FLbacgJgRrdv)"/><path fill="none" stroke="rgb(0,0,0)" paint-order="fill" d="M 80.29486846923828 414.47125244140625 L 80.29486846923828 286.72808837890625" stroke-opacity="1" stroke-linejoin="bevel" stroke-miterlimit="10" stroke-dasharray="" clip-path="url(#FLbacgJgRrdv)"/><path fill="none" stroke="rgb(0,0,0)" paint-order="fill" d="M 391.6794738769531 179.6331329345703 L 391.6794738769531 175.03250122070312" stroke-opacity="1" stroke-linejoin="bevel" stroke-miterlimit="10" stroke-dasharray="" clip-path="url(#FLbacgJgRrdv)"/><path fill="none" stroke="rgb(0,0,0)" paint-order="fill" d="M 438.8589782714844 224.41925048828125 L 438.8589782714844 208.33206176757812" stroke-opacity="1" stroke-linejoin="bevel" stroke-miterlimit="10" stroke-dasharray="" clip-path="url(#FLbacgJgRrdv)"/><path fill="none" stroke="rgb(0,0,0)" paint-order="fill" d="M 415.26922607421875 159.0885467529297 L 415.26922607421875 151.9591522216797" stroke-opacity="1" stroke-linejoin="bevel" stroke-miterlimit="10" stroke-dasharray="" clip-path="url(#FLbacgJgRrdv)"/><path fill="none" stroke="rgb(0,0,0)" paint-order="fill" d="M 287.8846130371094 140.13555908203125 L 287.8846130371094 138.19424438476562" stroke-opacity="1" stroke-linejoin="bevel" stroke-miterlimit="10" stroke-dasharray="" clip-path="url(#FLbacgJgRrdv)"/><path fill="none" stroke="rgb(0,0,0)" paint-order="fill" d="M 335.0641174316406 217.04428100585938 L 335.0641174316406 208.39093017578125" stroke-opacity="1" stroke-linejoin="bevel" stroke-miterlimit="10" stroke-dasharray="" clip-path="url(#FLbacgJgRrdv)"/><path fill="none" stroke="rgb(0,0,0)" paint-order="fill" d="M 311.474365234375 196.64013671875 L 311.474365234375 196.64013671875" stroke-opacity="1" stroke-linejoin="bevel" stroke-miterlimit="10" stroke-dasharray="" clip-path="url(#FLbacgJgRrdv)"/><path fill="none" stroke="rgb(0,0,0)" paint-order="fill" d="M 184.08975219726562 148.58396911621094 L 184.08975219726562 143.6957550048828" stroke-opacity="1" stroke-linejoin="bevel" stroke-miterlimit="10" stroke-dasharray="" clip-path="url(#FLbacgJgRrdv)"/><path fill="none" stroke="rgb(0,0,0)" paint-order="fill" d="M 231.26922607421875 192.05169677734375 L 231.26922607421875 179.0900421142578" stroke-opacity="1" stroke-linejoin="bevel" stroke-miterlimit="10" stroke-dasharray="" clip-path="url(#FLbacgJgRrdv)"/><path fill="none" stroke="rgb(0,0,0)" paint-order="fill" d="M 207.6794891357422 414.47125244140625 L 207.6794891357422 236.4447021484375" stroke-opacity="1" stroke-linejoin="bevel" stroke-miterlimit="10" stroke-dasharray="" clip-path="url(#FLbacgJgRrdv)"/><path fill="none" stroke="rgb(0,0,0)" paint-order="fill" d="M 608.7051391601562 93.71204376220703 L 608.7051391601562 93.71204376220703" stroke-opacity="1" stroke-linejoin="bevel" stroke-miterlimit="10" stroke-dasharray="" clip-path="url(#FLbacgJgRrdv)"/><path fill="none" stroke="rgb(0,0,0)" paint-order="fill" d="M 552.0897216796875 188.80052185058594 L 552.0897216796875 175.15863037109375" stroke-opacity="1" stroke-linejoin="bevel" stroke-miterlimit="10" stroke-dasharray="" clip-path="url(#FLbacgJgRrdv)"/><path fill="none" stroke="rgb(0,0,0)" paint-order="fill" d="M 490.75640869140625 103.10604095458984 L 500.1922912597656 103.10604095458984" stroke-opacity="1" stroke-linejoin="bevel" stroke-miterlimit="10" stroke-dasharray="" clip-path="url(#NuAcQkgyPKQe)"/><path fill="none" stroke="rgb(0,0,0)" paint-order="fill" d="M 122.75640869140625 183.6200714111328 L 132.1923065185547 183.6200714111328" stroke-opacity="1" stroke-linejoin="bevel" stroke-miterlimit="10" stroke-dasharray="" clip-path="url(#NuAcQkgyPKQe)"/><path fill="none" stroke="rgb(0,0,0)" paint-order="fill" d="M 99.16666412353516 168.96417236328125 L 108.6025619506836 168.96417236328125" stroke-opacity="1" stroke-linejoin="bevel" stroke-miterlimit="10" stroke-dasharray="" clip-path="url(#NuAcQkgyPKQe)"/><path fill="none" stroke="rgb(0,0,0)" paint-order="fill" d="M 75.57691955566406 414.47125244140625 L 85.0128173828125 414.47125244140625" stroke-opacity="1" stroke-linejoin="bevel" stroke-miterlimit="10" stroke-dasharray="" clip-path="url(#NuAcQkgyPKQe)"/><path fill="none" stroke="rgb(0,0,0)" paint-order="fill" d="M 386.9615478515625 179.6331329345703 L 396.3974304199219 179.6331329345703" stroke-opacity="1" stroke-linejoin="bevel" stroke-miterlimit="10" stroke-dasharray="" clip-path="url(#NuAcQkgyPKQe)"/><path fill="none" stroke="rgb(0,0,0)" paint-order="fill" d="M 434.1410217285156 224.41925048828125 L 443.576904296875 224.41925048828125" stroke-opacity="1" stroke-linejoin="bevel" stroke-miterlimit="10" stroke-dasharray="" clip-path="url(#NuAcQkgyPKQe)"/><path fill="none" stroke="rgb(0,0,0)" paint-order="fill" d="M 410.55126953125 159.0885467529297 L 419.9871826171875 159.0885467529297" stroke-opacity="1" stroke-linejoin="bevel" stroke-miterlimit="10" stroke-dasharray="" clip-path="url(#NuAcQkgyPKQe)"/><path fill="none" stroke="rgb(0,0,0)" paint-order="fill" d="M 283.16668701171875 140.13555908203125 L 292.6025695800781 140.13555908203125" stroke-opacity="1" stroke-linejoin="bevel" stroke-miterlimit="10" stroke-dasharray="" clip-path="url(#NuAcQkgyPKQe)"/><path fill="none" stroke="rgb(0,0,0)" paint-order="fill" d="M 330.3461608886719 217.04428100585938 L 339.78204345703125 217.04428100585938" stroke-opacity="1" stroke-linejoin="bevel" stroke-miterlimit="10" stroke-dasharray="" clip-path="url(#NuAcQkgyPKQe)"/><path fill="none" stroke="rgb(0,0,0)" paint-order="fill" d="M 306.75640869140625 196.64013671875 L 316.19232177734375 196.64013671875" stroke-opacity="1" stroke-linejoin="bevel" stroke-miterlimit="10" stroke-dasharray="" clip-path="url(#NuAcQkgyPKQe)"/><path fill="none" stroke="rgb(0,0,0)" paint-order="fill" d="M 179.37179565429688 148.58396911621094 L 188.8076934814453 148.58396911621094" stroke-opacity="1" stroke-linejoin="bevel" stroke-miterlimit="10" stroke-dasharray="" clip-path="url(#NuAcQkgyPKQe)"/><path fill="none" stroke="rgb(0,0,0)" paint-order="fill" d="M 226.55128479003906 192.05169677734375 L 235.9871826171875 192.05169677734375" stroke-opacity="1" stroke-linejoin="bevel" stroke-miterlimit="10" stroke-dasharray="" clip-path="url(#NuAcQkgyPKQe)"/><path fill="none" stroke="rgb(0,0,0)" paint-order="fill" d="M 202.96153259277344 414.47125244140625 L 212.39743041992188 414.47125244140625" stroke-opacity="1" stroke-linejoin="bevel" stroke-miterlimit="10" stroke-dasharray="" clip-path="url(#NuAcQkgyPKQe)"/><path fill="none" stroke="rgb(0,0,0)" paint-order="fill" d="M 603.9871826171875 93.71204376220703 L 613.423095703125 93.71204376220703" stroke-opacity="1" stroke-linejoin="bevel" stroke-miterlimit="10" stroke-dasharray="" clip-path="url(#NuAcQkgyPKQe)"/><path fill="none" stroke="rgb(0,0,0)" paint-order="fill" d="M 547.3717651367188 188.80052185058594 L 556.8077392578125 188.80052185058594" stroke-opacity="1" stroke-linejoin="bevel" stroke-miterlimit="10" stroke-dasharray="" clip-path="url(#NuAcQkgyPKQe)"/><path fill="none" stroke="rgb(0,0,0)" paint-order="fill" d="M 490.75640869140625 98.28327941894531 L 500.1922912597656 98.28327941894531" stroke-opacity="1" stroke-linejoin="bevel" stroke-miterlimit="10" stroke-dasharray="" clip-path="url(#CEFaADZKNpnq)"/><path fill="none" stroke="rgb(0,0,0)" paint-order="fill" d="M 122.75640869140625 173.8329315185547 L 132.1923065185547 173.8329315185547" stroke-opacity="1" stroke-linejoin="bevel" stroke-miterlimit="10" stroke-dasharray="" clip-path="url(#CEFaADZKNpnq)"/><path fill="none" stroke="rgb(0,0,0)" paint-order="fill" d="M 99.16666412353516 160.55410766601562 L 108.6025619506836 160.55410766601562" stroke-opacity="1" stroke-linejoin="bevel" stroke-miterlimit="10" stroke-dasharray="" clip-path="url(#CEFaADZKNpnq)"/><path fill="none" stroke="rgb(0,0,0)" paint-order="fill" d="M 75.57691955566406 225.0221405029297 L 85.0128173828125 225.0221405029297" stroke-opacity="1" stroke-linejoin="bevel" stroke-miterlimit="10" stroke-dasharray="" clip-path="url(#CEFaADZKNpnq)"/><path fill="none" stroke="rgb(0,0,0)" paint-order="fill" d="M 386.9615478515625 157.21072387695312 L 396.3974304199219 157.21072387695312" stroke-opacity="1" stroke-linejoin="bevel" stroke-miterlimit="10" stroke-dasharray="" clip-path="url(#CEFaADZKNpnq)"/><path fill="none" stroke="rgb(0,0,0)" paint-order="fill" d="M 434.1410217285156 196.5889892578125 L 443.576904296875 196.5889892578125" stroke-opacity="1" stroke-linejoin="bevel" stroke-miterlimit="10" stroke-dasharray="" clip-path="url(#CEFaADZKNpnq)"/><path fill="none" stroke="rgb(0,0,0)" paint-order="fill" d="M 410.55126953125 146.8994598388672 L 419.9871826171875 146.8994598388672" stroke-opacity="1" stroke-linejoin="bevel" stroke-miterlimit="10" stroke-dasharray="" clip-path="url(#CEFaADZKNpnq)"/><path fill="none" stroke="rgb(0,0,0)" paint-order="fill" d="M 283.16668701171875 132.7718505859375 L 292.6025695800781 132.7718505859375" stroke-opacity="1" stroke-linejoin="bevel" stroke-miterlimit="10" stroke-dasharray="" clip-path="url(#CEFaADZKNpnq)"/><path fill="none" stroke="rgb(0,0,0)" paint-order="fill" d="M 330.3461608886719 198.8480682373047 L 339.78204345703125 198.8480682373047" stroke-opacity="1" stroke-linejoin="bevel" stroke-miterlimit="10" stroke-dasharray="" clip-path="url(#CEFaADZKNpnq)"/><path fill="none" stroke="rgb(0,0,0)" paint-order="fill" d="M 306.75640869140625 178.58473205566406 L 316.19232177734375 178.58473205566406" stroke-opacity="1" stroke-linejoin="bevel" stroke-miterlimit="10" stroke-dasharray="" clip-path="url(#CEFaADZKNpnq)"/><path fill="none" stroke="rgb(0,0,0)" paint-order="fill" d="M 179.37179565429688 133.3665008544922 L 188.8076934814453 133.3665008544922" stroke-opacity="1" stroke-linejoin="bevel" stroke-miterlimit="10" stroke-dasharray="" clip-path="url(#CEFaADZKNpnq)"/><path fill="none" stroke="rgb(0,0,0)" paint-order="fill" d="M 226.55128479003906 170.79225158691406 L 235.9871826171875 170.79225158691406" stroke-opacity="1" stroke-linejoin="bevel" stroke-miterlimit="10" stroke-dasharray="" clip-path="url(#CEFaADZKNpnq)"/><path fill="none" stroke="rgb(0,0,0)" paint-order="fill" d="M 202.96153259277344 203.90298461914062 L 212.39743041992188 203.90298461914062" stroke-opacity="1" stroke-linejoin="bevel" stroke-miterlimit="10" stroke-dasharray="" clip-path="url(#CEFaADZKNpnq)"/><path fill="none" stroke="rgb(0,0,0)" paint-order="fill" d="M 603.9871826171875 90.42433166503906 L 613.423095703125 90.42433166503906" stroke-opacity="1" stroke-linejoin="bevel" stroke-miterlimit="10" stroke-dasharray="" clip-path="url(#CEFaADZKNpnq)"/><path fill="none" stroke="rgb(0,0,0)" paint-order="fill" d="M 547.3717651367188 154.94847106933594 L 556.8077392578125 154.94847106933594" stroke-opacity="1" stroke-linejoin="bevel" stroke-miterlimit="10" stroke-dasharray="" clip-path="url(#CEFaADZKNpnq)"/><path fill="rgb(128,128,128)" stroke="rgb(0,0,0)" paint-order="fill" d="M 487.21795654296875 101.98352813720703 L 503.73077392578125 101.98352813720703 L 503.73077392578125 100.60895538330078 L 487.21795654296875 100.60895538330078 L 487.21795654296875 101.98352813720703" fill-opacity="1" clip-path="url(#nLMFTfpBmcVs)" stroke-opacity="1" stroke-linejoin="bevel" stroke-miterlimit="10" stroke-dasharray=""/><path fill="rgb(128,128,128)" stroke="rgb(0,0,0)" paint-order="fill" d="M 119.21794891357422 179.8841552734375 L 135.73077392578125 179.8841552734375 L 135.73077392578125 177.38458251953125 L 119.21794891357422 177.38458251953125 L 119.21794891357422 179.8841552734375" fill-opacity="1" clip-path="url(#nLMFTfpBmcVs)" stroke-opacity="1" stroke-linejoin="bevel" stroke-miterlimit="10" stroke-dasharray=""/><path fill="rgb(128,128,128)" stroke="rgb(0,0,0)" paint-order="fill" d="M 95.62820434570312 162.93927001953125 L 112.14102172851562 162.93927001953125 L 112.14102172851562 161.7081756591797 L 95.62820434570312 161.7081756591797 L 95.62820434570312 162.93927001953125" fill-opacity="1" clip-path="url(#nLMFTfpBmcVs)" stroke-opacity="1" stroke-linejoin="bevel" stroke-miterlimit="10" stroke-dasharray=""/><path fill="rgb(128,128,128)" stroke="rgb(0,0,0)" paint-order="fill" d="M 72.03845977783203 245.44140625 L 88.55127716064453 245.44140625 L 88.55127716064453 229.51593017578125 L 72.03845977783203 229.51593017578125 L 72.03845977783203 245.44140625" fill-opacity="1" clip-path="url(#nLMFTfpBmcVs)" stroke-opacity="1" stroke-linejoin="bevel" stroke-miterlimit="10" stroke-dasharray=""/><path fill="rgb(128,128,128)" stroke="rgb(0,0,0)" paint-order="fill" d="M 383.4230651855469 168.71766662597656 L 399.9358825683594 168.71766662597656 L 399.9358825683594 162.5212860107422 L 383.4230651855469 162.5212860107422 L 383.4230651855469 168.71766662597656" fill-opacity="1" clip-path="url(#nLMFTfpBmcVs)" stroke-opacity="1" stroke-linejoin="bevel" stroke-miterlimit="10" stroke-dasharray=""/><path fill="rgb(128,128,128)" stroke="rgb(0,0,0)" paint-order="fill" d="M 430.6025695800781 201.67897033691406 L 447.1153869628906 201.67897033691406 L 447.1153869628906 198.40850830078125 L 430.6025695800781 198.40850830078125 L 430.6025695800781 201.67897033691406" fill-opacity="1" clip-path="url(#nLMFTfpBmcVs)" stroke-opacity="1" stroke-linejoin="bevel" stroke-miterlimit="10" stroke-dasharray=""/><path fill="rgb(128,128,128)" stroke="rgb(0,0,0)" paint-order="fill" d="M 407.0128173828125 149.78189086914062 L 423.525634765625 149.78189086914062 L 423.525634765625 146.8994598388672 L 407.0128173828125 146.8994598388672 L 407.0128173828125 149.78189086914062" fill-opacity="1" clip-path="url(#nLMFTfpBmcVs)" stroke-opacity="1" stroke-linejoin="bevel" stroke-miterlimit="10" stroke-dasharray=""/><path fill="rgb(128,128,128)" stroke="rgb(0,0,0)" paint-order="fill" d="M 279.6282043457031 136.13450622558594 L 296.1410217285156 136.13450622558594 L 296.1410217285156 134.25355529785156 L 279.6282043457031 134.25355529785156 L 279.6282043457031 136.13450622558594" fill-opacity="1" clip-path="url(#nLMFTfpBmcVs)" stroke-opacity="1" stroke-linejoin="bevel" stroke-miterlimit="10" stroke-dasharray=""/><path fill="rgb(128,128,128)" stroke="rgb(0,0,0)" paint-order="fill" d="M 326.8077087402344 204.46319580078125 L 343.3205261230469 204.46319580078125 L 343.3205261230469 201.87789916992188 L 326.8077087402344 201.87789916992188 L 326.8077087402344 204.46319580078125" fill-opacity="1" clip-path="url(#nLMFTfpBmcVs)" stroke-opacity="1" stroke-linejoin="bevel" stroke-miterlimit="10" stroke-dasharray=""/><path fill="rgb(128,128,128)" stroke="rgb(0,0,0)" paint-order="fill" d="M 303.21795654296875 187.07534790039062 L 319.73077392578125 187.07534790039062 L 319.73077392578125 183.35157775878906 L 303.21795654296875 183.35157775878906 L 303.21795654296875 187.07534790039062" fill-opacity="1" clip-path="url(#nLMFTfpBmcVs)" stroke-opacity="1" stroke-linejoin="bevel" stroke-miterlimit="10" stroke-dasharray=""/><path fill="rgb(128,128,128)" stroke="rgb(0,0,0)" paint-order="fill" d="M 175.83334350585938 141.02268981933594 L 192.34616088867188 141.02268981933594 L 192.34616088867188 138.07156372070312 L 175.83334350585938 138.07156372070312 L 175.83334350585938 141.02268981933594" fill-opacity="1" clip-path="url(#nLMFTfpBmcVs)" stroke-opacity="1" stroke-linejoin="bevel" stroke-miterlimit="10" stroke-dasharray=""/><path fill="rgb(128,128,128)" stroke="rgb(0,0,0)" paint-order="fill" d="M 223.0128173828125 175.7136993408203 L 239.525634765625 175.7136993408203 L 239.525634765625 170.79225158691406 L 223.0128173828125 170.79225158691406 L 223.0128173828125 175.7136993408203" fill-opacity="1" clip-path="url(#nLMFTfpBmcVs)" stroke-opacity="1" stroke-linejoin="bevel" stroke-miterlimit="10" stroke-dasharray=""/><path fill="rgb(128,128,128)" stroke="rgb(0,0,0)" paint-order="fill" d="M 199.42308044433594 222.9090576171875 L 215.93589782714844 222.9090576171875 L 215.93589782714844 203.90298461914062 L 199.42308044433594 203.90298461914062 L 199.42308044433594 222.9090576171875" fill-opacity="1" clip-path="url(#nLMFTfpBmcVs)" stroke-opacity="1" stroke-linejoin="bevel" stroke-miterlimit="10" stroke-dasharray=""/><path fill="rgb(128,128,128)" stroke="rgb(0,0,0)" paint-order="fill" d="M 600.44873046875 91.94074249267578 L 616.9615478515625 91.94074249267578 L 616.9615478515625 91.37894439697266 L 600.44873046875 91.37894439697266 L 600.44873046875 91.94074249267578" fill-opacity="1" clip-path="url(#nLMFTfpBmcVs)" stroke-opacity="1" stroke-linejoin="bevel" stroke-miterlimit="10" stroke-dasharray=""/><path fill="rgb(128,128,128)" stroke="rgb(0,0,0)" paint-order="fill" d="M 543.8333129882812 166.34432983398438 L 560.3461303710938 166.34432983398438 L 560.3461303710938 159.91709899902344 L 543.8333129882812 159.91709899902344 L 543.8333129882812 166.34432983398438" fill-opacity="1" clip-path="url(#nLMFTfpBmcVs)" stroke-opacity="1" stroke-linejoin="bevel" stroke-miterlimit="10" stroke-dasharray=""/><path fill="rgb(128,128,128)" stroke="rgb(0,0,0)" paint-order="fill" d="M 487.21795654296875 102.68505096435547 L 503.73077392578125 102.68505096435547 L 503.73077392578125 101.98352813720703 L 487.21795654296875 101.98352813720703 L 487.21795654296875 102.68505096435547" fill-opacity="1" clip-path="url(#STcbqOZbDTkT)" stroke-opacity="1" stroke-linejoin="bevel" stroke-miterlimit="10" stroke-dasharray=""/><path fill="rgb(128,128,128)" stroke="rgb(0,0,0)" paint-order="fill" d="M 119.21794891357422 181.73922729492188 L 135.73077392578125 181.73922729492188 L 135.73077392578125 179.8841552734375 L 119.21794891357422 179.8841552734375 L 119.21794891357422 181.73922729492188" fill-opacity="1" clip-path="url(#STcbqOZbDTkT)" stroke-opacity="1" stroke-linejoin="bevel" stroke-miterlimit="10" stroke-dasharray=""/><path fill="rgb(128,128,128)" stroke="rgb(0,0,0)" paint-order="fill" d="M 95.62820434570312 168.96417236328125 L 112.14102172851562 168.96417236328125 L 112.14102172851562 162.93927001953125 L 95.62820434570312 162.93927001953125 L 95.62820434570312 168.96417236328125" fill-opacity="1" clip-path="url(#STcbqOZbDTkT)" stroke-opacity="1" stroke-linejoin="bevel" stroke-miterlimit="10" stroke-dasharray=""/><path fill="rgb(128,128,128)" stroke="rgb(0,0,0)" paint-order="fill" d="M 72.03845977783203 286.72808837890625 L 88.55127716064453 286.72808837890625 L 88.55127716064453 245.44140625 L 72.03845977783203 245.44140625 L 72.03845977783203 286.72808837890625" fill-opacity="1" clip-path="url(#STcbqOZbDTkT)" stroke-opacity="1" stroke-linejoin="bevel" stroke-miterlimit="10" stroke-dasharray=""/><path fill="rgb(128,128,128)" stroke="rgb(0,0,0)" paint-order="fill" d="M 383.4230651855469 175.03250122070312 L 399.9358825683594 175.03250122070312 L 399.9358825683594 168.71766662597656 L 383.4230651855469 168.71766662597656 L 383.4230651855469 175.03250122070312" fill-opacity="1" clip-path="url(#STcbqOZbDTkT)" stroke-opacity="1" stroke-linejoin="bevel" stroke-miterlimit="10" stroke-dasharray=""/><path fill="rgb(128,128,128)" stroke="rgb(0,0,0)" paint-order="fill" d="M 430.6025695800781 208.33206176757812 L 447.1153869628906 208.33206176757812 L 447.1153869628906 201.67897033691406 L 430.6025695800781 201.67897033691406 L 430.6025695800781 208.33206176757812" fill-opacity="1" clip-path="url(#STcbqOZbDTkT)" stroke-opacity="1" stroke-linejoin="bevel" stroke-miterlimit="10" stroke-dasharray=""/><path fill="rgb(128,128,128)" stroke="rgb(0,0,0)" paint-order="fill" d="M 407.0128173828125 151.9591522216797 L 423.525634765625 151.9591522216797 L 423.525634765625 149.78189086914062 L 407.0128173828125 149.78189086914062 L 407.0128173828125 151.9591522216797" fill-opacity="1" clip-path="url(#STcbqOZbDTkT)" stroke-opacity="1" stroke-linejoin="bevel" stroke-miterlimit="10" stroke-dasharray=""/><path fill="rgb(128,128,128)" stroke="rgb(0,0,0)" paint-order="fill" d="M 279.6282043457031 138.19424438476562 L 296.1410217285156 138.19424438476562 L 296.1410217285156 136.13450622558594 L 279.6282043457031 136.13450622558594 L 279.6282043457031 138.19424438476562" fill-opacity="1" clip-path="url(#STcbqOZbDTkT)" stroke-opacity="1" stroke-linejoin="bevel" stroke-miterlimit="10" stroke-dasharray=""/><path fill="rgb(128,128,128)" stroke="rgb(0,0,0)" paint-order="fill" d="M 326.8077087402344 208.39093017578125 L 343.3205261230469 208.39093017578125 L 343.3205261230469 204.46319580078125 L 326.8077087402344 204.46319580078125 L 326.8077087402344 208.39093017578125" fill-opacity="1" clip-path="url(#STcbqOZbDTkT)" stroke-opacity="1" stroke-linejoin="bevel" stroke-miterlimit="10" stroke-dasharray=""/><path fill="rgb(128,128,128)" stroke="rgb(0,0,0)" paint-order="fill" d="M 303.21795654296875 196.64013671875 L 319.73077392578125 196.64013671875 L 319.73077392578125 187.07534790039062 L 303.21795654296875 187.07534790039062 L 303.21795654296875 196.64013671875" fill-opacity="1" clip-path="url(#STcbqOZbDTkT)" stroke-opacity="1" stroke-linejoin="bevel" stroke-miterlimit="10" stroke-dasharray=""/><path fill="rgb(128,128,128)" stroke="rgb(0,0,0)" paint-order="fill" d="M 175.83334350585938 143.6957550048828 L 192.34616088867188 143.6957550048828 L 192.34616088867188 141.02268981933594 L 175.83334350585938 141.02268981933594 L 175.83334350585938 143.6957550048828" fill-opacity="1" clip-path="url(#STcbqOZbDTkT)" stroke-opacity="1" stroke-linejoin="bevel" stroke-miterlimit="10" stroke-dasharray=""/><path fill="rgb(128,128,128)" stroke="rgb(0,0,0)" paint-order="fill" d="M 223.0128173828125 179.0900421142578 L 239.525634765625 179.0900421142578 L 239.525634765625 175.7136993408203 L 223.0128173828125 175.7136993408203 L 223.0128173828125 179.0900421142578" fill-opacity="1" clip-path="url(#STcbqOZbDTkT)" stroke-opacity="1" stroke-linejoin="bevel" stroke-miterlimit="10" stroke-dasharray=""/><path fill="rgb(128,128,128)" stroke="rgb(0,0,0)" paint-order="fill" d="M 199.42308044433594 236.4447021484375 L 215.93589782714844 236.4447021484375 L 215.93589782714844 222.9090576171875 L 199.42308044433594 222.9090576171875 L 199.42308044433594 236.4447021484375" fill-opacity="1" clip-path="url(#STcbqOZbDTkT)" stroke-opacity="1" stroke-linejoin="bevel" stroke-miterlimit="10" stroke-dasharray=""/><path fill="rgb(128,128,128)" stroke="rgb(0,0,0)" paint-order="fill" d="M 600.44873046875 93.71204376220703 L 616.9615478515625 93.71204376220703 L 616.9615478515625 91.94074249267578 L 600.44873046875 91.94074249267578 L 600.44873046875 93.71204376220703" fill-opacity="1" clip-path="url(#STcbqOZbDTkT)" stroke-opacity="1" stroke-linejoin="bevel" stroke-miterlimit="10" stroke-dasharray=""/><path fill="rgb(128,128,128)" stroke="rgb(0,0,0)" paint-order="fill" d="M 543.8333129882812 175.15863037109375 L 560.3461303710938 175.15863037109375 L 560.3461303710938 166.34432983398438 L 543.8333129882812 166.34432983398438 L 543.8333129882812 175.15863037109375" fill-opacity="1" clip-path="url(#STcbqOZbDTkT)" stroke-opacity="1" stroke-linejoin="bevel" stroke-miterlimit="10" stroke-dasharray=""/><path fill="none" stroke="rgb(0,0,0)" paint-order="fill" d="M 68.5 294.5 L 620.5 294.5" stroke-opacity="1" stroke-linejoin="bevel" stroke-miterlimit="10" stroke-dasharray=""/><path fill="none" stroke="rgb(0,0,0)" paint-order="fill" d="M 80.5 300.5 L 80.5 292.5 M 103.5 300.5 L 103.5 292.5 M 127.5 300.5 L 127.5 292.5 M 184.5 300.5 L 184.5 292.5 M 207.5 300.5 L 207.5 292.5 M 231.5 300.5 L 231.5 292.5 M 287.5 300.5 L 287.5 292.5 M 311.5 300.5 L 311.5 292.5 M 335.5 300.5 L 335.5 292.5 M 391.5 300.5 L 391.5 292.5 M 415.5 300.5 L 415.5 292.5 M 438.5 300.5 L 438.5 292.5 M 495.5 300.5 L 495.5 292.5 M 552.5 300.5 L 552.5 292.5 M 608.5 300.5 L 608.5 292.5" stroke-opacity="1" stroke-linejoin="bevel" stroke-miterlimit="10" stroke-dasharray=""/><path fill="none" stroke="rgb(0,0,0)" paint-order="fill" d="" stroke-opacity="1" stroke-linejoin="bevel" stroke-miterlimit="10" stroke-dasharray=""/><text fill="rgb(68,68,68)" stroke="none" font-family="helvetica" font-size="10pt" font-style="normal" font-weight="normal" text-decoration="normal" x="74.98229217529297" y="317" text-anchor="start" dominant-baseline="alphabetic" transform="matrix(1, 0, 0, 1, 0.5, 0.5)" fill-opacity="1">C</text><text fill="rgb(68,68,68)" stroke="none" font-family="helvetica" font-size="10pt" font-style="normal" font-weight="normal" text-decoration="normal" x="98.20108795166016" y="317" text-anchor="start" dominant-baseline="alphabetic" transform="matrix(1, 0, 0, 1, 0.5, 0.5)" fill-opacity="1">G</text><text fill="rgb(68,68,68)" stroke="none" font-family="helvetica" font-size="10pt" font-style="normal" font-weight="normal" text-decoration="normal" x="122.90367889404297" y="317" text-anchor="start" dominant-baseline="alphabetic" transform="matrix(1, 0, 0, 1, 0.5, 0.5)" fill-opacity="1">T</text><text fill="rgb(68,68,68)" stroke="none" font-family="helvetica" font-size="10pt" font-style="normal" font-weight="normal" text-decoration="normal" x="179.14485931396484" y="317" text-anchor="start" dominant-baseline="alphabetic" transform="matrix(1, 0, 0, 1, 0.5, 0.5)" fill-opacity="1">A</text><text fill="rgb(68,68,68)" stroke="none" font-family="helvetica" font-size="10pt" font-style="normal" font-weight="normal" text-decoration="normal" x="201.99596405029297" y="317" text-anchor="start" dominant-baseline="alphabetic" transform="matrix(1, 0, 0, 1, 0.5, 0.5)" fill-opacity="1">G</text><text fill="rgb(68,68,68)" stroke="none" font-family="helvetica" font-size="10pt" font-style="normal" font-weight="normal" text-decoration="normal" x="226.69854736328125" y="317" text-anchor="start" dominant-baseline="alphabetic" transform="matrix(1, 0, 0, 1, 0.5, 0.5)" fill-opacity="1">T</text><text fill="rgb(68,68,68)" stroke="none" font-family="helvetica" font-size="10pt" font-style="normal" font-weight="normal" text-decoration="normal" x="282.93973541259766" y="317" text-anchor="start" dominant-baseline="alphabetic" transform="matrix(1, 0, 0, 1, 0.5, 0.5)" fill-opacity="1">A</text><text fill="rgb(68,68,68)" stroke="none" font-family="helvetica" font-size="10pt" font-style="normal" font-weight="normal" text-decoration="normal" x="306.1617889404297" y="317" text-anchor="start" dominant-baseline="alphabetic" transform="matrix(1, 0, 0, 1, 0.5, 0.5)" fill-opacity="1">C</text><text fill="rgb(68,68,68)" stroke="none" font-family="helvetica" font-size="10pt" font-style="normal" font-weight="normal" text-decoration="normal" x="330.4934387207031" y="317" text-anchor="start" dominant-baseline="alphabetic" transform="matrix(1, 0, 0, 1, 0.5, 0.5)" fill-opacity="1">T</text><text fill="rgb(68,68,68)" stroke="none" font-family="helvetica" font-size="10pt" font-style="normal" font-weight="normal" text-decoration="normal" x="386.7345962524414" y="317" text-anchor="start" dominant-baseline="alphabetic" transform="matrix(1, 0, 0, 1, 0.5, 0.5)" fill-opacity="1">A</text><text fill="rgb(68,68,68)" stroke="none" font-family="helvetica" font-size="10pt" font-style="normal" font-weight="normal" text-decoration="normal" x="409.95664978027344" y="317" text-anchor="start" dominant-baseline="alphabetic" transform="matrix(1, 0, 0, 1, 0.5, 0.5)" fill-opacity="1">C</text><text fill="rgb(68,68,68)" stroke="none" font-family="helvetica" font-size="10pt" font-style="normal" font-weight="normal" text-decoration="normal" x="433.17545318603516" y="317" text-anchor="start" dominant-baseline="alphabetic" transform="matrix(1, 0, 0, 1, 0.5, 0.5)" fill-opacity="1">G</text><text fill="rgb(68,68,68)" stroke="none" font-family="helvetica" font-size="10pt" font-style="normal" font-weight="normal" text-decoration="normal" x="488.3070373535156" y="317" text-anchor="start" dominant-baseline="alphabetic" transform="matrix(1, 0, 0, 1, 0.5, 0.5)" fill-opacity="1">all</text><text fill="rgb(68,68,68)" stroke="none" font-family="helvetica" font-size="10pt" font-style="normal" font-weight="normal" text-decoration="normal" x="542.6967010498047" y="317" text-anchor="start" dominant-baseline="alphabetic" transform="matrix(1, 0, 0, 1, 0.5, 0.5)" fill-opacity="1">del</text><text fill="rgb(68,68,68)" stroke="none" font-family="helvetica" font-size="10pt" font-style="normal" font-weight="normal" text-decoration="normal" x="599.6863250732422" y="317" text-anchor="start" dominant-baseline="alphabetic" transform="matrix(1, 0, 0, 1, 0.5, 0.5)" fill-opacity="1">ins</text><text fill="rgb(128,128,128)" stroke="none" font-family="helvetica" font-size="10pt" font-style="normal" font-weight="bold" text-decoration="normal" x="98.57203674316406" y="340" text-anchor="start" dominant-baseline="alphabetic" transform="matrix(1, 0, 0, 1, 0.5, 0.5)" fill-opacity="1">A</text><text fill="rgb(128,128,128)" stroke="none" font-family="helvetica" font-size="10pt" font-style="normal" font-weight="bold" text-decoration="normal" x="202.36691284179688" y="340" text-anchor="start" dominant-baseline="alphabetic" transform="matrix(1, 0, 0, 1, 0.5, 0.5)" fill-opacity="1">C</text><text fill="rgb(128,128,128)" stroke="none" font-family="helvetica" font-size="10pt" font-style="normal" font-weight="bold" text-decoration="normal" x="305.7908401489258" y="340" text-anchor="start" dominant-baseline="alphabetic" transform="matrix(1, 0, 0, 1, 0.5, 0.5)" fill-opacity="1">G</text><text fill="rgb(128,128,128)" stroke="none" font-family="helvetica" font-size="10pt" font-style="normal" font-weight="bold" text-decoration="normal" x="410.69854736328125" y="340" text-anchor="start" dominant-baseline="alphabetic" transform="matrix(1, 0, 0, 1, 0.5, 0.5)" fill-opacity="1">T</text><text fill="rgb(128,128,128)" stroke="none" font-family="helvetica" font-size="10pt" font-style="normal" font-weight="bold" text-decoration="normal" x="487.5651397705078" y="340" text-anchor="start" dominant-baseline="alphabetic" transform="matrix(1, 0, 0, 1, 0.5, 0.5)" fill-opacity="1">all</text><text fill="rgb(128,128,128)" stroke="none" font-family="helvetica" font-size="10pt" font-style="normal" font-weight="bold" text-decoration="normal" x="541.961311340332" y="340" text-anchor="start" dominant-baseline="alphabetic" transform="matrix(1, 0, 0, 1, 0.5, 0.5)" fill-opacity="1">del</text><text fill="rgb(128,128,128)" stroke="none" font-family="helvetica" font-size="10pt" font-style="normal" font-weight="bold" text-decoration="normal" x="598.5767288208008" y="340" text-anchor="start" dominant-baseline="alphabetic" transform="matrix(1, 0, 0, 1, 0.5, 0.5)" fill-opacity="1">ins</text><text fill="rgb(68,68,68)" stroke="none" font-family="helvetica" font-size="14pt" font-style="italic" font-weight="normal" text-decoration="normal" x="263.10311126708984" y="368" text-anchor="start" dominant-baseline="alphabetic" transform="matrix(1, 0, 0, 1, 0.5, 0.5)" fill-opacity="1">mutation nucleotide</text><text fill="rgb(68,68,68)" stroke="none" font-family="helvetica" font-size="14pt" font-style="italic" font-weight="normal" text-decoration="normal" x="262.5884246826172" y="393.2" text-anchor="start" dominant-baseline="alphabetic" transform="matrix(1, 0, 0, 1, 0.5, 0.5)" fill-opacity="1">wild type nucleotide</text><path fill="none" stroke="rgb(211,211,211)" paint-order="fill" d="M 155.5 334.5 L 155.5 297.5 M 259.5 334.5 L 259.5 297.5 M 363.5 334.5 L 363.5 297.5 M 467.5 334.5 L 467.5 297.5 M 523.5 334.5 L 523.5 297.5 M 580.5 334.5 L 580.5 297.5" stroke-opacity="1" stroke-linejoin="bevel" stroke-miterlimit="10" stroke-width="2" stroke-dasharray=""/><path fill="none" stroke="rgb(0,0,0)" paint-order="fill" d="M 68.5 294.5 L 68.5 36.5" stroke-opacity="1" stroke-linejoin="bevel" stroke-miterlimit="10" stroke-dasharray=""/><path fill="none" stroke="rgb(0,0,0)" paint-order="fill" d="M 62.5 294.5 L 70.5 294.5 M 62.5 234.5 L 70.5 234.5 M 62.5 174.5 L 70.5 174.5 M 62.5 114.5 L 70.5 114.5 M 62.5 54.5 L 70.5 54.5" stroke-opacity="1" stroke-linejoin="bevel" stroke-miterlimit="10" stroke-dasharray=""/><path fill="none" stroke="rgb(0,0,0)" paint-order="fill" d="M 64.5 294.5 L 68.5 294.5 M 64.5 294.5 L 68.5 294.5 M 64.5 294.5 L 68.5 294.5 M 64.5 276.5 L 68.5 276.5 M 64.5 265.5 L 68.5 265.5 M 64.5 258.5 L 68.5 258.5 M 64.5 252.5 L 68.5 252.5 M 64.5 247.5 L 68.5 247.5 M 64.5 243.5 L 68.5 243.5 M 64.5 240.5 L 68.5 240.5 M 64.5 237.5 L 68.5 237.5 M 64.5 234.5 L 68.5 234.5 M 64.5 234.5 L 68.5 234.5 M 64.5 216.5 L 68.5 216.5 M 64.5 205.5 L 68.5 205.5 M 64.5 198.5 L 68.5 198.5 M 64.5 192.5 L 68.5 192.5 M 64.5 187.5 L 68.5 187.5 M 64.5 183.5 L 68.5 183.5 M 64.5 180.5 L 68.5 180.5 M 64.5 177.5 L 68.5 177.5 M 64.5 174.5 L 68.5 174.5 M 64.5 174.5 L 68.5 174.5 M 64.5 156.5 L 68.5 156.5 M 64.5 145.5 L 68.5 145.5 M 64.5 138.5 L 68.5 138.5 M 64.5 132.5 L 68.5 132.5 M 64.5 127.5 L 68.5 127.5 M 64.5 123.5 L 68.5 123.5 M 64.5 120.5 L 68.5 120.5 M 64.5 117.5 L 68.5 117.5 M 64.5 114.5 L 68.5 114.5 M 64.5 114.5 L 68.5 114.5 M 64.5 96.5 L 68.5 96.5 M 64.5 85.5 L 68.5 85.5 M 64.5 78.5 L 68.5 78.5 M 64.5 72.5 L 68.5 72.5 M 64.5 67.5 L 68.5 67.5 M 64.5 63.5 L 68.5 63.5 M 64.5 60.5 L 68.5 60.5 M 64.5 57.5 L 68.5 57.5 M 64.5 54.5 L 68.5 54.5 M 64.5 54.5 L 68.5 54.5 M 64.5 36.5 L 68.5 36.5" stroke-opacity="1" stroke-linejoin="bevel" stroke-miterlimit="10" stroke-dasharray=""/><text fill="rgb(68,68,68)" stroke="none" font-family="helvetica" font-size="10pt" font-style="normal" font-weight="normal" text-decoration="normal" x="0" y="13" text-anchor="start" dominant-baseline="alphabetic" transform="matrix(1, 0, 0, 1, 32.039703369140625, 288)" fill-opacity="1">10</text><text fill="rgb(68,68,68)" stroke="none" font-family="helvetica" font-size="7pt" font-style="normal" font-weight="normal" text-decoration="normal" x="14.824951171875" y="7" text-anchor="start" dominant-baseline="alphabetic" transform="matrix(1, 0, 0, 1, 32.039703369140625, 288)" fill-opacity="1">−8</text><text fill="rgb(68,68,68)" stroke="none" font-family="helvetica" font-size="10pt" font-style="normal" font-weight="normal" text-decoration="normal" x="0" y="13" text-anchor="start" dominant-baseline="alphabetic" transform="matrix(1, 0, 0, 1, 32.039703369140625, 228.01437377929688)" fill-opacity="1">10</text><text fill="rgb(68,68,68)" stroke="none" font-family="helvetica" font-size="7pt" font-style="normal" font-weight="normal" text-decoration="normal" x="14.824951171875" y="7" text-anchor="start" dominant-baseline="alphabetic" transform="matrix(1, 0, 0, 1, 32.039703369140625, 228.01437377929688)" fill-opacity="1">−7</text><text fill="rgb(68,68,68)" stroke="none" font-family="helvetica" font-size="10pt" font-style="normal" font-weight="normal" text-decoration="normal" x="0" y="13" text-anchor="start" dominant-baseline="alphabetic" transform="matrix(1, 0, 0, 1, 32.039703369140625, 168.0287322998047)" fill-opacity="1">10</text><text fill="rgb(68,68,68)" stroke="none" font-family="helvetica" font-size="7pt" font-style="normal" font-weight="normal" text-decoration="normal" x="14.824951171875" y="7" text-anchor="start" dominant-baseline="alphabetic" transform="matrix(1, 0, 0, 1, 32.039703369140625, 168.0287322998047)" fill-opacity="1">−6</text><text fill="rgb(68,68,68)" stroke="none" font-family="helvetica" font-size="10pt" font-style="normal" font-weight="normal" text-decoration="normal" x="0" y="13" text-anchor="start" dominant-baseline="alphabetic" transform="matrix(1, 0, 0, 1, 32.039703369140625, 108.04310607910156)" fill-opacity="1">10</text><text fill="rgb(68,68,68)" stroke="none" font-family="helvetica" font-size="7pt" font-style="normal" font-weight="normal" text-decoration="normal" x="14.824951171875" y="7" text-anchor="start" dominant-baseline="alphabetic" transform="matrix(1, 0, 0, 1, 32.039703369140625, 108.04310607910156)" fill-opacity="1">−5</text><text fill="rgb(68,68,68)" stroke="none" font-family="helvetica" font-size="10pt" font-style="normal" font-weight="normal" text-decoration="normal" x="0" y="13" text-anchor="start" dominant-baseline="alphabetic" transform="matrix(1, 0, 0, 1, 32.039703369140625, 48.05747604370117)" fill-opacity="1">10</text><text fill="rgb(68,68,68)" stroke="none" font-family="helvetica" font-size="7pt" font-style="normal" font-weight="normal" text-decoration="normal" x="14.824951171875" y="7" text-anchor="start" dominant-baseline="alphabetic" transform="matrix(1, 0, 0, 1, 32.039703369140625, 48.05747604370117)" fill-opacity="1">−4</text><text fill="rgb(68,68,68)" stroke="none" font-family="helvetica" font-size="14pt" font-style="italic" font-weight="normal" text-decoration="normal" x="-129.955322265625" y="161" text-anchor="start" dominant-baseline="alphabetic" transform="matrix(6.123233995736766e-17, -1, 1, 6.123233995736766e-17, -140.96029663085938, 189.03970336914062)" fill-opacity="1">per base substitutions per generation</text><text fill="rgb(68,68,68)" stroke="none" font-family="helvetica" font-size="16pt" font-style="normal" font-weight="bold" text-decoration="normal" x="68" y="26" text-anchor="start" dominant-baseline="alphabetic" transform="matrix(1, 0, 0, 1, 0.5, 0.5)" fill-opacity="1">sample: BB-Tv</text></svg>