<svg version="1.1" xmlns="http://www.w3.org/2000/svg" width="650" height="400"><defs><clipPath id="vEisfhUVXgoi"><path fill="none" stroke="none" d="M 68.5 36.5 L 620.5 36.5 L 620.5 294.5 L 68.5 294.5 L 68.5 36.5"/></clipPath><clipPath id="xlvRAWwURPtK"><path fill="none" stroke="none" d="M 68.5 36.5 L 620.5 36.5 L 620.5 294.5 L 68.5 294.5 L 68.5 36.5"/></clipPath><clipPath id="DUrZNiVFnufg"><path fill="none" stroke="none" d="M 68.5 36.5 L 620.5 36.5 L 620.5 294.5 L 68.5 294.5 L 68.5 36.5"/></clipPath><clipPath id="XUNQxiPHfyEh"><path fill="none" stroke="none" d="M 68.5 36.5 L 620.5 36.5 L 620.5 294.5 L 68.5 294.5 L 68.5 36.5"/></clipPath><clipPath id="ZRlZybPuzOVM"><path fill="none" stroke="none" d="M 68.5 36.5 L 620.5 36.5 L 620.5 294.5 L 68.5 294.5 L 68.5 36.5"/></clipPath><clipPath id="fDGUBvTcikun"><path fill="none" stroke="none" d="M 68.5 36.5 L 620.5 36.5 L 620.5 294.5 L 68.5 294.5 L 68.5 36.5"/></clipPath><clipPath id="xszPRdEOWEaA"><path fill="none" stroke="none" d="M 68.5 36.5 L 620.5 36.5 L 620.5 294.5 L 68.5 294.5 L 68.5 36.5"/></clipPath><clipPath id="BJvxLKICONQT"><path fill="none" stroke="none" d="M 68.5 36.5 L 620.5 36.5 L 620.5 294.5 L 68.5 294.5 L 68.5 36.5"/></clipPath><clipPath id="ORRpHRLhsWIX"><path fill="none" stroke="none" d="M 68.5 36.5 L 620.5 36.5 L 620.5 294.5 L 68.5 294.5 L 68.5 36.5"/></clipPath><clipPath id="druvPQSmTkQR"><path fill="none" stroke="none" d="M 68.5 36.5 L 620.5 36.5 L 620.5 294.5 L 68.5 294.5 L 68.5 36.5"/></clipPath><clipPath id="QbRWnDapXyEc"><path fill="none" stroke="none" d="M 68.5 36.5 L 620.5 36.5 L 620.5 294.5 L 68.5 294.5 L 68.5 36.5"/></clipPath><clipPath id="MlnCNiXVzJwD"><path fill="none" stroke="none" d="M 68.5 36.5 L 620.5 36.5 L 620.5 294.5 L 68.5 294.5 L 68.5 36.5"/></clipPath><clipPath id="bKcExvywlEWA"><path fill="none" stroke="none" d="M 68.5 36.5 L 620.5 36.5 L 620.5 294.5 L 68.5 294.5 L 68.5 36.5"/></clipPath><clipPath id="suoBtnuHstIO"><path fill="none" stroke="none" d="M 68.5 36.5 L 620.5 36.5 L 620.5 294.5 L 68.5 294.5 L 68.5 36.5"/></clipPath><clipPath id="wvTxndoPSBgX"><path fill="none" stroke="none" d="M 68.5 36.5 L 620.5 36.5 L 620.5 294.5 L 68.5 294.5 L 68.5 36.5"/></clipPath><clipPath id="sePzTBFNBosJ"><path fill="none" stroke="none" d="M 68.5 36.5 L 620.5 36.5 L 620.5 294.5 L 68.5 294.5 L 68.5 36.5"/></clipPath><clipPath id="iPuBsENFunbW"><path fill="none" stroke="none" d="M 68.5 36.5 L 620.5 36.5 L 620.5 294.5 L 68.5 294.5 L 68.5 36.5"/></clipPath><clipPath id="gwGekLoqXPQW"><path fill="none" stroke="none" d="M 68.5 36.5 L 620.5 36.5 L 620.5 294.5 L 68.5 294.5 L 68.5 36.5"/></clipPath><clipPath id="DgeVRuWpGOkQ"><path fill="none" stroke="none" d="M 68.5 36.5 L 620.5 36.5 L 620.5 294.5 L 68.5 294.5 L 68.5 36.5"/></clipPath><clipPath id="SzGDDNZQyGIz"><path fill="none" stroke="none" d="M 68.5 36.5 L 620.5 36.5 L 620.5 294.5 L 68.5 294.5 L 68.5 36.5"/></clipPath></defs><path fill="rgb(255,255,255)" stroke="none" paint-order="stroke" d="M 0.5 0.5 L 650.5 0.5 L 650.5 400.5 L 0.5 400.5 L 0.5 0.5" fill-opacity="1"/><rect fill="#FFFFFF" stroke="none" x="68" y="36" width="552" height="258" transform="matrix(1, 0, 0, 1, 0.5, 0.5)"/><path fill="rgb(255,255,255)" stroke="none" paint-order="stroke" d="M 68.5 36.5 L 620.5 36.5 L 620.5 294.5 L 68.5 294.5 L 68.5 36.5" fill-opacity="1"/><path fill="none" stroke="rgb(229,229,229)" paint-order="fill" d="M 68.5 36.5 L 620.5 36.5 L 620.5 294.5 L 68.5 294.5 L 68.5 36.5" stroke-opacity="1" stroke-linejoin="bevel" stroke-miterlimit="10" stroke-dasharray=""/><path fill="none" stroke="rgb(211,211,211)" paint-order="fill" d="M 68.5 474.4568942277307 L 620.5 474.4568942277307" stroke-opacity="1" stroke-linejoin="bevel" stroke-miterlimit="10" stroke-width="3" stroke-dasharray="6" clip-path="url(#DUrZNiVFnufg)"/><path fill="none" stroke="rgb(211,211,211)" paint-order="fill" d="M 68.5 414.47126281848705 L 620.5 414.47126281848705" stroke-opacity="1" stroke-linejoin="bevel" stroke-miterlimit="10" stroke-width="3" stroke-dasharray="6" clip-path="url(#XUNQxiPHfyEh)"/><path fill="none" stroke="rgb(211,211,211)" paint-order="fill" d="M 68.5 354.48563140924347 L 620.5 354.48563140924347" stroke-opacity="1" stroke-linejoin="bevel" stroke-miterlimit="10" stroke-width="3" stroke-dasharray="6" clip-path="url(#ZRlZybPuzOVM)"/><path fill="none" stroke="rgb(211,211,211)" paint-order="fill" d="M 68.5 294.5 L 620.5 294.5" stroke-opacity="1" stroke-linejoin="bevel" stroke-miterlimit="10" stroke-width="3" stroke-dasharray="6" clip-path="url(#fDGUBvTcikun)"/><path fill="none" stroke="rgb(211,211,211)" paint-order="fill" d="M 68.5 234.51436859075642 L 620.5 234.51436859075642" stroke-opacity="1" stroke-linejoin="bevel" stroke-miterlimit="10" stroke-width="3" stroke-dasharray="6" clip-path="url(#xszPRdEOWEaA)"/><path fill="none" stroke="rgb(211,211,211)" paint-order="fill" d="M 68.5 174.52873718151284 L 620.5 174.52873718151284" stroke-opacity="1" stroke-linejoin="bevel" stroke-miterlimit="10" stroke-width="3" stroke-dasharray="6" clip-path="url(#BJvxLKICONQT)"/><path fill="none" stroke="rgb(211,211,211)" paint-order="fill" d="M 68.5 114.54310577226929 L 620.5 114.54310577226929" stroke-opacity="1" stroke-linejoin="bevel" stroke-miterlimit="10" stroke-width="3" stroke-dasharray="6" clip-path="url(#ORRpHRLhsWIX)"/><path fill="none" stroke="rgb(211,211,211)" paint-order="fill" d="M 68.5 54.55747436302573 L 620.5 54.55747436302573" stroke-opacity="1" stroke-linejoin="bevel" stroke-miterlimit="10" stroke-width="3" stroke-dasharray="6" clip-path="url(#druvPQSmTkQR)"/><path fill="none" stroke="rgb(211,211,211)" paint-order="fill" d="M 68.5 -5.428157046217848 L 620.5 -5.428157046217848" stroke-opacity="1" stroke-linejoin="bevel" stroke-miterlimit="10" stroke-width="3" stroke-dasharray="6" clip-path="url(#QbRWnDapXyEc)"/><path fill="none" stroke="rgb(211,211,211)" paint-order="fill" d="M 68.5 -65.41378845546143 L 620.5 -65.41378845546143" stroke-opacity="1" stroke-linejoin="bevel" stroke-miterlimit="10" stroke-width="3" stroke-dasharray="6" clip-path="url(#MlnCNiXVzJwD)"/><path fill="rgb(0,0,0)" stroke="rgb(0,0,0)" paint-order="fill" d="M 497.474365234375 41.05807113647461 A 2 2 0 0 1 493.474365234375 41.05807113647461 A 2 2 0 0 1 497.474365234375 41.05807113647461" fill-opacity="1" clip-path="url(#bKcExvywlEWA)" stroke-opacity="1" stroke-linejoin="bevel" stroke-miterlimit="10" stroke-dasharray=""/><path fill="rgb(0,0,0)" stroke="rgb(0,0,0)" paint-order="fill" d="M 440.8589782714844 172.09840393066406 A 2 2 0 0 1 436.8589782714844 172.09840393066406 A 2 2 0 0 1 440.8589782714844 172.09840393066406" fill-opacity="1" clip-path="url(#bKcExvywlEWA)" stroke-opacity="1" stroke-linejoin="bevel" stroke-miterlimit="10" stroke-dasharray=""/><path fill="rgb(0,0,0)" stroke="rgb(0,0,0)" paint-order="fill" d="M 313.474365234375 134.30532836914062 A 2 2 0 0 1 309.474365234375 134.30532836914062 A 2 2 0 0 1 313.474365234375 134.30532836914062" fill-opacity="1" clip-path="url(#bKcExvywlEWA)" stroke-opacity="1" stroke-linejoin="bevel" stroke-miterlimit="10" stroke-dasharray=""/><path fill="rgb(0,0,0)" stroke="rgb(0,0,0)" paint-order="fill" d="M 233.26922607421875 98.38080596923828 A 2 2 0 0 1 229.26922607421875 98.38080596923828 A 2 2 0 0 1 233.26922607421875 98.38080596923828" fill-opacity="1" clip-path="url(#bKcExvywlEWA)" stroke-opacity="1" stroke-linejoin="bevel" stroke-miterlimit="10" stroke-dasharray=""/><path fill="rgb(0,0,0)" stroke="rgb(0,0,0)" paint-order="fill" d="M 610.7051391601562 87.20800018310547 A 2 2 0 0 1 606.7051391601562 87.20800018310547 A 2 2 0 0 1 610.7051391601562 87.20800018310547" fill-opacity="1" clip-path="url(#bKcExvywlEWA)" stroke-opacity="1" stroke-linejoin="bevel" stroke-miterlimit="10" stroke-dasharray=""/><path fill="none" stroke="rgb(0,0,0)" paint-order="fill" d="M 495.474365234375 44.31957244873047 L 495.474365234375 44.31957244873047" stroke-opacity="1" stroke-linejoin="bevel" stroke-miterlimit="10" stroke-dasharray="" clip-path="url(#suoBtnuHstIO)"/><path fill="none" stroke="rgb(0,0,0)" paint-order="fill" d="M 127.47435760498047 136.12091064453125 L 127.47435760498047 141.80654907226562" stroke-opacity="1" stroke-linejoin="bevel" stroke-miterlimit="10" stroke-dasharray="" clip-path="url(#suoBtnuHstIO)"/><path fill="none" stroke="rgb(0,0,0)" paint-order="fill" d="M 103.88461303710938 103.51825714111328 L 103.88461303710938 108.49968719482422" stroke-opacity="1" stroke-linejoin="bevel" stroke-miterlimit="10" stroke-dasharray="" clip-path="url(#suoBtnuHstIO)"/><path fill="none" stroke="rgb(0,0,0)" paint-order="fill" d="M 80.29486846923828 205.7539825439453 L 80.29486846923828 207.76077270507812" stroke-opacity="1" stroke-linejoin="bevel" stroke-miterlimit="10" stroke-dasharray="" clip-path="url(#suoBtnuHstIO)"/><path fill="none" stroke="rgb(0,0,0)" paint-order="fill" d="M 391.6794738769531 122.58699035644531 L 391.6794738769531 123.84854125976562" stroke-opacity="1" stroke-linejoin="bevel" stroke-miterlimit="10" stroke-dasharray="" clip-path="url(#suoBtnuHstIO)"/><path fill="none" stroke="rgb(0,0,0)" paint-order="fill" d="M 438.8589782714844 192.34225463867188 L 438.8589782714844 192.34225463867188" stroke-opacity="1" stroke-linejoin="bevel" stroke-miterlimit="10" stroke-dasharray="" clip-path="url(#suoBtnuHstIO)"/><path fill="none" stroke="rgb(0,0,0)" paint-order="fill" d="M 415.26922607421875 95.07799530029297 L 415.26922607421875 97.78260803222656" stroke-opacity="1" stroke-linejoin="bevel" stroke-miterlimit="10" stroke-dasharray="" clip-path="url(#suoBtnuHstIO)"/><path fill="none" stroke="rgb(0,0,0)" paint-order="fill" d="M 287.8846130371094 61.598670959472656 L 287.8846130371094 64.5815200805664" stroke-opacity="1" stroke-linejoin="bevel" stroke-miterlimit="10" stroke-dasharray="" clip-path="url(#suoBtnuHstIO)"/><path fill="none" stroke="rgb(0,0,0)" paint-order="fill" d="M 335.0641174316406 159.4989471435547 L 335.0641174316406 176.0766143798828" stroke-opacity="1" stroke-linejoin="bevel" stroke-miterlimit="10" stroke-dasharray="" clip-path="url(#suoBtnuHstIO)"/><path fill="none" stroke="rgb(0,0,0)" paint-order="fill" d="M 311.474365234375 147.8721466064453 L 311.474365234375 147.8721466064453" stroke-opacity="1" stroke-linejoin="bevel" stroke-miterlimit="10" stroke-dasharray="" clip-path="url(#suoBtnuHstIO)"/><path fill="none" stroke="rgb(0,0,0)" paint-order="fill" d="M 184.08975219726562 112.8817367553711 L 184.08975219726562 113.1412124633789" stroke-opacity="1" stroke-linejoin="bevel" stroke-miterlimit="10" stroke-dasharray="" clip-path="url(#suoBtnuHstIO)"/><path fill="none" stroke="rgb(0,0,0)" paint-order="fill" d="M 231.26922607421875 78.21158599853516 L 231.26922607421875 82.75686645507812" stroke-opacity="1" stroke-linejoin="bevel" stroke-miterlimit="10" stroke-dasharray="" clip-path="url(#suoBtnuHstIO)"/><path fill="none" stroke="rgb(0,0,0)" paint-order="fill" d="M 207.6794891357422 131.53736877441406 L 207.6794891357422 146.24267578125" stroke-opacity="1" stroke-linejoin="bevel" stroke-miterlimit="10" stroke-dasharray="" clip-path="url(#suoBtnuHstIO)"/><path fill="none" stroke="rgb(0,0,0)" paint-order="fill" d="M 608.7051391601562 80.38843536376953 L 608.7051391601562 82.27240753173828" stroke-opacity="1" stroke-linejoin="bevel" stroke-miterlimit="10" stroke-dasharray="" clip-path="url(#suoBtnuHstIO)"/><path fill="none" stroke="rgb(0,0,0)" paint-order="fill" d="M 552.0897216796875 131.22344970703125 L 552.0897216796875 135.65554809570312" stroke-opacity="1" stroke-linejoin="bevel" stroke-miterlimit="10" stroke-dasharray="" clip-path="url(#suoBtnuHstIO)"/><path fill="none" stroke="rgb(0,0,0)" paint-order="fill" d="M 495.474365234375 47.90320587158203 L 495.474365234375 46.601558685302734" stroke-opacity="1" stroke-linejoin="bevel" stroke-miterlimit="10" stroke-dasharray="" clip-path="url(#wvTxndoPSBgX)"/><path fill="none" stroke="rgb(0,0,0)" paint-order="fill" d="M 127.47435760498047 160.723388671875 L 127.47435760498047 148.4962615966797" stroke-opacity="1" stroke-linejoin="bevel" stroke-miterlimit="10" stroke-dasharray="" clip-path="url(#wvTxndoPSBgX)"/><path fill="none" stroke="rgb(0,0,0)" paint-order="fill" d="M 103.88461303710938 113.65493774414062 L 103.88461303710938 113.12092590332031" stroke-opacity="1" stroke-linejoin="bevel" stroke-miterlimit="10" stroke-dasharray="" clip-path="url(#wvTxndoPSBgX)"/><path fill="none" stroke="rgb(0,0,0)" paint-order="fill" d="M 80.29486846923828 264.2821350097656 L 80.29486846923828 245.06198120117188" stroke-opacity="1" stroke-linejoin="bevel" stroke-miterlimit="10" stroke-dasharray="" clip-path="url(#wvTxndoPSBgX)"/><path fill="none" stroke="rgb(0,0,0)" paint-order="fill" d="M 391.6794738769531 133.11920166015625 L 391.6794738769531 127.48828125" stroke-opacity="1" stroke-linejoin="bevel" stroke-miterlimit="10" stroke-dasharray="" clip-path="url(#wvTxndoPSBgX)"/><path fill="none" stroke="rgb(0,0,0)" paint-order="fill" d="M 438.8589782714844 233.79116821289062 L 438.8589782714844 216.4461669921875" stroke-opacity="1" stroke-linejoin="bevel" stroke-miterlimit="10" stroke-dasharray="" clip-path="url(#wvTxndoPSBgX)"/><path fill="none" stroke="rgb(0,0,0)" paint-order="fill" d="M 415.26922607421875 109.25440979003906 L 415.26922607421875 107.45005798339844" stroke-opacity="1" stroke-linejoin="bevel" stroke-miterlimit="10" stroke-dasharray="" clip-path="url(#wvTxndoPSBgX)"/><path fill="none" stroke="rgb(0,0,0)" paint-order="fill" d="M 287.8846130371094 72.59012603759766 L 287.8846130371094 70.16654205322266" stroke-opacity="1" stroke-linejoin="bevel" stroke-miterlimit="10" stroke-dasharray="" clip-path="url(#wvTxndoPSBgX)"/><path fill="none" stroke="rgb(0,0,0)" paint-order="fill" d="M 335.0641174316406 414.47125244140625 L 335.0641174316406 286.80224609375" stroke-opacity="1" stroke-linejoin="bevel" stroke-miterlimit="10" stroke-dasharray="" clip-path="url(#wvTxndoPSBgX)"/><path fill="none" stroke="rgb(0,0,0)" paint-order="fill" d="M 311.474365234375 188.81004333496094 L 311.474365234375 163.47247314453125" stroke-opacity="1" stroke-linejoin="bevel" stroke-miterlimit="10" stroke-dasharray="" clip-path="url(#wvTxndoPSBgX)"/><path fill="none" stroke="rgb(0,0,0)" paint-order="fill" d="M 184.08975219726562 127.62886047363281 L 184.08975219726562 126.40855407714844" stroke-opacity="1" stroke-linejoin="bevel" stroke-miterlimit="10" stroke-dasharray="" clip-path="url(#wvTxndoPSBgX)"/><path fill="none" stroke="rgb(0,0,0)" paint-order="fill" d="M 231.26922607421875 87.82344818115234 L 231.26922607421875 87.82344818115234" stroke-opacity="1" stroke-linejoin="bevel" stroke-miterlimit="10" stroke-dasharray="" clip-path="url(#wvTxndoPSBgX)"/><path fill="none" stroke="rgb(0,0,0)" paint-order="fill" d="M 207.6794891357422 414.47125244140625 L 207.6794891357422 202.22262573242188" stroke-opacity="1" stroke-linejoin="bevel" stroke-miterlimit="10" stroke-dasharray="" clip-path="url(#wvTxndoPSBgX)"/><path fill="none" stroke="rgb(0,0,0)" paint-order="fill" d="M 608.7051391601562 83.99270629882812 L 608.7051391601562 83.99270629882812" stroke-opacity="1" stroke-linejoin="bevel" stroke-miterlimit="10" stroke-dasharray="" clip-path="url(#wvTxndoPSBgX)"/><path fill="none" stroke="rgb(0,0,0)" paint-order="fill" d="M 552.0897216796875 158.674560546875 L 552.0897216796875 154.81427001953125" stroke-opacity="1" stroke-linejoin="bevel" stroke-miterlimit="10" stroke-dasharray="" clip-path="url(#wvTxndoPSBgX)"/><path fill="none" stroke="rgb(0,0,0)" paint-order="fill" d="M 490.75640869140625 47.90320587158203 L 500.1922912597656 47.90320587158203" stroke-opacity="1" stroke-linejoin="bevel" stroke-miterlimit="10" stroke-dasharray="" clip-path="url(#sePzTBFNBosJ)"/><path fill="none" stroke="rgb(0,0,0)" paint-order="fill" d="M 122.75640869140625 160.723388671875 L 132.1923065185547 160.723388671875" stroke-opacity="1" stroke-linejoin="bevel" stroke-miterlimit="10" stroke-dasharray="" clip-path="url(#sePzTBFNBosJ)"/><path fill="none" stroke="rgb(0,0,0)" paint-order="fill" d="M 99.16666412353516 113.65493774414062 L 108.6025619506836 113.65493774414062" stroke-opacity="1" stroke-linejoin="bevel" stroke-miterlimit="10" stroke-dasharray="" clip-path="url(#sePzTBFNBosJ)"/><path fill="none" stroke="rgb(0,0,0)" paint-order="fill" d="M 75.57691955566406 264.2821350097656 L 85.0128173828125 264.2821350097656" stroke-opacity="1" stroke-linejoin="bevel" stroke-miterlimit="10" stroke-dasharray="" clip-path="url(#sePzTBFNBosJ)"/><path fill="none" stroke="rgb(0,0,0)" paint-order="fill" d="M 386.9615478515625 133.11920166015625 L 396.3974304199219 133.11920166015625" stroke-opacity="1" stroke-linejoin="bevel" stroke-miterlimit="10" stroke-dasharray="" clip-path="url(#sePzTBFNBosJ)"/><path fill="none" stroke="rgb(0,0,0)" paint-order="fill" d="M 434.1410217285156 233.79116821289062 L 443.576904296875 233.79116821289062" stroke-opacity="1" stroke-linejoin="bevel" stroke-miterlimit="10" stroke-dasharray="" clip-path="url(#sePzTBFNBosJ)"/><path fill="none" stroke="rgb(0,0,0)" paint-order="fill" d="M 410.55126953125 109.25440979003906 L 419.9871826171875 109.25440979003906" stroke-opacity="1" stroke-linejoin="bevel" stroke-miterlimit="10" stroke-dasharray="" clip-path="url(#sePzTBFNBosJ)"/><path fill="none" stroke="rgb(0,0,0)" paint-order="fill" d="M 283.16668701171875 72.59012603759766 L 292.6025695800781 72.59012603759766" stroke-opacity="1" stroke-linejoin="bevel" stroke-miterlimit="10" stroke-dasharray="" clip-path="url(#sePzTBFNBosJ)"/><path fill="none" stroke="rgb(0,0,0)" paint-order="fill" d="M 330.3461608886719 414.47125244140625 L 339.78204345703125 414.47125244140625" stroke-opacity="1" stroke-linejoin="bevel" stroke-miterlimit="10" stroke-dasharray="" clip-path="url(#sePzTBFNBosJ)"/><path fill="none" stroke="rgb(0,0,0)" paint-order="fill" d="M 306.75640869140625 188.81004333496094 L 316.19232177734375 188.81004333496094" stroke-opacity="1" stroke-linejoin="bevel" stroke-miterlimit="10" stroke-dasharray="" clip-path="url(#sePzTBFNBosJ)"/><path fill="none" stroke="rgb(0,0,0)" paint-order="fill" d="M 179.37179565429688 127.62886047363281 L 188.8076934814453 127.62886047363281" stroke-opacity="1" stroke-linejoin="bevel" stroke-miterlimit="10" stroke-dasharray="" clip-path="url(#sePzTBFNBosJ)"/><path fill="none" stroke="rgb(0,0,0)" paint-order="fill" d="M 226.55128479003906 87.82344818115234 L 235.9871826171875 87.82344818115234" stroke-opacity="1" stroke-linejoin="bevel" stroke-miterlimit="10" stroke-dasharray="" clip-path="url(#sePzTBFNBosJ)"/><path fill="none" stroke="rgb(0,0,0)" paint-order="fill" d="M 202.96153259277344 414.47125244140625 L 212.39743041992188 414.47125244140625" stroke-opacity="1" stroke-linejoin="bevel" stroke-miterlimit="10" stroke-dasharray="" clip-path="url(#sePzTBFNBosJ)"/><path fill="none" stroke="rgb(0,0,0)" paint-order="fill" d="M 603.9871826171875 83.99270629882812 L 613.423095703125 83.99270629882812" stroke-opacity="1" stroke-linejoin="bevel" stroke-miterlimit="10" stroke-dasharray="" clip-path="url(#sePzTBFNBosJ)"/><path fill="none" stroke="rgb(0,0,0)" paint-order="fill" d="M 547.3717651367188 158.674560546875 L 556.8077392578125 158.674560546875" stroke-opacity="1" stroke-linejoin="bevel" stroke-miterlimit="10" stroke-dasharray="" clip-path="url(#sePzTBFNBosJ)"/><path fill="none" stroke="rgb(0,0,0)" paint-order="fill" d="M 490.75640869140625 44.31957244873047 L 500.1922912597656 44.31957244873047" stroke-opacity="1" stroke-linejoin="bevel" stroke-miterlimit="10" stroke-dasharray="" clip-path="url(#iPuBsENFunbW)"/><path fill="none" stroke="rgb(0,0,0)" paint-order="fill" d="M 122.75640869140625 136.12091064453125 L 132.1923065185547 136.12091064453125" stroke-opacity="1" stroke-linejoin="bevel" stroke-miterlimit="10" stroke-dasharray="" clip-path="url(#iPuBsENFunbW)"/><path fill="none" stroke="rgb(0,0,0)" paint-order="fill" d="M 99.16666412353516 103.51825714111328 L 108.6025619506836 103.51825714111328" stroke-opacity="1" stroke-linejoin="bevel" stroke-miterlimit="10" stroke-dasharray="" clip-path="url(#iPuBsENFunbW)"/><path fill="none" stroke="rgb(0,0,0)" paint-order="fill" d="M 75.57691955566406 205.7539825439453 L 85.0128173828125 205.7539825439453" stroke-opacity="1" stroke-linejoin="bevel" stroke-miterlimit="10" stroke-dasharray="" clip-path="url(#iPuBsENFunbW)"/><path fill="none" stroke="rgb(0,0,0)" paint-order="fill" d="M 386.9615478515625 122.58699035644531 L 396.3974304199219 122.58699035644531" stroke-opacity="1" stroke-linejoin="bevel" stroke-miterlimit="10" stroke-dasharray="" clip-path="url(#iPuBsENFunbW)"/><path fill="none" stroke="rgb(0,0,0)" paint-order="fill" d="M 434.1410217285156 192.34225463867188 L 443.576904296875 192.34225463867188" stroke-opacity="1" stroke-linejoin="bevel" stroke-miterlimit="10" stroke-dasharray="" clip-path="url(#iPuBsENFunbW)"/><path fill="none" stroke="rgb(0,0,0)" paint-order="fill" d="M 410.55126953125 95.07799530029297 L 419.9871826171875 95.07799530029297" stroke-opacity="1" stroke-linejoin="bevel" stroke-miterlimit="10" stroke-dasharray="" clip-path="url(#iPuBsENFunbW)"/><path fill="none" stroke="rgb(0,0,0)" paint-order="fill" d="M 283.16668701171875 61.598670959472656 L 292.6025695800781 61.598670959472656" stroke-opacity="1" stroke-linejoin="bevel" stroke-miterlimit="10" stroke-dasharray="" clip-path="url(#iPuBsENFunbW)"/><path fill="none" stroke="rgb(0,0,0)" paint-order="fill" d="M 330.3461608886719 159.4989471435547 L 339.78204345703125 159.4989471435547" stroke-opacity="1" stroke-linejoin="bevel" stroke-miterlimit="10" stroke-dasharray="" clip-path="url(#iPuBsENFunbW)"/><path fill="none" stroke="rgb(0,0,0)" paint-order="fill" d="M 306.75640869140625 147.8721466064453 L 316.19232177734375 147.8721466064453" stroke-opacity="1" stroke-linejoin="bevel" stroke-miterlimit="10" stroke-dasharray="" clip-path="url(#iPuBsENFunbW)"/><path fill="none" stroke="rgb(0,0,0)" paint-order="fill" d="M 179.37179565429688 112.8817367553711 L 188.8076934814453 112.8817367553711" stroke-opacity="1" stroke-linejoin="bevel" stroke-miterlimit="10" stroke-dasharray="" clip-path="url(#iPuBsENFunbW)"/><path fill="none" stroke="rgb(0,0,0)" paint-order="fill" d="M 226.55128479003906 78.21158599853516 L 235.9871826171875 78.21158599853516" stroke-opacity="1" stroke-linejoin="bevel" stroke-miterlimit="10" stroke-dasharray="" clip-path="url(#iPuBsENFunbW)"/><path fill="none" stroke="rgb(0,0,0)" paint-order="fill" d="M 202.96153259277344 131.53736877441406 L 212.39743041992188 131.53736877441406" stroke-opacity="1" stroke-linejoin="bevel" stroke-miterlimit="10" stroke-dasharray="" clip-path="url(#iPuBsENFunbW)"/><path fill="none" stroke="rgb(0,0,0)" paint-order="fill" d="M 603.9871826171875 80.38843536376953 L 613.423095703125 80.38843536376953" stroke-opacity="1" stroke-linejoin="bevel" stroke-miterlimit="10" stroke-dasharray="" clip-path="url(#iPuBsENFunbW)"/><path fill="none" stroke="rgb(0,0,0)" paint-order="fill" d="M 547.3717651367188 131.22344970703125 L 556.8077392578125 131.22344970703125" stroke-opacity="1" stroke-linejoin="bevel" stroke-miterlimit="10" stroke-dasharray="" clip-path="url(#iPuBsENFunbW)"/><path fill="rgb(128,128,128)" stroke="rgb(0,0,0)" paint-order="fill" d="M 487.21795654296875 45.840797424316406 L 503.73077392578125 45.840797424316406 L 503.73077392578125 44.31957244873047 L 487.21795654296875 44.31957244873047 L 487.21795654296875 45.840797424316406" fill-opacity="1" clip-path="url(#gwGekLoqXPQW)" stroke-opacity="1" stroke-linejoin="bevel" stroke-miterlimit="10" stroke-dasharray=""/><path fill="rgb(128,128,128)" stroke="rgb(0,0,0)" paint-order="fill" d="M 119.21794891357422 144.7136688232422 L 135.73077392578125 144.7136688232422 L 135.73077392578125 141.80654907226562 L 119.21794891357422 141.80654907226562 L 119.21794891357422 144.7136688232422" fill-opacity="1" clip-path="url(#gwGekLoqXPQW)" stroke-opacity="1" stroke-linejoin="bevel" stroke-miterlimit="10" stroke-dasharray=""/><path fill="rgb(128,128,128)" stroke="rgb(0,0,0)" paint-order="fill" d="M 95.62820434570312 111.64000701904297 L 112.14102172851562 111.64000701904297 L 112.14102172851562 108.49968719482422 L 95.62820434570312 108.49968719482422 L 95.62820434570312 111.64000701904297" fill-opacity="1" clip-path="url(#gwGekLoqXPQW)" stroke-opacity="1" stroke-linejoin="bevel" stroke-miterlimit="10" stroke-dasharray=""/><path fill="rgb(128,128,128)" stroke="rgb(0,0,0)" paint-order="fill" d="M 72.03845977783203 219.92742919921875 L 88.55127716064453 219.92742919921875 L 88.55127716064453 207.76077270507812 L 72.03845977783203 207.76077270507812 L 72.03845977783203 219.92742919921875" fill-opacity="1" clip-path="url(#gwGekLoqXPQW)" stroke-opacity="1" stroke-linejoin="bevel" stroke-miterlimit="10" stroke-dasharray=""/><path fill="rgb(128,128,128)" stroke="rgb(0,0,0)" paint-order="fill" d="M 383.4230651855469 125.05604553222656 L 399.9358825683594 125.05604553222656 L 399.9358825683594 123.84854125976562 L 383.4230651855469 123.84854125976562 L 383.4230651855469 125.05604553222656" fill-opacity="1" clip-path="url(#gwGekLoqXPQW)" stroke-opacity="1" stroke-linejoin="bevel" stroke-miterlimit="10" stroke-dasharray=""/><path fill="rgb(128,128,128)" stroke="rgb(0,0,0)" paint-order="fill" d="M 430.6025695800781 208.6620330810547 L 447.1153869628906 208.6620330810547 L 447.1153869628906 192.34225463867188 L 430.6025695800781 192.34225463867188 L 430.6025695800781 208.6620330810547" fill-opacity="1" clip-path="url(#gwGekLoqXPQW)" stroke-opacity="1" stroke-linejoin="bevel" stroke-miterlimit="10" stroke-dasharray=""/><path fill="rgb(128,128,128)" stroke="rgb(0,0,0)" paint-order="fill" d="M 407.0128173828125 102.49737548828125 L 423.525634765625 102.49737548828125 L 423.525634765625 97.78260803222656 L 407.0128173828125 97.78260803222656 L 407.0128173828125 102.49737548828125" fill-opacity="1" clip-path="url(#gwGekLoqXPQW)" stroke-opacity="1" stroke-linejoin="bevel" stroke-miterlimit="10" stroke-dasharray=""/><path fill="rgb(128,128,128)" stroke="rgb(0,0,0)" paint-order="fill" d="M 279.6282043457031 67.46419525146484 L 296.1410217285156 67.46419525146484 L 296.1410217285156 64.5815200805664 L 279.6282043457031 64.5815200805664 L 279.6282043457031 67.46419525146484" fill-opacity="1" clip-path="url(#gwGekLoqXPQW)" stroke-opacity="1" stroke-linejoin="bevel" stroke-miterlimit="10" stroke-dasharray=""/><path fill="rgb(128,128,128)" stroke="rgb(0,0,0)" paint-order="fill" d="M 326.8077087402344 202.60328674316406 L 343.3205261230469 202.60328674316406 L 343.3205261230469 176.0766143798828 L 326.8077087402344 176.0766143798828 L 326.8077087402344 202.60328674316406" fill-opacity="1" clip-path="url(#gwGekLoqXPQW)" stroke-opacity="1" stroke-linejoin="bevel" stroke-miterlimit="10" stroke-dasharray=""/><path fill="rgb(128,128,128)" stroke="rgb(0,0,0)" paint-order="fill" d="M 303.21795654296875 156.5101776123047 L 319.73077392578125 156.5101776123047 L 319.73077392578125 147.8721466064453 L 303.21795654296875 147.8721466064453 L 303.21795654296875 156.5101776123047" fill-opacity="1" clip-path="url(#gwGekLoqXPQW)" stroke-opacity="1" stroke-linejoin="bevel" stroke-miterlimit="10" stroke-dasharray=""/><path fill="rgb(128,128,128)" stroke="rgb(0,0,0)" paint-order="fill" d="M 175.83334350585938 118.84456634521484 L 192.34616088867188 118.84456634521484 L 192.34616088867188 113.1412124633789 L 175.83334350585938 113.1412124633789 L 175.83334350585938 118.84456634521484" fill-opacity="1" clip-path="url(#gwGekLoqXPQW)" stroke-opacity="1" stroke-linejoin="bevel" stroke-miterlimit="10" stroke-dasharray=""/><path fill="rgb(128,128,128)" stroke="rgb(0,0,0)" paint-order="fill" d="M 223.0128173828125 84.77163696289062 L 239.525634765625 84.77163696289062 L 239.525634765625 82.75686645507812 L 223.0128173828125 82.75686645507812 L 223.0128173828125 84.77163696289062" fill-opacity="1" clip-path="url(#gwGekLoqXPQW)" stroke-opacity="1" stroke-linejoin="bevel" stroke-miterlimit="10" stroke-dasharray=""/><path fill="rgb(128,128,128)" stroke="rgb(0,0,0)" paint-order="fill" d="M 199.42308044433594 166.968505859375 L 215.93589782714844 166.968505859375 L 215.93589782714844 146.24267578125 L 199.42308044433594 146.24267578125 L 199.42308044433594 166.968505859375" fill-opacity="1" clip-path="url(#gwGekLoqXPQW)" stroke-opacity="1" stroke-linejoin="bevel" stroke-miterlimit="10" stroke-dasharray=""/><path fill="rgb(128,128,128)" stroke="rgb(0,0,0)" paint-order="fill" d="M 600.44873046875 82.96768188476562 L 616.9615478515625 82.96768188476562 L 616.9615478515625 82.27240753173828 L 600.44873046875 82.27240753173828 L 600.44873046875 82.96768188476562" fill-opacity="1" clip-path="url(#gwGekLoqXPQW)" stroke-opacity="1" stroke-linejoin="bevel" stroke-miterlimit="10" stroke-dasharray=""/><path fill="rgb(128,128,128)" stroke="rgb(0,0,0)" paint-order="fill" d="M 543.8333129882812 144.22279357910156 L 560.3461303710938 144.22279357910156 L 560.3461303710938 135.65554809570312 L 543.8333129882812 135.65554809570312 L 543.8333129882812 144.22279357910156" fill-opacity="1" clip-path="url(#gwGekLoqXPQW)" stroke-opacity="1" stroke-linejoin="bevel" stroke-miterlimit="10" stroke-dasharray=""/><path fill="rgb(128,128,128)" stroke="rgb(0,0,0)" paint-order="fill" d="M 487.21795654296875 46.601558685302734 L 503.73077392578125 46.601558685302734 L 503.73077392578125 45.840797424316406 L 487.21795654296875 45.840797424316406 L 487.21795654296875 46.601558685302734" fill-opacity="1" clip-path="url(#DgeVRuWpGOkQ)" stroke-opacity="1" stroke-linejoin="bevel" stroke-miterlimit="10" stroke-dasharray=""/><path fill="rgb(128,128,128)" stroke="rgb(0,0,0)" paint-order="fill" d="M 119.21794891357422 148.4962615966797 L 135.73077392578125 148.4962615966797 L 135.73077392578125 144.7136688232422 L 119.21794891357422 144.7136688232422 L 119.21794891357422 148.4962615966797" fill-opacity="1" clip-path="url(#DgeVRuWpGOkQ)" stroke-opacity="1" stroke-linejoin="bevel" stroke-miterlimit="10" stroke-dasharray=""/><path fill="rgb(128,128,128)" stroke="rgb(0,0,0)" paint-order="fill" d="M 95.62820434570312 113.12092590332031 L 112.14102172851562 113.12092590332031 L 112.14102172851562 111.64000701904297 L 95.62820434570312 111.64000701904297 L 95.62820434570312 113.12092590332031" fill-opacity="1" clip-path="url(#DgeVRuWpGOkQ)" stroke-opacity="1" stroke-linejoin="bevel" stroke-miterlimit="10" stroke-dasharray=""/><path fill="rgb(128,128,128)" stroke="rgb(0,0,0)" paint-order="fill" d="M 72.03845977783203 245.06198120117188 L 88.55127716064453 245.06198120117188 L 88.55127716064453 219.92742919921875 L 72.03845977783203 219.92742919921875 L 72.03845977783203 245.06198120117188" fill-opacity="1" clip-path="url(#DgeVRuWpGOkQ)" stroke-opacity="1" stroke-linejoin="bevel" stroke-miterlimit="10" stroke-dasharray=""/><path fill="rgb(128,128,128)" stroke="rgb(0,0,0)" paint-order="fill" d="M 383.4230651855469 127.48828125 L 399.9358825683594 127.48828125 L 399.9358825683594 125.05604553222656 L 383.4230651855469 125.05604553222656 L 383.4230651855469 127.48828125" fill-opacity="1" clip-path="url(#DgeVRuWpGOkQ)" stroke-opacity="1" stroke-linejoin="bevel" stroke-miterlimit="10" stroke-dasharray=""/><path fill="rgb(128,128,128)" stroke="rgb(0,0,0)" paint-order="fill" d="M 430.6025695800781 216.4461669921875 L 447.1153869628906 216.4461669921875 L 447.1153869628906 208.6620330810547 L 430.6025695800781 208.6620330810547 L 430.6025695800781 216.4461669921875" fill-opacity="1" clip-path="url(#DgeVRuWpGOkQ)" stroke-opacity="1" stroke-linejoin="bevel" stroke-miterlimit="10" stroke-dasharray=""/><path fill="rgb(128,128,128)" stroke="rgb(0,0,0)" paint-order="fill" d="M 407.0128173828125 107.45005798339844 L 423.525634765625 107.45005798339844 L 423.525634765625 102.49737548828125 L 407.0128173828125 102.49737548828125 L 407.0128173828125 107.45005798339844" fill-opacity="1" clip-path="url(#DgeVRuWpGOkQ)" stroke-opacity="1" stroke-linejoin="bevel" stroke-miterlimit="10" stroke-dasharray=""/><path fill="rgb(128,128,128)" stroke="rgb(0,0,0)" paint-order="fill" d="M 279.6282043457031 70.16654205322266 L 296.1410217285156 70.16654205322266 L 296.1410217285156 67.46419525146484 L 279.6282043457031 67.46419525146484 L 279.6282043457031 70.16654205322266" fill-opacity="1" clip-path="url(#DgeVRuWpGOkQ)" stroke-opacity="1" stroke-linejoin="bevel" stroke-miterlimit="10" stroke-dasharray=""/><path fill="rgb(128,128,128)" stroke="rgb(0,0,0)" paint-order="fill" d="M 326.8077087402344 286.80224609375 L 343.3205261230469 286.80224609375 L 343.3205261230469 202.60328674316406 L 326.8077087402344 202.60328674316406 L 326.8077087402344 286.80224609375" fill-opacity="1" clip-path="url(#DgeVRuWpGOkQ)" stroke-opacity="1" stroke-linejoin="bevel" stroke-miterlimit="10" stroke-dasharray=""/><path fill="rgb(128,128,128)" stroke="rgb(0,0,0)" paint-order="fill" d="M 303.21795654296875 163.47247314453125 L 319.73077392578125 163.47247314453125 L 319.73077392578125 156.5101776123047 L 303.21795654296875 156.5101776123047 L 303.21795654296875 163.47247314453125" fill-opacity="1" clip-path="url(#DgeVRuWpGOkQ)" stroke-opacity="1" stroke-linejoin="bevel" stroke-miterlimit="10" stroke-dasharray=""/><path fill="rgb(128,128,128)" stroke="rgb(0,0,0)" paint-order="fill" d="M 175.83334350585938 126.40855407714844 L 192.34616088867188 126.40855407714844 L 192.34616088867188 118.84456634521484 L 175.83334350585938 118.84456634521484 L 175.83334350585938 126.40855407714844" fill-opacity="1" clip-path="url(#DgeVRuWpGOkQ)" stroke-opacity="1" stroke-linejoin="bevel" stroke-miterlimit="10" stroke-dasharray=""/><path fill="rgb(128,128,128)" stroke="rgb(0,0,0)" paint-order="fill" d="M 223.0128173828125 87.82344818115234 L 239.525634765625 87.82344818115234 L 239.525634765625 84.77163696289062 L 223.0128173828125 84.77163696289062 L 223.0128173828125 87.82344818115234" fill-opacity="1" clip-path="url(#DgeVRuWpGOkQ)" stroke-opacity="1" stroke-linejoin="bevel" stroke-miterlimit="10" stroke-dasharray=""/><path fill="rgb(128,128,128)" stroke="rgb(0,0,0)" paint-order="fill" d="M 199.42308044433594 202.22262573242188 L 215.93589782714844 202.22262573242188 L 215.93589782714844 166.968505859375 L 199.42308044433594 166.968505859375 L 199.42308044433594 202.22262573242188" fill-opacity="1" clip-path="url(#DgeVRuWpGOkQ)" stroke-opacity="1" stroke-linejoin="bevel" stroke-miterlimit="10" stroke-dasharray=""/><path fill="rgb(128,128,128)" stroke="rgb(0,0,0)" paint-order="fill" d="M 600.44873046875 83.99270629882812 L 616.9615478515625 83.99270629882812 L 616.9615478515625 82.96768188476562 L 600.44873046875 82.96768188476562 L 600.44873046875 83.99270629882812" fill-opacity="1" clip-path="url(#DgeVRuWpGOkQ)" stroke-opacity="1" stroke-linejoin="bevel" stroke-miterlimit="10" stroke-dasharray=""/><path fill="rgb(128,128,128)" stroke="rgb(0,0,0)" paint-order="fill" d="M 543.8333129882812 154.81427001953125 L 560.3461303710938 154.81427001953125 L 560.3461303710938 144.22279357910156 L 543.8333129882812 144.22279357910156 L 543.8333129882812 154.81427001953125" fill-opacity="1" clip-path="url(#DgeVRuWpGOkQ)" stroke-opacity="1" stroke-linejoin="bevel" stroke-miterlimit="10" stroke-dasharray=""/><path fill="none" stroke="rgb(0,0,0)" paint-order="fill" d="M 68.5 294.5 L 620.5 294.5" stroke-opacity="1" stroke-linejoin="bevel" stroke-miterlimit="10" stroke-dasharray=""/><path fill="none" stroke="rgb(0,0,0)" paint-order="fill" d="M 80.5 300.5 L 80.5 292.5 M 103.5 300.5 L 103.5 292.5 M 127.5 300.5 L 127.5 292.5 M 184.5 300.5 L 184.5 292.5 M 207.5 300.5 L 207.5 292.5 M 231.5 300.5 L 231.5 292.5 M 287.5 300.5 L 287.5 292.5 M 311.5 300.5 L 311.5 292.5 M 335.5 300.5 L 335.5 292.5 M 391.5 300.5 L 391.5 292.5 M 415.5 300.5 L 415.5 292.5 M 438.5 300.5 L 438.5 292.5 M 495.5 300.5 L 495.5 292.5 M 552.5 300.5 L 552.5 292.5 M 608.5 300.5 L 608.5 292.5" stroke-opacity="1" stroke-linejoin="bevel" stroke-miterlimit="10" stroke-dasharray=""/><path fill="none" stroke="rgb(0,0,0)" paint-order="fill" d="" stroke-opacity="1" stroke-linejoin="bevel" stroke-miterlimit="10" stroke-dasharray=""/><text fill="rgb(68,68,68)" stroke="none" font-family="helvetica" font-size="10pt" font-style="normal" font-weight="normal" text-decoration="normal" x="74.98229217529297" y="317" text-anchor="start" dominant-baseline="alphabetic" transform="matrix(1, 0, 0, 1, 0.5, 0.5)" fill-opacity="1">C</text><text fill="rgb(68,68,68)" stroke="none" font-family="helvetica" font-size="10pt" font-style="normal" font-weight="normal" text-decoration="normal" x="98.20108795166016" y="317" text-anchor="start" dominant-baseline="alphabetic" transform="matrix(1, 0, 0, 1, 0.5, 0.5)" fill-opacity="1">G</text><text fill="rgb(68,68,68)" stroke="none" font-family="helvetica" font-size="10pt" font-style="normal" font-weight="normal" text-decoration="normal" x="122.90367889404297" y="317" text-anchor="start" dominant-baseline="alphabetic" transform="matrix(1, 0, 0, 1, 0.5, 0.5)" fill-opacity="1">T</text><text fill="rgb(68,68,68)" stroke="none" font-family="helvetica" font-size="10pt" font-style="normal" font-weight="normal" text-decoration="normal" x="179.14485931396484" y="317" text-anchor="start" dominant-baseline="alphabetic" transform="matrix(1, 0, 0, 1, 0.5, 0.5)" fill-opacity="1">A</text><text fill="rgb(68,68,68)" stroke="none" font-family="helvetica" font-size="10pt" font-style="normal" font-weight="normal" text-decoration="normal" x="201.99596405029297" y="317" text-anchor="start" dominant-baseline="alphabetic" transform="matrix(1, 0, 0, 1, 0.5, 0.5)" fill-opacity="1">G</text><text fill="rgb(68,68,68)" stroke="none" font-family="helvetica" font-size="10pt" font-style="normal" font-weight="normal" text-decoration="normal" x="226.69854736328125" y="317" text-anchor="start" dominant-baseline="alphabetic" transform="matrix(1, 0, 0, 1, 0.5, 0.5)" fill-opacity="1">T</text><text fill="rgb(68,68,68)" stroke="none" font-family="helvetica" font-size="10pt" font-style="normal" font-weight="normal" text-decoration="normal" x="282.93973541259766" y="317" text-anchor="start" dominant-baseline="alphabetic" transform="matrix(1, 0, 0, 1, 0.5, 0.5)" fill-opacity="1">A</text><text fill="rgb(68,68,68)" stroke="none" font-family="helvetica" font-size="10pt" font-style="normal" font-weight="normal" text-decoration="normal" x="306.1617889404297" y="317" text-anchor="start" dominant-baseline="alphabetic" transform="matrix(1, 0, 0, 1, 0.5, 0.5)" fill-opacity="1">C</text><text fill="rgb(68,68,68)" stroke="none" font-family="helvetica" font-size="10pt" font-style="normal" font-weight="normal" text-decoration="normal" x="330.4934387207031" y="317" text-anchor="start" dominant-baseline="alphabetic" transform="matrix(1, 0, 0, 1, 0.5, 0.5)" fill-opacity="1">T</text><text fill="rgb(68,68,68)" stroke="none" font-family="helvetica" font-size="10pt" font-style="normal" font-weight="normal" text-decoration="normal" x="386.7345962524414" y="317" text-anchor="start" dominant-baseline="alphabetic" transform="matrix(1, 0, 0, 1, 0.5, 0.5)" fill-opacity="1">A</text><text fill="rgb(68,68,68)" stroke="none" font-family="helvetica" font-size="10pt" font-style="normal" font-weight="normal" text-decoration="normal" x="409.95664978027344" y="317" text-anchor="start" dominant-baseline="alphabetic" transform="matrix(1, 0, 0, 1, 0.5, 0.5)" fill-opacity="1">C</text><text fill="rgb(68,68,68)" stroke="none" font-family="helvetica" font-size="10pt" font-style="normal" font-weight="normal" text-decoration="normal" x="433.17545318603516" y="317" text-anchor="start" dominant-baseline="alphabetic" transform="matrix(1, 0, 0, 1, 0.5, 0.5)" fill-opacity="1">G</text><text fill="rgb(68,68,68)" stroke="none" font-family="helvetica" font-size="10pt" font-style="normal" font-weight="normal" text-decoration="normal" x="488.3070373535156" y="317" text-anchor="start" dominant-baseline="alphabetic" transform="matrix(1, 0, 0, 1, 0.5, 0.5)" fill-opacity="1">all</text><text fill="rgb(68,68,68)" stroke="none" font-family="helvetica" font-size="10pt" font-style="normal" font-weight="normal" text-decoration="normal" x="542.6967010498047" y="317" text-anchor="start" dominant-baseline="alphabetic" transform="matrix(1, 0, 0, 1, 0.5, 0.5)" fill-opacity="1">del</text><text fill="rgb(68,68,68)" stroke="none" font-family="helvetica" font-size="10pt" font-style="normal" font-weight="normal" text-decoration="normal" x="599.6863250732422" y="317" text-anchor="start" dominant-baseline="alphabetic" transform="matrix(1, 0, 0, 1, 0.5, 0.5)" fill-opacity="1">ins</text><text fill="rgb(128,128,128)" stroke="none" font-family="helvetica" font-size="10pt" font-style="normal" font-weight="bold" text-decoration="normal" x="98.57203674316406" y="340" text-anchor="start" dominant-baseline="alphabetic" transform="matrix(1, 0, 0, 1, 0.5, 0.5)" fill-opacity="1">A</text><text fill="rgb(128,128,128)" stroke="none" font-family="helvetica" font-size="10pt" font-style="normal" font-weight="bold" text-decoration="normal" x="202.36691284179688" y="340" text-anchor="start" dominant-baseline="alphabetic" transform="matrix(1, 0, 0, 1, 0.5, 0.5)" fill-opacity="1">C</text><text fill="rgb(128,128,128)" stroke="none" font-family="helvetica" font-size="10pt" font-style="normal" font-weight="bold" text-decoration="normal" x="305.7908401489258" y="340" text-anchor="start" dominant-baseline="alphabetic" transform="matrix(1, 0, 0, 1, 0.5, 0.5)" fill-opacity="1">G</text><text fill="rgb(128,128,128)" stroke="none" font-family="helvetica" font-size="10pt" font-style="normal" font-weight="bold" text-decoration="normal" x="410.69854736328125" y="340" text-anchor="start" dominant-baseline="alphabetic" transform="matrix(1, 0, 0, 1, 0.5, 0.5)" fill-opacity="1">T</text><text fill="rgb(128,128,128)" stroke="none" font-family="helvetica" font-size="10pt" font-style="normal" font-weight="bold" text-decoration="normal" x="487.5651397705078" y="340" text-anchor="start" dominant-baseline="alphabetic" transform="matrix(1, 0, 0, 1, 0.5, 0.5)" fill-opacity="1">all</text><text fill="rgb(128,128,128)" stroke="none" font-family="helvetica" font-size="10pt" font-style="normal" font-weight="bold" text-decoration="normal" x="541.961311340332" y="340" text-anchor="start" dominant-baseline="alphabetic" transform="matrix(1, 0, 0, 1, 0.5, 0.5)" fill-opacity="1">del</text><text fill="rgb(128,128,128)" stroke="none" font-family="helvetica" font-size="10pt" font-style="normal" font-weight="bold" text-decoration="normal" x="598.5767288208008" y="340" text-anchor="start" dominant-baseline="alphabetic" transform="matrix(1, 0, 0, 1, 0.5, 0.5)" fill-opacity="1">ins</text><text fill="rgb(68,68,68)" stroke="none" font-family="helvetica" font-size="14pt" font-style="italic" font-weight="normal" text-decoration="normal" x="263.10311126708984" y="368" text-anchor="start" dominant-baseline="alphabetic" transform="matrix(1, 0, 0, 1, 0.5, 0.5)" fill-opacity="1">mutation nucleotide</text><text fill="rgb(68,68,68)" stroke="none" font-family="helvetica" font-size="14pt" font-style="italic" font-weight="normal" text-decoration="normal" x="262.5884246826172" y="393.2" text-anchor="start" dominant-baseline="alphabetic" transform="matrix(1, 0, 0, 1, 0.5, 0.5)" fill-opacity="1">wild type nucleotide</text><path fill="none" stroke="rgb(211,211,211)" paint-order="fill" d="M 155.5 334.5 L 155.5 297.5 M 259.5 334.5 L 259.5 297.5 M 363.5 334.5 L 363.5 297.5 M 467.5 334.5 L 467.5 297.5 M 523.5 334.5 L 523.5 297.5 M 580.5 334.5 L 580.5 297.5" stroke-opacity="1" stroke-linejoin="bevel" stroke-miterlimit="10" stroke-width="2" stroke-dasharray=""/><path fill="none" stroke="rgb(0,0,0)" paint-order="fill" d="M 68.5 294.5 L 68.5 36.5" stroke-opacity="1" stroke-linejoin="bevel" stroke-miterlimit="10" stroke-dasharray=""/><path fill="none" stroke="rgb(0,0,0)" paint-order="fill" d="M 62.5 294.5 L 70.5 294.5 M 62.5 234.5 L 70.5 234.5 M 62.5 174.5 L 70.5 174.5 M 62.5 114.5 L 70.5 114.5 M 62.5 54.5 L 70.5 54.5" stroke-opacity="1" stroke-linejoin="bevel" stroke-miterlimit="10" stroke-dasharray=""/><path fill="none" stroke="rgb(0,0,0)" paint-order="fill" d="M 64.5 294.5 L 68.5 294.5 M 64.5 294.5 L 68.5 294.5 M 64.5 294.5 L 68.5 294.5 M 64.5 276.5 L 68.5 276.5 M 64.5 265.5 L 68.5 265.5 M 64.5 258.5 L 68.5 258.5 M 64.5 252.5 L 68.5 252.5 M 64.5 247.5 L 68.5 247.5 M 64.5 243.5 L 68.5 243.5 M 64.5 240.5 L 68.5 240.5 M 64.5 237.5 L 68.5 237.5 M 64.5 234.5 L 68.5 234.5 M 64.5 234.5 L 68.5 234.5 M 64.5 216.5 L 68.5 216.5 M 64.5 205.5 L 68.5 205.5 M 64.5 198.5 L 68.5 198.5 M 64.5 192.5 L 68.5 192.5 M 64.5 187.5 L 68.5 187.5 M 64.5 183.5 L 68.5 183.5 M 64.5 180.5 L 68.5 180.5 M 64.5 177.5 L 68.5 177.5 M 64.5 174.5 L 68.5 174.5 M 64.5 174.5 L 68.5 174.5 M 64.5 156.5 L 68.5 156.5 M 64.5 145.5 L 68.5 145.5 M 64.5 138.5 L 68.5 138.5 M 64.5 132.5 L 68.5 132.5 M 64.5 127.5 L 68.5 127.5 M 64.5 123.5 L 68.5 123.5 M 64.5 120.5 L 68.5 120.5 M 64.5 117.5 L 68.5 117.5 M 64.5 114.5 L 68.5 114.5 M 64.5 114.5 L 68.5 114.5 M 64.5 96.5 L 68.5 96.5 M 64.5 85.5 L 68.5 85.5 M 64.5 78.5 L 68.5 78.5 M 64.5 72.5 L 68.5 72.5 M 64.5 67.5 L 68.5 67.5 M 64.5 63.5 L 68.5 63.5 M 64.5 60.5 L 68.5 60.5 M 64.5 57.5 L 68.5 57.5 M 64.5 54.5 L 68.5 54.5 M 64.5 54.5 L 68.5 54.5 M 64.5 36.5 L 68.5 36.5" stroke-opacity="1" stroke-linejoin="bevel" stroke-miterlimit="10" stroke-dasharray=""/><text fill="rgb(68,68,68)" stroke="none" font-family="helvetica" font-size="10pt" font-style="normal" font-weight="normal" text-decoration="normal" x="0" y="13" text-anchor="start" dominant-baseline="alphabetic" transform="matrix(1, 0, 0, 1, 32.039703369140625, 288)" fill-opacity="1">10</text><text fill="rgb(68,68,68)" stroke="none" font-family="helvetica" font-size="7pt" font-style="normal" font-weight="normal" text-decoration="normal" x="14.824951171875" y="7" text-anchor="start" dominant-baseline="alphabetic" transform="matrix(1, 0, 0, 1, 32.039703369140625, 288)" fill-opacity="1">−8</text><text fill="rgb(68,68,68)" stroke="none" font-family="helvetica" font-size="10pt" font-style="normal" font-weight="normal" text-decoration="normal" x="0" y="13" text-anchor="start" dominant-baseline="alphabetic" transform="matrix(1, 0, 0, 1, 32.039703369140625, 228.01437377929688)" fill-opacity="1">10</text><text fill="rgb(68,68,68)" stroke="none" font-family="helvetica" font-size="7pt" font-style="normal" font-weight="normal" text-decoration="normal" x="14.824951171875" y="7" text-anchor="start" dominant-baseline="alphabetic" transform="matrix(1, 0, 0, 1, 32.039703369140625, 228.01437377929688)" fill-opacity="1">−7</text><text fill="rgb(68,68,68)" stroke="none" font-family="helvetica" font-size="10pt" font-style="normal" font-weight="normal" text-decoration="normal" x="0" y="13" text-anchor="start" dominant-baseline="alphabetic" transform="matrix(1, 0, 0, 1, 32.039703369140625, 168.0287322998047)" fill-opacity="1">10</text><text fill="rgb(68,68,68)" stroke="none" font-family="helvetica" font-size="7pt" font-style="normal" font-weight="normal" text-decoration="normal" x="14.824951171875" y="7" text-anchor="start" dominant-baseline="alphabetic" transform="matrix(1, 0, 0, 1, 32.039703369140625, 168.0287322998047)" fill-opacity="1">−6</text><text fill="rgb(68,68,68)" stroke="none" font-family="helvetica" font-size="10pt" font-style="normal" font-weight="normal" text-decoration="normal" x="0" y="13" text-anchor="start" dominant-baseline="alphabetic" transform="matrix(1, 0, 0, 1, 32.039703369140625, 108.04310607910156)" fill-opacity="1">10</text><text fill="rgb(68,68,68)" stroke="none" font-family="helvetica" font-size="7pt" font-style="normal" font-weight="normal" text-decoration="normal" x="14.824951171875" y="7" text-anchor="start" dominant-baseline="alphabetic" transform="matrix(1, 0, 0, 1, 32.039703369140625, 108.04310607910156)" fill-opacity="1">−5</text><text fill="rgb(68,68,68)" stroke="none" font-family="helvetica" font-size="10pt" font-style="normal" font-weight="normal" text-decoration="normal" x="0" y="13" text-anchor="start" dominant-baseline="alphabetic" transform="matrix(1, 0, 0, 1, 32.039703369140625, 48.05747604370117)" fill-opacity="1">10</text><text fill="rgb(68,68,68)" stroke="none" font-family="helvetica" font-size="7pt" font-style="normal" font-weight="normal" text-decoration="normal" x="14.824951171875" y="7" text-anchor="start" dominant-baseline="alphabetic" transform="matrix(1, 0, 0, 1, 32.039703369140625, 48.05747604370117)" fill-opacity="1">−4</text><text fill="rgb(68,68,68)" stroke="none" font-family="helvetica" font-size="14pt" font-style="italic" font-weight="normal" text-decoration="normal" x="-129.955322265625" y="161" text-anchor="start" dominant-baseline="alphabetic" transform="matrix(6.123233995736766e-17, -1, 1, 6.123233995736766e-17, -140.96029663085938, 189.03970336914062)" fill-opacity="1">per base substitutions per generation</text><text fill="rgb(68,68,68)" stroke="none" font-family="helvetica" font-size="16pt" font-style="normal" font-weight="bold" text-decoration="normal" x="68" y="26" text-anchor="start" dominant-baseline="alphabetic" transform="matrix(1, 0, 0, 1, 0.5, 0.5)" fill-opacity="1">sample: BadBoy2</text></svg>