<svg version="1.1" xmlns="http://www.w3.org/2000/svg" width="650" height="400"><defs><clipPath id="HPUzeTmnLiLb"><path fill="none" stroke="none" d="M 68.5 36.5 L 620.5 36.5 L 620.5 294.5 L 68.5 294.5 L 68.5 36.5"/></clipPath><clipPath id="WtwVevmozqFt"><path fill="none" stroke="none" d="M 68.5 36.5 L 620.5 36.5 L 620.5 294.5 L 68.5 294.5 L 68.5 36.5"/></clipPath><clipPath id="MyaeMFDqgyuB"><path fill="none" stroke="none" d="M 68.5 36.5 L 620.5 36.5 L 620.5 294.5 L 68.5 294.5 L 68.5 36.5"/></clipPath><clipPath id="oecWZlvNpBMi"><path fill="none" stroke="none" d="M 68.5 36.5 L 620.5 36.5 L 620.5 294.5 L 68.5 294.5 L 68.5 36.5"/></clipPath><clipPath id="ImPmtQxafpqR"><path fill="none" stroke="none" d="M 68.5 36.5 L 620.5 36.5 L 620.5 294.5 L 68.5 294.5 L 68.5 36.5"/></clipPath><clipPath id="sIeuhQvLaWqv"><path fill="none" stroke="none" d="M 68.5 36.5 L 620.5 36.5 L 620.5 294.5 L 68.5 294.5 L 68.5 36.5"/></clipPath><clipPath id="eMioUtOFBnGw"><path fill="none" stroke="none" d="M 68.5 36.5 L 620.5 36.5 L 620.5 294.5 L 68.5 294.5 L 68.5 36.5"/></clipPath><clipPath id="kQHeoNqlZFRH"><path fill="none" stroke="none" d="M 68.5 36.5 L 620.5 36.5 L 620.5 294.5 L 68.5 294.5 L 68.5 36.5"/></clipPath><clipPath id="tqNUlXWwETos"><path fill="none" stroke="none" d="M 68.5 36.5 L 620.5 36.5 L 620.5 294.5 L 68.5 294.5 L 68.5 36.5"/></clipPath><clipPath id="pxilWIraqCLz"><path fill="none" stroke="none" d="M 68.5 36.5 L 620.5 36.5 L 620.5 294.5 L 68.5 294.5 L 68.5 36.5"/></clipPath><clipPath id="cbVgPCLQshOn"><path fill="none" stroke="none" d="M 68.5 36.5 L 620.5 36.5 L 620.5 294.5 L 68.5 294.5 L 68.5 36.5"/></clipPath><clipPath id="ODRdpbXRSwxT"><path fill="none" stroke="none" d="M 68.5 36.5 L 620.5 36.5 L 620.5 294.5 L 68.5 294.5 L 68.5 36.5"/></clipPath><clipPath id="uVgKzreKBhzr"><path fill="none" stroke="none" d="M 68.5 36.5 L 620.5 36.5 L 620.5 294.5 L 68.5 294.5 L 68.5 36.5"/></clipPath><clipPath id="nPTvkPPJfhao"><path fill="none" stroke="none" d="M 68.5 36.5 L 620.5 36.5 L 620.5 294.5 L 68.5 294.5 L 68.5 36.5"/></clipPath><clipPath id="dyeqdyrwMHEb"><path fill="none" stroke="none" d="M 68.5 36.5 L 620.5 36.5 L 620.5 294.5 L 68.5 294.5 L 68.5 36.5"/></clipPath><clipPath id="mHiDoHflESRt"><path fill="none" stroke="none" d="M 68.5 36.5 L 620.5 36.5 L 620.5 294.5 L 68.5 294.5 L 68.5 36.5"/></clipPath><clipPath id="WavCEcevxPIa"><path fill="none" stroke="none" d="M 68.5 36.5 L 620.5 36.5 L 620.5 294.5 L 68.5 294.5 L 68.5 36.5"/></clipPath><clipPath id="eRUNNEzNlRGW"><path fill="none" stroke="none" d="M 68.5 36.5 L 620.5 36.5 L 620.5 294.5 L 68.5 294.5 L 68.5 36.5"/></clipPath><clipPath id="mvDEebhyGHrb"><path fill="none" stroke="none" d="M 68.5 36.5 L 620.5 36.5 L 620.5 294.5 L 68.5 294.5 L 68.5 36.5"/></clipPath><clipPath id="ILsfDLIdaMka"><path fill="none" stroke="none" d="M 68.5 36.5 L 620.5 36.5 L 620.5 294.5 L 68.5 294.5 L 68.5 36.5"/></clipPath></defs><path fill="rgb(255,255,255)" stroke="none" paint-order="stroke" d="M 0.5 0.5 L 650.5 0.5 L 650.5 400.5 L 0.5 400.5 L 0.5 0.5" fill-opacity="1"/><rect fill="#FFFFFF" stroke="none" x="68" y="36" width="552" height="258" transform="matrix(1, 0, 0, 1, 0.5, 0.5)"/><path fill="rgb(255,255,255)" stroke="none" paint-order="stroke" d="M 68.5 36.5 L 620.5 36.5 L 620.5 294.5 L 68.5 294.5 L 68.5 36.5" fill-opacity="1"/><path fill="none" stroke="rgb(229,229,229)" paint-order="fill" d="M 68.5 36.5 L 620.5 36.5 L 620.5 294.5 L 68.5 294.5 L 68.5 36.5" stroke-opacity="1" stroke-linejoin="bevel" stroke-miterlimit="10" stroke-dasharray=""/><path fill="none" stroke="rgb(211,211,211)" paint-order="fill" d="M 68.5 474.4568942277307 L 620.5 474.4568942277307" stroke-opacity="1" stroke-linejoin="bevel" stroke-miterlimit="10" stroke-width="3" stroke-dasharray="6" clip-path="url(#MyaeMFDqgyuB)"/><path fill="none" stroke="rgb(211,211,211)" paint-order="fill" d="M 68.5 414.47126281848705 L 620.5 414.47126281848705" stroke-opacity="1" stroke-linejoin="bevel" stroke-miterlimit="10" stroke-width="3" stroke-dasharray="6" clip-path="url(#oecWZlvNpBMi)"/><path fill="none" stroke="rgb(211,211,211)" paint-order="fill" d="M 68.5 354.48563140924347 L 620.5 354.48563140924347" stroke-opacity="1" stroke-linejoin="bevel" stroke-miterlimit="10" stroke-width="3" stroke-dasharray="6" clip-path="url(#ImPmtQxafpqR)"/><path fill="none" stroke="rgb(211,211,211)" paint-order="fill" d="M 68.5 294.5 L 620.5 294.5" stroke-opacity="1" stroke-linejoin="bevel" stroke-miterlimit="10" stroke-width="3" stroke-dasharray="6" clip-path="url(#sIeuhQvLaWqv)"/><path fill="none" stroke="rgb(211,211,211)" paint-order="fill" d="M 68.5 234.51436859075642 L 620.5 234.51436859075642" stroke-opacity="1" stroke-linejoin="bevel" stroke-miterlimit="10" stroke-width="3" stroke-dasharray="6" clip-path="url(#eMioUtOFBnGw)"/><path fill="none" stroke="rgb(211,211,211)" paint-order="fill" d="M 68.5 174.52873718151284 L 620.5 174.52873718151284" stroke-opacity="1" stroke-linejoin="bevel" stroke-miterlimit="10" stroke-width="3" stroke-dasharray="6" clip-path="url(#kQHeoNqlZFRH)"/><path fill="none" stroke="rgb(211,211,211)" paint-order="fill" d="M 68.5 114.54310577226929 L 620.5 114.54310577226929" stroke-opacity="1" stroke-linejoin="bevel" stroke-miterlimit="10" stroke-width="3" stroke-dasharray="6" clip-path="url(#tqNUlXWwETos)"/><path fill="none" stroke="rgb(211,211,211)" paint-order="fill" d="M 68.5 54.55747436302573 L 620.5 54.55747436302573" stroke-opacity="1" stroke-linejoin="bevel" stroke-miterlimit="10" stroke-width="3" stroke-dasharray="6" clip-path="url(#pxilWIraqCLz)"/><path fill="none" stroke="rgb(211,211,211)" paint-order="fill" d="M 68.5 -5.428157046217848 L 620.5 -5.428157046217848" stroke-opacity="1" stroke-linejoin="bevel" stroke-miterlimit="10" stroke-width="3" stroke-dasharray="6" clip-path="url(#cbVgPCLQshOn)"/><path fill="none" stroke="rgb(211,211,211)" paint-order="fill" d="M 68.5 -65.41378845546143 L 620.5 -65.41378845546143" stroke-opacity="1" stroke-linejoin="bevel" stroke-miterlimit="10" stroke-width="3" stroke-dasharray="6" clip-path="url(#ODRdpbXRSwxT)"/><path fill="rgb(0,0,0)" stroke="rgb(0,0,0)" paint-order="fill" d="M 105.88461303710938 123.54230499267578 A 2 2 0 0 1 101.88461303710938 123.54230499267578 A 2 2 0 0 1 105.88461303710938 123.54230499267578" fill-opacity="1" clip-path="url(#uVgKzreKBhzr)" stroke-opacity="1" stroke-linejoin="bevel" stroke-miterlimit="10" stroke-dasharray=""/><path fill="rgb(0,0,0)" stroke="rgb(0,0,0)" paint-order="fill" d="M 82.29486846923828 296.5132141113281 A 2 2 0 0 1 78.29486846923828 296.5132141113281 A 2 2 0 0 1 82.29486846923828 296.5132141113281" fill-opacity="1" clip-path="url(#uVgKzreKBhzr)" stroke-opacity="1" stroke-linejoin="bevel" stroke-miterlimit="10" stroke-dasharray=""/><path fill="rgb(0,0,0)" stroke="rgb(0,0,0)" paint-order="fill" d="M 393.6794738769531 233.26492309570312 A 2 2 0 0 1 389.6794738769531 233.26492309570312 A 2 2 0 0 1 393.6794738769531 233.26492309570312" fill-opacity="1" clip-path="url(#uVgKzreKBhzr)" stroke-opacity="1" stroke-linejoin="bevel" stroke-miterlimit="10" stroke-dasharray=""/><path fill="rgb(0,0,0)" stroke="rgb(0,0,0)" paint-order="fill" d="M 337.0641174316406 208.77011108398438 A 2 2 0 0 1 333.0641174316406 208.77011108398438 A 2 2 0 0 1 337.0641174316406 208.77011108398438" fill-opacity="1" clip-path="url(#uVgKzreKBhzr)" stroke-opacity="1" stroke-linejoin="bevel" stroke-miterlimit="10" stroke-dasharray=""/><path fill="rgb(0,0,0)" stroke="rgb(0,0,0)" paint-order="fill" d="M 313.474365234375 226.3891143798828 A 2 2 0 0 1 309.474365234375 226.3891143798828 A 2 2 0 0 1 313.474365234375 226.3891143798828" fill-opacity="1" clip-path="url(#uVgKzreKBhzr)" stroke-opacity="1" stroke-linejoin="bevel" stroke-miterlimit="10" stroke-dasharray=""/><path fill="rgb(0,0,0)" stroke="rgb(0,0,0)" paint-order="fill" d="M 209.6794891357422 217.60609436035156 A 2 2 0 0 1 205.6794891357422 217.60609436035156 A 2 2 0 0 1 209.6794891357422 217.60609436035156" fill-opacity="1" clip-path="url(#uVgKzreKBhzr)" stroke-opacity="1" stroke-linejoin="bevel" stroke-miterlimit="10" stroke-dasharray=""/><path fill="none" stroke="rgb(0,0,0)" paint-order="fill" d="M 495.474365234375 98.02176666259766 L 495.474365234375 106.93133544921875" stroke-opacity="1" stroke-linejoin="bevel" stroke-miterlimit="10" stroke-dasharray="" clip-path="url(#nPTvkPPJfhao)"/><path fill="none" stroke="rgb(0,0,0)" paint-order="fill" d="M 127.47435760498047 249.23207092285156 L 127.47435760498047 249.7341766357422" stroke-opacity="1" stroke-linejoin="bevel" stroke-miterlimit="10" stroke-dasharray="" clip-path="url(#nPTvkPPJfhao)"/><path fill="none" stroke="rgb(0,0,0)" paint-order="fill" d="M 103.88461303710938 143.87367248535156 L 103.88461303710938 143.87367248535156" stroke-opacity="1" stroke-linejoin="bevel" stroke-miterlimit="10" stroke-dasharray="" clip-path="url(#nPTvkPPJfhao)"/><path fill="none" stroke="rgb(0,0,0)" paint-order="fill" d="M 80.29486846923828 331.7972412109375 L 80.29486846923828 331.7972412109375" stroke-opacity="1" stroke-linejoin="bevel" stroke-miterlimit="10" stroke-dasharray="" clip-path="url(#nPTvkPPJfhao)"/><path fill="none" stroke="rgb(0,0,0)" paint-order="fill" d="M 391.6794738769531 258.73681640625 L 391.6794738769531 258.73681640625" stroke-opacity="1" stroke-linejoin="bevel" stroke-miterlimit="10" stroke-dasharray="" clip-path="url(#nPTvkPPJfhao)"/><path fill="none" stroke="rgb(0,0,0)" paint-order="fill" d="M 438.8589782714844 414.47125244140625 L 438.8589782714844 414.47125244140625" stroke-opacity="1" stroke-linejoin="bevel" stroke-miterlimit="10" stroke-dasharray="" clip-path="url(#nPTvkPPJfhao)"/><path fill="none" stroke="rgb(0,0,0)" paint-order="fill" d="M 415.26922607421875 116.13390350341797 L 415.26922607421875 121.95709228515625" stroke-opacity="1" stroke-linejoin="bevel" stroke-miterlimit="10" stroke-dasharray="" clip-path="url(#nPTvkPPJfhao)"/><path fill="none" stroke="rgb(0,0,0)" paint-order="fill" d="M 287.8846130371094 170.91787719726562 L 287.8846130371094 182.2368927001953" stroke-opacity="1" stroke-linejoin="bevel" stroke-miterlimit="10" stroke-dasharray="" clip-path="url(#nPTvkPPJfhao)"/><path fill="none" stroke="rgb(0,0,0)" paint-order="fill" d="M 335.0641174316406 230.5651397705078 L 335.0641174316406 230.5651397705078" stroke-opacity="1" stroke-linejoin="bevel" stroke-miterlimit="10" stroke-dasharray="" clip-path="url(#nPTvkPPJfhao)"/><path fill="none" stroke="rgb(0,0,0)" paint-order="fill" d="M 311.474365234375 255.82464599609375 L 311.474365234375 255.82464599609375" stroke-opacity="1" stroke-linejoin="bevel" stroke-miterlimit="10" stroke-dasharray="" clip-path="url(#nPTvkPPJfhao)"/><path fill="none" stroke="rgb(0,0,0)" paint-order="fill" d="M 184.08975219726562 201.06069946289062 L 184.08975219726562 210.1790313720703" stroke-opacity="1" stroke-linejoin="bevel" stroke-miterlimit="10" stroke-dasharray="" clip-path="url(#nPTvkPPJfhao)"/><path fill="none" stroke="rgb(0,0,0)" paint-order="fill" d="M 231.26922607421875 164.3049774169922 L 231.26922607421875 179.3111572265625" stroke-opacity="1" stroke-linejoin="bevel" stroke-miterlimit="10" stroke-dasharray="" clip-path="url(#nPTvkPPJfhao)"/><path fill="none" stroke="rgb(0,0,0)" paint-order="fill" d="M 207.6794891357422 248.10557556152344 L 207.6794891357422 248.10557556152344" stroke-opacity="1" stroke-linejoin="bevel" stroke-miterlimit="10" stroke-dasharray="" clip-path="url(#nPTvkPPJfhao)"/><path fill="none" stroke="rgb(0,0,0)" paint-order="fill" d="M 608.7051391601562 157.0272674560547 L 608.7051391601562 160.4355010986328" stroke-opacity="1" stroke-linejoin="bevel" stroke-miterlimit="10" stroke-dasharray="" clip-path="url(#nPTvkPPJfhao)"/><path fill="none" stroke="rgb(0,0,0)" paint-order="fill" d="M 552.0897216796875 108.26744842529297 L 552.0897216796875 123.4441146850586" stroke-opacity="1" stroke-linejoin="bevel" stroke-miterlimit="10" stroke-dasharray="" clip-path="url(#nPTvkPPJfhao)"/><path fill="none" stroke="rgb(0,0,0)" paint-order="fill" d="M 495.474365234375 131.82156372070312 L 495.474365234375 125.04772186279297" stroke-opacity="1" stroke-linejoin="bevel" stroke-miterlimit="10" stroke-dasharray="" clip-path="url(#dyeqdyrwMHEb)"/><path fill="none" stroke="rgb(0,0,0)" paint-order="fill" d="M 127.47435760498047 414.47125244140625 L 127.47435760498047 267.6295471191406" stroke-opacity="1" stroke-linejoin="bevel" stroke-miterlimit="10" stroke-dasharray="" clip-path="url(#dyeqdyrwMHEb)"/><path fill="none" stroke="rgb(0,0,0)" paint-order="fill" d="M 103.88461303710938 414.47125244140625 L 103.88461303710938 164.97604370117188" stroke-opacity="1" stroke-linejoin="bevel" stroke-miterlimit="10" stroke-dasharray="" clip-path="url(#dyeqdyrwMHEb)"/><path fill="none" stroke="rgb(0,0,0)" paint-order="fill" d="M 80.29486846923828 414.47125244140625 L 80.29486846923828 414.47125244140625" stroke-opacity="1" stroke-linejoin="bevel" stroke-miterlimit="10" stroke-dasharray="" clip-path="url(#dyeqdyrwMHEb)"/><path fill="none" stroke="rgb(0,0,0)" paint-order="fill" d="M 391.6794738769531 414.47125244140625 L 391.6794738769531 294.972412109375" stroke-opacity="1" stroke-linejoin="bevel" stroke-miterlimit="10" stroke-dasharray="" clip-path="url(#dyeqdyrwMHEb)"/><path fill="none" stroke="rgb(0,0,0)" paint-order="fill" d="M 438.8589782714844 414.47125244140625 L 438.8589782714844 414.47125244140625" stroke-opacity="1" stroke-linejoin="bevel" stroke-miterlimit="10" stroke-dasharray="" clip-path="url(#dyeqdyrwMHEb)"/><path fill="none" stroke="rgb(0,0,0)" paint-order="fill" d="M 415.26922607421875 129.3174591064453 L 415.26922607421875 128.24295043945312" stroke-opacity="1" stroke-linejoin="bevel" stroke-miterlimit="10" stroke-dasharray="" clip-path="url(#dyeqdyrwMHEb)"/><path fill="none" stroke="rgb(0,0,0)" paint-order="fill" d="M 287.8846130371094 241.969970703125 L 287.8846130371094 217.03121948242188" stroke-opacity="1" stroke-linejoin="bevel" stroke-miterlimit="10" stroke-dasharray="" clip-path="url(#dyeqdyrwMHEb)"/><path fill="none" stroke="rgb(0,0,0)" paint-order="fill" d="M 335.0641174316406 255.6766357421875 L 335.0641174316406 249.7133331298828" stroke-opacity="1" stroke-linejoin="bevel" stroke-miterlimit="10" stroke-dasharray="" clip-path="url(#dyeqdyrwMHEb)"/><path fill="none" stroke="rgb(0,0,0)" paint-order="fill" d="M 311.474365234375 414.47125244140625 L 311.474365234375 414.47125244140625" stroke-opacity="1" stroke-linejoin="bevel" stroke-miterlimit="10" stroke-dasharray="" clip-path="url(#dyeqdyrwMHEb)"/><path fill="none" stroke="rgb(0,0,0)" paint-order="fill" d="M 184.08975219726562 414.47125244140625 L 184.08975219726562 414.47125244140625" stroke-opacity="1" stroke-linejoin="bevel" stroke-miterlimit="10" stroke-dasharray="" clip-path="url(#dyeqdyrwMHEb)"/><path fill="none" stroke="rgb(0,0,0)" paint-order="fill" d="M 231.26922607421875 414.47125244140625 L 231.26922607421875 414.47125244140625" stroke-opacity="1" stroke-linejoin="bevel" stroke-miterlimit="10" stroke-dasharray="" clip-path="url(#dyeqdyrwMHEb)"/><path fill="none" stroke="rgb(0,0,0)" paint-order="fill" d="M 207.6794891357422 414.47125244140625 L 207.6794891357422 414.47125244140625" stroke-opacity="1" stroke-linejoin="bevel" stroke-miterlimit="10" stroke-dasharray="" clip-path="url(#dyeqdyrwMHEb)"/><path fill="none" stroke="rgb(0,0,0)" paint-order="fill" d="M 608.7051391601562 414.47125244140625 L 608.7051391601562 414.47125244140625" stroke-opacity="1" stroke-linejoin="bevel" stroke-miterlimit="10" stroke-dasharray="" clip-path="url(#dyeqdyrwMHEb)"/><path fill="none" stroke="rgb(0,0,0)" paint-order="fill" d="M 552.0897216796875 414.47125244140625 L 552.0897216796875 165.29266357421875" stroke-opacity="1" stroke-linejoin="bevel" stroke-miterlimit="10" stroke-dasharray="" clip-path="url(#dyeqdyrwMHEb)"/><path fill="none" stroke="rgb(0,0,0)" paint-order="fill" d="M 490.75640869140625 131.82156372070312 L 500.1922912597656 131.82156372070312" stroke-opacity="1" stroke-linejoin="bevel" stroke-miterlimit="10" stroke-dasharray="" clip-path="url(#mHiDoHflESRt)"/><path fill="none" stroke="rgb(0,0,0)" paint-order="fill" d="M 122.75640869140625 414.47125244140625 L 132.1923065185547 414.47125244140625" stroke-opacity="1" stroke-linejoin="bevel" stroke-miterlimit="10" stroke-dasharray="" clip-path="url(#mHiDoHflESRt)"/><path fill="none" stroke="rgb(0,0,0)" paint-order="fill" d="M 99.16666412353516 414.47125244140625 L 108.6025619506836 414.47125244140625" stroke-opacity="1" stroke-linejoin="bevel" stroke-miterlimit="10" stroke-dasharray="" clip-path="url(#mHiDoHflESRt)"/><path fill="none" stroke="rgb(0,0,0)" paint-order="fill" d="M 75.57691955566406 414.47125244140625 L 85.0128173828125 414.47125244140625" stroke-opacity="1" stroke-linejoin="bevel" stroke-miterlimit="10" stroke-dasharray="" clip-path="url(#mHiDoHflESRt)"/><path fill="none" stroke="rgb(0,0,0)" paint-order="fill" d="M 386.9615478515625 414.47125244140625 L 396.3974304199219 414.47125244140625" stroke-opacity="1" stroke-linejoin="bevel" stroke-miterlimit="10" stroke-dasharray="" clip-path="url(#mHiDoHflESRt)"/><path fill="none" stroke="rgb(0,0,0)" paint-order="fill" d="M 434.1410217285156 414.47125244140625 L 443.576904296875 414.47125244140625" stroke-opacity="1" stroke-linejoin="bevel" stroke-miterlimit="10" stroke-dasharray="" clip-path="url(#mHiDoHflESRt)"/><path fill="none" stroke="rgb(0,0,0)" paint-order="fill" d="M 410.55126953125 129.3174591064453 L 419.9871826171875 129.3174591064453" stroke-opacity="1" stroke-linejoin="bevel" stroke-miterlimit="10" stroke-dasharray="" clip-path="url(#mHiDoHflESRt)"/><path fill="none" stroke="rgb(0,0,0)" paint-order="fill" d="M 283.16668701171875 241.969970703125 L 292.6025695800781 241.969970703125" stroke-opacity="1" stroke-linejoin="bevel" stroke-miterlimit="10" stroke-dasharray="" clip-path="url(#mHiDoHflESRt)"/><path fill="none" stroke="rgb(0,0,0)" paint-order="fill" d="M 330.3461608886719 255.6766357421875 L 339.78204345703125 255.6766357421875" stroke-opacity="1" stroke-linejoin="bevel" stroke-miterlimit="10" stroke-dasharray="" clip-path="url(#mHiDoHflESRt)"/><path fill="none" stroke="rgb(0,0,0)" paint-order="fill" d="M 306.75640869140625 414.47125244140625 L 316.19232177734375 414.47125244140625" stroke-opacity="1" stroke-linejoin="bevel" stroke-miterlimit="10" stroke-dasharray="" clip-path="url(#mHiDoHflESRt)"/><path fill="none" stroke="rgb(0,0,0)" paint-order="fill" d="M 179.37179565429688 414.47125244140625 L 188.8076934814453 414.47125244140625" stroke-opacity="1" stroke-linejoin="bevel" stroke-miterlimit="10" stroke-dasharray="" clip-path="url(#mHiDoHflESRt)"/><path fill="none" stroke="rgb(0,0,0)" paint-order="fill" d="M 226.55128479003906 414.47125244140625 L 235.9871826171875 414.47125244140625" stroke-opacity="1" stroke-linejoin="bevel" stroke-miterlimit="10" stroke-dasharray="" clip-path="url(#mHiDoHflESRt)"/><path fill="none" stroke="rgb(0,0,0)" paint-order="fill" d="M 202.96153259277344 414.47125244140625 L 212.39743041992188 414.47125244140625" stroke-opacity="1" stroke-linejoin="bevel" stroke-miterlimit="10" stroke-dasharray="" clip-path="url(#mHiDoHflESRt)"/><path fill="none" stroke="rgb(0,0,0)" paint-order="fill" d="M 603.9871826171875 414.47125244140625 L 613.423095703125 414.47125244140625" stroke-opacity="1" stroke-linejoin="bevel" stroke-miterlimit="10" stroke-dasharray="" clip-path="url(#mHiDoHflESRt)"/><path fill="none" stroke="rgb(0,0,0)" paint-order="fill" d="M 547.3717651367188 414.47125244140625 L 556.8077392578125 414.47125244140625" stroke-opacity="1" stroke-linejoin="bevel" stroke-miterlimit="10" stroke-dasharray="" clip-path="url(#mHiDoHflESRt)"/><path fill="none" stroke="rgb(0,0,0)" paint-order="fill" d="M 490.75640869140625 98.02176666259766 L 500.1922912597656 98.02176666259766" stroke-opacity="1" stroke-linejoin="bevel" stroke-miterlimit="10" stroke-dasharray="" clip-path="url(#WavCEcevxPIa)"/><path fill="none" stroke="rgb(0,0,0)" paint-order="fill" d="M 122.75640869140625 249.23207092285156 L 132.1923065185547 249.23207092285156" stroke-opacity="1" stroke-linejoin="bevel" stroke-miterlimit="10" stroke-dasharray="" clip-path="url(#WavCEcevxPIa)"/><path fill="none" stroke="rgb(0,0,0)" paint-order="fill" d="M 99.16666412353516 143.87367248535156 L 108.6025619506836 143.87367248535156" stroke-opacity="1" stroke-linejoin="bevel" stroke-miterlimit="10" stroke-dasharray="" clip-path="url(#WavCEcevxPIa)"/><path fill="none" stroke="rgb(0,0,0)" paint-order="fill" d="M 75.57691955566406 331.7972412109375 L 85.0128173828125 331.7972412109375" stroke-opacity="1" stroke-linejoin="bevel" stroke-miterlimit="10" stroke-dasharray="" clip-path="url(#WavCEcevxPIa)"/><path fill="none" stroke="rgb(0,0,0)" paint-order="fill" d="M 386.9615478515625 258.73681640625 L 396.3974304199219 258.73681640625" stroke-opacity="1" stroke-linejoin="bevel" stroke-miterlimit="10" stroke-dasharray="" clip-path="url(#WavCEcevxPIa)"/><path fill="none" stroke="rgb(0,0,0)" paint-order="fill" d="M 434.1410217285156 414.47125244140625 L 443.576904296875 414.47125244140625" stroke-opacity="1" stroke-linejoin="bevel" stroke-miterlimit="10" stroke-dasharray="" clip-path="url(#WavCEcevxPIa)"/><path fill="none" stroke="rgb(0,0,0)" paint-order="fill" d="M 410.55126953125 116.13390350341797 L 419.9871826171875 116.13390350341797" stroke-opacity="1" stroke-linejoin="bevel" stroke-miterlimit="10" stroke-dasharray="" clip-path="url(#WavCEcevxPIa)"/><path fill="none" stroke="rgb(0,0,0)" paint-order="fill" d="M 283.16668701171875 170.91787719726562 L 292.6025695800781 170.91787719726562" stroke-opacity="1" stroke-linejoin="bevel" stroke-miterlimit="10" stroke-dasharray="" clip-path="url(#WavCEcevxPIa)"/><path fill="none" stroke="rgb(0,0,0)" paint-order="fill" d="M 330.3461608886719 230.5651397705078 L 339.78204345703125 230.5651397705078" stroke-opacity="1" stroke-linejoin="bevel" stroke-miterlimit="10" stroke-dasharray="" clip-path="url(#WavCEcevxPIa)"/><path fill="none" stroke="rgb(0,0,0)" paint-order="fill" d="M 306.75640869140625 255.82464599609375 L 316.19232177734375 255.82464599609375" stroke-opacity="1" stroke-linejoin="bevel" stroke-miterlimit="10" stroke-dasharray="" clip-path="url(#WavCEcevxPIa)"/><path fill="none" stroke="rgb(0,0,0)" paint-order="fill" d="M 179.37179565429688 201.06069946289062 L 188.8076934814453 201.06069946289062" stroke-opacity="1" stroke-linejoin="bevel" stroke-miterlimit="10" stroke-dasharray="" clip-path="url(#WavCEcevxPIa)"/><path fill="none" stroke="rgb(0,0,0)" paint-order="fill" d="M 226.55128479003906 164.3049774169922 L 235.9871826171875 164.3049774169922" stroke-opacity="1" stroke-linejoin="bevel" stroke-miterlimit="10" stroke-dasharray="" clip-path="url(#WavCEcevxPIa)"/><path fill="none" stroke="rgb(0,0,0)" paint-order="fill" d="M 202.96153259277344 248.10557556152344 L 212.39743041992188 248.10557556152344" stroke-opacity="1" stroke-linejoin="bevel" stroke-miterlimit="10" stroke-dasharray="" clip-path="url(#WavCEcevxPIa)"/><path fill="none" stroke="rgb(0,0,0)" paint-order="fill" d="M 603.9871826171875 157.0272674560547 L 613.423095703125 157.0272674560547" stroke-opacity="1" stroke-linejoin="bevel" stroke-miterlimit="10" stroke-dasharray="" clip-path="url(#WavCEcevxPIa)"/><path fill="none" stroke="rgb(0,0,0)" paint-order="fill" d="M 547.3717651367188 108.26744842529297 L 556.8077392578125 108.26744842529297" stroke-opacity="1" stroke-linejoin="bevel" stroke-miterlimit="10" stroke-dasharray="" clip-path="url(#WavCEcevxPIa)"/><path fill="rgb(128,128,128)" stroke="rgb(0,0,0)" paint-order="fill" d="M 487.21795654296875 116.20416259765625 L 503.73077392578125 116.20416259765625 L 503.73077392578125 106.93133544921875 L 487.21795654296875 106.93133544921875 L 487.21795654296875 116.20416259765625" fill-opacity="1" clip-path="url(#eRUNNEzNlRGW)" stroke-opacity="1" stroke-linejoin="bevel" stroke-miterlimit="10" stroke-dasharray=""/><path fill="rgb(128,128,128)" stroke="rgb(0,0,0)" paint-order="fill" d="M 119.21794891357422 254.52964782714844 L 135.73077392578125 254.52964782714844 L 135.73077392578125 249.7341766357422 L 119.21794891357422 249.7341766357422 L 119.21794891357422 254.52964782714844" fill-opacity="1" clip-path="url(#eRUNNEzNlRGW)" stroke-opacity="1" stroke-linejoin="bevel" stroke-miterlimit="10" stroke-dasharray=""/><path fill="rgb(128,128,128)" stroke="rgb(0,0,0)" paint-order="fill" d="M 95.62820434570312 157.20358276367188 L 112.14102172851562 157.20358276367188 L 112.14102172851562 143.87367248535156 L 95.62820434570312 143.87367248535156 L 95.62820434570312 157.20358276367188" fill-opacity="1" clip-path="url(#eRUNNEzNlRGW)" stroke-opacity="1" stroke-linejoin="bevel" stroke-miterlimit="10" stroke-dasharray=""/><path fill="rgb(128,128,128)" stroke="rgb(0,0,0)" paint-order="fill" d="M 72.03845977783203 414.47125244140625 L 88.55127716064453 414.47125244140625 L 88.55127716064453 294.5 L 72.03845977783203 294.5 L 72.03845977783203 414.47125244140625" fill-opacity="1" clip-path="url(#eRUNNEzNlRGW)" stroke-opacity="1" stroke-linejoin="bevel" stroke-miterlimit="10" stroke-dasharray=""/><path fill="rgb(128,128,128)" stroke="rgb(0,0,0)" paint-order="fill" d="M 383.4230651855469 283.329833984375 L 399.9358825683594 283.329833984375 L 399.9358825683594 258.73681640625 L 383.4230651855469 258.73681640625 L 383.4230651855469 283.329833984375" fill-opacity="1" clip-path="url(#eRUNNEzNlRGW)" stroke-opacity="1" stroke-linejoin="bevel" stroke-miterlimit="10" stroke-dasharray=""/><path fill="rgb(128,128,128)" stroke="rgb(0,0,0)" paint-order="fill" d="M 430.6025695800781 414.47125244140625 L 447.1153869628906 414.47125244140625 L 447.1153869628906 294.5 L 430.6025695800781 294.5 L 430.6025695800781 414.47125244140625" fill-opacity="1" clip-path="url(#eRUNNEzNlRGW)" stroke-opacity="1" stroke-linejoin="bevel" stroke-miterlimit="10" stroke-dasharray=""/><path fill="rgb(128,128,128)" stroke="rgb(0,0,0)" paint-order="fill" d="M 407.0128173828125 125.9969711303711 L 423.525634765625 125.9969711303711 L 423.525634765625 121.95709228515625 L 407.0128173828125 121.95709228515625 L 407.0128173828125 125.9969711303711" fill-opacity="1" clip-path="url(#eRUNNEzNlRGW)" stroke-opacity="1" stroke-linejoin="bevel" stroke-miterlimit="10" stroke-dasharray=""/><path fill="rgb(128,128,128)" stroke="rgb(0,0,0)" paint-order="fill" d="M 279.6282043457031 196.98123168945312 L 296.1410217285156 196.98123168945312 L 296.1410217285156 182.2368927001953 L 279.6282043457031 182.2368927001953 L 279.6282043457031 196.98123168945312" fill-opacity="1" clip-path="url(#eRUNNEzNlRGW)" stroke-opacity="1" stroke-linejoin="bevel" stroke-miterlimit="10" stroke-dasharray=""/><path fill="rgb(128,128,128)" stroke="rgb(0,0,0)" paint-order="fill" d="M 326.8077087402344 246.7138671875 L 343.3205261230469 246.7138671875 L 343.3205261230469 230.5651397705078 L 326.8077087402344 230.5651397705078 L 326.8077087402344 246.7138671875" fill-opacity="1" clip-path="url(#eRUNNEzNlRGW)" stroke-opacity="1" stroke-linejoin="bevel" stroke-miterlimit="10" stroke-dasharray=""/><path fill="rgb(128,128,128)" stroke="rgb(0,0,0)" paint-order="fill" d="M 303.21795654296875 304.91802978515625 L 319.73077392578125 304.91802978515625 L 319.73077392578125 255.82464599609375 L 303.21795654296875 255.82464599609375 L 303.21795654296875 304.91802978515625" fill-opacity="1" clip-path="url(#eRUNNEzNlRGW)" stroke-opacity="1" stroke-linejoin="bevel" stroke-miterlimit="10" stroke-dasharray=""/><path fill="rgb(128,128,128)" stroke="rgb(0,0,0)" paint-order="fill" d="M 175.83334350585938 232.14451599121094 L 192.34616088867188 232.14451599121094 L 192.34616088867188 210.1790313720703 L 175.83334350585938 210.1790313720703 L 175.83334350585938 232.14451599121094" fill-opacity="1" clip-path="url(#eRUNNEzNlRGW)" stroke-opacity="1" stroke-linejoin="bevel" stroke-miterlimit="10" stroke-dasharray=""/><path fill="rgb(128,128,128)" stroke="rgb(0,0,0)" paint-order="fill" d="M 223.0128173828125 205.19625854492188 L 239.525634765625 205.19625854492188 L 239.525634765625 179.3111572265625 L 223.0128173828125 179.3111572265625 L 223.0128173828125 205.19625854492188" fill-opacity="1" clip-path="url(#eRUNNEzNlRGW)" stroke-opacity="1" stroke-linejoin="bevel" stroke-miterlimit="10" stroke-dasharray=""/><path fill="rgb(128,128,128)" stroke="rgb(0,0,0)" paint-order="fill" d="M 199.42308044433594 301.2337646484375 L 215.93589782714844 301.2337646484375 L 215.93589782714844 248.10557556152344 L 199.42308044433594 248.10557556152344 L 199.42308044433594 301.2337646484375" fill-opacity="1" clip-path="url(#eRUNNEzNlRGW)" stroke-opacity="1" stroke-linejoin="bevel" stroke-miterlimit="10" stroke-dasharray=""/><path fill="rgb(128,128,128)" stroke="rgb(0,0,0)" paint-order="fill" d="M 600.44873046875 179.7342987060547 L 616.9615478515625 179.7342987060547 L 616.9615478515625 160.4355010986328 L 600.44873046875 160.4355010986328 L 600.44873046875 179.7342987060547" fill-opacity="1" clip-path="url(#eRUNNEzNlRGW)" stroke-opacity="1" stroke-linejoin="bevel" stroke-miterlimit="10" stroke-dasharray=""/><path fill="rgb(128,128,128)" stroke="rgb(0,0,0)" paint-order="fill" d="M 543.8333129882812 141.39926147460938 L 560.3461303710938 141.39926147460938 L 560.3461303710938 123.4441146850586 L 543.8333129882812 123.4441146850586 L 543.8333129882812 141.39926147460938" fill-opacity="1" clip-path="url(#eRUNNEzNlRGW)" stroke-opacity="1" stroke-linejoin="bevel" stroke-miterlimit="10" stroke-dasharray=""/><path fill="rgb(128,128,128)" stroke="rgb(0,0,0)" paint-order="fill" d="M 487.21795654296875 125.04772186279297 L 503.73077392578125 125.04772186279297 L 503.73077392578125 116.20416259765625 L 487.21795654296875 116.20416259765625 L 487.21795654296875 125.04772186279297" fill-opacity="1" clip-path="url(#mvDEebhyGHrb)" stroke-opacity="1" stroke-linejoin="bevel" stroke-miterlimit="10" stroke-dasharray=""/><path fill="rgb(128,128,128)" stroke="rgb(0,0,0)" paint-order="fill" d="M 119.21794891357422 267.6295471191406 L 135.73077392578125 267.6295471191406 L 135.73077392578125 254.52964782714844 L 119.21794891357422 254.52964782714844 L 119.21794891357422 267.6295471191406" fill-opacity="1" clip-path="url(#mvDEebhyGHrb)" stroke-opacity="1" stroke-linejoin="bevel" stroke-miterlimit="10" stroke-dasharray=""/><path fill="rgb(128,128,128)" stroke="rgb(0,0,0)" paint-order="fill" d="M 95.62820434570312 164.97604370117188 L 112.14102172851562 164.97604370117188 L 112.14102172851562 157.20358276367188 L 95.62820434570312 157.20358276367188 L 95.62820434570312 164.97604370117188" fill-opacity="1" clip-path="url(#mvDEebhyGHrb)" stroke-opacity="1" stroke-linejoin="bevel" stroke-miterlimit="10" stroke-dasharray=""/><path fill="rgb(128,128,128)" stroke="rgb(0,0,0)" paint-order="fill" d="M 72.03845977783203 414.47125244140625 L 88.55127716064453 414.47125244140625 L 88.55127716064453 294.5 L 72.03845977783203 294.5 L 72.03845977783203 414.47125244140625" fill-opacity="1" clip-path="url(#mvDEebhyGHrb)" stroke-opacity="1" stroke-linejoin="bevel" stroke-miterlimit="10" stroke-dasharray=""/><path fill="rgb(128,128,128)" stroke="rgb(0,0,0)" paint-order="fill" d="M 383.4230651855469 294.972412109375 L 399.9358825683594 294.972412109375 L 399.9358825683594 283.329833984375 L 383.4230651855469 283.329833984375 L 383.4230651855469 294.972412109375" fill-opacity="1" clip-path="url(#mvDEebhyGHrb)" stroke-opacity="1" stroke-linejoin="bevel" stroke-miterlimit="10" stroke-dasharray=""/><path fill="rgb(128,128,128)" stroke="rgb(0,0,0)" paint-order="fill" d="M 430.6025695800781 414.47125244140625 L 447.1153869628906 414.47125244140625 L 447.1153869628906 294.5 L 430.6025695800781 294.5 L 430.6025695800781 414.47125244140625" fill-opacity="1" clip-path="url(#mvDEebhyGHrb)" stroke-opacity="1" stroke-linejoin="bevel" stroke-miterlimit="10" stroke-dasharray=""/><path fill="rgb(128,128,128)" stroke="rgb(0,0,0)" paint-order="fill" d="M 407.0128173828125 128.24295043945312 L 423.525634765625 128.24295043945312 L 423.525634765625 125.9969711303711 L 407.0128173828125 125.9969711303711 L 407.0128173828125 128.24295043945312" fill-opacity="1" clip-path="url(#mvDEebhyGHrb)" stroke-opacity="1" stroke-linejoin="bevel" stroke-miterlimit="10" stroke-dasharray=""/><path fill="rgb(128,128,128)" stroke="rgb(0,0,0)" paint-order="fill" d="M 279.6282043457031 217.03121948242188 L 296.1410217285156 217.03121948242188 L 296.1410217285156 196.98123168945312 L 279.6282043457031 196.98123168945312 L 279.6282043457031 217.03121948242188" fill-opacity="1" clip-path="url(#mvDEebhyGHrb)" stroke-opacity="1" stroke-linejoin="bevel" stroke-miterlimit="10" stroke-dasharray=""/><path fill="rgb(128,128,128)" stroke="rgb(0,0,0)" paint-order="fill" d="M 326.8077087402344 249.7133331298828 L 343.3205261230469 249.7133331298828 L 343.3205261230469 246.7138671875 L 326.8077087402344 246.7138671875 L 326.8077087402344 249.7133331298828" fill-opacity="1" clip-path="url(#mvDEebhyGHrb)" stroke-opacity="1" stroke-linejoin="bevel" stroke-miterlimit="10" stroke-dasharray=""/><path fill="rgb(128,128,128)" stroke="rgb(0,0,0)" paint-order="fill" d="M 303.21795654296875 414.47125244140625 L 319.73077392578125 414.47125244140625 L 319.73077392578125 294.5 L 303.21795654296875 294.5 L 303.21795654296875 414.47125244140625" fill-opacity="1" clip-path="url(#mvDEebhyGHrb)" stroke-opacity="1" stroke-linejoin="bevel" stroke-miterlimit="10" stroke-dasharray=""/><path fill="rgb(128,128,128)" stroke="rgb(0,0,0)" paint-order="fill" d="M 175.83334350585938 414.47125244140625 L 192.34616088867188 414.47125244140625 L 192.34616088867188 232.14451599121094 L 175.83334350585938 232.14451599121094 L 175.83334350585938 414.47125244140625" fill-opacity="1" clip-path="url(#mvDEebhyGHrb)" stroke-opacity="1" stroke-linejoin="bevel" stroke-miterlimit="10" stroke-dasharray=""/><path fill="rgb(128,128,128)" stroke="rgb(0,0,0)" paint-order="fill" d="M 223.0128173828125 414.47125244140625 L 239.525634765625 414.47125244140625 L 239.525634765625 205.19625854492188 L 223.0128173828125 205.19625854492188 L 223.0128173828125 414.47125244140625" fill-opacity="1" clip-path="url(#mvDEebhyGHrb)" stroke-opacity="1" stroke-linejoin="bevel" stroke-miterlimit="10" stroke-dasharray=""/><path fill="rgb(128,128,128)" stroke="rgb(0,0,0)" paint-order="fill" d="M 199.42308044433594 414.47125244140625 L 215.93589782714844 414.47125244140625 L 215.93589782714844 294.5 L 199.42308044433594 294.5 L 199.42308044433594 414.47125244140625" fill-opacity="1" clip-path="url(#mvDEebhyGHrb)" stroke-opacity="1" stroke-linejoin="bevel" stroke-miterlimit="10" stroke-dasharray=""/><path fill="rgb(128,128,128)" stroke="rgb(0,0,0)" paint-order="fill" d="M 600.44873046875 414.47125244140625 L 616.9615478515625 414.47125244140625 L 616.9615478515625 179.7342987060547 L 600.44873046875 179.7342987060547 L 600.44873046875 414.47125244140625" fill-opacity="1" clip-path="url(#mvDEebhyGHrb)" stroke-opacity="1" stroke-linejoin="bevel" stroke-miterlimit="10" stroke-dasharray=""/><path fill="rgb(128,128,128)" stroke="rgb(0,0,0)" paint-order="fill" d="M 543.8333129882812 165.29266357421875 L 560.3461303710938 165.29266357421875 L 560.3461303710938 141.39926147460938 L 543.8333129882812 141.39926147460938 L 543.8333129882812 165.29266357421875" fill-opacity="1" clip-path="url(#mvDEebhyGHrb)" stroke-opacity="1" stroke-linejoin="bevel" stroke-miterlimit="10" stroke-dasharray=""/><path fill="none" stroke="rgb(0,0,0)" paint-order="fill" d="M 68.5 294.5 L 620.5 294.5" stroke-opacity="1" stroke-linejoin="bevel" stroke-miterlimit="10" stroke-dasharray=""/><path fill="none" stroke="rgb(0,0,0)" paint-order="fill" d="M 80.5 300.5 L 80.5 292.5 M 103.5 300.5 L 103.5 292.5 M 127.5 300.5 L 127.5 292.5 M 184.5 300.5 L 184.5 292.5 M 207.5 300.5 L 207.5 292.5 M 231.5 300.5 L 231.5 292.5 M 287.5 300.5 L 287.5 292.5 M 311.5 300.5 L 311.5 292.5 M 335.5 300.5 L 335.5 292.5 M 391.5 300.5 L 391.5 292.5 M 415.5 300.5 L 415.5 292.5 M 438.5 300.5 L 438.5 292.5 M 495.5 300.5 L 495.5 292.5 M 552.5 300.5 L 552.5 292.5 M 608.5 300.5 L 608.5 292.5" stroke-opacity="1" stroke-linejoin="bevel" stroke-miterlimit="10" stroke-dasharray=""/><path fill="none" stroke="rgb(0,0,0)" paint-order="fill" d="" stroke-opacity="1" stroke-linejoin="bevel" stroke-miterlimit="10" stroke-dasharray=""/><text fill="rgb(68,68,68)" stroke="none" font-family="helvetica" font-size="10pt" font-style="normal" font-weight="normal" text-decoration="normal" x="74.98229217529297" y="317" text-anchor="start" dominant-baseline="alphabetic" transform="matrix(1, 0, 0, 1, 0.5, 0.5)" fill-opacity="1">C</text><text fill="rgb(68,68,68)" stroke="none" font-family="helvetica" font-size="10pt" font-style="normal" font-weight="normal" text-decoration="normal" x="98.20108795166016" y="317" text-anchor="start" dominant-baseline="alphabetic" transform="matrix(1, 0, 0, 1, 0.5, 0.5)" fill-opacity="1">G</text><text fill="rgb(68,68,68)" stroke="none" font-family="helvetica" font-size="10pt" font-style="normal" font-weight="normal" text-decoration="normal" x="122.90367889404297" y="317" text-anchor="start" dominant-baseline="alphabetic" transform="matrix(1, 0, 0, 1, 0.5, 0.5)" fill-opacity="1">T</text><text fill="rgb(68,68,68)" stroke="none" font-family="helvetica" font-size="10pt" font-style="normal" font-weight="normal" text-decoration="normal" x="179.14485931396484" y="317" text-anchor="start" dominant-baseline="alphabetic" transform="matrix(1, 0, 0, 1, 0.5, 0.5)" fill-opacity="1">A</text><text fill="rgb(68,68,68)" stroke="none" font-family="helvetica" font-size="10pt" font-style="normal" font-weight="normal" text-decoration="normal" x="201.99596405029297" y="317" text-anchor="start" dominant-baseline="alphabetic" transform="matrix(1, 0, 0, 1, 0.5, 0.5)" fill-opacity="1">G</text><text fill="rgb(68,68,68)" stroke="none" font-family="helvetica" font-size="10pt" font-style="normal" font-weight="normal" text-decoration="normal" x="226.69854736328125" y="317" text-anchor="start" dominant-baseline="alphabetic" transform="matrix(1, 0, 0, 1, 0.5, 0.5)" fill-opacity="1">T</text><text fill="rgb(68,68,68)" stroke="none" font-family="helvetica" font-size="10pt" font-style="normal" font-weight="normal" text-decoration="normal" x="282.93973541259766" y="317" text-anchor="start" dominant-baseline="alphabetic" transform="matrix(1, 0, 0, 1, 0.5, 0.5)" fill-opacity="1">A</text><text fill="rgb(68,68,68)" stroke="none" font-family="helvetica" font-size="10pt" font-style="normal" font-weight="normal" text-decoration="normal" x="306.1617889404297" y="317" text-anchor="start" dominant-baseline="alphabetic" transform="matrix(1, 0, 0, 1, 0.5, 0.5)" fill-opacity="1">C</text><text fill="rgb(68,68,68)" stroke="none" font-family="helvetica" font-size="10pt" font-style="normal" font-weight="normal" text-decoration="normal" x="330.4934387207031" y="317" text-anchor="start" dominant-baseline="alphabetic" transform="matrix(1, 0, 0, 1, 0.5, 0.5)" fill-opacity="1">T</text><text fill="rgb(68,68,68)" stroke="none" font-family="helvetica" font-size="10pt" font-style="normal" font-weight="normal" text-decoration="normal" x="386.7345962524414" y="317" text-anchor="start" dominant-baseline="alphabetic" transform="matrix(1, 0, 0, 1, 0.5, 0.5)" fill-opacity="1">A</text><text fill="rgb(68,68,68)" stroke="none" font-family="helvetica" font-size="10pt" font-style="normal" font-weight="normal" text-decoration="normal" x="409.95664978027344" y="317" text-anchor="start" dominant-baseline="alphabetic" transform="matrix(1, 0, 0, 1, 0.5, 0.5)" fill-opacity="1">C</text><text fill="rgb(68,68,68)" stroke="none" font-family="helvetica" font-size="10pt" font-style="normal" font-weight="normal" text-decoration="normal" x="433.17545318603516" y="317" text-anchor="start" dominant-baseline="alphabetic" transform="matrix(1, 0, 0, 1, 0.5, 0.5)" fill-opacity="1">G</text><text fill="rgb(68,68,68)" stroke="none" font-family="helvetica" font-size="10pt" font-style="normal" font-weight="normal" text-decoration="normal" x="488.3070373535156" y="317" text-anchor="start" dominant-baseline="alphabetic" transform="matrix(1, 0, 0, 1, 0.5, 0.5)" fill-opacity="1">all</text><text fill="rgb(68,68,68)" stroke="none" font-family="helvetica" font-size="10pt" font-style="normal" font-weight="normal" text-decoration="normal" x="542.6967010498047" y="317" text-anchor="start" dominant-baseline="alphabetic" transform="matrix(1, 0, 0, 1, 0.5, 0.5)" fill-opacity="1">del</text><text fill="rgb(68,68,68)" stroke="none" font-family="helvetica" font-size="10pt" font-style="normal" font-weight="normal" text-decoration="normal" x="599.6863250732422" y="317" text-anchor="start" dominant-baseline="alphabetic" transform="matrix(1, 0, 0, 1, 0.5, 0.5)" fill-opacity="1">ins</text><text fill="rgb(128,128,128)" stroke="none" font-family="helvetica" font-size="10pt" font-style="normal" font-weight="bold" text-decoration="normal" x="98.57203674316406" y="340" text-anchor="start" dominant-baseline="alphabetic" transform="matrix(1, 0, 0, 1, 0.5, 0.5)" fill-opacity="1">A</text><text fill="rgb(128,128,128)" stroke="none" font-family="helvetica" font-size="10pt" font-style="normal" font-weight="bold" text-decoration="normal" x="202.36691284179688" y="340" text-anchor="start" dominant-baseline="alphabetic" transform="matrix(1, 0, 0, 1, 0.5, 0.5)" fill-opacity="1">C</text><text fill="rgb(128,128,128)" stroke="none" font-family="helvetica" font-size="10pt" font-style="normal" font-weight="bold" text-decoration="normal" x="305.7908401489258" y="340" text-anchor="start" dominant-baseline="alphabetic" transform="matrix(1, 0, 0, 1, 0.5, 0.5)" fill-opacity="1">G</text><text fill="rgb(128,128,128)" stroke="none" font-family="helvetica" font-size="10pt" font-style="normal" font-weight="bold" text-decoration="normal" x="410.69854736328125" y="340" text-anchor="start" dominant-baseline="alphabetic" transform="matrix(1, 0, 0, 1, 0.5, 0.5)" fill-opacity="1">T</text><text fill="rgb(128,128,128)" stroke="none" font-family="helvetica" font-size="10pt" font-style="normal" font-weight="bold" text-decoration="normal" x="487.5651397705078" y="340" text-anchor="start" dominant-baseline="alphabetic" transform="matrix(1, 0, 0, 1, 0.5, 0.5)" fill-opacity="1">all</text><text fill="rgb(128,128,128)" stroke="none" font-family="helvetica" font-size="10pt" font-style="normal" font-weight="bold" text-decoration="normal" x="541.961311340332" y="340" text-anchor="start" dominant-baseline="alphabetic" transform="matrix(1, 0, 0, 1, 0.5, 0.5)" fill-opacity="1">del</text><text fill="rgb(128,128,128)" stroke="none" font-family="helvetica" font-size="10pt" font-style="normal" font-weight="bold" text-decoration="normal" x="598.5767288208008" y="340" text-anchor="start" dominant-baseline="alphabetic" transform="matrix(1, 0, 0, 1, 0.5, 0.5)" fill-opacity="1">ins</text><text fill="rgb(68,68,68)" stroke="none" font-family="helvetica" font-size="14pt" font-style="italic" font-weight="normal" text-decoration="normal" x="263.10311126708984" y="368" text-anchor="start" dominant-baseline="alphabetic" transform="matrix(1, 0, 0, 1, 0.5, 0.5)" fill-opacity="1">mutation nucleotide</text><text fill="rgb(68,68,68)" stroke="none" font-family="helvetica" font-size="14pt" font-style="italic" font-weight="normal" text-decoration="normal" x="262.5884246826172" y="393.2" text-anchor="start" dominant-baseline="alphabetic" transform="matrix(1, 0, 0, 1, 0.5, 0.5)" fill-opacity="1">wild type nucleotide</text><path fill="none" stroke="rgb(211,211,211)" paint-order="fill" d="M 155.5 334.5 L 155.5 297.5 M 259.5 334.5 L 259.5 297.5 M 363.5 334.5 L 363.5 297.5 M 467.5 334.5 L 467.5 297.5 M 523.5 334.5 L 523.5 297.5 M 580.5 334.5 L 580.5 297.5" stroke-opacity="1" stroke-linejoin="bevel" stroke-miterlimit="10" stroke-width="2" stroke-dasharray=""/><path fill="none" stroke="rgb(0,0,0)" paint-order="fill" d="M 68.5 294.5 L 68.5 36.5" stroke-opacity="1" stroke-linejoin="bevel" stroke-miterlimit="10" stroke-dasharray=""/><path fill="none" stroke="rgb(0,0,0)" paint-order="fill" d="M 62.5 294.5 L 70.5 294.5 M 62.5 234.5 L 70.5 234.5 M 62.5 174.5 L 70.5 174.5 M 62.5 114.5 L 70.5 114.5 M 62.5 54.5 L 70.5 54.5" stroke-opacity="1" stroke-linejoin="bevel" stroke-miterlimit="10" stroke-dasharray=""/><path fill="none" stroke="rgb(0,0,0)" paint-order="fill" d="M 64.5 294.5 L 68.5 294.5 M 64.5 294.5 L 68.5 294.5 M 64.5 294.5 L 68.5 294.5 M 64.5 276.5 L 68.5 276.5 M 64.5 265.5 L 68.5 265.5 M 64.5 258.5 L 68.5 258.5 M 64.5 252.5 L 68.5 252.5 M 64.5 247.5 L 68.5 247.5 M 64.5 243.5 L 68.5 243.5 M 64.5 240.5 L 68.5 240.5 M 64.5 237.5 L 68.5 237.5 M 64.5 234.5 L 68.5 234.5 M 64.5 234.5 L 68.5 234.5 M 64.5 216.5 L 68.5 216.5 M 64.5 205.5 L 68.5 205.5 M 64.5 198.5 L 68.5 198.5 M 64.5 192.5 L 68.5 192.5 M 64.5 187.5 L 68.5 187.5 M 64.5 183.5 L 68.5 183.5 M 64.5 180.5 L 68.5 180.5 M 64.5 177.5 L 68.5 177.5 M 64.5 174.5 L 68.5 174.5 M 64.5 174.5 L 68.5 174.5 M 64.5 156.5 L 68.5 156.5 M 64.5 145.5 L 68.5 145.5 M 64.5 138.5 L 68.5 138.5 M 64.5 132.5 L 68.5 132.5 M 64.5 127.5 L 68.5 127.5 M 64.5 123.5 L 68.5 123.5 M 64.5 120.5 L 68.5 120.5 M 64.5 117.5 L 68.5 117.5 M 64.5 114.5 L 68.5 114.5 M 64.5 114.5 L 68.5 114.5 M 64.5 96.5 L 68.5 96.5 M 64.5 85.5 L 68.5 85.5 M 64.5 78.5 L 68.5 78.5 M 64.5 72.5 L 68.5 72.5 M 64.5 67.5 L 68.5 67.5 M 64.5 63.5 L 68.5 63.5 M 64.5 60.5 L 68.5 60.5 M 64.5 57.5 L 68.5 57.5 M 64.5 54.5 L 68.5 54.5 M 64.5 54.5 L 68.5 54.5 M 64.5 36.5 L 68.5 36.5" stroke-opacity="1" stroke-linejoin="bevel" stroke-miterlimit="10" stroke-dasharray=""/><text fill="rgb(68,68,68)" stroke="none" font-family="helvetica" font-size="10pt" font-style="normal" font-weight="normal" text-decoration="normal" x="0" y="13" text-anchor="start" dominant-baseline="alphabetic" transform="matrix(1, 0, 0, 1, 32.039703369140625, 288)" fill-opacity="1">10</text><text fill="rgb(68,68,68)" stroke="none" font-family="helvetica" font-size="7pt" font-style="normal" font-weight="normal" text-decoration="normal" x="14.824951171875" y="7" text-anchor="start" dominant-baseline="alphabetic" transform="matrix(1, 0, 0, 1, 32.039703369140625, 288)" fill-opacity="1">−8</text><text fill="rgb(68,68,68)" stroke="none" font-family="helvetica" font-size="10pt" font-style="normal" font-weight="normal" text-decoration="normal" x="0" y="13" text-anchor="start" dominant-baseline="alphabetic" transform="matrix(1, 0, 0, 1, 32.039703369140625, 228.01437377929688)" fill-opacity="1">10</text><text fill="rgb(68,68,68)" stroke="none" font-family="helvetica" font-size="7pt" font-style="normal" font-weight="normal" text-decoration="normal" x="14.824951171875" y="7" text-anchor="start" dominant-baseline="alphabetic" transform="matrix(1, 0, 0, 1, 32.039703369140625, 228.01437377929688)" fill-opacity="1">−7</text><text fill="rgb(68,68,68)" stroke="none" font-family="helvetica" font-size="10pt" font-style="normal" font-weight="normal" text-decoration="normal" x="0" y="13" text-anchor="start" dominant-baseline="alphabetic" transform="matrix(1, 0, 0, 1, 32.039703369140625, 168.0287322998047)" fill-opacity="1">10</text><text fill="rgb(68,68,68)" stroke="none" font-family="helvetica" font-size="7pt" font-style="normal" font-weight="normal" text-decoration="normal" x="14.824951171875" y="7" text-anchor="start" dominant-baseline="alphabetic" transform="matrix(1, 0, 0, 1, 32.039703369140625, 168.0287322998047)" fill-opacity="1">−6</text><text fill="rgb(68,68,68)" stroke="none" font-family="helvetica" font-size="10pt" font-style="normal" font-weight="normal" text-decoration="normal" x="0" y="13" text-anchor="start" dominant-baseline="alphabetic" transform="matrix(1, 0, 0, 1, 32.039703369140625, 108.04310607910156)" fill-opacity="1">10</text><text fill="rgb(68,68,68)" stroke="none" font-family="helvetica" font-size="7pt" font-style="normal" font-weight="normal" text-decoration="normal" x="14.824951171875" y="7" text-anchor="start" dominant-baseline="alphabetic" transform="matrix(1, 0, 0, 1, 32.039703369140625, 108.04310607910156)" fill-opacity="1">−5</text><text fill="rgb(68,68,68)" stroke="none" font-family="helvetica" font-size="10pt" font-style="normal" font-weight="normal" text-decoration="normal" x="0" y="13" text-anchor="start" dominant-baseline="alphabetic" transform="matrix(1, 0, 0, 1, 32.039703369140625, 48.05747604370117)" fill-opacity="1">10</text><text fill="rgb(68,68,68)" stroke="none" font-family="helvetica" font-size="7pt" font-style="normal" font-weight="normal" text-decoration="normal" x="14.824951171875" y="7" text-anchor="start" dominant-baseline="alphabetic" transform="matrix(1, 0, 0, 1, 32.039703369140625, 48.05747604370117)" fill-opacity="1">−4</text><text fill="rgb(68,68,68)" stroke="none" font-family="helvetica" font-size="14pt" font-style="italic" font-weight="normal" text-decoration="normal" x="-129.955322265625" y="161" text-anchor="start" dominant-baseline="alphabetic" transform="matrix(6.123233995736766e-17, -1, 1, 6.123233995736766e-17, -140.96029663085938, 189.03970336914062)" fill-opacity="1">per base substitutions per generation</text><text fill="rgb(68,68,68)" stroke="none" font-family="helvetica" font-size="16pt" font-style="normal" font-weight="bold" text-decoration="normal" x="68" y="26" text-anchor="start" dominant-baseline="alphabetic" transform="matrix(1, 0, 0, 1, 0.5, 0.5)" fill-opacity="1">sample: I777K-L900S</text></svg>