<svg version="1.1" xmlns="http://www.w3.org/2000/svg" width="629" height="562"><defs><clipPath id="RLdQLTAXbvKl"><path fill="none" stroke="none" d="M 99.5 10.5 L 599.5 10.5 L 599.5 510.5 L 99.5 510.5 L 99.5 10.5 Z"/></clipPath><clipPath id="oXDCJTAVcpyT"><path fill="none" stroke="none" d="M 99.5 10.5 L 599.5 10.5 L 599.5 510.5 L 99.5 510.5 L 99.5 10.5 Z"/></clipPath><clipPath id="vNmiXCQVugVR"><path fill="none" stroke="none" d="M 99.5 10.5 L 599.5 10.5 L 599.5 510.5 L 99.5 510.5 L 99.5 10.5 Z"/></clipPath><clipPath id="eGxldzWGTDzX"><path fill="none" stroke="none" d="M 99.5 10.5 L 599.5 10.5 L 599.5 510.5 L 99.5 510.5 L 99.5 10.5 Z"/></clipPath><clipPath id="DWWXEQzCTJCk"><path fill="none" stroke="none" d="M 99.5 10.5 L 599.5 10.5 L 599.5 510.5 L 99.5 510.5 L 99.5 10.5 Z"/></clipPath><clipPath id="oaeMLvgpWLzV"><path fill="none" stroke="none" d="M 99.5 10.5 L 599.5 10.5 L 599.5 510.5 L 99.5 510.5 L 99.5 10.5 Z"/></clipPath><clipPath id="CggqWcOWzRzf"><path fill="none" stroke="none" d="M 99.5 10.5 L 599.5 10.5 L 599.5 510.5 L 99.5 510.5 L 99.5 10.5 Z"/></clipPath></defs><path fill="rgb(255,255,255)" stroke="none" paint-order="stroke" d="M 0.5 0.5 L 629.5 0.5 L 629.5 562.5 L 0.5 562.5 L 0.5 0.5 Z" fill-opacity="1"/><rect fill="#FFFFFF" stroke="none" x="99" y="10" width="500" height="500" transform="matrix(1, 0, 0, 1, 0.5, 0.5)"/><path fill="rgb(255,255,255)" stroke="none" paint-order="stroke" d="M 99.5 10.5 L 599.5 10.5 L 599.5 510.5 L 99.5 510.5 L 99.5 10.5 Z" fill-opacity="1"/><path fill="none" stroke="rgb(229,229,229)" paint-order="fill" d="M 99.5 10.5 L 599.5 10.5 L 599.5 510.5 L 99.5 510.5 L 99.5 10.5 Z" stroke-opacity="1" stroke-linejoin="bevel" stroke-miterlimit="10"/><path fill="rgb(0,0,0)" stroke="rgb(0,0,0)" paint-order="fill" d="M 129.60213817815082 485.340576171875 A 2.7386127875258306 2.7386127875258306 0 0 1 124.12491260309918 485.340576171875 A 2.7386127875258306 2.7386127875258306 0 0 1 129.60213817815082 485.340576171875" fill-opacity="1" clip-path="url(#vNmiXCQVugVR)" stroke-opacity="1" stroke-linejoin="bevel" stroke-miterlimit="10"/><path fill="rgb(0,0,0)" stroke="rgb(0,0,0)" paint-order="fill" d="M 137.48696483830707 484.1458740234375 A 2.7386127875258306 2.7386127875258306 0 0 1 132.00973926325543 484.1458740234375 A 2.7386127875258306 2.7386127875258306 0 0 1 137.48696483830707 484.1458740234375" fill-opacity="1" clip-path="url(#vNmiXCQVugVR)" stroke-opacity="1" stroke-linejoin="bevel" stroke-miterlimit="10"/><path fill="rgb(0,0,0)" stroke="rgb(0,0,0)" paint-order="fill" d="M 131.9483448431899 477.9041442871094 A 2.7386127875258306 2.7386127875258306 0 0 1 126.47111926813824 477.9041442871094 A 2.7386127875258306 2.7386127875258306 0 0 1 131.9483448431899 477.9041442871094" fill-opacity="1" clip-path="url(#vNmiXCQVugVR)" stroke-opacity="1" stroke-linejoin="bevel" stroke-miterlimit="10"/><path fill="rgb(0,0,0)" stroke="rgb(0,0,0)" paint-order="fill" d="M 133.00609935979145 477.8201599121094 A 2.7386127875258306 2.7386127875258306 0 0 1 127.5288737847398 477.8201599121094 A 2.7386127875258306 2.7386127875258306 0 0 1 133.00609935979145 477.8201599121094" fill-opacity="1" clip-path="url(#vNmiXCQVugVR)" stroke-opacity="1" stroke-linejoin="bevel" stroke-miterlimit="10"/><path fill="rgb(0,0,0)" stroke="rgb(0,0,0)" paint-order="fill" d="M 132.1918293402602 482.8017883300781 A 2.7386127875258306 2.7386127875258306 0 0 1 126.71460376520855 482.8017883300781 A 2.7386127875258306 2.7386127875258306 0 0 1 132.1918293402602 482.8017883300781" fill-opacity="1" clip-path="url(#vNmiXCQVugVR)" stroke-opacity="1" stroke-linejoin="bevel" stroke-miterlimit="10"/><path fill="rgb(0,0,0)" stroke="rgb(0,0,0)" paint-order="fill" d="M 139.44791759709614 478.89178466796875 A 2.7386127875258306 2.7386127875258306 0 0 1 133.9706920220445 478.89178466796875 A 2.7386127875258306 2.7386127875258306 0 0 1 139.44791759709614 478.89178466796875" fill-opacity="1" clip-path="url(#vNmiXCQVugVR)" stroke-opacity="1" stroke-linejoin="bevel" stroke-miterlimit="10"/><path fill="rgb(0,0,0)" stroke="rgb(0,0,0)" paint-order="fill" d="M 162.03629650334614 476.4814147949219 A 2.7386127875258306 2.7386127875258306 0 0 1 156.5590709282945 476.4814147949219 A 2.7386127875258306 2.7386127875258306 0 0 1 162.03629650334614 476.4814147949219" fill-opacity="1" clip-path="url(#vNmiXCQVugVR)" stroke-opacity="1" stroke-linejoin="bevel" stroke-miterlimit="10"/><path fill="rgb(0,0,0)" stroke="rgb(0,0,0)" paint-order="fill" d="M 157.19826854924457 465.6583557128906 A 2.7386127875258306 2.7386127875258306 0 0 1 151.72104297419293 465.6583557128906 A 2.7386127875258306 2.7386127875258306 0 0 1 157.19826854924457 465.6583557128906" fill-opacity="1" clip-path="url(#vNmiXCQVugVR)" stroke-opacity="1" stroke-linejoin="bevel" stroke-miterlimit="10"/><path fill="rgb(0,0,0)" stroke="rgb(0,0,0)" paint-order="fill" d="M 161.20377697209614 463.5794677734375 A 2.7386127875258306 2.7386127875258306 0 0 1 155.7265513970445 463.5794677734375 A 2.7386127875258306 2.7386127875258306 0 0 1 161.20377697209614 463.5794677734375" fill-opacity="1" clip-path="url(#vNmiXCQVugVR)" stroke-opacity="1" stroke-linejoin="bevel" stroke-miterlimit="10"/><path fill="rgb(0,0,0)" stroke="rgb(0,0,0)" paint-order="fill" d="M 153.61538280705707 473.9927978515625 A 2.7386127875258306 2.7386127875258306 0 0 1 148.13815723200543 473.9927978515625 A 2.7386127875258306 2.7386127875258306 0 0 1 153.61538280705707 473.9927978515625" fill-opacity="1" clip-path="url(#vNmiXCQVugVR)" stroke-opacity="1" stroke-linejoin="bevel" stroke-miterlimit="10"/><path fill="rgb(0,0,0)" stroke="rgb(0,0,0)" paint-order="fill" d="M 175.95026745061176 446.5850524902344 A 2.7386127875258306 2.7386127875258306 0 0 1 170.4730418755601 446.5850524902344 A 2.7386127875258306 2.7386127875258306 0 0 1 175.95026745061176 446.5850524902344" fill-opacity="1" clip-path="url(#vNmiXCQVugVR)" stroke-opacity="1" stroke-linejoin="bevel" stroke-miterlimit="10"/><path fill="rgb(0,0,0)" stroke="rgb(0,0,0)" paint-order="fill" d="M 177.125133173268 450.7648620605469 A 2.7386127875258306 2.7386127875258306 0 0 1 171.64790759821636 450.7648620605469 A 2.7386127875258306 2.7386127875258306 0 0 1 177.125133173268 450.7648620605469" fill-opacity="1" clip-path="url(#vNmiXCQVugVR)" stroke-opacity="1" stroke-linejoin="bevel" stroke-miterlimit="10"/><path fill="rgb(0,0,0)" stroke="rgb(0,0,0)" paint-order="fill" d="M 178.7499348090102 450.1434631347656 A 2.7386127875258306 2.7386127875258306 0 0 1 173.27270923395855 450.1434631347656 A 2.7386127875258306 2.7386127875258306 0 0 1 178.7499348090102 450.1434631347656" fill-opacity="1" clip-path="url(#vNmiXCQVugVR)" stroke-opacity="1" stroke-linejoin="bevel" stroke-miterlimit="10"/><path fill="rgb(0,0,0)" stroke="rgb(0,0,0)" paint-order="fill" d="M 192.28278698186176 455.34130859375 A 2.7386127875258306 2.7386127875258306 0 0 1 186.8055614068101 455.34130859375 A 2.7386127875258306 2.7386127875258306 0 0 1 192.28278698186176 455.34130859375" fill-opacity="1" clip-path="url(#vNmiXCQVugVR)" stroke-opacity="1" stroke-linejoin="bevel" stroke-miterlimit="10"/><path fill="rgb(0,0,0)" stroke="rgb(0,0,0)" paint-order="fill" d="M 380.2062641547133 422.605712890625 A 2.7386127875258306 2.7386127875258306 0 0 1 374.7290385796617 422.605712890625 A 2.7386127875258306 2.7386127875258306 0 0 1 380.2062641547133 422.605712890625" fill-opacity="1" clip-path="url(#vNmiXCQVugVR)" stroke-opacity="1" stroke-linejoin="bevel" stroke-miterlimit="10"/><path fill="rgb(0,0,0)" stroke="rgb(0,0,0)" paint-order="fill" d="M 383.9023090765883 406.7358703613281 A 2.7386127875258306 2.7386127875258306 0 0 1 378.4250835015367 406.7358703613281 A 2.7386127875258306 2.7386127875258306 0 0 1 383.9023090765883 406.7358703613281" fill-opacity="1" clip-path="url(#vNmiXCQVugVR)" stroke-opacity="1" stroke-linejoin="bevel" stroke-miterlimit="10"/><path fill="rgb(0,0,0)" stroke="rgb(0,0,0)" paint-order="fill" d="M 326.4802509711196 350.3487548828125 A 2.7386127875258306 2.7386127875258306 0 0 1 321.0030253960679 350.3487548828125 A 2.7386127875258306 2.7386127875258306 0 0 1 326.4802509711196 350.3487548828125" fill-opacity="1" clip-path="url(#vNmiXCQVugVR)" stroke-opacity="1" stroke-linejoin="bevel" stroke-miterlimit="10"/><path fill="rgb(0,0,0)" stroke="rgb(0,0,0)" paint-order="fill" d="M 388.3133198187758 390.7462463378906 A 2.7386127875258306 2.7386127875258306 0 0 1 382.8360942437242 390.7462463378906 A 2.7386127875258306 2.7386127875258306 0 0 1 388.3133198187758 390.7462463378906" fill-opacity="1" clip-path="url(#vNmiXCQVugVR)" stroke-opacity="1" stroke-linejoin="bevel" stroke-miterlimit="10"/><path fill="rgb(0,0,0)" stroke="rgb(0,0,0)" paint-order="fill" d="M 378.7279926703383 380.57928466796875 A 2.7386127875258306 2.7386127875258306 0 0 1 373.2507670952867 380.57928466796875 A 2.7386127875258306 2.7386127875258306 0 0 1 378.7279926703383 380.57928466796875" fill-opacity="1" clip-path="url(#vNmiXCQVugVR)" stroke-opacity="1" stroke-linejoin="bevel" stroke-miterlimit="10"/><path fill="rgb(0,0,0)" stroke="rgb(0,0,0)" paint-order="fill" d="M 421.2611652777602 371.335205078125 A 2.7386127875258306 2.7386127875258306 0 0 1 415.78393970270855 371.335205078125 A 2.7386127875258306 2.7386127875258306 0 0 1 421.2611652777602 371.335205078125" fill-opacity="1" clip-path="url(#vNmiXCQVugVR)" stroke-opacity="1" stroke-linejoin="bevel" stroke-miterlimit="10"/><path fill="rgb(0,0,0)" stroke="rgb(0,0,0)" paint-order="fill" d="M 399.38024486760395 402.1193542480469 A 2.7386127875258306 2.7386127875258306 0 0 1 393.9030192925523 402.1193542480469 A 2.7386127875258306 2.7386127875258306 0 0 1 399.38024486760395 402.1193542480469" fill-opacity="1" clip-path="url(#vNmiXCQVugVR)" stroke-opacity="1" stroke-linejoin="bevel" stroke-miterlimit="10"/><path fill="rgb(0,0,0)" stroke="rgb(0,0,0)" paint-order="fill" d="M 321.8911701605727 404.81878662109375 A 2.7386127875258306 2.7386127875258306 0 0 1 316.41394458552105 404.81878662109375 A 2.7386127875258306 2.7386127875258306 0 0 1 321.8911701605727 404.81878662109375" fill-opacity="1" clip-path="url(#vNmiXCQVugVR)" stroke-opacity="1" stroke-linejoin="bevel" stroke-miterlimit="10"/><path fill="rgb(0,0,0)" stroke="rgb(0,0,0)" paint-order="fill" d="M 330.99682201604145 412.2015380859375 A 2.7386127875258306 2.7386127875258306 0 0 1 325.5195964409898 412.2015380859375 A 2.7386127875258306 2.7386127875258306 0 0 1 330.99682201604145 412.2015380859375" fill-opacity="1" clip-path="url(#vNmiXCQVugVR)" stroke-opacity="1" stroke-linejoin="bevel" stroke-miterlimit="10"/><path fill="rgb(0,0,0)" stroke="rgb(0,0,0)" paint-order="fill" d="M 319.6328998969008 422.8389587402344 A 2.7386127875258306 2.7386127875258306 0 0 1 314.1556743218492 422.8389587402344 A 2.7386127875258306 2.7386127875258306 0 0 1 319.6328998969008 422.8389587402344" fill-opacity="1" clip-path="url(#vNmiXCQVugVR)" stroke-opacity="1" stroke-linejoin="bevel" stroke-miterlimit="10"/><path fill="rgb(0,0,0)" stroke="rgb(0,0,0)" paint-order="fill" d="M 311.7648579047133 422.56475830078125 A 2.7386127875258306 2.7386127875258306 0 0 1 306.2876323296617 422.56475830078125 A 2.7386127875258306 2.7386127875258306 0 0 1 311.7648579047133 422.56475830078125" fill-opacity="1" clip-path="url(#vNmiXCQVugVR)" stroke-opacity="1" stroke-linejoin="bevel" stroke-miterlimit="10"/><path fill="rgb(0,0,0)" stroke="rgb(0,0,0)" paint-order="fill" d="M 186.78654064397114 443.1115417480469 A 2.7386127875258306 2.7386127875258306 0 0 1 181.3093150689195 443.1115417480469 A 2.7386127875258306 2.7386127875258306 0 0 1 186.78654064397114 443.1115417480469" fill-opacity="1" clip-path="url(#vNmiXCQVugVR)" stroke-opacity="1" stroke-linejoin="bevel" stroke-miterlimit="10"/><path fill="rgb(0,0,0)" stroke="rgb(0,0,0)" paint-order="fill" d="M 179.38802685002582 446.76043701171875 A 2.7386127875258306 2.7386127875258306 0 0 1 173.91080127497418 446.76043701171875 A 2.7386127875258306 2.7386127875258306 0 0 1 179.38802685002582 446.76043701171875" fill-opacity="1" clip-path="url(#vNmiXCQVugVR)" stroke-opacity="1" stroke-linejoin="bevel" stroke-miterlimit="10"/><path fill="rgb(0,0,0)" stroke="rgb(0,0,0)" paint-order="fill" d="M 194.54777111272114 435.7524719238281 A 2.7386127875258306 2.7386127875258306 0 0 1 189.0705455376695 435.7524719238281 A 2.7386127875258306 2.7386127875258306 0 0 1 194.54777111272114 435.7524719238281" fill-opacity="1" clip-path="url(#vNmiXCQVugVR)" stroke-opacity="1" stroke-linejoin="bevel" stroke-miterlimit="10"/><path fill="rgb(0,0,0)" stroke="rgb(0,0,0)" paint-order="fill" d="M 179.29699291447895 451.52069091796875 A 2.7386127875258306 2.7386127875258306 0 0 1 173.8197673394273 451.52069091796875 A 2.7386127875258306 2.7386127875258306 0 0 1 179.29699291447895 451.52069091796875" fill-opacity="1" clip-path="url(#vNmiXCQVugVR)" stroke-opacity="1" stroke-linejoin="bevel" stroke-miterlimit="10"/><path fill="rgb(0,0,0)" stroke="rgb(0,0,0)" paint-order="fill" d="M 160.27677501897114 471.693115234375 A 2.7386127875258306 2.7386127875258306 0 0 1 154.7995494439195 471.693115234375 A 2.7386127875258306 2.7386127875258306 0 0 1 160.27677501897114 471.693115234375" fill-opacity="1" clip-path="url(#vNmiXCQVugVR)" stroke-opacity="1" stroke-linejoin="bevel" stroke-miterlimit="10"/><path fill="rgb(0,0,0)" stroke="rgb(0,0,0)" paint-order="fill" d="M 120.16925396184223 454.05621337890625 A 2.7386127875258306 2.7386127875258306 0 0 1 114.69202838679058 454.05621337890625 A 2.7386127875258306 2.7386127875258306 0 0 1 120.16925396184223 454.05621337890625" fill-opacity="1" clip-path="url(#vNmiXCQVugVR)" stroke-opacity="1" stroke-linejoin="bevel" stroke-miterlimit="10"/><path fill="rgb(0,0,0)" stroke="rgb(0,0,0)" paint-order="fill" d="M 151.930308954518 482.57843017578125 A 2.7386127875258306 2.7386127875258306 0 0 1 146.45308337946636 482.57843017578125 A 2.7386127875258306 2.7386127875258306 0 0 1 151.930308954518 482.57843017578125" fill-opacity="1" clip-path="url(#vNmiXCQVugVR)" stroke-opacity="1" stroke-linejoin="bevel" stroke-miterlimit="10"/><path fill="rgb(0,0,0)" stroke="rgb(0,0,0)" paint-order="fill" d="M 153.09035839299457 468.41644287109375 A 2.7386127875258306 2.7386127875258306 0 0 1 147.61313281794293 468.41644287109375 A 2.7386127875258306 2.7386127875258306 0 0 1 153.09035839299457 468.41644287109375" fill-opacity="1" clip-path="url(#vNmiXCQVugVR)" stroke-opacity="1" stroke-linejoin="bevel" stroke-miterlimit="10"/><path fill="rgb(0,0,0)" stroke="rgb(0,0,0)" paint-order="fill" d="M 135.95309032658832 489.58984375 A 2.7386127875258306 2.7386127875258306 0 0 1 130.47586475153668 489.58984375 A 2.7386127875258306 2.7386127875258306 0 0 1 135.95309032658832 489.58984375" fill-opacity="1" clip-path="url(#vNmiXCQVugVR)" stroke-opacity="1" stroke-linejoin="bevel" stroke-miterlimit="10"/><path fill="rgb(0,0,0)" stroke="rgb(0,0,0)" paint-order="fill" d="M 136.0746876166274 494.8870544433594 A 2.7386127875258306 2.7386127875258306 0 0 1 130.59746204157574 494.8870544433594 A 2.7386127875258306 2.7386127875258306 0 0 1 136.0746876166274 494.8870544433594" fill-opacity="1" clip-path="url(#vNmiXCQVugVR)" stroke-opacity="1" stroke-linejoin="bevel" stroke-miterlimit="10"/><path fill="rgb(0,0,0)" stroke="rgb(0,0,0)" paint-order="fill" d="M 132.8935657904555 480.2725830078125 A 2.7386127875258306 2.7386127875258306 0 0 1 127.41634021540386 480.2725830078125 A 2.7386127875258306 2.7386127875258306 0 0 1 132.8935657904555 480.2725830078125" fill-opacity="1" clip-path="url(#vNmiXCQVugVR)" stroke-opacity="1" stroke-linejoin="bevel" stroke-miterlimit="10"/><path fill="rgb(0,0,0)" stroke="rgb(0,0,0)" paint-order="fill" d="M 131.1971012518813 483.535888671875 A 2.7386127875258306 2.7386127875258306 0 0 1 125.71987567682964 483.535888671875 A 2.7386127875258306 2.7386127875258306 0 0 1 131.1971012518813 483.535888671875" fill-opacity="1" clip-path="url(#vNmiXCQVugVR)" stroke-opacity="1" stroke-linejoin="bevel" stroke-miterlimit="10"/><path fill="rgb(0,0,0)" stroke="rgb(0,0,0)" paint-order="fill" d="M 256.52636303166645 395.8879089355469 A 2.7386127875258306 2.7386127875258306 0 0 1 251.0491374566148 395.8879089355469 A 2.7386127875258306 2.7386127875258306 0 0 1 256.52636303166645 395.8879089355469" fill-opacity="1" clip-path="url(#vNmiXCQVugVR)" stroke-opacity="1" stroke-linejoin="bevel" stroke-miterlimit="10"/><path fill="rgb(0,0,0)" stroke="rgb(0,0,0)" paint-order="fill" d="M 244.48481334904926 415.59600830078125 A 2.7386127875258306 2.7386127875258306 0 0 1 239.0075877739976 415.59600830078125 A 2.7386127875258306 2.7386127875258306 0 0 1 244.48481334904926 415.59600830078125" fill-opacity="1" clip-path="url(#vNmiXCQVugVR)" stroke-opacity="1" stroke-linejoin="bevel" stroke-miterlimit="10"/><path fill="rgb(0,0,0)" stroke="rgb(0,0,0)" paint-order="fill" d="M 236.67931713322895 421.48822021484375 A 2.7386127875258306 2.7386127875258306 0 0 1 231.2020915581773 421.48822021484375 A 2.7386127875258306 2.7386127875258306 0 0 1 236.67931713322895 421.48822021484375" fill-opacity="1" clip-path="url(#vNmiXCQVugVR)" stroke-opacity="1" stroke-linejoin="bevel" stroke-miterlimit="10"/><path fill="rgb(0,0,0)" stroke="rgb(0,0,0)" paint-order="fill" d="M 246.97286571721332 413.34478759765625 A 2.7386127875258306 2.7386127875258306 0 0 1 241.49564014216168 413.34478759765625 A 2.7386127875258306 2.7386127875258306 0 0 1 246.97286571721332 413.34478759765625" fill-opacity="1" clip-path="url(#vNmiXCQVugVR)" stroke-opacity="1" stroke-linejoin="bevel" stroke-miterlimit="10"/><path fill="rgb(0,0,0)" stroke="rgb(0,0,0)" paint-order="fill" d="M 229.90298046330707 416.4362487792969 A 2.7386127875258306 2.7386127875258306 0 0 1 224.42575488825543 416.4362487792969 A 2.7386127875258306 2.7386127875258306 0 0 1 229.90298046330707 416.4362487792969" fill-opacity="1" clip-path="url(#vNmiXCQVugVR)" stroke-opacity="1" stroke-linejoin="bevel" stroke-miterlimit="10"/><path fill="rgb(0,0,0)" stroke="rgb(0,0,0)" paint-order="fill" d="M 242.67507518986957 410.6603698730469 A 2.7386127875258306 2.7386127875258306 0 0 1 237.19784961481793 410.6603698730469 A 2.7386127875258306 2.7386127875258306 0 0 1 242.67507518986957 410.6603698730469" fill-opacity="1" clip-path="url(#vNmiXCQVugVR)" stroke-opacity="1" stroke-linejoin="bevel" stroke-miterlimit="10"/><path fill="rgb(0,0,0)" stroke="rgb(0,0,0)" paint-order="fill" d="M 239.92936290959614 420.90362548828125 A 2.7386127875258306 2.7386127875258306 0 0 1 234.4521373345445 420.90362548828125 A 2.7386127875258306 2.7386127875258306 0 0 1 239.92936290959614 420.90362548828125" fill-opacity="1" clip-path="url(#vNmiXCQVugVR)" stroke-opacity="1" stroke-linejoin="bevel" stroke-miterlimit="10"/><path fill="rgb(0,0,0)" stroke="rgb(0,0,0)" paint-order="fill" d="M 185.9712025092055 452.3955993652344 A 2.7386127875258306 2.7386127875258306 0 0 1 180.49397693415386 452.3955993652344 A 2.7386127875258306 2.7386127875258306 0 0 1 185.9712025092055 452.3955993652344" fill-opacity="1" clip-path="url(#vNmiXCQVugVR)" stroke-opacity="1" stroke-linejoin="bevel" stroke-miterlimit="10"/><path fill="rgb(0,0,0)" stroke="rgb(0,0,0)" paint-order="fill" d="M 271.77489818791645 426.2540588378906 A 2.7386127875258306 2.7386127875258306 0 0 1 266.2976726128648 426.2540588378906 A 2.7386127875258306 2.7386127875258306 0 0 1 271.77489818791645 426.2540588378906" fill-opacity="1" clip-path="url(#vNmiXCQVugVR)" stroke-opacity="1" stroke-linejoin="bevel" stroke-miterlimit="10"/><path fill="rgb(0,0,0)" stroke="rgb(0,0,0)" paint-order="fill" d="M 304.93273510197895 449.8303527832031 A 2.7386127875258306 2.7386127875258306 0 0 1 299.4555095269273 449.8303527832031 A 2.7386127875258306 2.7386127875258306 0 0 1 304.93273510197895 449.8303527832031" fill-opacity="1" clip-path="url(#vNmiXCQVugVR)" stroke-opacity="1" stroke-linejoin="bevel" stroke-miterlimit="10"/><path fill="rgb(0,0,0)" stroke="rgb(0,0,0)" paint-order="fill" d="M 216.61049999455707 425.73016357421875 A 2.7386127875258306 2.7386127875258306 0 0 1 211.13327441950543 425.73016357421875 A 2.7386127875258306 2.7386127875258306 0 0 1 216.61049999455707 425.73016357421875" fill-opacity="1" clip-path="url(#vNmiXCQVugVR)" stroke-opacity="1" stroke-linejoin="bevel" stroke-miterlimit="10"/><path fill="rgb(0,0,0)" stroke="rgb(0,0,0)" paint-order="fill" d="M 298.36889232854145 420.57684326171875 A 2.7386127875258306 2.7386127875258306 0 0 1 292.8916667534898 420.57684326171875 A 2.7386127875258306 2.7386127875258306 0 0 1 298.36889232854145 420.57684326171875" fill-opacity="1" clip-path="url(#vNmiXCQVugVR)" stroke-opacity="1" stroke-linejoin="bevel" stroke-miterlimit="10"/><path fill="rgb(0,0,0)" stroke="rgb(0,0,0)" paint-order="fill" d="M 133.84353222111957 489.40167236328125 A 2.7386127875258306 2.7386127875258306 0 0 1 128.36630664606793 489.40167236328125 A 2.7386127875258306 2.7386127875258306 0 0 1 133.84353222111957 489.40167236328125" fill-opacity="1" clip-path="url(#vNmiXCQVugVR)" stroke-opacity="1" stroke-linejoin="bevel" stroke-miterlimit="10"/><path fill="rgb(0,0,0)" stroke="rgb(0,0,0)" paint-order="fill" d="M 127.27997936467426 490.0428466796875 A 2.7386127875258306 2.7386127875258306 0 0 1 121.80275378962261 490.0428466796875 A 2.7386127875258306 2.7386127875258306 0 0 1 127.27997936467426 490.0428466796875" fill-opacity="1" clip-path="url(#vNmiXCQVugVR)" stroke-opacity="1" stroke-linejoin="bevel" stroke-miterlimit="10"/><path fill="rgb(0,0,0)" stroke="rgb(0,0,0)" paint-order="fill" d="M 124.92694439152973 489.0724182128906 A 2.7386127875258306 2.7386127875258306 0 0 1 119.44971881647808 489.0724182128906 A 2.7386127875258306 2.7386127875258306 0 0 1 124.92694439152973 489.0724182128906" fill-opacity="1" clip-path="url(#vNmiXCQVugVR)" stroke-opacity="1" stroke-linejoin="bevel" stroke-miterlimit="10"/><path fill="rgb(0,0,0)" stroke="rgb(0,0,0)" paint-order="fill" d="M 303.7727619574477 289.8163757324219 A 2.7386127875258306 2.7386127875258306 0 0 1 298.29553638239605 289.8163757324219 A 2.7386127875258306 2.7386127875258306 0 0 1 303.7727619574477 289.8163757324219" fill-opacity="1" clip-path="url(#vNmiXCQVugVR)" stroke-opacity="1" stroke-linejoin="bevel" stroke-miterlimit="10"/><path fill="rgb(0,0,0)" stroke="rgb(0,0,0)" paint-order="fill" d="M 148.15719188908832 481.4739074707031 A 2.7386127875258306 2.7386127875258306 0 0 1 142.67996631403668 481.4739074707031 A 2.7386127875258306 2.7386127875258306 0 0 1 148.15719188908832 481.4739074707031" fill-opacity="1" clip-path="url(#vNmiXCQVugVR)" stroke-opacity="1" stroke-linejoin="bevel" stroke-miterlimit="10"/><path fill="rgb(0,0,0)" stroke="rgb(0,0,0)" paint-order="fill" d="M 145.5688587592055 486.46673583984375 A 2.7386127875258306 2.7386127875258306 0 0 1 140.09163318415386 486.46673583984375 A 2.7386127875258306 2.7386127875258306 0 0 1 145.5688587592055 486.46673583984375" fill-opacity="1" clip-path="url(#vNmiXCQVugVR)" stroke-opacity="1" stroke-linejoin="bevel" stroke-miterlimit="10"/><path fill="rgb(0,0,0)" stroke="rgb(0,0,0)" paint-order="fill" d="M 139.5802570746352 483.9033508300781 A 2.7386127875258306 2.7386127875258306 0 0 1 134.10303149958355 483.9033508300781 A 2.7386127875258306 2.7386127875258306 0 0 1 139.5802570746352 483.9033508300781" fill-opacity="1" clip-path="url(#vNmiXCQVugVR)" stroke-opacity="1" stroke-linejoin="bevel" stroke-miterlimit="10"/><path fill="rgb(0,0,0)" stroke="rgb(0,0,0)" paint-order="fill" d="M 142.60329784611957 479.73944091796875 A 2.7386127875258306 2.7386127875258306 0 0 1 137.12607227106793 479.73944091796875 A 2.7386127875258306 2.7386127875258306 0 0 1 142.60329784611957 479.73944091796875" fill-opacity="1" clip-path="url(#vNmiXCQVugVR)" stroke-opacity="1" stroke-linejoin="bevel" stroke-miterlimit="10"/><path fill="rgb(0,0,0)" stroke="rgb(0,0,0)" paint-order="fill" d="M 256.3872333929946 457.54718017578125 A 2.7386127875258306 2.7386127875258306 0 0 1 250.91000781794293 457.54718017578125 A 2.7386127875258306 2.7386127875258306 0 0 1 256.3872333929946 457.54718017578125" fill-opacity="1" clip-path="url(#vNmiXCQVugVR)" stroke-opacity="1" stroke-linejoin="bevel" stroke-miterlimit="10"/><path fill="rgb(0,0,0)" stroke="rgb(0,0,0)" paint-order="fill" d="M 579.2687031195571 305.802490234375 A 2.7386127875258306 2.7386127875258306 0 0 1 573.7914775445054 305.802490234375 A 2.7386127875258306 2.7386127875258306 0 0 1 579.2687031195571 305.802490234375" fill-opacity="1" clip-path="url(#vNmiXCQVugVR)" stroke-opacity="1" stroke-linejoin="bevel" stroke-miterlimit="10"/><path fill="rgb(0,0,0)" stroke="rgb(0,0,0)" paint-order="fill" d="M 410.2796894476821 419.3350524902344 A 2.7386127875258306 2.7386127875258306 0 0 1 404.8024638726304 419.3350524902344 A 2.7386127875258306 2.7386127875258306 0 0 1 410.2796894476821 419.3350524902344" fill-opacity="1" clip-path="url(#vNmiXCQVugVR)" stroke-opacity="1" stroke-linejoin="bevel" stroke-miterlimit="10"/><path fill="rgb(0,0,0)" stroke="rgb(0,0,0)" paint-order="fill" d="M 531.2218281195571 331.18109130859375 A 2.7386127875258306 2.7386127875258306 0 0 1 525.7446025445054 331.18109130859375 A 2.7386127875258306 2.7386127875258306 0 0 1 531.2218281195571 331.18109130859375" fill-opacity="1" clip-path="url(#vNmiXCQVugVR)" stroke-opacity="1" stroke-linejoin="bevel" stroke-miterlimit="10"/><path fill="rgb(0,0,0)" stroke="rgb(0,0,0)" paint-order="fill" d="M 512.8342548773696 320.3951416015625 A 2.7386127875258306 2.7386127875258306 0 0 1 507.3570293023179 320.3951416015625 A 2.7386127875258306 2.7386127875258306 0 0 1 512.8342548773696 320.3951416015625" fill-opacity="1" clip-path="url(#vNmiXCQVugVR)" stroke-opacity="1" stroke-linejoin="bevel" stroke-miterlimit="10"/><path fill="rgb(0,0,0)" stroke="rgb(0,0,0)" paint-order="fill" d="M 446.7981525824477 327.4274597167969 A 2.7386127875258306 2.7386127875258306 0 0 1 441.32092700739605 327.4274597167969 A 2.7386127875258306 2.7386127875258306 0 0 1 446.7981525824477 327.4274597167969" fill-opacity="1" clip-path="url(#vNmiXCQVugVR)" stroke-opacity="1" stroke-linejoin="bevel" stroke-miterlimit="10"/><path fill="none" stroke="rgb(211,211,211)" paint-order="fill" d="M 99.5 510.5 L 599.5 270.8208923339844" stroke-opacity="1" stroke-linejoin="bevel" stroke-miterlimit="10" stroke-width="2" stroke-dasharray="6" clip-path="url(#eGxldzWGTDzX)"/><g clip-path="url(#DWWXEQzCTJCk)"><text fill="rgb(0,0,0)" stroke="none" font-family="helvetica" font-size="12Pt" font-style="normal" font-weight="normal" text-decoration="normal" x="0" y="14" text-anchor="start" dominant-baseline="alphabetic" transform="matrix(1, 0, 0, 1, 499.5, 110.5)" fill-opacity="1">R² = 0.90</text></g><g clip-path="url(#DWWXEQzCTJCk)"><text fill="none" stroke="rgb(0,0,0)" font-family="helvetica" font-size="12Pt" font-style="normal" font-weight="normal" text-decoration="normal" x="0" y="14" text-anchor="start" dominant-baseline="alphabetic" transform="matrix(1, 0, 0, 1, 499.5, 110.5)" stroke-opacity="0" stroke-miterlimit="10" stroke-dasharray="">R² = 0.90</text></g><g clip-path="url(#oaeMLvgpWLzV)"><text fill="rgb(0,0,0)" stroke="none" font-family="helvetica" font-size="12Pt" font-style="normal" font-weight="normal" text-decoration="normal" x="0" y="14" text-anchor="start" dominant-baseline="alphabetic" transform="matrix(1, 0, 0, 1, 499.5, 130.5)" fill-opacity="1">slope = 0.48</text></g><g clip-path="url(#oaeMLvgpWLzV)"><text fill="none" stroke="rgb(0,0,0)" font-family="helvetica" font-size="12Pt" font-style="normal" font-weight="normal" text-decoration="normal" x="0" y="14" text-anchor="start" dominant-baseline="alphabetic" transform="matrix(1, 0, 0, 1, 499.5, 130.5)" stroke-opacity="0" stroke-miterlimit="10" stroke-dasharray="">slope = 0.48</text></g><path fill="none" stroke="rgb(0,0,0)" paint-order="fill" d="M 99.5 510.5 L 599.5 510.5" stroke-opacity="1" stroke-linejoin="bevel" stroke-miterlimit="10"/><path fill="none" stroke="rgb(0,0,0)" paint-order="fill" d="M 99.5 516.5 L 99.5 508.5 M 199.5 516.5 L 199.5 508.5 M 299.5 516.5 L 299.5 508.5 M 399.5 516.5 L 399.5 508.5 M 499.5 516.5 L 499.5 508.5 M 599.5 516.5 L 599.5 508.5" stroke-opacity="1" stroke-linejoin="bevel" stroke-miterlimit="10"/><path fill="none" stroke="rgb(0,0,0)" paint-order="fill" d="M 99.5 514.5 L 99.5 510.5 M 119.5 514.5 L 119.5 510.5 M 139.5 514.5 L 139.5 510.5 M 159.5 514.5 L 159.5 510.5 M 179.5 514.5 L 179.5 510.5 M 199.5 514.5 L 199.5 510.5 M 219.5 514.5 L 219.5 510.5 M 239.5 514.5 L 239.5 510.5 M 259.5 514.5 L 259.5 510.5 M 279.5 514.5 L 279.5 510.5 M 299.5 514.5 L 299.5 510.5 M 319.5 514.5 L 319.5 510.5 M 339.5 514.5 L 339.5 510.5 M 359.5 514.5 L 359.5 510.5 M 379.5 514.5 L 379.5 510.5 M 399.5 514.5 L 399.5 510.5 M 419.5 514.5 L 419.5 510.5 M 439.5 514.5 L 439.5 510.5 M 459.5 514.5 L 459.5 510.5 M 479.5 514.5 L 479.5 510.5 M 499.5 514.5 L 499.5 510.5 M 519.5 514.5 L 519.5 510.5 M 539.5 514.5 L 539.5 510.5 M 559.5 514.5 L 559.5 510.5 M 579.5 514.5 L 579.5 510.5 M 599.5 514.5 L 599.5 510.5" stroke-opacity="1" stroke-linejoin="bevel" stroke-miterlimit="10"/><text fill="rgb(68,68,68)" stroke="none" font-family="helvetica" font-size="10pt" font-style="normal" font-weight="normal" text-decoration="normal" x="71.01937103271484" y="530" text-anchor="start" dominant-baseline="alphabetic" transform="matrix(1, 0, 0, 1, 0.5, 0.5)" fill-opacity="1">0.000e+0</text><text fill="none" stroke="rgb(0,0,0)" font-family="helvetica" font-size="10pt" font-style="normal" font-weight="normal" text-decoration="normal" x="71.01937103271484" y="530" text-anchor="start" dominant-baseline="alphabetic" transform="matrix(1, 0, 0, 1, 0.5, 0.5)" stroke-opacity="0" stroke-linejoin="bevel" stroke-miterlimit="10">0.000e+0</text><text fill="rgb(68,68,68)" stroke="none" font-family="helvetica" font-size="10pt" font-style="normal" font-weight="normal" text-decoration="normal" x="171.01937103271484" y="530" text-anchor="start" dominant-baseline="alphabetic" transform="matrix(1, 0, 0, 1, 0.5, 0.5)" fill-opacity="1">5.000e−5</text><text fill="none" stroke="rgb(0,0,0)" font-family="helvetica" font-size="10pt" font-style="normal" font-weight="normal" text-decoration="normal" x="171.01937103271484" y="530" text-anchor="start" dominant-baseline="alphabetic" transform="matrix(1, 0, 0, 1, 0.5, 0.5)" stroke-opacity="0" stroke-linejoin="bevel" stroke-miterlimit="10">5.000e−5</text><text fill="rgb(68,68,68)" stroke="none" font-family="helvetica" font-size="10pt" font-style="normal" font-weight="normal" text-decoration="normal" x="271.01937103271484" y="530" text-anchor="start" dominant-baseline="alphabetic" transform="matrix(1, 0, 0, 1, 0.5, 0.5)" fill-opacity="1">1.000e−4</text><text fill="none" stroke="rgb(0,0,0)" font-family="helvetica" font-size="10pt" font-style="normal" font-weight="normal" text-decoration="normal" x="271.01937103271484" y="530" text-anchor="start" dominant-baseline="alphabetic" transform="matrix(1, 0, 0, 1, 0.5, 0.5)" stroke-opacity="0" stroke-linejoin="bevel" stroke-miterlimit="10">1.000e−4</text><text fill="rgb(68,68,68)" stroke="none" font-family="helvetica" font-size="10pt" font-style="normal" font-weight="normal" text-decoration="normal" x="371.01937103271484" y="530" text-anchor="start" dominant-baseline="alphabetic" transform="matrix(1, 0, 0, 1, 0.5, 0.5)" fill-opacity="1">1.500e−4</text><text fill="none" stroke="rgb(0,0,0)" font-family="helvetica" font-size="10pt" font-style="normal" font-weight="normal" text-decoration="normal" x="371.01937103271484" y="530" text-anchor="start" dominant-baseline="alphabetic" transform="matrix(1, 0, 0, 1, 0.5, 0.5)" stroke-opacity="0" stroke-linejoin="bevel" stroke-miterlimit="10">1.500e−4</text><text fill="rgb(68,68,68)" stroke="none" font-family="helvetica" font-size="10pt" font-style="normal" font-weight="normal" text-decoration="normal" x="471.01937103271484" y="530" text-anchor="start" dominant-baseline="alphabetic" transform="matrix(1, 0, 0, 1, 0.5, 0.5)" fill-opacity="1">2.000e−4</text><text fill="none" stroke="rgb(0,0,0)" font-family="helvetica" font-size="10pt" font-style="normal" font-weight="normal" text-decoration="normal" x="471.01937103271484" y="530" text-anchor="start" dominant-baseline="alphabetic" transform="matrix(1, 0, 0, 1, 0.5, 0.5)" stroke-opacity="0" stroke-linejoin="bevel" stroke-miterlimit="10">2.000e−4</text><text fill="rgb(68,68,68)" stroke="none" font-family="helvetica" font-size="10pt" font-style="normal" font-weight="normal" text-decoration="normal" x="571.0193710327148" y="530" text-anchor="start" dominant-baseline="alphabetic" transform="matrix(1, 0, 0, 1, 0.5, 0.5)" fill-opacity="1">2.500e−4</text><text fill="none" stroke="rgb(0,0,0)" font-family="helvetica" font-size="10pt" font-style="normal" font-weight="normal" text-decoration="normal" x="571.0193710327148" y="530" text-anchor="start" dominant-baseline="alphabetic" transform="matrix(1, 0, 0, 1, 0.5, 0.5)" stroke-opacity="0" stroke-linejoin="bevel" stroke-miterlimit="10">2.500e−4</text><text fill="rgb(68,68,68)" stroke="none" font-family="helvetica" font-size="14pt" font-style="italic" font-weight="normal" text-decoration="normal" x="264.49119567871094" y="555" text-anchor="start" dominant-baseline="alphabetic" transform="matrix(1, 0, 0, 1, 0.5, 0.5)" fill-opacity="1">mutation rate, URA3</text><text fill="none" stroke="rgb(0,0,0)" font-family="helvetica" font-size="14pt" font-style="italic" font-weight="normal" text-decoration="normal" x="264.49119567871094" y="555" text-anchor="start" dominant-baseline="alphabetic" transform="matrix(1, 0, 0, 1, 0.5, 0.5)" stroke-opacity="0" stroke-linejoin="bevel" stroke-miterlimit="10">mutation rate, URA3</text><path fill="none" stroke="rgb(0,0,0)" paint-order="fill" d="M 99.5 510.5 L 99.5 10.5" stroke-opacity="1" stroke-linejoin="bevel" stroke-miterlimit="10"/><path fill="none" stroke="rgb(0,0,0)" paint-order="fill" d="M 93.5 510.5 L 101.5 510.5 M 93.5 410.5 L 101.5 410.5 M 93.5 310.5 L 101.5 310.5 M 93.5 210.5 L 101.5 210.5 M 93.5 110.5 L 101.5 110.5 M 93.5 10.5 L 101.5 10.5" stroke-opacity="1" stroke-linejoin="bevel" stroke-miterlimit="10"/><path fill="none" stroke="rgb(0,0,0)" paint-order="fill" d="M 95.5 510.5 L 99.5 510.5 M 95.5 490.5 L 99.5 490.5 M 95.5 470.5 L 99.5 470.5 M 95.5 450.5 L 99.5 450.5 M 95.5 430.5 L 99.5 430.5 M 95.5 410.5 L 99.5 410.5 M 95.5 390.5 L 99.5 390.5 M 95.5 370.5 L 99.5 370.5 M 95.5 350.5 L 99.5 350.5 M 95.5 330.5 L 99.5 330.5 M 95.5 310.5 L 99.5 310.5 M 95.5 290.5 L 99.5 290.5 M 95.5 270.5 L 99.5 270.5 M 95.5 250.5 L 99.5 250.5 M 95.5 230.5 L 99.5 230.5 M 95.5 210.5 L 99.5 210.5 M 95.5 190.5 L 99.5 190.5 M 95.5 170.5 L 99.5 170.5 M 95.5 150.5 L 99.5 150.5 M 95.5 130.5 L 99.5 130.5 M 95.5 110.5 L 99.5 110.5 M 95.5 90.5 L 99.5 90.5 M 95.5 70.5 L 99.5 70.5 M 95.5 50.5 L 99.5 50.5 M 95.5 30.5 L 99.5 30.5 M 95.5 10.5 L 99.5 10.5" stroke-opacity="1" stroke-linejoin="bevel" stroke-miterlimit="10"/><text fill="rgb(68,68,68)" stroke="none" font-family="helvetica" font-size="10pt" font-style="normal" font-weight="normal" text-decoration="normal" x="32.03874206542969" y="514.5" text-anchor="start" dominant-baseline="alphabetic" transform="matrix(1, 0, 0, 1, 0.5, 0.5)" fill-opacity="1">0.000e+0</text><text fill="none" stroke="rgb(0,0,0)" font-family="helvetica" font-size="10pt" font-style="normal" font-weight="normal" text-decoration="normal" x="32.03874206542969" y="514.5" text-anchor="start" dominant-baseline="alphabetic" transform="matrix(1, 0, 0, 1, 0.5, 0.5)" stroke-opacity="0" stroke-linejoin="bevel" stroke-miterlimit="10">0.000e+0</text><text fill="rgb(68,68,68)" stroke="none" font-family="helvetica" font-size="10pt" font-style="normal" font-weight="normal" text-decoration="normal" x="32.03874206542969" y="414.5" text-anchor="start" dominant-baseline="alphabetic" transform="matrix(1, 0, 0, 1, 0.5, 0.5)" fill-opacity="1">5.000e−5</text><text fill="none" stroke="rgb(0,0,0)" font-family="helvetica" font-size="10pt" font-style="normal" font-weight="normal" text-decoration="normal" x="32.03874206542969" y="414.5" text-anchor="start" dominant-baseline="alphabetic" transform="matrix(1, 0, 0, 1, 0.5, 0.5)" stroke-opacity="0" stroke-linejoin="bevel" stroke-miterlimit="10">5.000e−5</text><text fill="rgb(68,68,68)" stroke="none" font-family="helvetica" font-size="10pt" font-style="normal" font-weight="normal" text-decoration="normal" x="32.03874206542969" y="314.5" text-anchor="start" dominant-baseline="alphabetic" transform="matrix(1, 0, 0, 1, 0.5, 0.5)" fill-opacity="1">1.000e−4</text><text fill="none" stroke="rgb(0,0,0)" font-family="helvetica" font-size="10pt" font-style="normal" font-weight="normal" text-decoration="normal" x="32.03874206542969" y="314.5" text-anchor="start" dominant-baseline="alphabetic" transform="matrix(1, 0, 0, 1, 0.5, 0.5)" stroke-opacity="0" stroke-linejoin="bevel" stroke-miterlimit="10">1.000e−4</text><text fill="rgb(68,68,68)" stroke="none" font-family="helvetica" font-size="10pt" font-style="normal" font-weight="normal" text-decoration="normal" x="32.03874206542969" y="214.5" text-anchor="start" dominant-baseline="alphabetic" transform="matrix(1, 0, 0, 1, 0.5, 0.5)" fill-opacity="1">1.500e−4</text><text fill="none" stroke="rgb(0,0,0)" font-family="helvetica" font-size="10pt" font-style="normal" font-weight="normal" text-decoration="normal" x="32.03874206542969" y="214.5" text-anchor="start" dominant-baseline="alphabetic" transform="matrix(1, 0, 0, 1, 0.5, 0.5)" stroke-opacity="0" stroke-linejoin="bevel" stroke-miterlimit="10">1.500e−4</text><text fill="rgb(68,68,68)" stroke="none" font-family="helvetica" font-size="10pt" font-style="normal" font-weight="normal" text-decoration="normal" x="32.03874206542969" y="114.5" text-anchor="start" dominant-baseline="alphabetic" transform="matrix(1, 0, 0, 1, 0.5, 0.5)" fill-opacity="1">2.000e−4</text><text fill="none" stroke="rgb(0,0,0)" font-family="helvetica" font-size="10pt" font-style="normal" font-weight="normal" text-decoration="normal" x="32.03874206542969" y="114.5" text-anchor="start" dominant-baseline="alphabetic" transform="matrix(1, 0, 0, 1, 0.5, 0.5)" stroke-opacity="0" stroke-linejoin="bevel" stroke-miterlimit="10">2.000e−4</text><text fill="rgb(68,68,68)" stroke="none" font-family="helvetica" font-size="10pt" font-style="normal" font-weight="normal" text-decoration="normal" x="32.03874206542969" y="14.5" text-anchor="start" dominant-baseline="alphabetic" transform="matrix(1, 0, 0, 1, 0.5, 0.5)" fill-opacity="1">2.500e−4</text><text fill="none" stroke="rgb(0,0,0)" font-family="helvetica" font-size="10pt" font-style="normal" font-weight="normal" text-decoration="normal" x="32.03874206542969" y="14.5" text-anchor="start" dominant-baseline="alphabetic" transform="matrix(1, 0, 0, 1, 0.5, 0.5)" stroke-opacity="0" stroke-linejoin="bevel" stroke-miterlimit="10">2.500e−4</text><text fill="rgb(68,68,68)" stroke="none" font-family="helvetica" font-size="14pt" font-style="italic" font-weight="normal" text-decoration="normal" x="-58.92144775390625" y="256" text-anchor="start" dominant-baseline="alphabetic" transform="matrix(6.123233995736766e-17, -1, 1, 6.123233995736766e-17, -235.4612579345703, 284.5387420654297)" fill-opacity="1">mutation rate, LEU2</text><text fill="none" stroke="rgb(0,0,0)" font-family="helvetica" font-size="14pt" font-style="italic" font-weight="normal" text-decoration="normal" x="-58.92144775390625" y="256" text-anchor="start" dominant-baseline="alphabetic" transform="matrix(6.123233995736766e-17, -1, 1, 6.123233995736766e-17, -235.4612579345703, 284.5387420654297)" stroke-opacity="0" stroke-linejoin="bevel" stroke-miterlimit="10">mutation rate, LEU2</text></svg>