<svg version="1.1" xmlns="http://www.w3.org/2000/svg" width="629" height="562"><defs><clipPath id="ovOcTqFUtWdR"><path fill="none" stroke="none" d="M 99.5 10.5 L 599.5 10.5 L 599.5 510.5 L 99.5 510.5 L 99.5 10.5 Z"/></clipPath><clipPath id="MxznxxkkQbRO"><path fill="none" stroke="none" d="M 99.5 10.5 L 599.5 10.5 L 599.5 510.5 L 99.5 510.5 L 99.5 10.5 Z"/></clipPath><clipPath id="vogFsaXEPIuI"><path fill="none" stroke="none" d="M 99.5 10.5 L 599.5 10.5 L 599.5 510.5 L 99.5 510.5 L 99.5 10.5 Z"/></clipPath><clipPath id="GxvtiSkMbTfl"><path fill="none" stroke="none" d="M 99.5 10.5 L 599.5 10.5 L 599.5 510.5 L 99.5 510.5 L 99.5 10.5 Z"/></clipPath><clipPath id="XfyDfigvQJVs"><path fill="none" stroke="none" d="M 99.5 10.5 L 599.5 10.5 L 599.5 510.5 L 99.5 510.5 L 99.5 10.5 Z"/></clipPath><clipPath id="fTxfDkUiIOEO"><path fill="none" stroke="none" d="M 99.5 10.5 L 599.5 10.5 L 599.5 510.5 L 99.5 510.5 L 99.5 10.5 Z"/></clipPath><clipPath id="bcuLoymITADt"><path fill="none" stroke="none" d="M 99.5 10.5 L 599.5 10.5 L 599.5 510.5 L 99.5 510.5 L 99.5 10.5 Z"/></clipPath></defs><path fill="rgb(255,255,255)" stroke="none" paint-order="stroke" d="M 0.5 0.5 L 629.5 0.5 L 629.5 562.5 L 0.5 562.5 L 0.5 0.5 Z" fill-opacity="1"/><rect fill="#FFFFFF" stroke="none" x="99" y="10" width="500" height="500" transform="matrix(1, 0, 0, 1, 0.5, 0.5)"/><path fill="rgb(255,255,255)" stroke="none" paint-order="stroke" d="M 99.5 10.5 L 599.5 10.5 L 599.5 510.5 L 99.5 510.5 L 99.5 10.5 Z" fill-opacity="1"/><path fill="none" stroke="rgb(229,229,229)" paint-order="fill" d="M 99.5 10.5 L 599.5 10.5 L 599.5 510.5 L 99.5 510.5 L 99.5 10.5 Z" stroke-opacity="1" stroke-linejoin="bevel" stroke-miterlimit="10"/><path fill="rgb(0,0,0)" stroke="rgb(0,0,0)" paint-order="fill" d="M 125.38468517522114 485.340576171875 A 2.7386127875258306 2.7386127875258306 0 0 1 119.90745960016949 485.340576171875 A 2.7386127875258306 2.7386127875258306 0 0 1 125.38468517522114 485.340576171875" fill-opacity="1" clip-path="url(#vogFsaXEPIuI)" stroke-opacity="1" stroke-linejoin="bevel" stroke-miterlimit="10"/><path fill="rgb(0,0,0)" stroke="rgb(0,0,0)" paint-order="fill" d="M 116.62172283391254 484.1458740234375 A 2.7386127875258306 2.7386127875258306 0 0 1 111.1444972588609 484.1458740234375 A 2.7386127875258306 2.7386127875258306 0 0 1 116.62172283391254 484.1458740234375" fill-opacity="1" clip-path="url(#vogFsaXEPIuI)" stroke-opacity="1" stroke-linejoin="bevel" stroke-miterlimit="10"/><path fill="rgb(0,0,0)" stroke="rgb(0,0,0)" paint-order="fill" d="M 128.29889263371723 477.9041442871094 A 2.7386127875258306 2.7386127875258306 0 0 1 122.82166705866558 477.9041442871094 A 2.7386127875258306 2.7386127875258306 0 0 1 128.29889263371723 477.9041442871094" fill-opacity="1" clip-path="url(#vogFsaXEPIuI)" stroke-opacity="1" stroke-linejoin="bevel" stroke-miterlimit="10"/><path fill="rgb(0,0,0)" stroke="rgb(0,0,0)" paint-order="fill" d="M 129.24199260930317 477.8201599121094 A 2.7386127875258306 2.7386127875258306 0 0 1 123.76476703425152 477.8201599121094 A 2.7386127875258306 2.7386127875258306 0 0 1 129.24199260930317 477.8201599121094" fill-opacity="1" clip-path="url(#vogFsaXEPIuI)" stroke-opacity="1" stroke-linejoin="bevel" stroke-miterlimit="10"/><path fill="rgb(0,0,0)" stroke="rgb(0,0,0)" paint-order="fill" d="M 129.85618938664692 482.8017883300781 A 2.7386127875258306 2.7386127875258306 0 0 1 124.37896381159527 482.8017883300781 A 2.7386127875258306 2.7386127875258306 0 0 1 129.85618938664692 482.8017883300781" fill-opacity="1" clip-path="url(#vogFsaXEPIuI)" stroke-opacity="1" stroke-linejoin="bevel" stroke-miterlimit="10"/><path fill="rgb(0,0,0)" stroke="rgb(0,0,0)" paint-order="fill" d="M 130.40623821477192 478.89178466796875 A 2.7386127875258306 2.7386127875258306 0 0 1 124.92901263972027 478.89178466796875 A 2.7386127875258306 2.7386127875258306 0 0 1 130.40623821477192 478.89178466796875" fill-opacity="1" clip-path="url(#vogFsaXEPIuI)" stroke-opacity="1" stroke-linejoin="bevel" stroke-miterlimit="10"/><path fill="rgb(0,0,0)" stroke="rgb(0,0,0)" paint-order="fill" d="M 162.77424205998676 476.4814147949219 A 2.7386127875258306 2.7386127875258306 0 0 1 157.2970164849351 476.4814147949219 A 2.7386127875258306 2.7386127875258306 0 0 1 162.77424205998676 476.4814147949219" fill-opacity="1" clip-path="url(#vogFsaXEPIuI)" stroke-opacity="1" stroke-linejoin="bevel" stroke-miterlimit="10"/><path fill="rgb(0,0,0)" stroke="rgb(0,0,0)" paint-order="fill" d="M 152.4867512152602 465.6583557128906 A 2.7386127875258306 2.7386127875258306 0 0 1 147.00952564020855 465.6583557128906 A 2.7386127875258306 2.7386127875258306 0 0 1 152.4867512152602 465.6583557128906" fill-opacity="1" clip-path="url(#vogFsaXEPIuI)" stroke-opacity="1" stroke-linejoin="bevel" stroke-miterlimit="10"/><path fill="rgb(0,0,0)" stroke="rgb(0,0,0)" paint-order="fill" d="M 153.9490314886977 463.5794677734375 A 2.7386127875258306 2.7386127875258306 0 0 1 148.47180591364605 463.5794677734375 A 2.7386127875258306 2.7386127875258306 0 0 1 153.9490314886977 463.5794677734375" fill-opacity="1" clip-path="url(#vogFsaXEPIuI)" stroke-opacity="1" stroke-linejoin="bevel" stroke-miterlimit="10"/><path fill="rgb(0,0,0)" stroke="rgb(0,0,0)" paint-order="fill" d="M 149.999644892018 473.9927978515625 A 2.7386127875258306 2.7386127875258306 0 0 1 144.52241931696636 473.9927978515625 A 2.7386127875258306 2.7386127875258306 0 0 1 149.999644892018 473.9927978515625" fill-opacity="1" clip-path="url(#vogFsaXEPIuI)" stroke-opacity="1" stroke-linejoin="bevel" stroke-miterlimit="10"/><path fill="rgb(0,0,0)" stroke="rgb(0,0,0)" paint-order="fill" d="M 192.76908458928364 446.5850524902344 A 2.7386127875258306 2.7386127875258306 0 0 1 187.291859014232 446.5850524902344 A 2.7386127875258306 2.7386127875258306 0 0 1 192.76908458928364 446.5850524902344" fill-opacity="1" clip-path="url(#vogFsaXEPIuI)" stroke-opacity="1" stroke-linejoin="bevel" stroke-miterlimit="10"/><path fill="rgb(0,0,0)" stroke="rgb(0,0,0)" paint-order="fill" d="M 176.61989940861957 450.7648620605469 A 2.7386127875258306 2.7386127875258306 0 0 1 171.14267383356793 450.7648620605469 A 2.7386127875258306 2.7386127875258306 0 0 1 176.61989940861957 450.7648620605469" fill-opacity="1" clip-path="url(#vogFsaXEPIuI)" stroke-opacity="1" stroke-linejoin="bevel" stroke-miterlimit="10"/><path fill="rgb(0,0,0)" stroke="rgb(0,0,0)" paint-order="fill" d="M 177.76852001408832 450.1434631347656 A 2.7386127875258306 2.7386127875258306 0 0 1 172.29129443903668 450.1434631347656 A 2.7386127875258306 2.7386127875258306 0 0 1 177.76852001408832 450.1434631347656" fill-opacity="1" clip-path="url(#vogFsaXEPIuI)" stroke-opacity="1" stroke-linejoin="bevel" stroke-miterlimit="10"/><path fill="rgb(0,0,0)" stroke="rgb(0,0,0)" paint-order="fill" d="M 176.08674205998676 455.34130859375 A 2.7386127875258306 2.7386127875258306 0 0 1 170.6095164849351 455.34130859375 A 2.7386127875258306 2.7386127875258306 0 0 1 176.08674205998676 455.34130859375" fill-opacity="1" clip-path="url(#vogFsaXEPIuI)" stroke-opacity="1" stroke-linejoin="bevel" stroke-miterlimit="10"/><path fill="rgb(0,0,0)" stroke="rgb(0,0,0)" paint-order="fill" d="M 400.6128803656508 422.605712890625 A 2.7386127875258306 2.7386127875258306 0 0 1 395.1356547905992 422.605712890625 A 2.7386127875258306 2.7386127875258306 0 0 1 400.6128803656508 422.605712890625" fill-opacity="1" clip-path="url(#vogFsaXEPIuI)" stroke-opacity="1" stroke-linejoin="bevel" stroke-miterlimit="10"/><path fill="rgb(0,0,0)" stroke="rgb(0,0,0)" paint-order="fill" d="M 374.1265522406508 406.7358703613281 A 2.7386127875258306 2.7386127875258306 0 0 1 368.6493266655992 406.7358703613281 A 2.7386127875258306 2.7386127875258306 0 0 1 374.1265522406508 406.7358703613281" fill-opacity="1" clip-path="url(#vogFsaXEPIuI)" stroke-opacity="1" stroke-linejoin="bevel" stroke-miterlimit="10"/><path fill="rgb(0,0,0)" stroke="rgb(0,0,0)" paint-order="fill" d="M 371.9861103461196 350.3487548828125 A 2.7386127875258306 2.7386127875258306 0 0 1 366.5088847710679 350.3487548828125 A 2.7386127875258306 2.7386127875258306 0 0 1 371.9861103461196 350.3487548828125" fill-opacity="1" clip-path="url(#vogFsaXEPIuI)" stroke-opacity="1" stroke-linejoin="bevel" stroke-miterlimit="10"/><path fill="rgb(0,0,0)" stroke="rgb(0,0,0)" paint-order="fill" d="M 438.0334125922133 390.7462463378906 A 2.7386127875258306 2.7386127875258306 0 0 1 432.5561870171617 390.7462463378906 A 2.7386127875258306 2.7386127875258306 0 0 1 438.0334125922133 390.7462463378906" fill-opacity="1" clip-path="url(#vogFsaXEPIuI)" stroke-opacity="1" stroke-linejoin="bevel" stroke-miterlimit="10"/><path fill="rgb(0,0,0)" stroke="rgb(0,0,0)" paint-order="fill" d="M 360.4414631293227 380.57928466796875 A 2.7386127875258306 2.7386127875258306 0 0 1 354.96423755427105 380.57928466796875 A 2.7386127875258306 2.7386127875258306 0 0 1 360.4414631293227 380.57928466796875" fill-opacity="1" clip-path="url(#vogFsaXEPIuI)" stroke-opacity="1" stroke-linejoin="bevel" stroke-miterlimit="10"/><path fill="rgb(0,0,0)" stroke="rgb(0,0,0)" paint-order="fill" d="M 378.0797382758071 371.335205078125 A 2.7386127875258306 2.7386127875258306 0 0 1 372.6025127007554 371.335205078125 A 2.7386127875258306 2.7386127875258306 0 0 1 378.0797382758071 371.335205078125" fill-opacity="1" clip-path="url(#vogFsaXEPIuI)" stroke-opacity="1" stroke-linejoin="bevel" stroke-miterlimit="10"/><path fill="rgb(0,0,0)" stroke="rgb(0,0,0)" paint-order="fill" d="M 385.3472553656508 402.1193542480469 A 2.7386127875258306 2.7386127875258306 0 0 1 379.8700297905992 402.1193542480469 A 2.7386127875258306 2.7386127875258306 0 0 1 385.3472553656508 402.1193542480469" fill-opacity="1" clip-path="url(#vogFsaXEPIuI)" stroke-opacity="1" stroke-linejoin="bevel" stroke-miterlimit="10"/><path fill="rgb(0,0,0)" stroke="rgb(0,0,0)" paint-order="fill" d="M 316.20287670354145 404.81878662109375 A 2.7386127875258306 2.7386127875258306 0 0 1 310.7256511284898 404.81878662109375 A 2.7386127875258306 2.7386127875258306 0 0 1 316.20287670354145 404.81878662109375" fill-opacity="1" clip-path="url(#vogFsaXEPIuI)" stroke-opacity="1" stroke-linejoin="bevel" stroke-miterlimit="10"/><path fill="rgb(0,0,0)" stroke="rgb(0,0,0)" paint-order="fill" d="M 325.1395527289321 412.2015380859375 A 2.7386127875258306 2.7386127875258306 0 0 1 319.6623271538804 412.2015380859375 A 2.7386127875258306 2.7386127875258306 0 0 1 325.1395527289321 412.2015380859375" fill-opacity="1" clip-path="url(#vogFsaXEPIuI)" stroke-opacity="1" stroke-linejoin="bevel" stroke-miterlimit="10"/><path fill="rgb(0,0,0)" stroke="rgb(0,0,0)" paint-order="fill" d="M 286.9504963324477 422.8389587402344 A 2.7386127875258306 2.7386127875258306 0 0 1 281.47327075739605 422.8389587402344 A 2.7386127875258306 2.7386127875258306 0 0 1 286.9504963324477 422.8389587402344" fill-opacity="1" clip-path="url(#vogFsaXEPIuI)" stroke-opacity="1" stroke-linejoin="bevel" stroke-miterlimit="10"/><path fill="rgb(0,0,0)" stroke="rgb(0,0,0)" paint-order="fill" d="M 306.2251240179946 422.56475830078125 A 2.7386127875258306 2.7386127875258306 0 0 1 300.7478984429429 422.56475830078125 A 2.7386127875258306 2.7386127875258306 0 0 1 306.2251240179946 422.56475830078125" fill-opacity="1" clip-path="url(#vogFsaXEPIuI)" stroke-opacity="1" stroke-linejoin="bevel" stroke-miterlimit="10"/><path fill="rgb(0,0,0)" stroke="rgb(0,0,0)" paint-order="fill" d="M 181.1560627386977 443.1115417480469 A 2.7386127875258306 2.7386127875258306 0 0 1 175.67883716364605 443.1115417480469 A 2.7386127875258306 2.7386127875258306 0 0 1 181.1560627386977 443.1115417480469" fill-opacity="1" clip-path="url(#vogFsaXEPIuI)" stroke-opacity="1" stroke-linejoin="bevel" stroke-miterlimit="10"/><path fill="rgb(0,0,0)" stroke="rgb(0,0,0)" paint-order="fill" d="M 177.604137079518 446.76043701171875 A 2.7386127875258306 2.7386127875258306 0 0 1 172.12691150446636 446.76043701171875 A 2.7386127875258306 2.7386127875258306 0 0 1 177.604137079518 446.76043701171875" fill-opacity="1" clip-path="url(#vogFsaXEPIuI)" stroke-opacity="1" stroke-linejoin="bevel" stroke-miterlimit="10"/><path fill="rgb(0,0,0)" stroke="rgb(0,0,0)" paint-order="fill" d="M 191.83739818791645 435.7524719238281 A 2.7386127875258306 2.7386127875258306 0 0 1 186.3601726128648 435.7524719238281 A 2.7386127875258306 2.7386127875258306 0 0 1 191.83739818791645 435.7524719238281" fill-opacity="1" clip-path="url(#vogFsaXEPIuI)" stroke-opacity="1" stroke-linejoin="bevel" stroke-miterlimit="10"/><path fill="rgb(0,0,0)" stroke="rgb(0,0,0)" paint-order="fill" d="M 172.30915416936176 451.52069091796875 A 2.7386127875258306 2.7386127875258306 0 0 1 166.8319285943101 451.52069091796875 A 2.7386127875258306 2.7386127875258306 0 0 1 172.30915416936176 451.52069091796875" fill-opacity="1" clip-path="url(#vogFsaXEPIuI)" stroke-opacity="1" stroke-linejoin="bevel" stroke-miterlimit="10"/><path fill="rgb(0,0,0)" stroke="rgb(0,0,0)" paint-order="fill" d="M 168.84965099553364 471.693115234375 A 2.7386127875258306 2.7386127875258306 0 0 1 163.372425420482 471.693115234375 A 2.7386127875258306 2.7386127875258306 0 0 1 168.84965099553364 471.693115234375" fill-opacity="1" clip-path="url(#vogFsaXEPIuI)" stroke-opacity="1" stroke-linejoin="bevel" stroke-miterlimit="10"/><path fill="rgb(0,0,0)" stroke="rgb(0,0,0)" paint-order="fill" d="M 159.63859142522114 454.05621337890625 A 2.7386127875258306 2.7386127875258306 0 0 1 154.1613658501695 454.05621337890625 A 2.7386127875258306 2.7386127875258306 0 0 1 159.63859142522114 454.05621337890625" fill-opacity="1" clip-path="url(#vogFsaXEPIuI)" stroke-opacity="1" stroke-linejoin="bevel" stroke-miterlimit="10"/><path fill="rgb(0,0,0)" stroke="rgb(0,0,0)" paint-order="fill" d="M 143.62942089299457 482.57843017578125 A 2.7386127875258306 2.7386127875258306 0 0 1 138.15219531794293 482.57843017578125 A 2.7386127875258306 2.7386127875258306 0 0 1 143.62942089299457 482.57843017578125" fill-opacity="1" clip-path="url(#vogFsaXEPIuI)" stroke-opacity="1" stroke-linejoin="bevel" stroke-miterlimit="10"/><path fill="rgb(0,0,0)" stroke="rgb(0,0,0)" paint-order="fill" d="M 156.31521190861957 468.41644287109375 A 2.7386127875258306 2.7386127875258306 0 0 1 150.83798633356793 468.41644287109375 A 2.7386127875258306 2.7386127875258306 0 0 1 156.31521190861957 468.41644287109375" fill-opacity="1" clip-path="url(#vogFsaXEPIuI)" stroke-opacity="1" stroke-linejoin="bevel" stroke-miterlimit="10"/><path fill="rgb(0,0,0)" stroke="rgb(0,0,0)" paint-order="fill" d="M 139.10158886174457 489.58984375 A 2.7386127875258306 2.7386127875258306 0 0 1 133.62436328669293 489.58984375 A 2.7386127875258306 2.7386127875258306 0 0 1 139.10158886174457 489.58984375" fill-opacity="1" clip-path="url(#vogFsaXEPIuI)" stroke-opacity="1" stroke-linejoin="bevel" stroke-miterlimit="10"/><path fill="rgb(0,0,0)" stroke="rgb(0,0,0)" paint-order="fill" d="M 140.37748302678364 494.8870544433594 A 2.7386127875258306 2.7386127875258306 0 0 1 134.900257451732 494.8870544433594 A 2.7386127875258306 2.7386127875258306 0 0 1 140.37748302678364 494.8870544433594" fill-opacity="1" clip-path="url(#vogFsaXEPIuI)" stroke-opacity="1" stroke-linejoin="bevel" stroke-miterlimit="10"/><path fill="rgb(0,0,0)" stroke="rgb(0,0,0)" paint-order="fill" d="M 138.58434643010395 480.2725830078125 A 2.7386127875258306 2.7386127875258306 0 0 1 133.1071208550523 480.2725830078125 A 2.7386127875258306 2.7386127875258306 0 0 1 138.58434643010395 480.2725830078125" fill-opacity="1" clip-path="url(#vogFsaXEPIuI)" stroke-opacity="1" stroke-linejoin="bevel" stroke-miterlimit="10"/><path fill="rgb(0,0,0)" stroke="rgb(0,0,0)" paint-order="fill" d="M 139.09402050236957 483.535888671875 A 2.7386127875258306 2.7386127875258306 0 0 1 133.61679492731793 483.535888671875 A 2.7386127875258306 2.7386127875258306 0 0 1 139.09402050236957 483.535888671875" fill-opacity="1" clip-path="url(#vogFsaXEPIuI)" stroke-opacity="1" stroke-linejoin="bevel" stroke-miterlimit="10"/><path fill="rgb(0,0,0)" stroke="rgb(0,0,0)" paint-order="fill" d="M 250.0416065619399 395.8879089355469 A 2.7386127875258306 2.7386127875258306 0 0 1 244.56438098688824 395.8879089355469 A 2.7386127875258306 2.7386127875258306 0 0 1 250.0416065619399 395.8879089355469" fill-opacity="1" clip-path="url(#vogFsaXEPIuI)" stroke-opacity="1" stroke-linejoin="bevel" stroke-miterlimit="10"/><path fill="rgb(0,0,0)" stroke="rgb(0,0,0)" paint-order="fill" d="M 246.33590282658832 415.59600830078125 A 2.7386127875258306 2.7386127875258306 0 0 1 240.85867725153668 415.59600830078125 A 2.7386127875258306 2.7386127875258306 0 0 1 246.33590282658832 415.59600830078125" fill-opacity="1" clip-path="url(#vogFsaXEPIuI)" stroke-opacity="1" stroke-linejoin="bevel" stroke-miterlimit="10"/><path fill="rgb(0,0,0)" stroke="rgb(0,0,0)" paint-order="fill" d="M 245.55422558049457 421.48822021484375 A 2.7386127875258306 2.7386127875258306 0 0 1 240.07700000544293 421.48822021484375 A 2.7386127875258306 2.7386127875258306 0 0 1 245.55422558049457 421.48822021484375" fill-opacity="1" clip-path="url(#vogFsaXEPIuI)" stroke-opacity="1" stroke-linejoin="bevel" stroke-miterlimit="10"/><path fill="rgb(0,0,0)" stroke="rgb(0,0,0)" paint-order="fill" d="M 258.64416088322895 413.34478759765625 A 2.7386127875258306 2.7386127875258306 0 0 1 253.1669353081773 413.34478759765625 A 2.7386127875258306 2.7386127875258306 0 0 1 258.64416088322895 413.34478759765625" fill-opacity="1" clip-path="url(#vogFsaXEPIuI)" stroke-opacity="1" stroke-linejoin="bevel" stroke-miterlimit="10"/><path fill="rgb(0,0,0)" stroke="rgb(0,0,0)" paint-order="fill" d="M 233.36306347111957 416.4362487792969 A 2.7386127875258306 2.7386127875258306 0 0 1 227.88583789606793 416.4362487792969 A 2.7386127875258306 2.7386127875258306 0 0 1 233.36306347111957 416.4362487792969" fill-opacity="1" clip-path="url(#vogFsaXEPIuI)" stroke-opacity="1" stroke-linejoin="bevel" stroke-miterlimit="10"/><path fill="rgb(0,0,0)" stroke="rgb(0,0,0)" paint-order="fill" d="M 234.6079670355727 410.6603698730469 A 2.7386127875258306 2.7386127875258306 0 0 1 229.13074146052105 410.6603698730469 A 2.7386127875258306 2.7386127875258306 0 0 1 234.6079670355727 410.6603698730469" fill-opacity="1" clip-path="url(#vogFsaXEPIuI)" stroke-opacity="1" stroke-linejoin="bevel" stroke-miterlimit="10"/><path fill="rgb(0,0,0)" stroke="rgb(0,0,0)" paint-order="fill" d="M 229.42235912541645 420.90362548828125 A 2.7386127875258306 2.7386127875258306 0 0 1 223.9451335503648 420.90362548828125 A 2.7386127875258306 2.7386127875258306 0 0 1 229.42235912541645 420.90362548828125" fill-opacity="1" clip-path="url(#vogFsaXEPIuI)" stroke-opacity="1" stroke-linejoin="bevel" stroke-miterlimit="10"/><path fill="rgb(0,0,0)" stroke="rgb(0,0,0)" paint-order="fill" d="M 249.10555614690082 452.3955993652344 A 2.7386127875258306 2.7386127875258306 0 0 1 243.62833057184918 452.3955993652344 A 2.7386127875258306 2.7386127875258306 0 0 1 249.10555614690082 452.3955993652344" fill-opacity="1" clip-path="url(#vogFsaXEPIuI)" stroke-opacity="1" stroke-linejoin="bevel" stroke-miterlimit="10"/><path fill="rgb(0,0,0)" stroke="rgb(0,0,0)" paint-order="fill" d="M 263.83471264104145 426.2540588378906 A 2.7386127875258306 2.7386127875258306 0 0 1 258.3574870659898 426.2540588378906 A 2.7386127875258306 2.7386127875258306 0 0 1 263.83471264104145 426.2540588378906" fill-opacity="1" clip-path="url(#vogFsaXEPIuI)" stroke-opacity="1" stroke-linejoin="bevel" stroke-miterlimit="10"/><path fill="rgb(0,0,0)" stroke="rgb(0,0,0)" paint-order="fill" d="M 307.07714428166645 449.8303527832031 A 2.7386127875258306 2.7386127875258306 0 0 1 301.5999187066148 449.8303527832031 A 2.7386127875258306 2.7386127875258306 0 0 1 307.07714428166645 449.8303527832031" fill-opacity="1" clip-path="url(#vogFsaXEPIuI)" stroke-opacity="1" stroke-linejoin="bevel" stroke-miterlimit="10"/><path fill="rgb(0,0,0)" stroke="rgb(0,0,0)" paint-order="fill" d="M 303.68944896916645 425.73016357421875 A 2.7386127875258306 2.7386127875258306 0 0 1 298.2122233941148 425.73016357421875 A 2.7386127875258306 2.7386127875258306 0 0 1 303.68944896916645 425.73016357421875" fill-opacity="1" clip-path="url(#vogFsaXEPIuI)" stroke-opacity="1" stroke-linejoin="bevel" stroke-miterlimit="10"/><path fill="rgb(0,0,0)" stroke="rgb(0,0,0)" paint-order="fill" d="M 244.29215587834614 420.57684326171875 A 2.7386127875258306 2.7386127875258306 0 0 1 238.8149303032945 420.57684326171875 A 2.7386127875258306 2.7386127875258306 0 0 1 244.29215587834614 420.57684326171875" fill-opacity="1" clip-path="url(#vogFsaXEPIuI)" stroke-opacity="1" stroke-linejoin="bevel" stroke-miterlimit="10"/><path fill="rgb(0,0,0)" stroke="rgb(0,0,0)" paint-order="fill" d="M 121.2966877386977 489.40167236328125 A 2.7386127875258306 2.7386127875258306 0 0 1 115.81946216364605 489.40167236328125 A 2.7386127875258306 2.7386127875258306 0 0 1 121.2966877386977 489.40167236328125" fill-opacity="1" clip-path="url(#vogFsaXEPIuI)" stroke-opacity="1" stroke-linejoin="bevel" stroke-miterlimit="10"/><path fill="rgb(0,0,0)" stroke="rgb(0,0,0)" paint-order="fill" d="M 127.88158764104145 490.0428466796875 A 2.7386127875258306 2.7386127875258306 0 0 1 122.4043620659898 490.0428466796875 A 2.7386127875258306 2.7386127875258306 0 0 1 127.88158764104145 490.0428466796875" fill-opacity="1" clip-path="url(#vogFsaXEPIuI)" stroke-opacity="1" stroke-linejoin="bevel" stroke-miterlimit="10"/><path fill="rgb(0,0,0)" stroke="rgb(0,0,0)" paint-order="fill" d="M 129.3382145331313 489.0724182128906 A 2.7386127875258306 2.7386127875258306 0 0 1 123.86098895807964 489.0724182128906 A 2.7386127875258306 2.7386127875258306 0 0 1 129.3382145331313 489.0724182128906" fill-opacity="1" clip-path="url(#vogFsaXEPIuI)" stroke-opacity="1" stroke-linejoin="bevel" stroke-miterlimit="10"/><path fill="rgb(0,0,0)" stroke="rgb(0,0,0)" paint-order="fill" d="M 343.5274921820571 289.8163757324219 A 2.7386127875258306 2.7386127875258306 0 0 1 338.0502666070054 289.8163757324219 A 2.7386127875258306 2.7386127875258306 0 0 1 343.5274921820571 289.8163757324219" fill-opacity="1" clip-path="url(#vogFsaXEPIuI)" stroke-opacity="1" stroke-linejoin="bevel" stroke-miterlimit="10"/><path fill="rgb(0,0,0)" stroke="rgb(0,0,0)" paint-order="fill" d="M 135.32038463811176 481.4739074707031 A 2.7386127875258306 2.7386127875258306 0 0 1 129.8431590630601 481.4739074707031 A 2.7386127875258306 2.7386127875258306 0 0 1 135.32038463811176 481.4739074707031" fill-opacity="1" clip-path="url(#vogFsaXEPIuI)" stroke-opacity="1" stroke-linejoin="bevel" stroke-miterlimit="10"/><path fill="rgb(0,0,0)" stroke="rgb(0,0,0)" paint-order="fill" d="M 133.26229442815082 486.46673583984375 A 2.7386127875258306 2.7386127875258306 0 0 1 127.78506885309918 486.46673583984375 A 2.7386127875258306 2.7386127875258306 0 0 1 133.26229442815082 486.46673583984375" fill-opacity="1" clip-path="url(#vogFsaXEPIuI)" stroke-opacity="1" stroke-linejoin="bevel" stroke-miterlimit="10"/><path fill="rgb(0,0,0)" stroke="rgb(0,0,0)" paint-order="fill" d="M 139.5715443060805 483.9033508300781 A 2.7386127875258306 2.7386127875258306 0 0 1 134.09431873102886 483.9033508300781 A 2.7386127875258306 2.7386127875258306 0 0 1 139.5715443060805 483.9033508300781" fill-opacity="1" clip-path="url(#vogFsaXEPIuI)" stroke-opacity="1" stroke-linejoin="bevel" stroke-miterlimit="10"/><path fill="rgb(0,0,0)" stroke="rgb(0,0,0)" paint-order="fill" d="M 133.93618358830707 479.73944091796875 A 2.7386127875258306 2.7386127875258306 0 0 1 128.45895801325543 479.73944091796875 A 2.7386127875258306 2.7386127875258306 0 0 1 133.93618358830707 479.73944091796875" fill-opacity="1" clip-path="url(#vogFsaXEPIuI)" stroke-opacity="1" stroke-linejoin="bevel" stroke-miterlimit="10"/><path fill="rgb(0,0,0)" stroke="rgb(0,0,0)" paint-order="fill" d="M 264.2768818304946 457.54718017578125 A 2.7386127875258306 2.7386127875258306 0 0 1 258.7996562554429 457.54718017578125 A 2.7386127875258306 2.7386127875258306 0 0 1 264.2768818304946 457.54718017578125" fill-opacity="1" clip-path="url(#vogFsaXEPIuI)" stroke-opacity="1" stroke-linejoin="bevel" stroke-miterlimit="10"/><path fill="rgb(0,0,0)" stroke="rgb(0,0,0)" paint-order="fill" d="M 528.4086567328384 305.802490234375 A 2.7386127875258306 2.7386127875258306 0 0 1 522.9314311577866 305.802490234375 A 2.7386127875258306 2.7386127875258306 0 0 1 528.4086567328384 305.802490234375" fill-opacity="1" clip-path="url(#vogFsaXEPIuI)" stroke-opacity="1" stroke-linejoin="bevel" stroke-miterlimit="10"/><path fill="rgb(0,0,0)" stroke="rgb(0,0,0)" paint-order="fill" d="M 372.1477314398696 419.3350524902344 A 2.7386127875258306 2.7386127875258306 0 0 1 366.6705058648179 419.3350524902344 A 2.7386127875258306 2.7386127875258306 0 0 1 372.1477314398696 419.3350524902344" fill-opacity="1" clip-path="url(#vogFsaXEPIuI)" stroke-opacity="1" stroke-linejoin="bevel" stroke-miterlimit="10"/><path fill="rgb(0,0,0)" stroke="rgb(0,0,0)" paint-order="fill" d="M 450.0340229437758 320.3951416015625 A 2.7386127875258306 2.7386127875258306 0 0 1 444.5567973687242 320.3951416015625 A 2.7386127875258306 2.7386127875258306 0 0 1 450.0340229437758 320.3951416015625" fill-opacity="1" clip-path="url(#vogFsaXEPIuI)" stroke-opacity="1" stroke-linejoin="bevel" stroke-miterlimit="10"/><path fill="rgb(0,0,0)" stroke="rgb(0,0,0)" paint-order="fill" d="M 543.6027485297134 327.4274597167969 A 2.7386127875258306 2.7386127875258306 0 0 1 538.1255229546616 327.4274597167969 A 2.7386127875258306 2.7386127875258306 0 0 1 543.6027485297134 327.4274597167969" fill-opacity="1" clip-path="url(#vogFsaXEPIuI)" stroke-opacity="1" stroke-linejoin="bevel" stroke-miterlimit="10"/><path fill="none" stroke="rgb(211,211,211)" paint-order="fill" d="M 99.5 510.5 L 599.5 275.108642578125" stroke-opacity="1" stroke-linejoin="bevel" stroke-miterlimit="10" stroke-width="2" stroke-dasharray="6" clip-path="url(#GxvtiSkMbTfl)"/><g clip-path="url(#XfyDfigvQJVs)"><text fill="rgb(0,0,0)" stroke="none" font-family="helvetica" font-size="12Pt" font-style="normal" font-weight="normal" text-decoration="normal" x="0" y="14" text-anchor="start" dominant-baseline="alphabetic" transform="matrix(1, 0, 0, 1, 499.5, 110.5)" fill-opacity="1">R² = 0.91</text></g><g clip-path="url(#XfyDfigvQJVs)"><text fill="none" stroke="rgb(0,0,0)" font-family="helvetica" font-size="12Pt" font-style="normal" font-weight="normal" text-decoration="normal" x="0" y="14" text-anchor="start" dominant-baseline="alphabetic" transform="matrix(1, 0, 0, 1, 499.5, 110.5)" stroke-opacity="0" stroke-miterlimit="10" stroke-dasharray="">R² = 0.91</text></g><g clip-path="url(#fTxfDkUiIOEO)"><text fill="rgb(0,0,0)" stroke="none" font-family="helvetica" font-size="12Pt" font-style="normal" font-weight="normal" text-decoration="normal" x="0" y="14" text-anchor="start" dominant-baseline="alphabetic" transform="matrix(1, 0, 0, 1, 499.5, 130.5)" fill-opacity="1">slope = 0.47</text></g><g clip-path="url(#fTxfDkUiIOEO)"><text fill="none" stroke="rgb(0,0,0)" font-family="helvetica" font-size="12Pt" font-style="normal" font-weight="normal" text-decoration="normal" x="0" y="14" text-anchor="start" dominant-baseline="alphabetic" transform="matrix(1, 0, 0, 1, 499.5, 130.5)" stroke-opacity="0" stroke-miterlimit="10" stroke-dasharray="">slope = 0.47</text></g><path fill="none" stroke="rgb(0,0,0)" paint-order="fill" d="M 99.5 510.5 L 599.5 510.5" stroke-opacity="1" stroke-linejoin="bevel" stroke-miterlimit="10"/><path fill="none" stroke="rgb(0,0,0)" paint-order="fill" d="M 99.5 516.5 L 99.5 508.5 M 199.5 516.5 L 199.5 508.5 M 299.5 516.5 L 299.5 508.5 M 399.5 516.5 L 399.5 508.5 M 499.5 516.5 L 499.5 508.5 M 599.5 516.5 L 599.5 508.5" stroke-opacity="1" stroke-linejoin="bevel" stroke-miterlimit="10"/><path fill="none" stroke="rgb(0,0,0)" paint-order="fill" d="M 99.5 514.5 L 99.5 510.5 M 119.5 514.5 L 119.5 510.5 M 139.5 514.5 L 139.5 510.5 M 159.5 514.5 L 159.5 510.5 M 179.5 514.5 L 179.5 510.5 M 199.5 514.5 L 199.5 510.5 M 219.5 514.5 L 219.5 510.5 M 239.5 514.5 L 239.5 510.5 M 259.5 514.5 L 259.5 510.5 M 279.5 514.5 L 279.5 510.5 M 299.5 514.5 L 299.5 510.5 M 319.5 514.5 L 319.5 510.5 M 339.5 514.5 L 339.5 510.5 M 359.5 514.5 L 359.5 510.5 M 379.5 514.5 L 379.5 510.5 M 399.5 514.5 L 399.5 510.5 M 419.5 514.5 L 419.5 510.5 M 439.5 514.5 L 439.5 510.5 M 459.5 514.5 L 459.5 510.5 M 479.5 514.5 L 479.5 510.5 M 499.5 514.5 L 499.5 510.5 M 519.5 514.5 L 519.5 510.5 M 539.5 514.5 L 539.5 510.5 M 559.5 514.5 L 559.5 510.5 M 579.5 514.5 L 579.5 510.5 M 599.5 514.5 L 599.5 510.5" stroke-opacity="1" stroke-linejoin="bevel" stroke-miterlimit="10"/><text fill="rgb(68,68,68)" stroke="none" font-family="helvetica" font-size="10pt" font-style="normal" font-weight="normal" text-decoration="normal" x="71.01937103271484" y="530" text-anchor="start" dominant-baseline="alphabetic" transform="matrix(1, 0, 0, 1, 0.5, 0.5)" fill-opacity="1">0.000e+0</text><text fill="none" stroke="rgb(0,0,0)" font-family="helvetica" font-size="10pt" font-style="normal" font-weight="normal" text-decoration="normal" x="71.01937103271484" y="530" text-anchor="start" dominant-baseline="alphabetic" transform="matrix(1, 0, 0, 1, 0.5, 0.5)" stroke-opacity="0" stroke-linejoin="bevel" stroke-miterlimit="10">0.000e+0</text><text fill="rgb(68,68,68)" stroke="none" font-family="helvetica" font-size="10pt" font-style="normal" font-weight="normal" text-decoration="normal" x="171.01937103271484" y="530" text-anchor="start" dominant-baseline="alphabetic" transform="matrix(1, 0, 0, 1, 0.5, 0.5)" fill-opacity="1">5.000e−5</text><text fill="none" stroke="rgb(0,0,0)" font-family="helvetica" font-size="10pt" font-style="normal" font-weight="normal" text-decoration="normal" x="171.01937103271484" y="530" text-anchor="start" dominant-baseline="alphabetic" transform="matrix(1, 0, 0, 1, 0.5, 0.5)" stroke-opacity="0" stroke-linejoin="bevel" stroke-miterlimit="10">5.000e−5</text><text fill="rgb(68,68,68)" stroke="none" font-family="helvetica" font-size="10pt" font-style="normal" font-weight="normal" text-decoration="normal" x="271.01937103271484" y="530" text-anchor="start" dominant-baseline="alphabetic" transform="matrix(1, 0, 0, 1, 0.5, 0.5)" fill-opacity="1">1.000e−4</text><text fill="none" stroke="rgb(0,0,0)" font-family="helvetica" font-size="10pt" font-style="normal" font-weight="normal" text-decoration="normal" x="271.01937103271484" y="530" text-anchor="start" dominant-baseline="alphabetic" transform="matrix(1, 0, 0, 1, 0.5, 0.5)" stroke-opacity="0" stroke-linejoin="bevel" stroke-miterlimit="10">1.000e−4</text><text fill="rgb(68,68,68)" stroke="none" font-family="helvetica" font-size="10pt" font-style="normal" font-weight="normal" text-decoration="normal" x="371.01937103271484" y="530" text-anchor="start" dominant-baseline="alphabetic" transform="matrix(1, 0, 0, 1, 0.5, 0.5)" fill-opacity="1">1.500e−4</text><text fill="none" stroke="rgb(0,0,0)" font-family="helvetica" font-size="10pt" font-style="normal" font-weight="normal" text-decoration="normal" x="371.01937103271484" y="530" text-anchor="start" dominant-baseline="alphabetic" transform="matrix(1, 0, 0, 1, 0.5, 0.5)" stroke-opacity="0" stroke-linejoin="bevel" stroke-miterlimit="10">1.500e−4</text><text fill="rgb(68,68,68)" stroke="none" font-family="helvetica" font-size="10pt" font-style="normal" font-weight="normal" text-decoration="normal" x="471.01937103271484" y="530" text-anchor="start" dominant-baseline="alphabetic" transform="matrix(1, 0, 0, 1, 0.5, 0.5)" fill-opacity="1">2.000e−4</text><text fill="none" stroke="rgb(0,0,0)" font-family="helvetica" font-size="10pt" font-style="normal" font-weight="normal" text-decoration="normal" x="471.01937103271484" y="530" text-anchor="start" dominant-baseline="alphabetic" transform="matrix(1, 0, 0, 1, 0.5, 0.5)" stroke-opacity="0" stroke-linejoin="bevel" stroke-miterlimit="10">2.000e−4</text><text fill="rgb(68,68,68)" stroke="none" font-family="helvetica" font-size="10pt" font-style="normal" font-weight="normal" text-decoration="normal" x="571.0193710327148" y="530" text-anchor="start" dominant-baseline="alphabetic" transform="matrix(1, 0, 0, 1, 0.5, 0.5)" fill-opacity="1">2.500e−4</text><text fill="none" stroke="rgb(0,0,0)" font-family="helvetica" font-size="10pt" font-style="normal" font-weight="normal" text-decoration="normal" x="571.0193710327148" y="530" text-anchor="start" dominant-baseline="alphabetic" transform="matrix(1, 0, 0, 1, 0.5, 0.5)" stroke-opacity="0" stroke-linejoin="bevel" stroke-miterlimit="10">2.500e−4</text><text fill="rgb(68,68,68)" stroke="none" font-family="helvetica" font-size="14pt" font-style="italic" font-weight="normal" text-decoration="normal" x="247.38811492919922" y="555" text-anchor="start" dominant-baseline="alphabetic" transform="matrix(1, 0, 0, 1, 0.5, 0.5)" fill-opacity="1">mutation rate, mScarlettI</text><text fill="none" stroke="rgb(0,0,0)" font-family="helvetica" font-size="14pt" font-style="italic" font-weight="normal" text-decoration="normal" x="247.38811492919922" y="555" text-anchor="start" dominant-baseline="alphabetic" transform="matrix(1, 0, 0, 1, 0.5, 0.5)" stroke-opacity="0" stroke-linejoin="bevel" stroke-miterlimit="10">mutation rate, mScarlettI</text><path fill="none" stroke="rgb(0,0,0)" paint-order="fill" d="M 99.5 510.5 L 99.5 10.5" stroke-opacity="1" stroke-linejoin="bevel" stroke-miterlimit="10"/><path fill="none" stroke="rgb(0,0,0)" paint-order="fill" d="M 93.5 510.5 L 101.5 510.5 M 93.5 410.5 L 101.5 410.5 M 93.5 310.5 L 101.5 310.5 M 93.5 210.5 L 101.5 210.5 M 93.5 110.5 L 101.5 110.5 M 93.5 10.5 L 101.5 10.5" stroke-opacity="1" stroke-linejoin="bevel" stroke-miterlimit="10"/><path fill="none" stroke="rgb(0,0,0)" paint-order="fill" d="M 95.5 510.5 L 99.5 510.5 M 95.5 490.5 L 99.5 490.5 M 95.5 470.5 L 99.5 470.5 M 95.5 450.5 L 99.5 450.5 M 95.5 430.5 L 99.5 430.5 M 95.5 410.5 L 99.5 410.5 M 95.5 390.5 L 99.5 390.5 M 95.5 370.5 L 99.5 370.5 M 95.5 350.5 L 99.5 350.5 M 95.5 330.5 L 99.5 330.5 M 95.5 310.5 L 99.5 310.5 M 95.5 290.5 L 99.5 290.5 M 95.5 270.5 L 99.5 270.5 M 95.5 250.5 L 99.5 250.5 M 95.5 230.5 L 99.5 230.5 M 95.5 210.5 L 99.5 210.5 M 95.5 190.5 L 99.5 190.5 M 95.5 170.5 L 99.5 170.5 M 95.5 150.5 L 99.5 150.5 M 95.5 130.5 L 99.5 130.5 M 95.5 110.5 L 99.5 110.5 M 95.5 90.5 L 99.5 90.5 M 95.5 70.5 L 99.5 70.5 M 95.5 50.5 L 99.5 50.5 M 95.5 30.5 L 99.5 30.5 M 95.5 10.5 L 99.5 10.5" stroke-opacity="1" stroke-linejoin="bevel" stroke-miterlimit="10"/><text fill="rgb(68,68,68)" stroke="none" font-family="helvetica" font-size="10pt" font-style="normal" font-weight="normal" text-decoration="normal" x="32.03874206542969" y="514.5" text-anchor="start" dominant-baseline="alphabetic" transform="matrix(1, 0, 0, 1, 0.5, 0.5)" fill-opacity="1">0.000e+0</text><text fill="none" stroke="rgb(0,0,0)" font-family="helvetica" font-size="10pt" font-style="normal" font-weight="normal" text-decoration="normal" x="32.03874206542969" y="514.5" text-anchor="start" dominant-baseline="alphabetic" transform="matrix(1, 0, 0, 1, 0.5, 0.5)" stroke-opacity="0" stroke-linejoin="bevel" stroke-miterlimit="10">0.000e+0</text><text fill="rgb(68,68,68)" stroke="none" font-family="helvetica" font-size="10pt" font-style="normal" font-weight="normal" text-decoration="normal" x="32.03874206542969" y="414.5" text-anchor="start" dominant-baseline="alphabetic" transform="matrix(1, 0, 0, 1, 0.5, 0.5)" fill-opacity="1">5.000e−5</text><text fill="none" stroke="rgb(0,0,0)" font-family="helvetica" font-size="10pt" font-style="normal" font-weight="normal" text-decoration="normal" x="32.03874206542969" y="414.5" text-anchor="start" dominant-baseline="alphabetic" transform="matrix(1, 0, 0, 1, 0.5, 0.5)" stroke-opacity="0" stroke-linejoin="bevel" stroke-miterlimit="10">5.000e−5</text><text fill="rgb(68,68,68)" stroke="none" font-family="helvetica" font-size="10pt" font-style="normal" font-weight="normal" text-decoration="normal" x="32.03874206542969" y="314.5" text-anchor="start" dominant-baseline="alphabetic" transform="matrix(1, 0, 0, 1, 0.5, 0.5)" fill-opacity="1">1.000e−4</text><text fill="none" stroke="rgb(0,0,0)" font-family="helvetica" font-size="10pt" font-style="normal" font-weight="normal" text-decoration="normal" x="32.03874206542969" y="314.5" text-anchor="start" dominant-baseline="alphabetic" transform="matrix(1, 0, 0, 1, 0.5, 0.5)" stroke-opacity="0" stroke-linejoin="bevel" stroke-miterlimit="10">1.000e−4</text><text fill="rgb(68,68,68)" stroke="none" font-family="helvetica" font-size="10pt" font-style="normal" font-weight="normal" text-decoration="normal" x="32.03874206542969" y="214.5" text-anchor="start" dominant-baseline="alphabetic" transform="matrix(1, 0, 0, 1, 0.5, 0.5)" fill-opacity="1">1.500e−4</text><text fill="none" stroke="rgb(0,0,0)" font-family="helvetica" font-size="10pt" font-style="normal" font-weight="normal" text-decoration="normal" x="32.03874206542969" y="214.5" text-anchor="start" dominant-baseline="alphabetic" transform="matrix(1, 0, 0, 1, 0.5, 0.5)" stroke-opacity="0" stroke-linejoin="bevel" stroke-miterlimit="10">1.500e−4</text><text fill="rgb(68,68,68)" stroke="none" font-family="helvetica" font-size="10pt" font-style="normal" font-weight="normal" text-decoration="normal" x="32.03874206542969" y="114.5" text-anchor="start" dominant-baseline="alphabetic" transform="matrix(1, 0, 0, 1, 0.5, 0.5)" fill-opacity="1">2.000e−4</text><text fill="none" stroke="rgb(0,0,0)" font-family="helvetica" font-size="10pt" font-style="normal" font-weight="normal" text-decoration="normal" x="32.03874206542969" y="114.5" text-anchor="start" dominant-baseline="alphabetic" transform="matrix(1, 0, 0, 1, 0.5, 0.5)" stroke-opacity="0" stroke-linejoin="bevel" stroke-miterlimit="10">2.000e−4</text><text fill="rgb(68,68,68)" stroke="none" font-family="helvetica" font-size="10pt" font-style="normal" font-weight="normal" text-decoration="normal" x="32.03874206542969" y="14.5" text-anchor="start" dominant-baseline="alphabetic" transform="matrix(1, 0, 0, 1, 0.5, 0.5)" fill-opacity="1">2.500e−4</text><text fill="none" stroke="rgb(0,0,0)" font-family="helvetica" font-size="10pt" font-style="normal" font-weight="normal" text-decoration="normal" x="32.03874206542969" y="14.5" text-anchor="start" dominant-baseline="alphabetic" transform="matrix(1, 0, 0, 1, 0.5, 0.5)" stroke-opacity="0" stroke-linejoin="bevel" stroke-miterlimit="10">2.500e−4</text><text fill="rgb(68,68,68)" stroke="none" font-family="helvetica" font-size="14pt" font-style="italic" font-weight="normal" text-decoration="normal" x="-58.92144775390625" y="256" text-anchor="start" dominant-baseline="alphabetic" transform="matrix(6.123233995736766e-17, -1, 1, 6.123233995736766e-17, -235.4612579345703, 284.5387420654297)" fill-opacity="1">mutation rate, LEU2</text><text fill="none" stroke="rgb(0,0,0)" font-family="helvetica" font-size="14pt" font-style="italic" font-weight="normal" text-decoration="normal" x="-58.92144775390625" y="256" text-anchor="start" dominant-baseline="alphabetic" transform="matrix(6.123233995736766e-17, -1, 1, 6.123233995736766e-17, -235.4612579345703, 284.5387420654297)" stroke-opacity="0" stroke-linejoin="bevel" stroke-miterlimit="10">mutation rate, LEU2</text></svg>