<svg version="1.1" xmlns="http://www.w3.org/2000/svg" width="629" height="562"><defs><clipPath id="nluPMSWRkJNF"><path fill="none" stroke="none" d="M 99.5 10.5 L 599.5 10.5 L 599.5 510.5 L 99.5 510.5 L 99.5 10.5 Z"/></clipPath><clipPath id="JkHcAyTvTBHT"><path fill="none" stroke="none" d="M 99.5 10.5 L 599.5 10.5 L 599.5 510.5 L 99.5 510.5 L 99.5 10.5 Z"/></clipPath><clipPath id="mhpJCuFvlTOs"><path fill="none" stroke="none" d="M 99.5 10.5 L 599.5 10.5 L 599.5 510.5 L 99.5 510.5 L 99.5 10.5 Z"/></clipPath><clipPath id="sqprTDCQxhge"><path fill="none" stroke="none" d="M 99.5 10.5 L 599.5 10.5 L 599.5 510.5 L 99.5 510.5 L 99.5 10.5 Z"/></clipPath><clipPath id="uxTJWipoHoem"><path fill="none" stroke="none" d="M 99.5 10.5 L 599.5 10.5 L 599.5 510.5 L 99.5 510.5 L 99.5 10.5 Z"/></clipPath><clipPath id="oulDTPqRowGr"><path fill="none" stroke="none" d="M 99.5 10.5 L 599.5 10.5 L 599.5 510.5 L 99.5 510.5 L 99.5 10.5 Z"/></clipPath><clipPath id="AVedGeQcmUmT"><path fill="none" stroke="none" d="M 99.5 10.5 L 599.5 10.5 L 599.5 510.5 L 99.5 510.5 L 99.5 10.5 Z"/></clipPath></defs><path fill="rgb(255,255,255)" stroke="none" paint-order="stroke" d="M 0.5 0.5 L 629.5 0.5 L 629.5 562.5 L 0.5 562.5 L 0.5 0.5 Z" fill-opacity="1"/><rect fill="#FFFFFF" stroke="none" x="99" y="10" width="500" height="500" transform="matrix(1, 0, 0, 1, 0.5, 0.5)"/><path fill="rgb(255,255,255)" stroke="none" paint-order="stroke" d="M 99.5 10.5 L 599.5 10.5 L 599.5 510.5 L 99.5 510.5 L 99.5 10.5 Z" fill-opacity="1"/><path fill="none" stroke="rgb(229,229,229)" paint-order="fill" d="M 99.5 10.5 L 599.5 10.5 L 599.5 510.5 L 99.5 510.5 L 99.5 10.5 Z" stroke-opacity="1" stroke-linejoin="bevel" stroke-miterlimit="10"/><path fill="rgb(0,0,0)" stroke="rgb(0,0,0)" paint-order="fill" d="M 125.38468517522114 483.136474609375 A 2.7386127875258306 2.7386127875258306 0 0 1 119.90745960016949 483.136474609375 A 2.7386127875258306 2.7386127875258306 0 0 1 125.38468517522114 483.136474609375" fill-opacity="1" clip-path="url(#mhpJCuFvlTOs)" stroke-opacity="1" stroke-linejoin="bevel" stroke-miterlimit="10"/><path fill="rgb(0,0,0)" stroke="rgb(0,0,0)" paint-order="fill" d="M 116.62172283391254 475.25164794921875 A 2.7386127875258306 2.7386127875258306 0 0 1 111.1444972588609 475.25164794921875 A 2.7386127875258306 2.7386127875258306 0 0 1 116.62172283391254 475.25164794921875" fill-opacity="1" clip-path="url(#mhpJCuFvlTOs)" stroke-opacity="1" stroke-linejoin="bevel" stroke-miterlimit="10"/><path fill="rgb(0,0,0)" stroke="rgb(0,0,0)" paint-order="fill" d="M 128.29889263371723 480.7902526855469 A 2.7386127875258306 2.7386127875258306 0 0 1 122.82166705866558 480.7902526855469 A 2.7386127875258306 2.7386127875258306 0 0 1 128.29889263371723 480.7902526855469" fill-opacity="1" clip-path="url(#mhpJCuFvlTOs)" stroke-opacity="1" stroke-linejoin="bevel" stroke-miterlimit="10"/><path fill="rgb(0,0,0)" stroke="rgb(0,0,0)" paint-order="fill" d="M 129.24199260930317 479.7325134277344 A 2.7386127875258306 2.7386127875258306 0 0 1 123.76476703425152 479.7325134277344 A 2.7386127875258306 2.7386127875258306 0 0 1 129.24199260930317 479.7325134277344" fill-opacity="1" clip-path="url(#mhpJCuFvlTOs)" stroke-opacity="1" stroke-linejoin="bevel" stroke-miterlimit="10"/><path fill="rgb(0,0,0)" stroke="rgb(0,0,0)" paint-order="fill" d="M 129.85618938664692 480.5467834472656 A 2.7386127875258306 2.7386127875258306 0 0 1 124.37896381159527 480.5467834472656 A 2.7386127875258306 2.7386127875258306 0 0 1 129.85618938664692 480.5467834472656" fill-opacity="1" clip-path="url(#mhpJCuFvlTOs)" stroke-opacity="1" stroke-linejoin="bevel" stroke-miterlimit="10"/><path fill="rgb(0,0,0)" stroke="rgb(0,0,0)" paint-order="fill" d="M 130.40623821477192 473.2906799316406 A 2.7386127875258306 2.7386127875258306 0 0 1 124.92901263972027 473.2906799316406 A 2.7386127875258306 2.7386127875258306 0 0 1 130.40623821477192 473.2906799316406" fill-opacity="1" clip-path="url(#mhpJCuFvlTOs)" stroke-opacity="1" stroke-linejoin="bevel" stroke-miterlimit="10"/><path fill="rgb(0,0,0)" stroke="rgb(0,0,0)" paint-order="fill" d="M 162.77424205998676 450.7023010253906 A 2.7386127875258306 2.7386127875258306 0 0 1 157.2970164849351 450.7023010253906 A 2.7386127875258306 2.7386127875258306 0 0 1 162.77424205998676 450.7023010253906" fill-opacity="1" clip-path="url(#mhpJCuFvlTOs)" stroke-opacity="1" stroke-linejoin="bevel" stroke-miterlimit="10"/><path fill="rgb(0,0,0)" stroke="rgb(0,0,0)" paint-order="fill" d="M 152.4867512152602 455.54034423828125 A 2.7386127875258306 2.7386127875258306 0 0 1 147.00952564020855 455.54034423828125 A 2.7386127875258306 2.7386127875258306 0 0 1 152.4867512152602 455.54034423828125" fill-opacity="1" clip-path="url(#mhpJCuFvlTOs)" stroke-opacity="1" stroke-linejoin="bevel" stroke-miterlimit="10"/><path fill="rgb(0,0,0)" stroke="rgb(0,0,0)" paint-order="fill" d="M 153.9490314886977 451.53485107421875 A 2.7386127875258306 2.7386127875258306 0 0 1 148.47180591364605 451.53485107421875 A 2.7386127875258306 2.7386127875258306 0 0 1 153.9490314886977 451.53485107421875" fill-opacity="1" clip-path="url(#mhpJCuFvlTOs)" stroke-opacity="1" stroke-linejoin="bevel" stroke-miterlimit="10"/><path fill="rgb(0,0,0)" stroke="rgb(0,0,0)" paint-order="fill" d="M 149.999644892018 459.12322998046875 A 2.7386127875258306 2.7386127875258306 0 0 1 144.52241931696636 459.12322998046875 A 2.7386127875258306 2.7386127875258306 0 0 1 149.999644892018 459.12322998046875" fill-opacity="1" clip-path="url(#mhpJCuFvlTOs)" stroke-opacity="1" stroke-linejoin="bevel" stroke-miterlimit="10"/><path fill="rgb(0,0,0)" stroke="rgb(0,0,0)" paint-order="fill" d="M 192.76908458928364 436.788330078125 A 2.7386127875258306 2.7386127875258306 0 0 1 187.291859014232 436.788330078125 A 2.7386127875258306 2.7386127875258306 0 0 1 192.76908458928364 436.788330078125" fill-opacity="1" clip-path="url(#mhpJCuFvlTOs)" stroke-opacity="1" stroke-linejoin="bevel" stroke-miterlimit="10"/><path fill="rgb(0,0,0)" stroke="rgb(0,0,0)" paint-order="fill" d="M 176.61989940861957 435.61346435546875 A 2.7386127875258306 2.7386127875258306 0 0 1 171.14267383356793 435.61346435546875 A 2.7386127875258306 2.7386127875258306 0 0 1 176.61989940861957 435.61346435546875" fill-opacity="1" clip-path="url(#mhpJCuFvlTOs)" stroke-opacity="1" stroke-linejoin="bevel" stroke-miterlimit="10"/><path fill="rgb(0,0,0)" stroke="rgb(0,0,0)" paint-order="fill" d="M 177.76852001408832 433.9886779785156 A 2.7386127875258306 2.7386127875258306 0 0 1 172.29129443903668 433.9886779785156 A 2.7386127875258306 2.7386127875258306 0 0 1 177.76852001408832 433.9886779785156" fill-opacity="1" clip-path="url(#mhpJCuFvlTOs)" stroke-opacity="1" stroke-linejoin="bevel" stroke-miterlimit="10"/><path fill="rgb(0,0,0)" stroke="rgb(0,0,0)" paint-order="fill" d="M 176.08674205998676 420.4558410644531 A 2.7386127875258306 2.7386127875258306 0 0 1 170.6095164849351 420.4558410644531 A 2.7386127875258306 2.7386127875258306 0 0 1 176.08674205998676 420.4558410644531" fill-opacity="1" clip-path="url(#mhpJCuFvlTOs)" stroke-opacity="1" stroke-linejoin="bevel" stroke-miterlimit="10"/><path fill="rgb(0,0,0)" stroke="rgb(0,0,0)" paint-order="fill" d="M 400.6128803656508 232.53236389160156 A 2.7386127875258306 2.7386127875258306 0 0 1 395.1356547905992 232.53236389160156 A 2.7386127875258306 2.7386127875258306 0 0 1 400.6128803656508 232.53236389160156" fill-opacity="1" clip-path="url(#mhpJCuFvlTOs)" stroke-opacity="1" stroke-linejoin="bevel" stroke-miterlimit="10"/><path fill="rgb(0,0,0)" stroke="rgb(0,0,0)" paint-order="fill" d="M 374.1265522406508 228.8363037109375 A 2.7386127875258306 2.7386127875258306 0 0 1 368.6493266655992 228.8363037109375 A 2.7386127875258306 2.7386127875258306 0 0 1 374.1265522406508 228.8363037109375" fill-opacity="1" clip-path="url(#mhpJCuFvlTOs)" stroke-opacity="1" stroke-linejoin="bevel" stroke-miterlimit="10"/><path fill="rgb(0,0,0)" stroke="rgb(0,0,0)" paint-order="fill" d="M 371.9861103461196 286.25836181640625 A 2.7386127875258306 2.7386127875258306 0 0 1 366.5088847710679 286.25836181640625 A 2.7386127875258306 2.7386127875258306 0 0 1 371.9861103461196 286.25836181640625" fill-opacity="1" clip-path="url(#mhpJCuFvlTOs)" stroke-opacity="1" stroke-linejoin="bevel" stroke-miterlimit="10"/><path fill="rgb(0,0,0)" stroke="rgb(0,0,0)" paint-order="fill" d="M 438.0334125922133 224.42529296875 A 2.7386127875258306 2.7386127875258306 0 0 1 432.5561870171617 224.42529296875 A 2.7386127875258306 2.7386127875258306 0 0 1 438.0334125922133 224.42529296875" fill-opacity="1" clip-path="url(#mhpJCuFvlTOs)" stroke-opacity="1" stroke-linejoin="bevel" stroke-miterlimit="10"/><path fill="rgb(0,0,0)" stroke="rgb(0,0,0)" paint-order="fill" d="M 360.4414631293227 234.0106201171875 A 2.7386127875258306 2.7386127875258306 0 0 1 354.96423755427105 234.0106201171875 A 2.7386127875258306 2.7386127875258306 0 0 1 360.4414631293227 234.0106201171875" fill-opacity="1" clip-path="url(#mhpJCuFvlTOs)" stroke-opacity="1" stroke-linejoin="bevel" stroke-miterlimit="10"/><path fill="rgb(0,0,0)" stroke="rgb(0,0,0)" paint-order="fill" d="M 378.0797382758071 191.4774627685547 A 2.7386127875258306 2.7386127875258306 0 0 1 372.6025127007554 191.4774627685547 A 2.7386127875258306 2.7386127875258306 0 0 1 378.0797382758071 191.4774627685547" fill-opacity="1" clip-path="url(#mhpJCuFvlTOs)" stroke-opacity="1" stroke-linejoin="bevel" stroke-miterlimit="10"/><path fill="rgb(0,0,0)" stroke="rgb(0,0,0)" paint-order="fill" d="M 385.3472553656508 213.3583526611328 A 2.7386127875258306 2.7386127875258306 0 0 1 379.8700297905992 213.3583526611328 A 2.7386127875258306 2.7386127875258306 0 0 1 385.3472553656508 213.3583526611328" fill-opacity="1" clip-path="url(#mhpJCuFvlTOs)" stroke-opacity="1" stroke-linejoin="bevel" stroke-miterlimit="10"/><path fill="rgb(0,0,0)" stroke="rgb(0,0,0)" paint-order="fill" d="M 316.20287670354145 290.8474426269531 A 2.7386127875258306 2.7386127875258306 0 0 1 310.7256511284898 290.8474426269531 A 2.7386127875258306 2.7386127875258306 0 0 1 316.20287670354145 290.8474426269531" fill-opacity="1" clip-path="url(#mhpJCuFvlTOs)" stroke-opacity="1" stroke-linejoin="bevel" stroke-miterlimit="10"/><path fill="rgb(0,0,0)" stroke="rgb(0,0,0)" paint-order="fill" d="M 325.1395527289321 281.7417907714844 A 2.7386127875258306 2.7386127875258306 0 0 1 319.6623271538804 281.7417907714844 A 2.7386127875258306 2.7386127875258306 0 0 1 325.1395527289321 281.7417907714844" fill-opacity="1" clip-path="url(#mhpJCuFvlTOs)" stroke-opacity="1" stroke-linejoin="bevel" stroke-miterlimit="10"/><path fill="rgb(0,0,0)" stroke="rgb(0,0,0)" paint-order="fill" d="M 286.9504963324477 293.105712890625 A 2.7386127875258306 2.7386127875258306 0 0 1 281.47327075739605 293.105712890625 A 2.7386127875258306 2.7386127875258306 0 0 1 286.9504963324477 293.105712890625" fill-opacity="1" clip-path="url(#mhpJCuFvlTOs)" stroke-opacity="1" stroke-linejoin="bevel" stroke-miterlimit="10"/><path fill="rgb(0,0,0)" stroke="rgb(0,0,0)" paint-order="fill" d="M 306.2251240179946 300.9737548828125 A 2.7386127875258306 2.7386127875258306 0 0 1 300.7478984429429 300.9737548828125 A 2.7386127875258306 2.7386127875258306 0 0 1 306.2251240179946 300.9737548828125" fill-opacity="1" clip-path="url(#mhpJCuFvlTOs)" stroke-opacity="1" stroke-linejoin="bevel" stroke-miterlimit="10"/><path fill="rgb(0,0,0)" stroke="rgb(0,0,0)" paint-order="fill" d="M 181.1560627386977 425.95208740234375 A 2.7386127875258306 2.7386127875258306 0 0 1 175.67883716364605 425.95208740234375 A 2.7386127875258306 2.7386127875258306 0 0 1 181.1560627386977 425.95208740234375" fill-opacity="1" clip-path="url(#mhpJCuFvlTOs)" stroke-opacity="1" stroke-linejoin="bevel" stroke-miterlimit="10"/><path fill="rgb(0,0,0)" stroke="rgb(0,0,0)" paint-order="fill" d="M 177.604137079518 433.3505859375 A 2.7386127875258306 2.7386127875258306 0 0 1 172.12691150446636 433.3505859375 A 2.7386127875258306 2.7386127875258306 0 0 1 177.604137079518 433.3505859375" fill-opacity="1" clip-path="url(#mhpJCuFvlTOs)" stroke-opacity="1" stroke-linejoin="bevel" stroke-miterlimit="10"/><path fill="rgb(0,0,0)" stroke="rgb(0,0,0)" paint-order="fill" d="M 191.83739818791645 418.1908264160156 A 2.7386127875258306 2.7386127875258306 0 0 1 186.3601726128648 418.1908264160156 A 2.7386127875258306 2.7386127875258306 0 0 1 191.83739818791645 418.1908264160156" fill-opacity="1" clip-path="url(#mhpJCuFvlTOs)" stroke-opacity="1" stroke-linejoin="bevel" stroke-miterlimit="10"/><path fill="rgb(0,0,0)" stroke="rgb(0,0,0)" paint-order="fill" d="M 172.30915416936176 433.4416198730469 A 2.7386127875258306 2.7386127875258306 0 0 1 166.8319285943101 433.4416198730469 A 2.7386127875258306 2.7386127875258306 0 0 1 172.30915416936176 433.4416198730469" fill-opacity="1" clip-path="url(#mhpJCuFvlTOs)" stroke-opacity="1" stroke-linejoin="bevel" stroke-miterlimit="10"/><path fill="rgb(0,0,0)" stroke="rgb(0,0,0)" paint-order="fill" d="M 168.84965099553364 452.4618225097656 A 2.7386127875258306 2.7386127875258306 0 0 1 163.372425420482 452.4618225097656 A 2.7386127875258306 2.7386127875258306 0 0 1 168.84965099553364 452.4618225097656" fill-opacity="1" clip-path="url(#mhpJCuFvlTOs)" stroke-opacity="1" stroke-linejoin="bevel" stroke-miterlimit="10"/><path fill="rgb(0,0,0)" stroke="rgb(0,0,0)" paint-order="fill" d="M 159.63859142522114 492.5693664550781 A 2.7386127875258306 2.7386127875258306 0 0 1 154.1613658501695 492.5693664550781 A 2.7386127875258306 2.7386127875258306 0 0 1 159.63859142522114 492.5693664550781" fill-opacity="1" clip-path="url(#mhpJCuFvlTOs)" stroke-opacity="1" stroke-linejoin="bevel" stroke-miterlimit="10"/><path fill="rgb(0,0,0)" stroke="rgb(0,0,0)" paint-order="fill" d="M 143.62942089299457 460.8083190917969 A 2.7386127875258306 2.7386127875258306 0 0 1 138.15219531794293 460.8083190917969 A 2.7386127875258306 2.7386127875258306 0 0 1 143.62942089299457 460.8083190917969" fill-opacity="1" clip-path="url(#mhpJCuFvlTOs)" stroke-opacity="1" stroke-linejoin="bevel" stroke-miterlimit="10"/><path fill="rgb(0,0,0)" stroke="rgb(0,0,0)" paint-order="fill" d="M 156.31521190861957 459.64825439453125 A 2.7386127875258306 2.7386127875258306 0 0 1 150.83798633356793 459.64825439453125 A 2.7386127875258306 2.7386127875258306 0 0 1 156.31521190861957 459.64825439453125" fill-opacity="1" clip-path="url(#mhpJCuFvlTOs)" stroke-opacity="1" stroke-linejoin="bevel" stroke-miterlimit="10"/><path fill="rgb(0,0,0)" stroke="rgb(0,0,0)" paint-order="fill" d="M 139.10158886174457 476.7855224609375 A 2.7386127875258306 2.7386127875258306 0 0 1 133.62436328669293 476.7855224609375 A 2.7386127875258306 2.7386127875258306 0 0 1 139.10158886174457 476.7855224609375" fill-opacity="1" clip-path="url(#mhpJCuFvlTOs)" stroke-opacity="1" stroke-linejoin="bevel" stroke-miterlimit="10"/><path fill="rgb(0,0,0)" stroke="rgb(0,0,0)" paint-order="fill" d="M 140.37748302678364 476.6639404296875 A 2.7386127875258306 2.7386127875258306 0 0 1 134.900257451732 476.6639404296875 A 2.7386127875258306 2.7386127875258306 0 0 1 140.37748302678364 476.6639404296875" fill-opacity="1" clip-path="url(#mhpJCuFvlTOs)" stroke-opacity="1" stroke-linejoin="bevel" stroke-miterlimit="10"/><path fill="rgb(0,0,0)" stroke="rgb(0,0,0)" paint-order="fill" d="M 138.58434643010395 479.8450622558594 A 2.7386127875258306 2.7386127875258306 0 0 1 133.1071208550523 479.8450622558594 A 2.7386127875258306 2.7386127875258306 0 0 1 138.58434643010395 479.8450622558594" fill-opacity="1" clip-path="url(#mhpJCuFvlTOs)" stroke-opacity="1" stroke-linejoin="bevel" stroke-miterlimit="10"/><path fill="rgb(0,0,0)" stroke="rgb(0,0,0)" paint-order="fill" d="M 139.09402050236957 481.54150390625 A 2.7386127875258306 2.7386127875258306 0 0 1 133.61679492731793 481.54150390625 A 2.7386127875258306 2.7386127875258306 0 0 1 139.09402050236957 481.54150390625" fill-opacity="1" clip-path="url(#mhpJCuFvlTOs)" stroke-opacity="1" stroke-linejoin="bevel" stroke-miterlimit="10"/><path fill="rgb(0,0,0)" stroke="rgb(0,0,0)" paint-order="fill" d="M 250.0416065619399 356.2122497558594 A 2.7386127875258306 2.7386127875258306 0 0 1 244.56438098688824 356.2122497558594 A 2.7386127875258306 2.7386127875258306 0 0 1 250.0416065619399 356.2122497558594" fill-opacity="1" clip-path="url(#mhpJCuFvlTOs)" stroke-opacity="1" stroke-linejoin="bevel" stroke-miterlimit="10"/><path fill="rgb(0,0,0)" stroke="rgb(0,0,0)" paint-order="fill" d="M 246.33590282658832 368.2537841796875 A 2.7386127875258306 2.7386127875258306 0 0 1 240.85867725153668 368.2537841796875 A 2.7386127875258306 2.7386127875258306 0 0 1 246.33590282658832 368.2537841796875" fill-opacity="1" clip-path="url(#mhpJCuFvlTOs)" stroke-opacity="1" stroke-linejoin="bevel" stroke-miterlimit="10"/><path fill="rgb(0,0,0)" stroke="rgb(0,0,0)" paint-order="fill" d="M 245.55422558049457 376.0592956542969 A 2.7386127875258306 2.7386127875258306 0 0 1 240.07700000544293 376.0592956542969 A 2.7386127875258306 2.7386127875258306 0 0 1 245.55422558049457 376.0592956542969" fill-opacity="1" clip-path="url(#mhpJCuFvlTOs)" stroke-opacity="1" stroke-linejoin="bevel" stroke-miterlimit="10"/><path fill="rgb(0,0,0)" stroke="rgb(0,0,0)" paint-order="fill" d="M 258.64416088322895 365.7657470703125 A 2.7386127875258306 2.7386127875258306 0 0 1 253.1669353081773 365.7657470703125 A 2.7386127875258306 2.7386127875258306 0 0 1 258.64416088322895 365.7657470703125" fill-opacity="1" clip-path="url(#mhpJCuFvlTOs)" stroke-opacity="1" stroke-linejoin="bevel" stroke-miterlimit="10"/><path fill="rgb(0,0,0)" stroke="rgb(0,0,0)" paint-order="fill" d="M 233.36306347111957 382.83563232421875 A 2.7386127875258306 2.7386127875258306 0 0 1 227.88583789606793 382.83563232421875 A 2.7386127875258306 2.7386127875258306 0 0 1 233.36306347111957 382.83563232421875" fill-opacity="1" clip-path="url(#mhpJCuFvlTOs)" stroke-opacity="1" stroke-linejoin="bevel" stroke-miterlimit="10"/><path fill="rgb(0,0,0)" stroke="rgb(0,0,0)" paint-order="fill" d="M 234.6079670355727 370.06353759765625 A 2.7386127875258306 2.7386127875258306 0 0 1 229.13074146052105 370.06353759765625 A 2.7386127875258306 2.7386127875258306 0 0 1 234.6079670355727 370.06353759765625" fill-opacity="1" clip-path="url(#mhpJCuFvlTOs)" stroke-opacity="1" stroke-linejoin="bevel" stroke-miterlimit="10"/><path fill="rgb(0,0,0)" stroke="rgb(0,0,0)" paint-order="fill" d="M 229.42235912541645 372.80926513671875 A 2.7386127875258306 2.7386127875258306 0 0 1 223.9451335503648 372.80926513671875 A 2.7386127875258306 2.7386127875258306 0 0 1 229.42235912541645 372.80926513671875" fill-opacity="1" clip-path="url(#mhpJCuFvlTOs)" stroke-opacity="1" stroke-linejoin="bevel" stroke-miterlimit="10"/><path fill="rgb(0,0,0)" stroke="rgb(0,0,0)" paint-order="fill" d="M 249.10555614690082 426.76739501953125 A 2.7386127875258306 2.7386127875258306 0 0 1 243.62833057184918 426.76739501953125 A 2.7386127875258306 2.7386127875258306 0 0 1 249.10555614690082 426.76739501953125" fill-opacity="1" clip-path="url(#mhpJCuFvlTOs)" stroke-opacity="1" stroke-linejoin="bevel" stroke-miterlimit="10"/><path fill="rgb(0,0,0)" stroke="rgb(0,0,0)" paint-order="fill" d="M 263.83471264104145 340.9637145996094 A 2.7386127875258306 2.7386127875258306 0 0 1 258.3574870659898 340.9637145996094 A 2.7386127875258306 2.7386127875258306 0 0 1 263.83471264104145 340.9637145996094" fill-opacity="1" clip-path="url(#mhpJCuFvlTOs)" stroke-opacity="1" stroke-linejoin="bevel" stroke-miterlimit="10"/><path fill="rgb(0,0,0)" stroke="rgb(0,0,0)" paint-order="fill" d="M 307.07714428166645 307.8058776855469 A 2.7386127875258306 2.7386127875258306 0 0 1 301.5999187066148 307.8058776855469 A 2.7386127875258306 2.7386127875258306 0 0 1 307.07714428166645 307.8058776855469" fill-opacity="1" clip-path="url(#mhpJCuFvlTOs)" stroke-opacity="1" stroke-linejoin="bevel" stroke-miterlimit="10"/><path fill="rgb(0,0,0)" stroke="rgb(0,0,0)" paint-order="fill" d="M 303.68944896916645 396.12811279296875 A 2.7386127875258306 2.7386127875258306 0 0 1 298.2122233941148 396.12811279296875 A 2.7386127875258306 2.7386127875258306 0 0 1 303.68944896916645 396.12811279296875" fill-opacity="1" clip-path="url(#mhpJCuFvlTOs)" stroke-opacity="1" stroke-linejoin="bevel" stroke-miterlimit="10"/><path fill="rgb(0,0,0)" stroke="rgb(0,0,0)" paint-order="fill" d="M 244.29215587834614 314.3697204589844 A 2.7386127875258306 2.7386127875258306 0 0 1 238.8149303032945 314.3697204589844 A 2.7386127875258306 2.7386127875258306 0 0 1 244.29215587834614 314.3697204589844" fill-opacity="1" clip-path="url(#mhpJCuFvlTOs)" stroke-opacity="1" stroke-linejoin="bevel" stroke-miterlimit="10"/><path fill="rgb(0,0,0)" stroke="rgb(0,0,0)" paint-order="fill" d="M 121.2966877386977 478.89508056640625 A 2.7386127875258306 2.7386127875258306 0 0 1 115.81946216364605 478.89508056640625 A 2.7386127875258306 2.7386127875258306 0 0 1 121.2966877386977 478.89508056640625" fill-opacity="1" clip-path="url(#mhpJCuFvlTOs)" stroke-opacity="1" stroke-linejoin="bevel" stroke-miterlimit="10"/><path fill="rgb(0,0,0)" stroke="rgb(0,0,0)" paint-order="fill" d="M 127.88158764104145 485.4586486816406 A 2.7386127875258306 2.7386127875258306 0 0 1 122.4043620659898 485.4586486816406 A 2.7386127875258306 2.7386127875258306 0 0 1 127.88158764104145 485.4586486816406" fill-opacity="1" clip-path="url(#mhpJCuFvlTOs)" stroke-opacity="1" stroke-linejoin="bevel" stroke-miterlimit="10"/><path fill="rgb(0,0,0)" stroke="rgb(0,0,0)" paint-order="fill" d="M 129.3382145331313 487.8116760253906 A 2.7386127875258306 2.7386127875258306 0 0 1 123.86098895807964 487.8116760253906 A 2.7386127875258306 2.7386127875258306 0 0 1 129.3382145331313 487.8116760253906" fill-opacity="1" clip-path="url(#mhpJCuFvlTOs)" stroke-opacity="1" stroke-linejoin="bevel" stroke-miterlimit="10"/><path fill="rgb(0,0,0)" stroke="rgb(0,0,0)" paint-order="fill" d="M 343.5274921820571 308.9658508300781 A 2.7386127875258306 2.7386127875258306 0 0 1 338.0502666070054 308.9658508300781 A 2.7386127875258306 2.7386127875258306 0 0 1 343.5274921820571 308.9658508300781" fill-opacity="1" clip-path="url(#mhpJCuFvlTOs)" stroke-opacity="1" stroke-linejoin="bevel" stroke-miterlimit="10"/><path fill="rgb(0,0,0)" stroke="rgb(0,0,0)" paint-order="fill" d="M 135.32038463811176 464.5814208984375 A 2.7386127875258306 2.7386127875258306 0 0 1 129.8431590630601 464.5814208984375 A 2.7386127875258306 2.7386127875258306 0 0 1 135.32038463811176 464.5814208984375" fill-opacity="1" clip-path="url(#mhpJCuFvlTOs)" stroke-opacity="1" stroke-linejoin="bevel" stroke-miterlimit="10"/><path fill="rgb(0,0,0)" stroke="rgb(0,0,0)" paint-order="fill" d="M 133.26229442815082 467.16973876953125 A 2.7386127875258306 2.7386127875258306 0 0 1 127.78506885309918 467.16973876953125 A 2.7386127875258306 2.7386127875258306 0 0 1 133.26229442815082 467.16973876953125" fill-opacity="1" clip-path="url(#mhpJCuFvlTOs)" stroke-opacity="1" stroke-linejoin="bevel" stroke-miterlimit="10"/><path fill="rgb(0,0,0)" stroke="rgb(0,0,0)" paint-order="fill" d="M 139.5715443060805 473.1583557128906 A 2.7386127875258306 2.7386127875258306 0 0 1 134.09431873102886 473.1583557128906 A 2.7386127875258306 2.7386127875258306 0 0 1 139.5715443060805 473.1583557128906" fill-opacity="1" clip-path="url(#mhpJCuFvlTOs)" stroke-opacity="1" stroke-linejoin="bevel" stroke-miterlimit="10"/><path fill="rgb(0,0,0)" stroke="rgb(0,0,0)" paint-order="fill" d="M 133.93618358830707 470.13531494140625 A 2.7386127875258306 2.7386127875258306 0 0 1 128.45895801325543 470.13531494140625 A 2.7386127875258306 2.7386127875258306 0 0 1 133.93618358830707 470.13531494140625" fill-opacity="1" clip-path="url(#mhpJCuFvlTOs)" stroke-opacity="1" stroke-linejoin="bevel" stroke-miterlimit="10"/><path fill="rgb(0,0,0)" stroke="rgb(0,0,0)" paint-order="fill" d="M 264.2768818304946 356.35137939453125 A 2.7386127875258306 2.7386127875258306 0 0 1 258.7996562554429 356.35137939453125 A 2.7386127875258306 2.7386127875258306 0 0 1 264.2768818304946 356.35137939453125" fill-opacity="1" clip-path="url(#mhpJCuFvlTOs)" stroke-opacity="1" stroke-linejoin="bevel" stroke-miterlimit="10"/><path fill="rgb(0,0,0)" stroke="rgb(0,0,0)" paint-order="fill" d="M 528.4086567328384 33.469932556152344 A 2.7386127875258306 2.7386127875258306 0 0 1 522.9314311577866 33.469932556152344 A 2.7386127875258306 2.7386127875258306 0 0 1 528.4086567328384 33.469932556152344" fill-opacity="1" clip-path="url(#mhpJCuFvlTOs)" stroke-opacity="1" stroke-linejoin="bevel" stroke-miterlimit="10"/><path fill="rgb(0,0,0)" stroke="rgb(0,0,0)" paint-order="fill" d="M 372.1477314398696 202.4589385986328 A 2.7386127875258306 2.7386127875258306 0 0 1 366.6705058648179 202.4589385986328 A 2.7386127875258306 2.7386127875258306 0 0 1 372.1477314398696 202.4589385986328" fill-opacity="1" clip-path="url(#mhpJCuFvlTOs)" stroke-opacity="1" stroke-linejoin="bevel" stroke-miterlimit="10"/><path fill="rgb(0,0,0)" stroke="rgb(0,0,0)" paint-order="fill" d="M 450.0340229437758 99.90435028076172 A 2.7386127875258306 2.7386127875258306 0 0 1 444.5567973687242 99.90435028076172 A 2.7386127875258306 2.7386127875258306 0 0 1 450.0340229437758 99.90435028076172" fill-opacity="1" clip-path="url(#mhpJCuFvlTOs)" stroke-opacity="1" stroke-linejoin="bevel" stroke-miterlimit="10"/><path fill="rgb(0,0,0)" stroke="rgb(0,0,0)" paint-order="fill" d="M 543.6027485297134 165.94046020507812 A 2.7386127875258306 2.7386127875258306 0 0 1 538.1255229546616 165.94046020507812 A 2.7386127875258306 2.7386127875258306 0 0 1 543.6027485297134 165.94046020507812" fill-opacity="1" clip-path="url(#mhpJCuFvlTOs)" stroke-opacity="1" stroke-linejoin="bevel" stroke-miterlimit="10"/><path fill="none" stroke="rgb(211,211,211)" paint-order="fill" d="M 99.5 510.5 L 599.5 27.253524780273438" stroke-opacity="1" stroke-linejoin="bevel" stroke-miterlimit="10" stroke-width="2" stroke-dasharray="6" clip-path="url(#sqprTDCQxhge)"/><g clip-path="url(#uxTJWipoHoem)"><text fill="rgb(0,0,0)" stroke="none" font-family="helvetica" font-size="12Pt" font-style="normal" font-weight="normal" text-decoration="normal" x="0" y="14" text-anchor="start" dominant-baseline="alphabetic" transform="matrix(1, 0, 0, 1, 499.5, 110.5)" fill-opacity="1">R² = 0.97</text></g><g clip-path="url(#uxTJWipoHoem)"><text fill="none" stroke="rgb(0,0,0)" font-family="helvetica" font-size="12Pt" font-style="normal" font-weight="normal" text-decoration="normal" x="0" y="14" text-anchor="start" dominant-baseline="alphabetic" transform="matrix(1, 0, 0, 1, 499.5, 110.5)" stroke-opacity="0" stroke-miterlimit="10" stroke-dasharray="">R² = 0.97</text></g><g clip-path="url(#oulDTPqRowGr)"><text fill="rgb(0,0,0)" stroke="none" font-family="helvetica" font-size="12Pt" font-style="normal" font-weight="normal" text-decoration="normal" x="0" y="14" text-anchor="start" dominant-baseline="alphabetic" transform="matrix(1, 0, 0, 1, 499.5, 130.5)" fill-opacity="1">slope = 0.97</text></g><g clip-path="url(#oulDTPqRowGr)"><text fill="none" stroke="rgb(0,0,0)" font-family="helvetica" font-size="12Pt" font-style="normal" font-weight="normal" text-decoration="normal" x="0" y="14" text-anchor="start" dominant-baseline="alphabetic" transform="matrix(1, 0, 0, 1, 499.5, 130.5)" stroke-opacity="0" stroke-miterlimit="10" stroke-dasharray="">slope = 0.97</text></g><path fill="none" stroke="rgb(0,0,0)" paint-order="fill" d="M 99.5 510.5 L 599.5 510.5" stroke-opacity="1" stroke-linejoin="bevel" stroke-miterlimit="10"/><path fill="none" stroke="rgb(0,0,0)" paint-order="fill" d="M 99.5 516.5 L 99.5 508.5 M 199.5 516.5 L 199.5 508.5 M 299.5 516.5 L 299.5 508.5 M 399.5 516.5 L 399.5 508.5 M 499.5 516.5 L 499.5 508.5 M 599.5 516.5 L 599.5 508.5" stroke-opacity="1" stroke-linejoin="bevel" stroke-miterlimit="10"/><path fill="none" stroke="rgb(0,0,0)" paint-order="fill" d="M 99.5 514.5 L 99.5 510.5 M 119.5 514.5 L 119.5 510.5 M 139.5 514.5 L 139.5 510.5 M 159.5 514.5 L 159.5 510.5 M 179.5 514.5 L 179.5 510.5 M 199.5 514.5 L 199.5 510.5 M 219.5 514.5 L 219.5 510.5 M 239.5 514.5 L 239.5 510.5 M 259.5 514.5 L 259.5 510.5 M 279.5 514.5 L 279.5 510.5 M 299.5 514.5 L 299.5 510.5 M 319.5 514.5 L 319.5 510.5 M 339.5 514.5 L 339.5 510.5 M 359.5 514.5 L 359.5 510.5 M 379.5 514.5 L 379.5 510.5 M 399.5 514.5 L 399.5 510.5 M 419.5 514.5 L 419.5 510.5 M 439.5 514.5 L 439.5 510.5 M 459.5 514.5 L 459.5 510.5 M 479.5 514.5 L 479.5 510.5 M 499.5 514.5 L 499.5 510.5 M 519.5 514.5 L 519.5 510.5 M 539.5 514.5 L 539.5 510.5 M 559.5 514.5 L 559.5 510.5 M 579.5 514.5 L 579.5 510.5 M 599.5 514.5 L 599.5 510.5" stroke-opacity="1" stroke-linejoin="bevel" stroke-miterlimit="10"/><text fill="rgb(68,68,68)" stroke="none" font-family="helvetica" font-size="10pt" font-style="normal" font-weight="normal" text-decoration="normal" x="71.01937103271484" y="530" text-anchor="start" dominant-baseline="alphabetic" transform="matrix(1, 0, 0, 1, 0.5, 0.5)" fill-opacity="1">0.000e+0</text><text fill="none" stroke="rgb(0,0,0)" font-family="helvetica" font-size="10pt" font-style="normal" font-weight="normal" text-decoration="normal" x="71.01937103271484" y="530" text-anchor="start" dominant-baseline="alphabetic" transform="matrix(1, 0, 0, 1, 0.5, 0.5)" stroke-opacity="0" stroke-linejoin="bevel" stroke-miterlimit="10">0.000e+0</text><text fill="rgb(68,68,68)" stroke="none" font-family="helvetica" font-size="10pt" font-style="normal" font-weight="normal" text-decoration="normal" x="171.01937103271484" y="530" text-anchor="start" dominant-baseline="alphabetic" transform="matrix(1, 0, 0, 1, 0.5, 0.5)" fill-opacity="1">5.000e−5</text><text fill="none" stroke="rgb(0,0,0)" font-family="helvetica" font-size="10pt" font-style="normal" font-weight="normal" text-decoration="normal" x="171.01937103271484" y="530" text-anchor="start" dominant-baseline="alphabetic" transform="matrix(1, 0, 0, 1, 0.5, 0.5)" stroke-opacity="0" stroke-linejoin="bevel" stroke-miterlimit="10">5.000e−5</text><text fill="rgb(68,68,68)" stroke="none" font-family="helvetica" font-size="10pt" font-style="normal" font-weight="normal" text-decoration="normal" x="271.01937103271484" y="530" text-anchor="start" dominant-baseline="alphabetic" transform="matrix(1, 0, 0, 1, 0.5, 0.5)" fill-opacity="1">1.000e−4</text><text fill="none" stroke="rgb(0,0,0)" font-family="helvetica" font-size="10pt" font-style="normal" font-weight="normal" text-decoration="normal" x="271.01937103271484" y="530" text-anchor="start" dominant-baseline="alphabetic" transform="matrix(1, 0, 0, 1, 0.5, 0.5)" stroke-opacity="0" stroke-linejoin="bevel" stroke-miterlimit="10">1.000e−4</text><text fill="rgb(68,68,68)" stroke="none" font-family="helvetica" font-size="10pt" font-style="normal" font-weight="normal" text-decoration="normal" x="371.01937103271484" y="530" text-anchor="start" dominant-baseline="alphabetic" transform="matrix(1, 0, 0, 1, 0.5, 0.5)" fill-opacity="1">1.500e−4</text><text fill="none" stroke="rgb(0,0,0)" font-family="helvetica" font-size="10pt" font-style="normal" font-weight="normal" text-decoration="normal" x="371.01937103271484" y="530" text-anchor="start" dominant-baseline="alphabetic" transform="matrix(1, 0, 0, 1, 0.5, 0.5)" stroke-opacity="0" stroke-linejoin="bevel" stroke-miterlimit="10">1.500e−4</text><text fill="rgb(68,68,68)" stroke="none" font-family="helvetica" font-size="10pt" font-style="normal" font-weight="normal" text-decoration="normal" x="471.01937103271484" y="530" text-anchor="start" dominant-baseline="alphabetic" transform="matrix(1, 0, 0, 1, 0.5, 0.5)" fill-opacity="1">2.000e−4</text><text fill="none" stroke="rgb(0,0,0)" font-family="helvetica" font-size="10pt" font-style="normal" font-weight="normal" text-decoration="normal" x="471.01937103271484" y="530" text-anchor="start" dominant-baseline="alphabetic" transform="matrix(1, 0, 0, 1, 0.5, 0.5)" stroke-opacity="0" stroke-linejoin="bevel" stroke-miterlimit="10">2.000e−4</text><text fill="rgb(68,68,68)" stroke="none" font-family="helvetica" font-size="10pt" font-style="normal" font-weight="normal" text-decoration="normal" x="571.0193710327148" y="530" text-anchor="start" dominant-baseline="alphabetic" transform="matrix(1, 0, 0, 1, 0.5, 0.5)" fill-opacity="1">2.500e−4</text><text fill="none" stroke="rgb(0,0,0)" font-family="helvetica" font-size="10pt" font-style="normal" font-weight="normal" text-decoration="normal" x="571.0193710327148" y="530" text-anchor="start" dominant-baseline="alphabetic" transform="matrix(1, 0, 0, 1, 0.5, 0.5)" stroke-opacity="0" stroke-linejoin="bevel" stroke-miterlimit="10">2.500e−4</text><text fill="rgb(68,68,68)" stroke="none" font-family="helvetica" font-size="14pt" font-style="italic" font-weight="normal" text-decoration="normal" x="247.38811492919922" y="555" text-anchor="start" dominant-baseline="alphabetic" transform="matrix(1, 0, 0, 1, 0.5, 0.5)" fill-opacity="1">mutation rate, mScarlettI</text><text fill="none" stroke="rgb(0,0,0)" font-family="helvetica" font-size="14pt" font-style="italic" font-weight="normal" text-decoration="normal" x="247.38811492919922" y="555" text-anchor="start" dominant-baseline="alphabetic" transform="matrix(1, 0, 0, 1, 0.5, 0.5)" stroke-opacity="0" stroke-linejoin="bevel" stroke-miterlimit="10">mutation rate, mScarlettI</text><path fill="none" stroke="rgb(0,0,0)" paint-order="fill" d="M 99.5 510.5 L 99.5 10.5" stroke-opacity="1" stroke-linejoin="bevel" stroke-miterlimit="10"/><path fill="none" stroke="rgb(0,0,0)" paint-order="fill" d="M 93.5 510.5 L 101.5 510.5 M 93.5 410.5 L 101.5 410.5 M 93.5 310.5 L 101.5 310.5 M 93.5 210.5 L 101.5 210.5 M 93.5 110.5 L 101.5 110.5 M 93.5 10.5 L 101.5 10.5" stroke-opacity="1" stroke-linejoin="bevel" stroke-miterlimit="10"/><path fill="none" stroke="rgb(0,0,0)" paint-order="fill" d="M 95.5 510.5 L 99.5 510.5 M 95.5 490.5 L 99.5 490.5 M 95.5 470.5 L 99.5 470.5 M 95.5 450.5 L 99.5 450.5 M 95.5 430.5 L 99.5 430.5 M 95.5 410.5 L 99.5 410.5 M 95.5 390.5 L 99.5 390.5 M 95.5 370.5 L 99.5 370.5 M 95.5 350.5 L 99.5 350.5 M 95.5 330.5 L 99.5 330.5 M 95.5 310.5 L 99.5 310.5 M 95.5 290.5 L 99.5 290.5 M 95.5 270.5 L 99.5 270.5 M 95.5 250.5 L 99.5 250.5 M 95.5 230.5 L 99.5 230.5 M 95.5 210.5 L 99.5 210.5 M 95.5 190.5 L 99.5 190.5 M 95.5 170.5 L 99.5 170.5 M 95.5 150.5 L 99.5 150.5 M 95.5 130.5 L 99.5 130.5 M 95.5 110.5 L 99.5 110.5 M 95.5 90.5 L 99.5 90.5 M 95.5 70.5 L 99.5 70.5 M 95.5 50.5 L 99.5 50.5 M 95.5 30.5 L 99.5 30.5 M 95.5 10.5 L 99.5 10.5" stroke-opacity="1" stroke-linejoin="bevel" stroke-miterlimit="10"/><text fill="rgb(68,68,68)" stroke="none" font-family="helvetica" font-size="10pt" font-style="normal" font-weight="normal" text-decoration="normal" x="32.03874206542969" y="514.5" text-anchor="start" dominant-baseline="alphabetic" transform="matrix(1, 0, 0, 1, 0.5, 0.5)" fill-opacity="1">0.000e+0</text><text fill="none" stroke="rgb(0,0,0)" font-family="helvetica" font-size="10pt" font-style="normal" font-weight="normal" text-decoration="normal" x="32.03874206542969" y="514.5" text-anchor="start" dominant-baseline="alphabetic" transform="matrix(1, 0, 0, 1, 0.5, 0.5)" stroke-opacity="0" stroke-linejoin="bevel" stroke-miterlimit="10">0.000e+0</text><text fill="rgb(68,68,68)" stroke="none" font-family="helvetica" font-size="10pt" font-style="normal" font-weight="normal" text-decoration="normal" x="32.03874206542969" y="414.5" text-anchor="start" dominant-baseline="alphabetic" transform="matrix(1, 0, 0, 1, 0.5, 0.5)" fill-opacity="1">5.000e−5</text><text fill="none" stroke="rgb(0,0,0)" font-family="helvetica" font-size="10pt" font-style="normal" font-weight="normal" text-decoration="normal" x="32.03874206542969" y="414.5" text-anchor="start" dominant-baseline="alphabetic" transform="matrix(1, 0, 0, 1, 0.5, 0.5)" stroke-opacity="0" stroke-linejoin="bevel" stroke-miterlimit="10">5.000e−5</text><text fill="rgb(68,68,68)" stroke="none" font-family="helvetica" font-size="10pt" font-style="normal" font-weight="normal" text-decoration="normal" x="32.03874206542969" y="314.5" text-anchor="start" dominant-baseline="alphabetic" transform="matrix(1, 0, 0, 1, 0.5, 0.5)" fill-opacity="1">1.000e−4</text><text fill="none" stroke="rgb(0,0,0)" font-family="helvetica" font-size="10pt" font-style="normal" font-weight="normal" text-decoration="normal" x="32.03874206542969" y="314.5" text-anchor="start" dominant-baseline="alphabetic" transform="matrix(1, 0, 0, 1, 0.5, 0.5)" stroke-opacity="0" stroke-linejoin="bevel" stroke-miterlimit="10">1.000e−4</text><text fill="rgb(68,68,68)" stroke="none" font-family="helvetica" font-size="10pt" font-style="normal" font-weight="normal" text-decoration="normal" x="32.03874206542969" y="214.5" text-anchor="start" dominant-baseline="alphabetic" transform="matrix(1, 0, 0, 1, 0.5, 0.5)" fill-opacity="1">1.500e−4</text><text fill="none" stroke="rgb(0,0,0)" font-family="helvetica" font-size="10pt" font-style="normal" font-weight="normal" text-decoration="normal" x="32.03874206542969" y="214.5" text-anchor="start" dominant-baseline="alphabetic" transform="matrix(1, 0, 0, 1, 0.5, 0.5)" stroke-opacity="0" stroke-linejoin="bevel" stroke-miterlimit="10">1.500e−4</text><text fill="rgb(68,68,68)" stroke="none" font-family="helvetica" font-size="10pt" font-style="normal" font-weight="normal" text-decoration="normal" x="32.03874206542969" y="114.5" text-anchor="start" dominant-baseline="alphabetic" transform="matrix(1, 0, 0, 1, 0.5, 0.5)" fill-opacity="1">2.000e−4</text><text fill="none" stroke="rgb(0,0,0)" font-family="helvetica" font-size="10pt" font-style="normal" font-weight="normal" text-decoration="normal" x="32.03874206542969" y="114.5" text-anchor="start" dominant-baseline="alphabetic" transform="matrix(1, 0, 0, 1, 0.5, 0.5)" stroke-opacity="0" stroke-linejoin="bevel" stroke-miterlimit="10">2.000e−4</text><text fill="rgb(68,68,68)" stroke="none" font-family="helvetica" font-size="10pt" font-style="normal" font-weight="normal" text-decoration="normal" x="32.03874206542969" y="14.5" text-anchor="start" dominant-baseline="alphabetic" transform="matrix(1, 0, 0, 1, 0.5, 0.5)" fill-opacity="1">2.500e−4</text><text fill="none" stroke="rgb(0,0,0)" font-family="helvetica" font-size="10pt" font-style="normal" font-weight="normal" text-decoration="normal" x="32.03874206542969" y="14.5" text-anchor="start" dominant-baseline="alphabetic" transform="matrix(1, 0, 0, 1, 0.5, 0.5)" stroke-opacity="0" stroke-linejoin="bevel" stroke-miterlimit="10">2.500e−4</text><text fill="rgb(68,68,68)" stroke="none" font-family="helvetica" font-size="14pt" font-style="italic" font-weight="normal" text-decoration="normal" x="-60.470062255859375" y="256" text-anchor="start" dominant-baseline="alphabetic" transform="matrix(6.123233995736766e-17, -1, 1, 6.123233995736766e-17, -235.4612579345703, 284.5387420654297)" fill-opacity="1">mutation rate, URA3</text><text fill="none" stroke="rgb(0,0,0)" font-family="helvetica" font-size="14pt" font-style="italic" font-weight="normal" text-decoration="normal" x="-60.470062255859375" y="256" text-anchor="start" dominant-baseline="alphabetic" transform="matrix(6.123233995736766e-17, -1, 1, 6.123233995736766e-17, -235.4612579345703, 284.5387420654297)" stroke-opacity="0" stroke-linejoin="bevel" stroke-miterlimit="10">mutation rate, URA3</text></svg>