<svg version="1.1" xmlns="http://www.w3.org/2000/svg" width="589" height="559"><defs><clipPath id="VHXdqhVsKCCV"><path fill="none" stroke="none" d="M 59.5 10.5 L 559.5 10.5 L 559.5 510.5 L 59.5 510.5 L 59.5 10.5"/></clipPath><clipPath id="VVpqnMqBFoLt"><path fill="none" stroke="none" d="M 59.5 10.5 L 559.5 10.5 L 559.5 510.5 L 59.5 510.5 L 59.5 10.5"/></clipPath><clipPath id="SsKCusWuZpZD"><path fill="none" stroke="none" d="M 59.5 10.5 L 559.5 10.5 L 559.5 510.5 L 59.5 510.5 L 59.5 10.5"/></clipPath><clipPath id="ftTlIZhVDULo"><path fill="none" stroke="none" d="M 59.5 10.5 L 559.5 10.5 L 559.5 510.5 L 59.5 510.5 L 59.5 10.5"/></clipPath><clipPath id="BpfzblEVRPSB"><path fill="none" stroke="none" d="M 59.5 10.5 L 559.5 10.5 L 559.5 510.5 L 59.5 510.5 L 59.5 10.5"/></clipPath><clipPath id="TiadNzCQvcrd"><path fill="none" stroke="none" d="M 59.5 10.5 L 559.5 10.5 L 559.5 510.5 L 59.5 510.5 L 59.5 10.5"/></clipPath></defs><path fill="rgb(255,255,255)" stroke="none" paint-order="stroke" d="M 0.5 0.5 L 589.5 0.5 L 589.5 559.5 L 0.5 559.5 L 0.5 0.5" fill-opacity="1"/><rect fill="#FFFFFF" stroke="none" x="59" y="10" width="500" height="500" transform="matrix(1, 0, 0, 1, 0.5, 0.5)"/><path fill="rgb(255,255,255)" stroke="none" paint-order="stroke" d="M 59.5 10.5 L 559.5 10.5 L 559.5 510.5 L 59.5 510.5 L 59.5 10.5" fill-opacity="1"/><path fill="none" stroke="rgb(229,229,229)" paint-order="fill" d="M 59.5 10.5 L 559.5 10.5 L 559.5 510.5 L 59.5 510.5 L 59.5 10.5" stroke-opacity="1" stroke-linejoin="bevel" stroke-miterlimit="10" stroke-dasharray=""/><path fill="rgb(0,0,0)" stroke="rgb(0,0,0)" paint-order="fill" d="M 126.70821727971332 364.0383605957031 A 2.7386127875258306 2.7386127875258306 0 0 1 121.23099170466168 364.0383605957031 A 2.7386127875258306 2.7386127875258306 0 0 1 126.70821727971332 364.0383605957031" fill-opacity="1" clip-path="url(#SsKCusWuZpZD)" stroke-opacity="1" stroke-linejoin="bevel" stroke-miterlimit="10" stroke-dasharray=""/><path fill="rgb(0,0,0)" stroke="rgb(0,0,0)" paint-order="fill" d="M 133.27889599065082 330.0270690917969 A 2.7386127875258306 2.7386127875258306 0 0 1 127.80167041559918 330.0270690917969 A 2.7386127875258306 2.7386127875258306 0 0 1 133.27889599065082 330.0270690917969" fill-opacity="1" clip-path="url(#SsKCusWuZpZD)" stroke-opacity="1" stroke-linejoin="bevel" stroke-miterlimit="10" stroke-dasharray=""/><path fill="rgb(0,0,0)" stroke="rgb(0,0,0)" paint-order="fill" d="M 128.6633869574477 388.0138244628906 A 2.7386127875258306 2.7386127875258306 0 0 1 123.18616138239605 388.0138244628906 A 2.7386127875258306 2.7386127875258306 0 0 1 128.6633869574477 388.0138244628906" fill-opacity="1" clip-path="url(#SsKCusWuZpZD)" stroke-opacity="1" stroke-linejoin="bevel" stroke-miterlimit="10" stroke-dasharray=""/><path fill="rgb(0,0,0)" stroke="rgb(0,0,0)" paint-order="fill" d="M 129.5448566840102 383.9271240234375 A 2.7386127875258306 2.7386127875258306 0 0 1 124.06763110895855 383.9271240234375 A 2.7386127875258306 2.7386127875258306 0 0 1 129.5448566840102 383.9271240234375" fill-opacity="1" clip-path="url(#SsKCusWuZpZD)" stroke-opacity="1" stroke-linejoin="bevel" stroke-miterlimit="10" stroke-dasharray=""/><path fill="rgb(0,0,0)" stroke="rgb(0,0,0)" paint-order="fill" d="M 128.86629833440082 364.8812255859375 A 2.7386127875258306 2.7386127875258306 0 0 1 123.38907275934918 364.8812255859375 A 2.7386127875258306 2.7386127875258306 0 0 1 128.86629833440082 364.8812255859375" fill-opacity="1" clip-path="url(#SsKCusWuZpZD)" stroke-opacity="1" stroke-linejoin="bevel" stroke-miterlimit="10" stroke-dasharray=""/><path fill="rgb(0,0,0)" stroke="rgb(0,0,0)" paint-order="fill" d="M 134.91303600529926 351.84332275390625 A 2.7386127875258306 2.7386127875258306 0 0 1 129.4358104302476 351.84332275390625 A 2.7386127875258306 2.7386127875258306 0 0 1 134.91303600529926 351.84332275390625" fill-opacity="1" clip-path="url(#SsKCusWuZpZD)" stroke-opacity="1" stroke-linejoin="bevel" stroke-miterlimit="10" stroke-dasharray=""/><path fill="rgb(0,0,0)" stroke="rgb(0,0,0)" paint-order="fill" d="M 153.73669018010395 272.8195495605469 A 2.7386127875258306 2.7386127875258306 0 0 1 148.2594646050523 272.8195495605469 A 2.7386127875258306 2.7386127875258306 0 0 1 153.73669018010395 272.8195495605469" fill-opacity="1" clip-path="url(#SsKCusWuZpZD)" stroke-opacity="1" stroke-linejoin="bevel" stroke-miterlimit="10" stroke-dasharray=""/><path fill="rgb(0,0,0)" stroke="rgb(0,0,0)" paint-order="fill" d="M 149.70499767522114 345.2508544921875 A 2.7386127875258306 2.7386127875258306 0 0 1 144.2277721001695 345.2508544921875 A 2.7386127875258306 2.7386127875258306 0 0 1 149.70499767522114 345.2508544921875" fill-opacity="1" clip-path="url(#SsKCusWuZpZD)" stroke-opacity="1" stroke-linejoin="bevel" stroke-miterlimit="10" stroke-dasharray=""/><path fill="rgb(0,0,0)" stroke="rgb(0,0,0)" paint-order="fill" d="M 153.04291881779926 341.0227355957031 A 2.7386127875258306 2.7386127875258306 0 0 1 147.5656932427476 341.0227355957031 A 2.7386127875258306 2.7386127875258306 0 0 1 153.04291881779926 341.0227355957031" fill-opacity="1" clip-path="url(#SsKCusWuZpZD)" stroke-opacity="1" stroke-linejoin="bevel" stroke-miterlimit="10" stroke-dasharray=""/><path fill="rgb(0,0,0)" stroke="rgb(0,0,0)" paint-order="fill" d="M 146.7192493842055 320.52447509765625 A 2.7386127875258306 2.7386127875258306 0 0 1 141.24202380915386 320.52447509765625 A 2.7386127875258306 2.7386127875258306 0 0 1 146.7192493842055 320.52447509765625" fill-opacity="1" clip-path="url(#SsKCusWuZpZD)" stroke-opacity="1" stroke-linejoin="bevel" stroke-miterlimit="10" stroke-dasharray=""/><path fill="rgb(0,0,0)" stroke="rgb(0,0,0)" paint-order="fill" d="M 165.33166088322895 355.0999450683594 A 2.7386127875258306 2.7386127875258306 0 0 1 159.8544353081773 355.0999450683594 A 2.7386127875258306 2.7386127875258306 0 0 1 165.33166088322895 355.0999450683594" fill-opacity="1" clip-path="url(#SsKCusWuZpZD)" stroke-opacity="1" stroke-linejoin="bevel" stroke-miterlimit="10" stroke-dasharray=""/><path fill="rgb(0,0,0)" stroke="rgb(0,0,0)" paint-order="fill" d="M 166.31071056584614 341.439208984375 A 2.7386127875258306 2.7386127875258306 0 0 1 160.8334849907945 341.439208984375 A 2.7386127875258306 2.7386127875258306 0 0 1 166.31071056584614 341.439208984375" fill-opacity="1" clip-path="url(#SsKCusWuZpZD)" stroke-opacity="1" stroke-linejoin="bevel" stroke-miterlimit="10" stroke-dasharray=""/><path fill="rgb(0,0,0)" stroke="rgb(0,0,0)" paint-order="fill" d="M 167.66471447209614 339.5318908691406 A 2.7386127875258306 2.7386127875258306 0 0 1 162.1874888970445 339.5318908691406 A 2.7386127875258306 2.7386127875258306 0 0 1 167.66471447209614 339.5318908691406" fill-opacity="1" clip-path="url(#SsKCusWuZpZD)" stroke-opacity="1" stroke-linejoin="bevel" stroke-miterlimit="10" stroke-dasharray=""/><path fill="rgb(0,0,0)" stroke="rgb(0,0,0)" paint-order="fill" d="M 178.94208873967426 289.87921142578125 A 2.7386127875258306 2.7386127875258306 0 0 1 173.4648631646226 289.87921142578125 A 2.7386127875258306 2.7386127875258306 0 0 1 178.94208873967426 289.87921142578125" fill-opacity="1" clip-path="url(#SsKCusWuZpZD)" stroke-opacity="1" stroke-linejoin="bevel" stroke-miterlimit="10" stroke-dasharray=""/><path fill="rgb(0,0,0)" stroke="rgb(0,0,0)" paint-order="fill" d="M 335.5449787543227 81.62332916259766 A 2.7386127875258306 2.7386127875258306 0 0 1 330.06775317927105 81.62332916259766 A 2.7386127875258306 2.7386127875258306 0 0 1 335.5449787543227 81.62332916259766" fill-opacity="1" clip-path="url(#SsKCusWuZpZD)" stroke-opacity="1" stroke-linejoin="bevel" stroke-miterlimit="10" stroke-dasharray=""/><path fill="rgb(0,0,0)" stroke="rgb(0,0,0)" paint-order="fill" d="M 338.6250263617446 142.60855102539062 A 2.7386127875258306 2.7386127875258306 0 0 1 333.1478007866929 142.60855102539062 A 2.7386127875258306 2.7386127875258306 0 0 1 338.6250263617446 142.60855102539062" fill-opacity="1" clip-path="url(#SsKCusWuZpZD)" stroke-opacity="1" stroke-linejoin="bevel" stroke-miterlimit="10" stroke-dasharray=""/><path fill="rgb(0,0,0)" stroke="rgb(0,0,0)" paint-order="fill" d="M 290.77331127385395 321.4932556152344 A 2.7386127875258306 2.7386127875258306 0 0 1 285.2960856988023 321.4932556152344 A 2.7386127875258306 2.7386127875258306 0 0 1 290.77331127385395 321.4932556152344" fill-opacity="1" clip-path="url(#SsKCusWuZpZD)" stroke-opacity="1" stroke-linejoin="bevel" stroke-miterlimit="10" stroke-dasharray=""/><path fill="rgb(0,0,0)" stroke="rgb(0,0,0)" paint-order="fill" d="M 342.3008686469008 186.9261474609375 A 2.7386127875258306 2.7386127875258306 0 0 1 336.8236430718492 186.9261474609375 A 2.7386127875258306 2.7386127875258306 0 0 1 342.3008686469008 186.9261474609375" fill-opacity="1" clip-path="url(#SsKCusWuZpZD)" stroke-opacity="1" stroke-linejoin="bevel" stroke-miterlimit="10" stroke-dasharray=""/><path fill="rgb(0,0,0)" stroke="rgb(0,0,0)" paint-order="fill" d="M 334.3130756781508 222.4123077392578 A 2.7386127875258306 2.7386127875258306 0 0 1 328.8358501030992 222.4123077392578 A 2.7386127875258306 2.7386127875258306 0 0 1 334.3130756781508 222.4123077392578" fill-opacity="1" clip-path="url(#SsKCusWuZpZD)" stroke-opacity="1" stroke-linejoin="bevel" stroke-miterlimit="10" stroke-dasharray=""/><path fill="rgb(0,0,0)" stroke="rgb(0,0,0)" paint-order="fill" d="M 369.7573810980727 200.05377197265625 A 2.7386127875258306 2.7386127875258306 0 0 1 364.28015552302105 200.05377197265625 A 2.7386127875258306 2.7386127875258306 0 0 1 369.7573810980727 200.05377197265625" fill-opacity="1" clip-path="url(#SsKCusWuZpZD)" stroke-opacity="1" stroke-linejoin="bevel" stroke-miterlimit="10" stroke-dasharray=""/><path fill="rgb(0,0,0)" stroke="rgb(0,0,0)" paint-order="fill" d="M 351.52331127385395 138.9080810546875 A 2.7386127875258306 2.7386127875258306 0 0 1 346.0460856988023 138.9080810546875 A 2.7386127875258306 2.7386127875258306 0 0 1 351.52331127385395 138.9080810546875" fill-opacity="1" clip-path="url(#SsKCusWuZpZD)" stroke-opacity="1" stroke-linejoin="bevel" stroke-miterlimit="10" stroke-dasharray=""/><path fill="rgb(0,0,0)" stroke="rgb(0,0,0)" paint-order="fill" d="M 286.94909252385395 229.1761932373047 A 2.7386127875258306 2.7386127875258306 0 0 1 281.4718669488023 229.1761932373047 A 2.7386127875258306 2.7386127875258306 0 0 1 286.94909252385395 229.1761932373047" fill-opacity="1" clip-path="url(#SsKCusWuZpZD)" stroke-opacity="1" stroke-linejoin="bevel" stroke-miterlimit="10" stroke-dasharray=""/><path fill="rgb(0,0,0)" stroke="rgb(0,0,0)" paint-order="fill" d="M 294.53710521916645 195.32107543945312 A 2.7386127875258306 2.7386127875258306 0 0 1 289.0598796441148 195.32107543945312 A 2.7386127875258306 2.7386127875258306 0 0 1 294.53710521916645 195.32107543945312" fill-opacity="1" clip-path="url(#SsKCusWuZpZD)" stroke-opacity="1" stroke-linejoin="bevel" stroke-miterlimit="10" stroke-dasharray=""/><path fill="rgb(0,0,0)" stroke="rgb(0,0,0)" paint-order="fill" d="M 285.0671955511977 174.52874755859375 A 2.7386127875258306 2.7386127875258306 0 0 1 279.58996997614605 174.52874755859375 A 2.7386127875258306 2.7386127875258306 0 0 1 285.0671955511977 174.52874755859375" fill-opacity="1" clip-path="url(#SsKCusWuZpZD)" stroke-opacity="1" stroke-linejoin="bevel" stroke-miterlimit="10" stroke-dasharray=""/><path fill="rgb(0,0,0)" stroke="rgb(0,0,0)" paint-order="fill" d="M 278.51049389104145 187.75970458984375 A 2.7386127875258306 2.7386127875258306 0 0 1 273.0332683159898 187.75970458984375 A 2.7386127875258306 2.7386127875258306 0 0 1 278.51049389104145 187.75970458984375" fill-opacity="1" clip-path="url(#SsKCusWuZpZD)" stroke-opacity="1" stroke-linejoin="bevel" stroke-miterlimit="10" stroke-dasharray=""/><path fill="rgb(0,0,0)" stroke="rgb(0,0,0)" paint-order="fill" d="M 174.36188854436176 341.30413818359375 A 2.7386127875258306 2.7386127875258306 0 0 1 168.8846629693101 341.30413818359375 A 2.7386127875258306 2.7386127875258306 0 0 1 174.36188854436176 341.30413818359375" fill-opacity="1" clip-path="url(#SsKCusWuZpZD)" stroke-opacity="1" stroke-linejoin="bevel" stroke-miterlimit="10" stroke-dasharray=""/><path fill="rgb(0,0,0)" stroke="rgb(0,0,0)" paint-order="fill" d="M 168.1964680121352 347.32696533203125 A 2.7386127875258306 2.7386127875258306 0 0 1 162.71924243708355 347.32696533203125 A 2.7386127875258306 2.7386127875258306 0 0 1 168.1964680121352 347.32696533203125" fill-opacity="1" clip-path="url(#SsKCusWuZpZD)" stroke-opacity="1" stroke-linejoin="bevel" stroke-miterlimit="10" stroke-dasharray=""/><path fill="rgb(0,0,0)" stroke="rgb(0,0,0)" paint-order="fill" d="M 180.82958568791645 343.9840393066406 A 2.7386127875258306 2.7386127875258306 0 0 1 175.3523601128648 343.9840393066406 A 2.7386127875258306 2.7386127875258306 0 0 1 180.82958568791645 343.9840393066406" fill-opacity="1" clip-path="url(#SsKCusWuZpZD)" stroke-opacity="1" stroke-linejoin="bevel" stroke-miterlimit="10" stroke-dasharray=""/><path fill="rgb(0,0,0)" stroke="rgb(0,0,0)" paint-order="fill" d="M 168.12060131291645 334.240478515625 A 2.7386127875258306 2.7386127875258306 0 0 1 162.6433757378648 334.240478515625 A 2.7386127875258306 2.7386127875258306 0 0 1 168.12060131291645 334.240478515625" fill-opacity="1" clip-path="url(#SsKCusWuZpZD)" stroke-opacity="1" stroke-linejoin="bevel" stroke-miterlimit="10" stroke-dasharray=""/><path fill="rgb(0,0,0)" stroke="rgb(0,0,0)" paint-order="fill" d="M 152.27041210393207 308.5116271972656 A 2.7386127875258306 2.7386127875258306 0 0 1 146.79318652888043 308.5116271972656 A 2.7386127875258306 2.7386127875258306 0 0 1 152.27041210393207 308.5116271972656" fill-opacity="1" clip-path="url(#SsKCusWuZpZD)" stroke-opacity="1" stroke-linejoin="bevel" stroke-miterlimit="10" stroke-dasharray=""/><path fill="rgb(0,0,0)" stroke="rgb(0,0,0)" paint-order="fill" d="M 118.84748424748676 468.8333435058594 A 2.7386127875258306 2.7386127875258306 0 0 1 113.37025867243511 468.8333435058594 A 2.7386127875258306 2.7386127875258306 0 0 1 118.84748424748676 468.8333435058594" fill-opacity="1" clip-path="url(#SsKCusWuZpZD)" stroke-opacity="1" stroke-linejoin="bevel" stroke-miterlimit="10" stroke-dasharray=""/><path fill="rgb(0,0,0)" stroke="rgb(0,0,0)" paint-order="fill" d="M 145.31502880315082 269.8397521972656 A 2.7386127875258306 2.7386127875258306 0 0 1 139.83780322809918 269.8397521972656 A 2.7386127875258306 2.7386127875258306 0 0 1 145.31502880315082 269.8397521972656" fill-opacity="1" clip-path="url(#SsKCusWuZpZD)" stroke-opacity="1" stroke-linejoin="bevel" stroke-miterlimit="10" stroke-dasharray=""/><path fill="rgb(0,0,0)" stroke="rgb(0,0,0)" paint-order="fill" d="M 146.28173412541645 347.60382080078125 A 2.7386127875258306 2.7386127875258306 0 0 1 140.8045085503648 347.60382080078125 A 2.7386127875258306 2.7386127875258306 0 0 1 146.28173412541645 347.60382080078125" fill-opacity="1" clip-path="url(#SsKCusWuZpZD)" stroke-opacity="1" stroke-linejoin="bevel" stroke-miterlimit="10" stroke-dasharray=""/><path fill="rgb(0,0,0)" stroke="rgb(0,0,0)" paint-order="fill" d="M 132.00068248967426 292.6158447265625 A 2.7386127875258306 2.7386127875258306 0 0 1 126.52345691462261 292.6158447265625 A 2.7386127875258306 2.7386127875258306 0 0 1 132.00068248967426 292.6158447265625" fill-opacity="1" clip-path="url(#SsKCusWuZpZD)" stroke-opacity="1" stroke-linejoin="bevel" stroke-miterlimit="10" stroke-dasharray=""/><path fill="rgb(0,0,0)" stroke="rgb(0,0,0)" paint-order="fill" d="M 132.10200084904926 217.09815979003906 A 2.7386127875258306 2.7386127875258306 0 0 1 126.62477527399761 217.09815979003906 A 2.7386127875258306 2.7386127875258306 0 0 1 132.10200084904926 217.09815979003906" fill-opacity="1" clip-path="url(#SsKCusWuZpZD)" stroke-opacity="1" stroke-linejoin="bevel" stroke-miterlimit="10" stroke-dasharray=""/><path fill="rgb(0,0,0)" stroke="rgb(0,0,0)" paint-order="fill" d="M 129.45106853703754 374.0372314453125 A 2.7386127875258306 2.7386127875258306 0 0 1 123.9738429619859 374.0372314453125 A 2.7386127875258306 2.7386127875258306 0 0 1 129.45106853703754 374.0372314453125" fill-opacity="1" clip-path="url(#SsKCusWuZpZD)" stroke-opacity="1" stroke-linejoin="bevel" stroke-miterlimit="10" stroke-dasharray=""/><path fill="rgb(0,0,0)" stroke="rgb(0,0,0)" paint-order="fill" d="M 128.03735698918598 365.89520263671875 A 2.7386127875258306 2.7386127875258306 0 0 1 122.56013141413433 365.89520263671875 A 2.7386127875258306 2.7386127875258306 0 0 1 128.03735698918598 365.89520263671875" fill-opacity="1" clip-path="url(#SsKCusWuZpZD)" stroke-opacity="1" stroke-linejoin="bevel" stroke-miterlimit="10" stroke-dasharray=""/><path fill="rgb(0,0,0)" stroke="rgb(0,0,0)" paint-order="fill" d="M 232.478404657643 328.844970703125 A 2.7386127875258306 2.7386127875258306 0 0 1 227.00117908259136 328.844970703125 A 2.7386127875258306 2.7386127875258306 0 0 1 232.478404657643 328.844970703125" fill-opacity="1" clip-path="url(#SsKCusWuZpZD)" stroke-opacity="1" stroke-linejoin="bevel" stroke-miterlimit="10" stroke-dasharray=""/><path fill="rgb(0,0,0)" stroke="rgb(0,0,0)" paint-order="fill" d="M 222.4437824652602 308.0652160644531 A 2.7386127875258306 2.7386127875258306 0 0 1 216.96655689020855 308.0652160644531 A 2.7386127875258306 2.7386127875258306 0 0 1 222.4437824652602 308.0652160644531" fill-opacity="1" clip-path="url(#SsKCusWuZpZD)" stroke-opacity="1" stroke-linejoin="bevel" stroke-miterlimit="10" stroke-dasharray=""/><path fill="rgb(0,0,0)" stroke="rgb(0,0,0)" paint-order="fill" d="M 215.9391895697524 306.4963684082031 A 2.7386127875258306 2.7386127875258306 0 0 1 210.46196399470074 306.4963684082031 A 2.7386127875258306 2.7386127875258306 0 0 1 215.9391895697524 306.4963684082031" fill-opacity="1" clip-path="url(#SsKCusWuZpZD)" stroke-opacity="1" stroke-linejoin="bevel" stroke-miterlimit="10" stroke-dasharray=""/><path fill="rgb(0,0,0)" stroke="rgb(0,0,0)" paint-order="fill" d="M 224.51716198186176 309.3067321777344 A 2.7386127875258306 2.7386127875258306 0 0 1 219.0399364068101 309.3067321777344 A 2.7386127875258306 2.7386127875258306 0 0 1 224.51716198186176 309.3067321777344" fill-opacity="1" clip-path="url(#SsKCusWuZpZD)" stroke-opacity="1" stroke-linejoin="bevel" stroke-miterlimit="10" stroke-dasharray=""/><path fill="rgb(0,0,0)" stroke="rgb(0,0,0)" paint-order="fill" d="M 210.2922474310805 327.3426513671875 A 2.7386127875258306 2.7386127875258306 0 0 1 204.81502185602886 327.3426513671875 A 2.7386127875258306 2.7386127875258306 0 0 1 210.2922474310805 327.3426513671875" fill-opacity="1" clip-path="url(#SsKCusWuZpZD)" stroke-opacity="1" stroke-linejoin="bevel" stroke-miterlimit="10" stroke-dasharray=""/><path fill="rgb(0,0,0)" stroke="rgb(0,0,0)" paint-order="fill" d="M 220.93566478947895 320.61761474609375 A 2.7386127875258306 2.7386127875258306 0 0 1 215.4584392144273 320.61761474609375 A 2.7386127875258306 2.7386127875258306 0 0 1 220.93566478947895 320.61761474609375" fill-opacity="1" clip-path="url(#SsKCusWuZpZD)" stroke-opacity="1" stroke-linejoin="bevel" stroke-miterlimit="10" stroke-dasharray=""/><path fill="rgb(0,0,0)" stroke="rgb(0,0,0)" paint-order="fill" d="M 218.6475635931899 302.900390625 A 2.7386127875258306 2.7386127875258306 0 0 1 213.17033801813824 302.900390625 A 2.7386127875258306 2.7386127875258306 0 0 1 218.6475635931899 302.900390625" fill-opacity="1" clip-path="url(#SsKCusWuZpZD)" stroke-opacity="1" stroke-linejoin="bevel" stroke-miterlimit="10" stroke-dasharray=""/><path fill="rgb(0,0,0)" stroke="rgb(0,0,0)" paint-order="fill" d="M 173.68244518498676 315.92852783203125 A 2.7386127875258306 2.7386127875258306 0 0 1 168.2052196099351 315.92852783203125 A 2.7386127875258306 2.7386127875258306 0 0 1 173.68244518498676 315.92852783203125" fill-opacity="1" clip-path="url(#SsKCusWuZpZD)" stroke-opacity="1" stroke-linejoin="bevel" stroke-miterlimit="10" stroke-dasharray=""/><path fill="rgb(0,0,0)" stroke="rgb(0,0,0)" paint-order="fill" d="M 245.1855274603774 238.1658477783203 A 2.7386127875258306 2.7386127875258306 0 0 1 239.70830188532574 238.1658477783203 A 2.7386127875258306 2.7386127875258306 0 0 1 245.1855274603774 238.1658477783203" fill-opacity="1" clip-path="url(#SsKCusWuZpZD)" stroke-opacity="1" stroke-linejoin="bevel" stroke-miterlimit="10" stroke-dasharray=""/><path fill="rgb(0,0,0)" stroke="rgb(0,0,0)" paint-order="fill" d="M 272.8170429633071 57.33790969848633 A 2.7386127875258306 2.7386127875258306 0 0 1 267.3398173882554 57.33790969848633 A 2.7386127875258306 2.7386127875258306 0 0 1 272.8170429633071 57.33790969848633" fill-opacity="1" clip-path="url(#SsKCusWuZpZD)" stroke-opacity="1" stroke-linejoin="bevel" stroke-miterlimit="10" stroke-dasharray=""/><path fill="rgb(0,0,0)" stroke="rgb(0,0,0)" paint-order="fill" d="M 199.2151905463149 328.432373046875 A 2.7386127875258306 2.7386127875258306 0 0 1 193.73796497126324 328.432373046875 A 2.7386127875258306 2.7386127875258306 0 0 1 199.2151905463149 328.432373046875" fill-opacity="1" clip-path="url(#SsKCusWuZpZD)" stroke-opacity="1" stroke-linejoin="bevel" stroke-miterlimit="10" stroke-dasharray=""/><path fill="rgb(0,0,0)" stroke="rgb(0,0,0)" paint-order="fill" d="M 267.34716381291645 215.2055206298828 A 2.7386127875258306 2.7386127875258306 0 0 1 261.8699382378648 215.2055206298828 A 2.7386127875258306 2.7386127875258306 0 0 1 267.34716381291645 215.2055206298828" fill-opacity="1" clip-path="url(#SsKCusWuZpZD)" stroke-opacity="1" stroke-linejoin="bevel" stroke-miterlimit="10" stroke-dasharray=""/><path fill="rgb(0,0,0)" stroke="rgb(0,0,0)" paint-order="fill" d="M 130.2427097723891 308.1824951171875 A 2.7386127875258306 2.7386127875258306 0 0 1 124.76548419733746 308.1824951171875 A 2.7386127875258306 2.7386127875258306 0 0 1 130.2427097723891 308.1824951171875" fill-opacity="1" clip-path="url(#SsKCusWuZpZD)" stroke-opacity="1" stroke-linejoin="bevel" stroke-miterlimit="10" stroke-dasharray=""/><path fill="rgb(0,0,0)" stroke="rgb(0,0,0)" paint-order="fill" d="M 124.77308239201801 345.4619140625 A 2.7386127875258306 2.7386127875258306 0 0 1 119.29585681696636 345.4619140625 A 2.7386127875258306 2.7386127875258306 0 0 1 124.77308239201801 345.4619140625" fill-opacity="1" clip-path="url(#SsKCusWuZpZD)" stroke-opacity="1" stroke-linejoin="bevel" stroke-miterlimit="10" stroke-dasharray=""/><path fill="rgb(0,0,0)" stroke="rgb(0,0,0)" paint-order="fill" d="M 122.81222118596332 367.9539489746094 A 2.7386127875258306 2.7386127875258306 0 0 1 117.33499561091168 367.9539489746094 A 2.7386127875258306 2.7386127875258306 0 0 1 122.81222118596332 367.9539489746094" fill-opacity="1" clip-path="url(#SsKCusWuZpZD)" stroke-opacity="1" stroke-linejoin="bevel" stroke-miterlimit="10" stroke-dasharray=""/><path fill="rgb(0,0,0)" stroke="rgb(0,0,0)" paint-order="fill" d="M 271.8503986761977 387.77301025390625 A 2.7386127875258306 2.7386127875258306 0 0 1 266.37317310114605 387.77301025390625 A 2.7386127875258306 2.7386127875258306 0 0 1 271.8503986761977 387.77301025390625" fill-opacity="1" clip-path="url(#SsKCusWuZpZD)" stroke-opacity="1" stroke-linejoin="bevel" stroke-miterlimit="10" stroke-dasharray=""/><path fill="rgb(0,0,0)" stroke="rgb(0,0,0)" paint-order="fill" d="M 142.1707569525649 296.7501525878906 A 2.7386127875258306 2.7386127875258306 0 0 1 136.69353137751324 296.7501525878906 A 2.7386127875258306 2.7386127875258306 0 0 1 142.1707569525649 296.7501525878906" fill-opacity="1" clip-path="url(#SsKCusWuZpZD)" stroke-opacity="1" stroke-linejoin="bevel" stroke-miterlimit="10" stroke-dasharray=""/><path fill="rgb(0,0,0)" stroke="rgb(0,0,0)" paint-order="fill" d="M 140.01382030705707 266.6765441894531 A 2.7386127875258306 2.7386127875258306 0 0 1 134.53659473200543 266.6765441894531 A 2.7386127875258306 2.7386127875258306 0 0 1 140.01382030705707 266.6765441894531" fill-opacity="1" clip-path="url(#SsKCusWuZpZD)" stroke-opacity="1" stroke-linejoin="bevel" stroke-miterlimit="10" stroke-dasharray=""/><path fill="rgb(0,0,0)" stroke="rgb(0,0,0)" paint-order="fill" d="M 135.023326532643 320.9744567871094 A 2.7386127875258306 2.7386127875258306 0 0 1 129.54610095759136 320.9744567871094 A 2.7386127875258306 2.7386127875258306 0 0 1 135.023326532643 320.9744567871094" fill-opacity="1" clip-path="url(#SsKCusWuZpZD)" stroke-opacity="1" stroke-linejoin="bevel" stroke-miterlimit="10" stroke-dasharray=""/><path fill="rgb(0,0,0)" stroke="rgb(0,0,0)" paint-order="fill" d="M 137.54252208928364 333.4660339355469 A 2.7386127875258306 2.7386127875258306 0 0 1 132.065296514232 333.4660339355469 A 2.7386127875258306 2.7386127875258306 0 0 1 137.54252208928364 333.4660339355469" fill-opacity="1" clip-path="url(#SsKCusWuZpZD)" stroke-opacity="1" stroke-linejoin="bevel" stroke-miterlimit="10" stroke-dasharray=""/><path fill="rgb(0,0,0)" stroke="rgb(0,0,0)" paint-order="fill" d="M 232.36246837834614 115.85026550292969 A 2.7386127875258306 2.7386127875258306 0 0 1 226.8852428032945 115.85026550292969 A 2.7386127875258306 2.7386127875258306 0 0 1 232.36246837834614 115.85026550292969" fill-opacity="1" clip-path="url(#SsKCusWuZpZD)" stroke-opacity="1" stroke-linejoin="bevel" stroke-miterlimit="10" stroke-dasharray=""/><path fill="rgb(0,0,0)" stroke="rgb(0,0,0)" paint-order="fill" d="M 501.4303242133071 194.8807830810547 A 2.7386127875258306 2.7386127875258306 0 0 1 495.9530986382554 194.8807830810547 A 2.7386127875258306 2.7386127875258306 0 0 1 501.4303242133071 194.8807830810547" fill-opacity="1" clip-path="url(#SsKCusWuZpZD)" stroke-opacity="1" stroke-linejoin="bevel" stroke-miterlimit="10" stroke-dasharray=""/><path fill="rgb(0,0,0)" stroke="rgb(0,0,0)" paint-order="fill" d="M 360.6061664984633 52.16666793823242 A 2.7386127875258306 2.7386127875258306 0 0 1 355.1289409234117 52.16666793823242 A 2.7386127875258306 2.7386127875258306 0 0 1 360.6061664984633 52.16666793823242" fill-opacity="1" clip-path="url(#SsKCusWuZpZD)" stroke-opacity="1" stroke-linejoin="bevel" stroke-miterlimit="10" stroke-dasharray=""/><path fill="rgb(0,0,0)" stroke="rgb(0,0,0)" paint-order="fill" d="M 461.3912617133071 186.45867919921875 A 2.7386127875258306 2.7386127875258306 0 0 1 455.9140361382554 186.45867919921875 A 2.7386127875258306 2.7386127875258306 0 0 1 461.3912617133071 186.45867919921875" fill-opacity="1" clip-path="url(#SsKCusWuZpZD)" stroke-opacity="1" stroke-linejoin="bevel" stroke-miterlimit="10" stroke-dasharray=""/><path fill="rgb(0,0,0)" stroke="rgb(0,0,0)" paint-order="fill" d="M 446.0683247015883 218.0978240966797 A 2.7386127875258306 2.7386127875258306 0 0 1 440.5910991265367 218.0978240966797 A 2.7386127875258306 2.7386127875258306 0 0 1 446.0683247015883 218.0978240966797" fill-opacity="1" clip-path="url(#SsKCusWuZpZD)" stroke-opacity="1" stroke-linejoin="bevel" stroke-miterlimit="10" stroke-dasharray=""/><path fill="rgb(0,0,0)" stroke="rgb(0,0,0)" paint-order="fill" d="M 391.0382343695571 255.90142822265625 A 2.7386127875258306 2.7386127875258306 0 0 1 385.5610087945054 255.90142822265625 A 2.7386127875258306 2.7386127875258306 0 0 1 391.0382343695571 255.90142822265625" fill-opacity="1" clip-path="url(#SsKCusWuZpZD)" stroke-opacity="1" stroke-linejoin="bevel" stroke-miterlimit="10" stroke-dasharray=""/><path fill="none" stroke="rgb(211,211,211)" paint-order="fill" d="M 101.16666412353516 355.73291015625 L 517.8333129882812 90.45707702636719" stroke-opacity="1" stroke-linejoin="bevel" stroke-miterlimit="10" stroke-width="2" stroke-dasharray="6" clip-path="url(#ftTlIZhVDULo)"/><g clip-path="url(#BpfzblEVRPSB)"><text fill="rgb(0,0,0)" stroke="none" font-family="helvetica" font-size="12Pt" font-style="normal" font-weight="normal" text-decoration="normal" x="0" y="0" text-anchor="start" dominant-baseline="text-before-edge" transform="matrix(1, 0, 0, 1, 434.5, 76.52226257324219)" fill-opacity="1">R² = 0.49</text></g><path fill="none" stroke="rgb(0,0,0)" paint-order="fill" d="M 59.5 510.5 L 559.5 510.5" stroke-opacity="1" stroke-linejoin="bevel" stroke-miterlimit="10" stroke-dasharray=""/><path fill="none" stroke="rgb(0,0,0)" paint-order="fill" d="M 101.5 516.5 L 101.5 508.5 M 184.5 516.5 L 184.5 508.5 M 267.5 516.5 L 267.5 508.5 M 351.5 516.5 L 351.5 508.5 M 434.5 516.5 L 434.5 508.5 M 517.5 516.5 L 517.5 508.5" stroke-opacity="1" stroke-linejoin="bevel" stroke-miterlimit="10" stroke-dasharray=""/><path fill="none" stroke="rgb(0,0,0)" paint-order="fill" d="M 84.5 514.5 L 84.5 510.5 M 67.5 514.5 L 67.5 510.5 M 101.5 514.5 L 101.5 510.5 M 117.5 514.5 L 117.5 510.5 M 134.5 514.5 L 134.5 510.5 M 151.5 514.5 L 151.5 510.5 M 167.5 514.5 L 167.5 510.5 M 184.5 514.5 L 184.5 510.5 M 201.5 514.5 L 201.5 510.5 M 217.5 514.5 L 217.5 510.5 M 234.5 514.5 L 234.5 510.5 M 251.5 514.5 L 251.5 510.5 M 267.5 514.5 L 267.5 510.5 M 284.5 514.5 L 284.5 510.5 M 301.5 514.5 L 301.5 510.5 M 317.5 514.5 L 317.5 510.5 M 334.5 514.5 L 334.5 510.5 M 351.5 514.5 L 351.5 510.5 M 367.5 514.5 L 367.5 510.5 M 384.5 514.5 L 384.5 510.5 M 401.5 514.5 L 401.5 510.5 M 417.5 514.5 L 417.5 510.5 M 434.5 514.5 L 434.5 510.5 M 451.5 514.5 L 451.5 510.5 M 467.5 514.5 L 467.5 510.5 M 484.5 514.5 L 484.5 510.5 M 501.5 514.5 L 501.5 510.5 M 517.5 514.5 L 517.5 510.5 M 534.5 514.5 L 534.5 510.5 M 551.5 514.5 L 551.5 510.5" stroke-opacity="1" stroke-linejoin="bevel" stroke-miterlimit="10" stroke-dasharray=""/><text fill="rgb(68,68,68)" stroke="none" font-family="helvetica" font-size="10pt" font-style="normal" font-weight="normal" text-decoration="normal" x="72.68603515625" y="530" text-anchor="start" dominant-baseline="alphabetic" transform="matrix(1, 0, 0, 1, 0.5, 0.5)" fill-opacity="1">0.000e+0</text><text fill="rgb(68,68,68)" stroke="none" font-family="helvetica" font-size="10pt" font-style="normal" font-weight="normal" text-decoration="normal" x="156.01937103271484" y="530" text-anchor="start" dominant-baseline="alphabetic" transform="matrix(1, 0, 0, 1, 0.5, 0.5)" fill-opacity="1">5.000e−5</text><text fill="rgb(68,68,68)" stroke="none" font-family="helvetica" font-size="10pt" font-style="normal" font-weight="normal" text-decoration="normal" x="239.35271453857422" y="530" text-anchor="start" dominant-baseline="alphabetic" transform="matrix(1, 0, 0, 1, 0.5, 0.5)" fill-opacity="1">1.000e−4</text><text fill="rgb(68,68,68)" stroke="none" font-family="helvetica" font-size="10pt" font-style="normal" font-weight="normal" text-decoration="normal" x="322.68602752685547" y="530" text-anchor="start" dominant-baseline="alphabetic" transform="matrix(1, 0, 0, 1, 0.5, 0.5)" fill-opacity="1">1.500e−4</text><text fill="rgb(68,68,68)" stroke="none" font-family="helvetica" font-size="10pt" font-style="normal" font-weight="normal" text-decoration="normal" x="406.01937103271484" y="530" text-anchor="start" dominant-baseline="alphabetic" transform="matrix(1, 0, 0, 1, 0.5, 0.5)" fill-opacity="1">2.000e−4</text><text fill="rgb(68,68,68)" stroke="none" font-family="helvetica" font-size="10pt" font-style="normal" font-weight="normal" text-decoration="normal" x="489.3526840209961" y="530" text-anchor="start" dominant-baseline="alphabetic" transform="matrix(1, 0, 0, 1, 0.5, 0.5)" fill-opacity="1">2.500e−4</text><text fill="rgb(68,68,68)" stroke="none" font-family="helvetica" font-size="14pt" font-style="italic" font-weight="normal" text-decoration="normal" x="224.49119567871094" y="552" text-anchor="start" dominant-baseline="alphabetic" transform="matrix(1, 0, 0, 1, 0.5, 0.5)" fill-opacity="1">mutation rate, URA3</text><path fill="none" stroke="rgb(0,0,0)" paint-order="fill" d="M 59.5 510.5 L 59.5 10.5" stroke-opacity="1" stroke-linejoin="bevel" stroke-miterlimit="10" stroke-dasharray=""/><path fill="none" stroke="rgb(0,0,0)" paint-order="fill" d="M 53.5 444.5 L 61.5 444.5 M 53.5 375.5 L 61.5 375.5 M 53.5 307.5 L 61.5 307.5 M 53.5 239.5 L 61.5 239.5 M 53.5 171.5 L 61.5 171.5 M 53.5 103.5 L 61.5 103.5 M 53.5 35.5 L 61.5 35.5" stroke-opacity="1" stroke-linejoin="bevel" stroke-miterlimit="10" stroke-dasharray=""/><path fill="none" stroke="rgb(0,0,0)" paint-order="fill" d="M 55.5 457.5 L 59.5 457.5 M 55.5 471.5 L 59.5 471.5 M 55.5 484.5 L 59.5 484.5 M 55.5 498.5 L 59.5 498.5 M 55.5 444.5 L 59.5 444.5 M 55.5 430.5 L 59.5 430.5 M 55.5 416.5 L 59.5 416.5 M 55.5 403.5 L 59.5 403.5 M 55.5 389.5 L 59.5 389.5 M 55.5 375.5 L 59.5 375.5 M 55.5 362.5 L 59.5 362.5 M 55.5 348.5 L 59.5 348.5 M 55.5 335.5 L 59.5 335.5 M 55.5 321.5 L 59.5 321.5 M 55.5 307.5 L 59.5 307.5 M 55.5 294.5 L 59.5 294.5 M 55.5 280.5 L 59.5 280.5 M 55.5 267.5 L 59.5 267.5 M 55.5 253.5 L 59.5 253.5 M 55.5 239.5 L 59.5 239.5 M 55.5 226.5 L 59.5 226.5 M 55.5 212.5 L 59.5 212.5 M 55.5 199.5 L 59.5 199.5 M 55.5 185.5 L 59.5 185.5 M 55.5 171.5 L 59.5 171.5 M 55.5 158.5 L 59.5 158.5 M 55.5 144.5 L 59.5 144.5 M 55.5 130.5 L 59.5 130.5 M 55.5 117.5 L 59.5 117.5 M 55.5 103.5 L 59.5 103.5 M 55.5 90.5 L 59.5 90.5 M 55.5 76.5 L 59.5 76.5 M 55.5 62.5 L 59.5 62.5 M 55.5 49.5 L 59.5 49.5 M 55.5 35.5 L 59.5 35.5 M 55.5 22.5 L 59.5 22.5" stroke-opacity="1" stroke-linejoin="bevel" stroke-miterlimit="10" stroke-dasharray=""/><text fill="rgb(68,68,68)" stroke="none" font-family="helvetica" font-size="10pt" font-style="normal" font-weight="normal" text-decoration="normal" x="29.472061157226562" y="448.01690673828125" text-anchor="start" dominant-baseline="alphabetic" transform="matrix(1, 0, 0, 1, 0.5, 0.5)" fill-opacity="1">0.5</text><text fill="rgb(68,68,68)" stroke="none" font-family="helvetica" font-size="10pt" font-style="normal" font-weight="normal" text-decoration="normal" x="40.5875244140625" y="379.96234130859375" text-anchor="start" dominant-baseline="alphabetic" transform="matrix(1, 0, 0, 1, 0.5, 0.5)" fill-opacity="1">1</text><text fill="rgb(68,68,68)" stroke="none" font-family="helvetica" font-size="10pt" font-style="normal" font-weight="normal" text-decoration="normal" x="29.472061157226562" y="311.90777587890625" text-anchor="start" dominant-baseline="alphabetic" transform="matrix(1, 0, 0, 1, 0.5, 0.5)" fill-opacity="1">1.5</text><text fill="rgb(68,68,68)" stroke="none" font-family="helvetica" font-size="10pt" font-style="normal" font-weight="normal" text-decoration="normal" x="40.5875244140625" y="243.85321044921875" text-anchor="start" dominant-baseline="alphabetic" transform="matrix(1, 0, 0, 1, 0.5, 0.5)" fill-opacity="1">2</text><text fill="rgb(68,68,68)" stroke="none" font-family="helvetica" font-size="10pt" font-style="normal" font-weight="normal" text-decoration="normal" x="29.472061157226562" y="175.7986602783203" text-anchor="start" dominant-baseline="alphabetic" transform="matrix(1, 0, 0, 1, 0.5, 0.5)" fill-opacity="1">2.5</text><text fill="rgb(68,68,68)" stroke="none" font-family="helvetica" font-size="10pt" font-style="normal" font-weight="normal" text-decoration="normal" x="40.5875244140625" y="107.74408721923828" text-anchor="start" dominant-baseline="alphabetic" transform="matrix(1, 0, 0, 1, 0.5, 0.5)" fill-opacity="1">3</text><text fill="rgb(68,68,68)" stroke="none" font-family="helvetica" font-size="10pt" font-style="normal" font-weight="normal" text-decoration="normal" x="29.472061157226562" y="39.68952560424805" text-anchor="start" dominant-baseline="alphabetic" transform="matrix(1, 0, 0, 1, 0.5, 0.5)" fill-opacity="1">3.5</text><text fill="rgb(68,68,68)" stroke="none" font-family="helvetica" font-size="14pt" font-style="italic" font-weight="normal" text-decoration="normal" x="-94.14567565917969" y="256" text-anchor="start" dominant-baseline="alphabetic" transform="matrix(6.123233995736766e-17, -1, 1, 6.123233995736766e-17, -238.02793884277344, 281.97206115722656)" fill-opacity="1">mutation rate, URA3 / LEU2</text></svg>