<svg version="1.1" xmlns="http://www.w3.org/2000/svg" width="589" height="559"><defs><clipPath id="dGWwsbMCdQLP"><path fill="none" stroke="none" d="M 59.5 10.5 L 559.5 10.5 L 559.5 510.5 L 59.5 510.5 L 59.5 10.5"/></clipPath><clipPath id="lEtTvrzeXBiH"><path fill="none" stroke="none" d="M 59.5 10.5 L 559.5 10.5 L 559.5 510.5 L 59.5 510.5 L 59.5 10.5"/></clipPath><clipPath id="BreBREIekNKr"><path fill="none" stroke="none" d="M 59.5 10.5 L 559.5 10.5 L 559.5 510.5 L 59.5 510.5 L 59.5 10.5"/></clipPath><clipPath id="XvhaDlPhVimW"><path fill="none" stroke="none" d="M 59.5 10.5 L 559.5 10.5 L 559.5 510.5 L 59.5 510.5 L 59.5 10.5"/></clipPath><clipPath id="DPPrzLMJMERv"><path fill="none" stroke="none" d="M 59.5 10.5 L 559.5 10.5 L 559.5 510.5 L 59.5 510.5 L 59.5 10.5"/></clipPath><clipPath id="SqCBFCQhVUcG"><path fill="none" stroke="none" d="M 59.5 10.5 L 559.5 10.5 L 559.5 510.5 L 59.5 510.5 L 59.5 10.5"/></clipPath></defs><path fill="rgb(255,255,255)" stroke="none" paint-order="stroke" d="M 0.5 0.5 L 589.5 0.5 L 589.5 559.5 L 0.5 559.5 L 0.5 0.5" fill-opacity="1"/><rect fill="#FFFFFF" stroke="none" x="59" y="10" width="500" height="500" transform="matrix(1, 0, 0, 1, 0.5, 0.5)"/><path fill="rgb(255,255,255)" stroke="none" paint-order="stroke" d="M 59.5 10.5 L 559.5 10.5 L 559.5 510.5 L 59.5 510.5 L 59.5 10.5" fill-opacity="1"/><path fill="none" stroke="rgb(229,229,229)" paint-order="fill" d="M 59.5 10.5 L 559.5 10.5 L 559.5 510.5 L 59.5 510.5 L 59.5 10.5" stroke-opacity="1" stroke-linejoin="bevel" stroke-miterlimit="10" stroke-dasharray=""/><path fill="rgb(0,0,0)" stroke="rgb(0,0,0)" paint-order="fill" d="M 122.38704265813129 414.10321044921875 A 2.7386127875258306 2.7386127875258306 0 0 1 116.90981708307964 414.10321044921875 A 2.7386127875258306 2.7386127875258306 0 0 1 122.38704265813129 414.10321044921875" fill-opacity="1" clip-path="url(#BreBREIekNKr)" stroke-opacity="1" stroke-linejoin="bevel" stroke-miterlimit="10" stroke-dasharray=""/><path fill="rgb(0,0,0)" stroke="rgb(0,0,0)" paint-order="fill" d="M 115.38995708684223 468.8333435058594 A 2.7386127875258306 2.7386127875258306 0 0 1 109.91273151179058 468.8333435058594 A 2.7386127875258306 2.7386127875258306 0 0 1 115.38995708684223 468.8333435058594" fill-opacity="1" clip-path="url(#BreBREIekNKr)" stroke-opacity="1" stroke-linejoin="bevel" stroke-miterlimit="10" stroke-dasharray=""/><path fill="rgb(0,0,0)" stroke="rgb(0,0,0)" paint-order="fill" d="M 124.71399273137348 431.723876953125 A 2.7386127875258306 2.7386127875258306 0 0 1 119.23676715632183 431.723876953125 A 2.7386127875258306 2.7386127875258306 0 0 1 124.71399273137348 431.723876953125" fill-opacity="1" clip-path="url(#BreBREIekNKr)" stroke-opacity="1" stroke-linejoin="bevel" stroke-miterlimit="10" stroke-dasharray=""/><path fill="rgb(0,0,0)" stroke="rgb(0,0,0)" paint-order="fill" d="M 125.46704448918598 427.80364990234375 A 2.7386127875258306 2.7386127875258306 0 0 1 119.98981891413433 427.80364990234375 A 2.7386127875258306 2.7386127875258306 0 0 1 125.46704448918598 427.80364990234375" fill-opacity="1" clip-path="url(#BreBREIekNKr)" stroke-opacity="1" stroke-linejoin="bevel" stroke-miterlimit="10" stroke-dasharray=""/><path fill="rgb(0,0,0)" stroke="rgb(0,0,0)" paint-order="fill" d="M 125.95746959904926 402.8253173828125 A 2.7386127875258306 2.7386127875258306 0 0 1 120.48024402399761 402.8253173828125 A 2.7386127875258306 2.7386127875258306 0 0 1 125.95746959904926 402.8253173828125" fill-opacity="1" clip-path="url(#BreBREIekNKr)" stroke-opacity="1" stroke-linejoin="bevel" stroke-miterlimit="10" stroke-dasharray=""/><path fill="rgb(0,0,0)" stroke="rgb(0,0,0)" paint-order="fill" d="M 126.39667095402973 418.31939697265625 A 2.7386127875258306 2.7386127875258306 0 0 1 120.91944537897808 418.31939697265625 A 2.7386127875258306 2.7386127875258306 0 0 1 126.39667095402973 418.31939697265625" fill-opacity="1" clip-path="url(#BreBREIekNKr)" stroke-opacity="1" stroke-linejoin="bevel" stroke-miterlimit="10" stroke-dasharray=""/><path fill="rgb(0,0,0)" stroke="rgb(0,0,0)" paint-order="fill" d="M 152.2420002386977 288.3966979980469 A 2.7386127875258306 2.7386127875258306 0 0 1 146.76477466364605 288.3966979980469 A 2.7386127875258306 2.7386127875258306 0 0 1 152.2420002386977 288.3966979980469" fill-opacity="1" clip-path="url(#BreBREIekNKr)" stroke-opacity="1" stroke-linejoin="bevel" stroke-miterlimit="10" stroke-dasharray=""/><path fill="rgb(0,0,0)" stroke="rgb(0,0,0)" paint-order="fill" d="M 144.02761425236957 384.76593017578125 A 2.7386127875258306 2.7386127875258306 0 0 1 138.55038867731793 384.76593017578125 A 2.7386127875258306 2.7386127875258306 0 0 1 144.02761425236957 384.76593017578125" fill-opacity="1" clip-path="url(#BreBREIekNKr)" stroke-opacity="1" stroke-linejoin="bevel" stroke-miterlimit="10" stroke-dasharray=""/><path fill="rgb(0,0,0)" stroke="rgb(0,0,0)" paint-order="fill" d="M 145.19521679143207 387.46917724609375 A 2.7386127875258306 2.7386127875258306 0 0 1 139.71799121638043 387.46917724609375 A 2.7386127875258306 2.7386127875258306 0 0 1 145.19521679143207 387.46917724609375" fill-opacity="1" clip-path="url(#BreBREIekNKr)" stroke-opacity="1" stroke-linejoin="bevel" stroke-miterlimit="10" stroke-dasharray=""/><path fill="rgb(0,0,0)" stroke="rgb(0,0,0)" paint-order="fill" d="M 142.04169811467426 357.3149719238281 A 2.7386127875258306 2.7386127875258306 0 0 1 136.5644725396226 357.3149719238281 A 2.7386127875258306 2.7386127875258306 0 0 1 142.04169811467426 357.3149719238281" fill-opacity="1" clip-path="url(#BreBREIekNKr)" stroke-opacity="1" stroke-linejoin="bevel" stroke-miterlimit="10" stroke-dasharray=""/><path fill="rgb(0,0,0)" stroke="rgb(0,0,0)" paint-order="fill" d="M 176.19240917424457 341.4964599609375 A 2.7386127875258306 2.7386127875258306 0 0 1 170.71518359919293 341.4964599609375 A 2.7386127875258306 2.7386127875258306 0 0 1 176.19240917424457 341.4964599609375" fill-opacity="1" clip-path="url(#BreBREIekNKr)" stroke-opacity="1" stroke-linejoin="bevel" stroke-miterlimit="10" stroke-dasharray=""/><path fill="rgb(0,0,0)" stroke="rgb(0,0,0)" paint-order="fill" d="M 163.2975422308852 366.5403137207031 A 2.7386127875258306 2.7386127875258306 0 0 1 157.82031665583355 366.5403137207031 A 2.7386127875258306 2.7386127875258306 0 0 1 163.2975422308852 366.5403137207031" fill-opacity="1" clip-path="url(#BreBREIekNKr)" stroke-opacity="1" stroke-linejoin="bevel" stroke-miterlimit="10" stroke-dasharray=""/><path fill="rgb(0,0,0)" stroke="rgb(0,0,0)" paint-order="fill" d="M 164.21468700627582 365.6319885253906 A 2.7386127875258306 2.7386127875258306 0 0 1 158.73746143122418 365.6319885253906 A 2.7386127875258306 2.7386127875258306 0 0 1 164.21468700627582 365.6319885253906" fill-opacity="1" clip-path="url(#BreBREIekNKr)" stroke-opacity="1" stroke-linejoin="bevel" stroke-miterlimit="10" stroke-dasharray=""/><path fill="rgb(0,0,0)" stroke="rgb(0,0,0)" paint-order="fill" d="M 162.87182201604145 352.8443298339844 A 2.7386127875258306 2.7386127875258306 0 0 1 157.3945964409898 352.8443298339844 A 2.7386127875258306 2.7386127875258306 0 0 1 162.87182201604145 352.8443298339844" fill-opacity="1" clip-path="url(#BreBREIekNKr)" stroke-opacity="1" stroke-linejoin="bevel" stroke-miterlimit="10" stroke-dasharray=""/><path fill="rgb(0,0,0)" stroke="rgb(0,0,0)" paint-order="fill" d="M 342.15233959416645 52.16666793823242 A 2.7386127875258306 2.7386127875258306 0 0 1 336.6751140191148 52.16666793823242 A 2.7386127875258306 2.7386127875258306 0 0 1 342.15233959416645 52.16666793823242" fill-opacity="1" clip-path="url(#BreBREIekNKr)" stroke-opacity="1" stroke-linejoin="bevel" stroke-miterlimit="10" stroke-dasharray=""/><path fill="rgb(0,0,0)" stroke="rgb(0,0,0)" paint-order="fill" d="M 321.00341381291645 165.43206787109375 A 2.7386127875258306 2.7386127875258306 0 0 1 315.5261882378648 165.43206787109375 A 2.7386127875258306 2.7386127875258306 0 0 1 321.00341381291645 165.43206787109375" fill-opacity="1" clip-path="url(#BreBREIekNKr)" stroke-opacity="1" stroke-linejoin="bevel" stroke-miterlimit="10" stroke-dasharray=""/><path fill="rgb(0,0,0)" stroke="rgb(0,0,0)" paint-order="fill" d="M 319.29430736760395 302.31378173828125 A 2.7386127875258306 2.7386127875258306 0 0 1 313.8170817925523 302.31378173828125 A 2.7386127875258306 2.7386127875258306 0 0 1 319.29430736760395 302.31378173828125" fill-opacity="1" clip-path="url(#BreBREIekNKr)" stroke-opacity="1" stroke-linejoin="bevel" stroke-miterlimit="10" stroke-dasharray=""/><path fill="rgb(0,0,0)" stroke="rgb(0,0,0)" paint-order="fill" d="M 372.0320087836196 138.55152893066406 A 2.7386127875258306 2.7386127875258306 0 0 1 366.5547832085679 138.55152893066406 A 2.7386127875258306 2.7386127875258306 0 0 1 372.0320087836196 138.55152893066406" fill-opacity="1" clip-path="url(#BreBREIekNKr)" stroke-opacity="1" stroke-linejoin="bevel" stroke-miterlimit="10" stroke-dasharray=""/><path fill="rgb(0,0,0)" stroke="rgb(0,0,0)" paint-order="fill" d="M 310.0761066840102 257.9904479980469 A 2.7386127875258306 2.7386127875258306 0 0 1 304.59888110895855 257.9904479980469 A 2.7386127875258306 2.7386127875258306 0 0 1 310.0761066840102 257.9904479980469" fill-opacity="1" clip-path="url(#BreBREIekNKr)" stroke-opacity="1" stroke-linejoin="bevel" stroke-miterlimit="10" stroke-dasharray=""/><path fill="rgb(0,0,0)" stroke="rgb(0,0,0)" paint-order="fill" d="M 324.1599689886977 258.7610778808594 A 2.7386127875258306 2.7386127875258306 0 0 1 318.68274341364605 258.7610778808594 A 2.7386127875258306 2.7386127875258306 0 0 1 324.1599689886977 258.7610778808594" fill-opacity="1" clip-path="url(#BreBREIekNKr)" stroke-opacity="1" stroke-linejoin="bevel" stroke-miterlimit="10" stroke-dasharray=""/><path fill="rgb(0,0,0)" stroke="rgb(0,0,0)" paint-order="fill" d="M 329.9629475043227 166.61383056640625 A 2.7386127875258306 2.7386127875258306 0 0 1 324.48572192927105 166.61383056640625 A 2.7386127875258306 2.7386127875258306 0 0 1 329.9629475043227 166.61383056640625" fill-opacity="1" clip-path="url(#BreBREIekNKr)" stroke-opacity="1" stroke-linejoin="bevel" stroke-miterlimit="10" stroke-dasharray=""/><path fill="rgb(0,0,0)" stroke="rgb(0,0,0)" paint-order="fill" d="M 274.7522846625258 252.54519653320312 A 2.7386127875258306 2.7386127875258306 0 0 1 269.2750590874742 252.54519653320312 A 2.7386127875258306 2.7386127875258306 0 0 1 274.7522846625258 252.54519653320312" fill-opacity="1" clip-path="url(#BreBREIekNKr)" stroke-opacity="1" stroke-linejoin="bevel" stroke-miterlimit="10" stroke-dasharray=""/><path fill="rgb(0,0,0)" stroke="rgb(0,0,0)" paint-order="fill" d="M 281.8880878851821 217.00936889648438 A 2.7386127875258306 2.7386127875258306 0 0 1 276.4108623101304 217.00936889648438 A 2.7386127875258306 2.7386127875258306 0 0 1 281.8880878851821 217.00936889648438" fill-opacity="1" clip-path="url(#BreBREIekNKr)" stroke-opacity="1" stroke-linejoin="bevel" stroke-miterlimit="10" stroke-dasharray=""/><path fill="rgb(0,0,0)" stroke="rgb(0,0,0)" paint-order="fill" d="M 251.39474071721332 240.47994995117188 A 2.7386127875258306 2.7386127875258306 0 0 1 245.91751514216168 240.47994995117188 A 2.7386127875258306 2.7386127875258306 0 0 1 251.39474071721332 240.47994995117188" fill-opacity="1" clip-path="url(#BreBREIekNKr)" stroke-opacity="1" stroke-linejoin="bevel" stroke-miterlimit="10" stroke-dasharray=""/><path fill="rgb(0,0,0)" stroke="rgb(0,0,0)" paint-order="fill" d="M 266.7852436469008 209.3833465576172 A 2.7386127875258306 2.7386127875258306 0 0 1 261.3080180718492 209.3833465576172 A 2.7386127875258306 2.7386127875258306 0 0 1 266.7852436469008 209.3833465576172" fill-opacity="1" clip-path="url(#BreBREIekNKr)" stroke-opacity="1" stroke-linejoin="bevel" stroke-miterlimit="10" stroke-dasharray=""/><path fill="rgb(0,0,0)" stroke="rgb(0,0,0)" paint-order="fill" d="M 166.91959728459614 377.3780517578125 A 2.7386127875258306 2.7386127875258306 0 0 1 161.4423717095445 377.3780517578125 A 2.7386127875258306 2.7386127875258306 0 0 1 166.91959728459614 377.3780517578125" fill-opacity="1" clip-path="url(#BreBREIekNKr)" stroke-opacity="1" stroke-linejoin="bevel" stroke-miterlimit="10" stroke-dasharray=""/><path fill="rgb(0,0,0)" stroke="rgb(0,0,0)" paint-order="fill" d="M 164.0834309027602 375.7231140136719 A 2.7386127875258306 2.7386127875258306 0 0 1 158.60620532770855 375.7231140136719 A 2.7386127875258306 2.7386127875258306 0 0 1 164.0834309027602 375.7231140136719" fill-opacity="1" clip-path="url(#BreBREIekNKr)" stroke-opacity="1" stroke-linejoin="bevel" stroke-miterlimit="10" stroke-dasharray=""/><path fill="rgb(0,0,0)" stroke="rgb(0,0,0)" paint-order="fill" d="M 175.4484669135024 373.34100341796875 A 2.7386127875258306 2.7386127875258306 0 0 1 169.97124133845074 373.34100341796875 A 2.7386127875258306 2.7386127875258306 0 0 1 175.4484669135024 373.34100341796875" fill-opacity="1" clip-path="url(#BreBREIekNKr)" stroke-opacity="1" stroke-linejoin="bevel" stroke-miterlimit="10" stroke-dasharray=""/><path fill="rgb(0,0,0)" stroke="rgb(0,0,0)" paint-order="fill" d="M 159.8554798529555 374.89605712890625 A 2.7386127875258306 2.7386127875258306 0 0 1 154.37825427790386 374.89605712890625 A 2.7386127875258306 2.7386127875258306 0 0 1 159.8554798529555 374.89605712890625" fill-opacity="1" clip-path="url(#BreBREIekNKr)" stroke-opacity="1" stroke-linejoin="bevel" stroke-miterlimit="10" stroke-dasharray=""/><path fill="rgb(0,0,0)" stroke="rgb(0,0,0)" paint-order="fill" d="M 157.0931202338149 297.6124572753906 A 2.7386127875258306 2.7386127875258306 0 0 1 151.61589465876324 297.6124572753906 A 2.7386127875258306 2.7386127875258306 0 0 1 157.0931202338149 297.6124572753906" fill-opacity="1" clip-path="url(#BreBREIekNKr)" stroke-opacity="1" stroke-linejoin="bevel" stroke-miterlimit="10" stroke-dasharray=""/><path fill="rgb(0,0,0)" stroke="rgb(0,0,0)" paint-order="fill" d="M 149.73823131779926 399.92193603515625 A 2.7386127875258306 2.7386127875258306 0 0 1 144.2610057427476 399.92193603515625 A 2.7386127875258306 2.7386127875258306 0 0 1 149.73823131779926 399.92193603515625" fill-opacity="1" clip-path="url(#BreBREIekNKr)" stroke-opacity="1" stroke-linejoin="bevel" stroke-miterlimit="10" stroke-dasharray=""/><path fill="rgb(0,0,0)" stroke="rgb(0,0,0)" paint-order="fill" d="M 136.95516552190082 331.8475341796875 A 2.7386127875258306 2.7386127875258306 0 0 1 131.47793994684918 331.8475341796875 A 2.7386127875258306 2.7386127875258306 0 0 1 136.95516552190082 331.8475341796875" fill-opacity="1" clip-path="url(#BreBREIekNKr)" stroke-opacity="1" stroke-linejoin="bevel" stroke-miterlimit="10" stroke-dasharray=""/><path fill="rgb(0,0,0)" stroke="rgb(0,0,0)" paint-order="fill" d="M 147.0845753119399 360.719970703125 A 2.7386127875258306 2.7386127875258306 0 0 1 141.60734973688824 360.719970703125 A 2.7386127875258306 2.7386127875258306 0 0 1 147.0845753119399 360.719970703125" fill-opacity="1" clip-path="url(#BreBREIekNKr)" stroke-opacity="1" stroke-linejoin="bevel" stroke-miterlimit="10" stroke-dasharray=""/><path fill="rgb(0,0,0)" stroke="rgb(0,0,0)" paint-order="fill" d="M 133.3397785590102 290.8191833496094 A 2.7386127875258306 2.7386127875258306 0 0 1 127.86255298395855 290.8191833496094 A 2.7386127875258306 2.7386127875258306 0 0 1 133.3397785590102 290.8191833496094" fill-opacity="1" clip-path="url(#BreBREIekNKr)" stroke-opacity="1" stroke-linejoin="bevel" stroke-miterlimit="10" stroke-dasharray=""/><path fill="rgb(0,0,0)" stroke="rgb(0,0,0)" paint-order="fill" d="M 134.35854686955707 191.3885040283203 A 2.7386127875258306 2.7386127875258306 0 0 1 128.88132129450543 191.3885040283203 A 2.7386127875258306 2.7386127875258306 0 0 1 134.35854686955707 191.3885040283203" fill-opacity="1" clip-path="url(#BreBREIekNKr)" stroke-opacity="1" stroke-linejoin="bevel" stroke-miterlimit="10" stroke-dasharray=""/><path fill="rgb(0,0,0)" stroke="rgb(0,0,0)" paint-order="fill" d="M 132.9267689154555 372.7963562011719 A 2.7386127875258306 2.7386127875258306 0 0 1 127.44954334040386 372.7963562011719 A 2.7386127875258306 2.7386127875258306 0 0 1 132.9267689154555 372.7963562011719" fill-opacity="1" clip-path="url(#BreBREIekNKr)" stroke-opacity="1" stroke-linejoin="bevel" stroke-miterlimit="10" stroke-dasharray=""/><path fill="rgb(0,0,0)" stroke="rgb(0,0,0)" paint-order="fill" d="M 133.3337208197524 348.7491149902344 A 2.7386127875258306 2.7386127875258306 0 0 1 127.85649524470074 348.7491149902344 A 2.7386127875258306 2.7386127875258306 0 0 1 133.3337208197524 348.7491149902344" fill-opacity="1" clip-path="url(#BreBREIekNKr)" stroke-opacity="1" stroke-linejoin="bevel" stroke-miterlimit="10" stroke-dasharray=""/><path fill="rgb(0,0,0)" stroke="rgb(0,0,0)" paint-order="fill" d="M 221.9235950873305 360.04541015625 A 2.7386127875258306 2.7386127875258306 0 0 1 216.44636951227886 360.04541015625 A 2.7386127875258306 2.7386127875258306 0 0 1 221.9235950873305 360.04541015625" fill-opacity="1" clip-path="url(#BreBREIekNKr)" stroke-opacity="1" stroke-linejoin="bevel" stroke-miterlimit="10" stroke-dasharray=""/><path fill="rgb(0,0,0)" stroke="rgb(0,0,0)" paint-order="fill" d="M 218.96464122990864 326.5892028808594 A 2.7386127875258306 2.7386127875258306 0 0 1 213.487415654857 326.5892028808594 A 2.7386127875258306 2.7386127875258306 0 0 1 218.96464122990864 326.5892028808594" fill-opacity="1" clip-path="url(#BreBREIekNKr)" stroke-opacity="1" stroke-linejoin="bevel" stroke-miterlimit="10" stroke-dasharray=""/><path fill="rgb(0,0,0)" stroke="rgb(0,0,0)" paint-order="fill" d="M 218.34048046330707 313.17388916015625 A 2.7386127875258306 2.7386127875258306 0 0 1 212.86325488825543 313.17388916015625 A 2.7386127875258306 2.7386127875258306 0 0 1 218.34048046330707 313.17388916015625" fill-opacity="1" clip-path="url(#BreBREIekNKr)" stroke-opacity="1" stroke-linejoin="bevel" stroke-miterlimit="10" stroke-dasharray=""/><path fill="rgb(0,0,0)" stroke="rgb(0,0,0)" paint-order="fill" d="M 228.79259838322895 313.2063903808594 A 2.7386127875258306 2.7386127875258306 0 0 1 223.3153728081773 313.2063903808594 A 2.7386127875258306 2.7386127875258306 0 0 1 228.79259838322895 313.2063903808594" fill-opacity="1" clip-path="url(#BreBREIekNKr)" stroke-opacity="1" stroke-linejoin="bevel" stroke-miterlimit="10" stroke-dasharray=""/><path fill="rgb(0,0,0)" stroke="rgb(0,0,0)" paint-order="fill" d="M 208.60604442815082 344.7762451171875 A 2.7386127875258306 2.7386127875258306 0 0 1 203.12881885309918 344.7762451171875 A 2.7386127875258306 2.7386127875258306 0 0 1 208.60604442815082 344.7762451171875" fill-opacity="1" clip-path="url(#BreBREIekNKr)" stroke-opacity="1" stroke-linejoin="bevel" stroke-miterlimit="10" stroke-dasharray=""/><path fill="rgb(0,0,0)" stroke="rgb(0,0,0)" paint-order="fill" d="M 209.6000782416274 354.7471923828125 A 2.7386127875258306 2.7386127875258306 0 0 1 204.12285266657574 354.7471923828125 A 2.7386127875258306 2.7386127875258306 0 0 1 209.6000782416274 354.7471923828125" fill-opacity="1" clip-path="url(#BreBREIekNKr)" stroke-opacity="1" stroke-linejoin="bevel" stroke-miterlimit="10" stroke-dasharray=""/><path fill="rgb(0,0,0)" stroke="rgb(0,0,0)" paint-order="fill" d="M 205.4594532416274 341.0433044433594 A 2.7386127875258306 2.7386127875258306 0 0 1 199.98222766657574 341.0433044433594 A 2.7386127875258306 2.7386127875258306 0 0 1 205.4594532416274 341.0433044433594" fill-opacity="1" clip-path="url(#BreBREIekNKr)" stroke-opacity="1" stroke-linejoin="bevel" stroke-miterlimit="10" stroke-dasharray=""/><path fill="rgb(0,0,0)" stroke="rgb(0,0,0)" paint-order="fill" d="M 221.17617382268207 178.97677612304688 A 2.7386127875258306 2.7386127875258306 0 0 1 215.69894824763043 178.97677612304688 A 2.7386127875258306 2.7386127875258306 0 0 1 221.17617382268207 178.97677612304688" fill-opacity="1" clip-path="url(#BreBREIekNKr)" stroke-opacity="1" stroke-linejoin="bevel" stroke-miterlimit="10" stroke-dasharray=""/><path fill="rgb(0,0,0)" stroke="rgb(0,0,0)" paint-order="fill" d="M 232.93716015080707 268.1171569824219 A 2.7386127875258306 2.7386127875258306 0 0 1 227.45993457575543 268.1171569824219 A 2.7386127875258306 2.7386127875258306 0 0 1 232.93716015080707 268.1171569824219" fill-opacity="1" clip-path="url(#BreBREIekNKr)" stroke-opacity="1" stroke-linejoin="bevel" stroke-miterlimit="10" stroke-dasharray=""/><path fill="rgb(0,0,0)" stroke="rgb(0,0,0)" paint-order="fill" d="M 267.4655414984633 54.85784912109375 A 2.7386127875258306 2.7386127875258306 0 0 1 261.9883159234117 54.85784912109375 A 2.7386127875258306 2.7386127875258306 0 0 1 267.4655414984633 54.85784912109375" fill-opacity="1" clip-path="url(#BreBREIekNKr)" stroke-opacity="1" stroke-linejoin="bevel" stroke-miterlimit="10" stroke-dasharray=""/><path fill="rgb(0,0,0)" stroke="rgb(0,0,0)" paint-order="fill" d="M 264.7605244086196 201.0894775390625 A 2.7386127875258306 2.7386127875258306 0 0 1 259.2832988335679 201.0894775390625 A 2.7386127875258306 2.7386127875258306 0 0 1 264.7605244086196 201.0894775390625" fill-opacity="1" clip-path="url(#BreBREIekNKr)" stroke-opacity="1" stroke-linejoin="bevel" stroke-miterlimit="10" stroke-dasharray=""/><path fill="rgb(0,0,0)" stroke="rgb(0,0,0)" paint-order="fill" d="M 217.3327442572524 317.6131286621094 A 2.7386127875258306 2.7386127875258306 0 0 1 211.85551868220074 317.6131286621094 A 2.7386127875258306 2.7386127875258306 0 0 1 217.3327442572524 317.6131286621094" fill-opacity="1" clip-path="url(#BreBREIekNKr)" stroke-opacity="1" stroke-linejoin="bevel" stroke-miterlimit="10" stroke-dasharray=""/><path fill="rgb(0,0,0)" stroke="rgb(0,0,0)" paint-order="fill" d="M 119.12284435490864 416.5425720214844 A 2.7386127875258306 2.7386127875258306 0 0 1 113.64561877985699 416.5425720214844 A 2.7386127875258306 2.7386127875258306 0 0 1 119.12284435490864 416.5425720214844" fill-opacity="1" clip-path="url(#BreBREIekNKr)" stroke-opacity="1" stroke-linejoin="bevel" stroke-miterlimit="10" stroke-dasharray=""/><path fill="rgb(0,0,0)" stroke="rgb(0,0,0)" paint-order="fill" d="M 124.38078655461567 365.3247375488281 A 2.7386127875258306 2.7386127875258306 0 0 1 118.90356097956402 365.3247375488281 A 2.7386127875258306 2.7386127875258306 0 0 1 124.38078655461567 365.3247375488281" fill-opacity="1" clip-path="url(#BreBREIekNKr)" stroke-opacity="1" stroke-linejoin="bevel" stroke-miterlimit="10" stroke-dasharray=""/><path fill="rgb(0,0,0)" stroke="rgb(0,0,0)" paint-order="fill" d="M 125.54387249211567 363.6851806640625 A 2.7386127875258306 2.7386127875258306 0 0 1 120.06664691706402 363.6851806640625 A 2.7386127875258306 2.7386127875258306 0 0 1 125.54387249211567 363.6851806640625" fill-opacity="1" clip-path="url(#BreBREIekNKr)" stroke-opacity="1" stroke-linejoin="bevel" stroke-miterlimit="10" stroke-dasharray=""/><path fill="rgb(0,0,0)" stroke="rgb(0,0,0)" paint-order="fill" d="M 296.57055248479145 388.7438049316406 A 2.7386127875258306 2.7386127875258306 0 0 1 291.0933269097398 388.7438049316406 A 2.7386127875258306 2.7386127875258306 0 0 1 296.57055248479145 388.7438049316406" fill-opacity="1" clip-path="url(#BreBREIekNKr)" stroke-opacity="1" stroke-linejoin="bevel" stroke-miterlimit="10" stroke-dasharray=""/><path fill="rgb(0,0,0)" stroke="rgb(0,0,0)" paint-order="fill" d="M 130.3205372260024 381.9642333984375 A 2.7386127875258306 2.7386127875258306 0 0 1 124.84331165095074 381.9642333984375 A 2.7386127875258306 2.7386127875258306 0 0 1 130.3205372260024 381.9642333984375" fill-opacity="1" clip-path="url(#BreBREIekNKr)" stroke-opacity="1" stroke-linejoin="bevel" stroke-miterlimit="10" stroke-dasharray=""/><path fill="rgb(0,0,0)" stroke="rgb(0,0,0)" paint-order="fill" d="M 128.67718853215473 359.85955810546875 A 2.7386127875258306 2.7386127875258306 0 0 1 123.19996295710308 359.85955810546875 A 2.7386127875258306 2.7386127875258306 0 0 1 128.67718853215473 359.85955810546875" fill-opacity="1" clip-path="url(#BreBREIekNKr)" stroke-opacity="1" stroke-linejoin="bevel" stroke-miterlimit="10" stroke-dasharray=""/><path fill="rgb(0,0,0)" stroke="rgb(0,0,0)" paint-order="fill" d="M 133.7150226996352 343.3612365722656 A 2.7386127875258306 2.7386127875258306 0 0 1 128.23779712458355 343.3612365722656 A 2.7386127875258306 2.7386127875258306 0 0 1 133.7150226996352 343.3612365722656" fill-opacity="1" clip-path="url(#BreBREIekNKr)" stroke-opacity="1" stroke-linejoin="bevel" stroke-miterlimit="10" stroke-dasharray=""/><path fill="rgb(0,0,0)" stroke="rgb(0,0,0)" paint-order="fill" d="M 129.21527446965473 397.94439697265625 A 2.7386127875258306 2.7386127875258306 0 0 1 123.73804889460308 397.94439697265625 A 2.7386127875258306 2.7386127875258306 0 0 1 129.21527446965473 397.94439697265625" fill-opacity="1" clip-path="url(#BreBREIekNKr)" stroke-opacity="1" stroke-linejoin="bevel" stroke-miterlimit="10" stroke-dasharray=""/><path fill="rgb(0,0,0)" stroke="rgb(0,0,0)" paint-order="fill" d="M 233.2902180121352 101.10980987548828 A 2.7386127875258306 2.7386127875258306 0 0 1 227.81299243708355 101.10980987548828 A 2.7386127875258306 2.7386127875258306 0 0 1 233.2902180121352 101.10980987548828" fill-opacity="1" clip-path="url(#BreBREIekNKr)" stroke-opacity="1" stroke-linejoin="bevel" stroke-miterlimit="10" stroke-dasharray=""/><path fill="rgb(0,0,0)" stroke="rgb(0,0,0)" paint-order="fill" d="M 444.1952167914321 244.1603240966797 A 2.7386127875258306 2.7386127875258306 0 0 1 438.7179912163804 244.1603240966797 A 2.7386127875258306 2.7386127875258306 0 0 1 444.1952167914321 244.1603240966797" fill-opacity="1" clip-path="url(#BreBREIekNKr)" stroke-opacity="1" stroke-linejoin="bevel" stroke-miterlimit="10" stroke-dasharray=""/><path fill="rgb(0,0,0)" stroke="rgb(0,0,0)" paint-order="fill" d="M 319.4233662054946 115.64472198486328 A 2.7386127875258306 2.7386127875258306 0 0 1 313.9461406304429 115.64472198486328 A 2.7386127875258306 2.7386127875258306 0 0 1 319.4233662054946 115.64472198486328" fill-opacity="1" clip-path="url(#BreBREIekNKr)" stroke-opacity="1" stroke-linejoin="bevel" stroke-miterlimit="10" stroke-dasharray=""/><path fill="rgb(0,0,0)" stroke="rgb(0,0,0)" paint-order="fill" d="M 520.5719257758071 123.05156707763672 A 2.7386127875258306 2.7386127875258306 0 0 1 515.0947002007554 123.05156707763672 A 2.7386127875258306 2.7386127875258306 0 0 1 520.5719257758071 123.05156707763672" fill-opacity="1" clip-path="url(#BreBREIekNKr)" stroke-opacity="1" stroke-linejoin="bevel" stroke-miterlimit="10" stroke-dasharray=""/><path fill="rgb(0,0,0)" stroke="rgb(0,0,0)" paint-order="fill" d="M 381.6143146918227 281.08319091796875 A 2.7386127875258306 2.7386127875258306 0 0 1 376.13708911677105 281.08319091796875 A 2.7386127875258306 2.7386127875258306 0 0 1 381.6143146918227 281.08319091796875" fill-opacity="1" clip-path="url(#BreBREIekNKr)" stroke-opacity="1" stroke-linejoin="bevel" stroke-miterlimit="10" stroke-dasharray=""/><path fill="rgb(0,0,0)" stroke="rgb(0,0,0)" paint-order="fill" d="M 456.3274494574477 196.0545654296875 A 2.7386127875258306 2.7386127875258306 0 0 1 450.85022388239605 196.0545654296875 A 2.7386127875258306 2.7386127875258306 0 0 1 456.3274494574477 196.0545654296875" fill-opacity="1" clip-path="url(#BreBREIekNKr)" stroke-opacity="1" stroke-linejoin="bevel" stroke-miterlimit="10" stroke-dasharray=""/><path fill="none" stroke="rgb(211,211,211)" paint-order="fill" d="M 101.16666412353516 386.47100830078125 L 500.4085998535156 89.07406616210938" stroke-opacity="1" stroke-linejoin="bevel" stroke-miterlimit="10" stroke-width="2" stroke-dasharray="6" clip-path="url(#XvhaDlPhVimW)"/><g clip-path="url(#DPPrzLMJMERv)"><text fill="rgb(0,0,0)" stroke="none" font-family="helvetica" font-size="12Pt" font-style="normal" font-weight="normal" text-decoration="normal" x="0" y="0" text-anchor="start" dominant-baseline="text-before-edge" transform="matrix(1, 0, 0, 1, 420.5602111816406, 80.64147186279297)" fill-opacity="1">R² = 0.51</text></g><path fill="none" stroke="rgb(0,0,0)" paint-order="fill" d="M 59.5 510.5 L 559.5 510.5" stroke-opacity="1" stroke-linejoin="bevel" stroke-miterlimit="10" stroke-dasharray=""/><path fill="none" stroke="rgb(0,0,0)" paint-order="fill" d="M 101.5 516.5 L 101.5 508.5 M 181.5 516.5 L 181.5 508.5 M 260.5 516.5 L 260.5 508.5 M 340.5 516.5 L 340.5 508.5 M 420.5 516.5 L 420.5 508.5 M 500.5 516.5 L 500.5 508.5" stroke-opacity="1" stroke-linejoin="bevel" stroke-miterlimit="10" stroke-dasharray=""/><path fill="none" stroke="rgb(0,0,0)" paint-order="fill" d="M 85.5 514.5 L 85.5 510.5 M 69.5 514.5 L 69.5 510.5 M 101.5 514.5 L 101.5 510.5 M 117.5 514.5 L 117.5 510.5 M 133.5 514.5 L 133.5 510.5 M 149.5 514.5 L 149.5 510.5 M 165.5 514.5 L 165.5 510.5 M 181.5 514.5 L 181.5 510.5 M 196.5 514.5 L 196.5 510.5 M 212.5 514.5 L 212.5 510.5 M 228.5 514.5 L 228.5 510.5 M 244.5 514.5 L 244.5 510.5 M 260.5 514.5 L 260.5 510.5 M 276.5 514.5 L 276.5 510.5 M 292.5 514.5 L 292.5 510.5 M 308.5 514.5 L 308.5 510.5 M 324.5 514.5 L 324.5 510.5 M 340.5 514.5 L 340.5 510.5 M 356.5 514.5 L 356.5 510.5 M 372.5 514.5 L 372.5 510.5 M 388.5 514.5 L 388.5 510.5 M 404.5 514.5 L 404.5 510.5 M 420.5 514.5 L 420.5 510.5 M 436.5 514.5 L 436.5 510.5 M 452.5 514.5 L 452.5 510.5 M 468.5 514.5 L 468.5 510.5 M 484.5 514.5 L 484.5 510.5 M 500.5 514.5 L 500.5 510.5 M 516.5 514.5 L 516.5 510.5 M 532.5 514.5 L 532.5 510.5 M 548.5 514.5 L 548.5 510.5" stroke-opacity="1" stroke-linejoin="bevel" stroke-miterlimit="10" stroke-dasharray=""/><text fill="rgb(68,68,68)" stroke="none" font-family="helvetica" font-size="10pt" font-style="normal" font-weight="normal" text-decoration="normal" x="72.68603515625" y="530" text-anchor="start" dominant-baseline="alphabetic" transform="matrix(1, 0, 0, 1, 0.5, 0.5)" fill-opacity="1">0.000e+0</text><text fill="rgb(68,68,68)" stroke="none" font-family="helvetica" font-size="10pt" font-style="normal" font-weight="normal" text-decoration="normal" x="152.53443145751953" y="530" text-anchor="start" dominant-baseline="alphabetic" transform="matrix(1, 0, 0, 1, 0.5, 0.5)" fill-opacity="1">5.000e−5</text><text fill="rgb(68,68,68)" stroke="none" font-family="helvetica" font-size="10pt" font-style="normal" font-weight="normal" text-decoration="normal" x="232.38280487060547" y="530" text-anchor="start" dominant-baseline="alphabetic" transform="matrix(1, 0, 0, 1, 0.5, 0.5)" fill-opacity="1">1.000e−4</text><text fill="rgb(68,68,68)" stroke="none" font-family="helvetica" font-size="10pt" font-style="normal" font-weight="normal" text-decoration="normal" x="312.23119354248047" y="530" text-anchor="start" dominant-baseline="alphabetic" transform="matrix(1, 0, 0, 1, 0.5, 0.5)" fill-opacity="1">1.500e−4</text><text fill="rgb(68,68,68)" stroke="none" font-family="helvetica" font-size="10pt" font-style="normal" font-weight="normal" text-decoration="normal" x="392.07958221435547" y="530" text-anchor="start" dominant-baseline="alphabetic" transform="matrix(1, 0, 0, 1, 0.5, 0.5)" fill-opacity="1">2.000e−4</text><text fill="rgb(68,68,68)" stroke="none" font-family="helvetica" font-size="10pt" font-style="normal" font-weight="normal" text-decoration="normal" x="471.92797088623047" y="530" text-anchor="start" dominant-baseline="alphabetic" transform="matrix(1, 0, 0, 1, 0.5, 0.5)" fill-opacity="1">2.500e−4</text><text fill="rgb(68,68,68)" stroke="none" font-family="helvetica" font-size="14pt" font-style="italic" font-weight="normal" text-decoration="normal" x="207.38811492919922" y="552" text-anchor="start" dominant-baseline="alphabetic" transform="matrix(1, 0, 0, 1, 0.5, 0.5)" fill-opacity="1">mutation rate, mScarlettI</text><path fill="none" stroke="rgb(0,0,0)" paint-order="fill" d="M 59.5 510.5 L 59.5 10.5" stroke-opacity="1" stroke-linejoin="bevel" stroke-miterlimit="10" stroke-dasharray=""/><path fill="none" stroke="rgb(0,0,0)" paint-order="fill" d="M 53.5 475.5 L 61.5 475.5 M 53.5 402.5 L 61.5 402.5 M 53.5 329.5 L 61.5 329.5 M 53.5 256.5 L 61.5 256.5 M 53.5 183.5 L 61.5 183.5 M 53.5 109.5 L 61.5 109.5 M 53.5 36.5 L 61.5 36.5" stroke-opacity="1" stroke-linejoin="bevel" stroke-miterlimit="10" stroke-dasharray=""/><path fill="none" stroke="rgb(0,0,0)" paint-order="fill" d="M 55.5 490.5 L 59.5 490.5 M 55.5 504.5 L 59.5 504.5 M 55.5 475.5 L 59.5 475.5 M 55.5 460.5 L 59.5 460.5 M 55.5 446.5 L 59.5 446.5 M 55.5 431.5 L 59.5 431.5 M 55.5 417.5 L 59.5 417.5 M 55.5 402.5 L 59.5 402.5 M 55.5 387.5 L 59.5 387.5 M 55.5 373.5 L 59.5 373.5 M 55.5 358.5 L 59.5 358.5 M 55.5 343.5 L 59.5 343.5 M 55.5 329.5 L 59.5 329.5 M 55.5 314.5 L 59.5 314.5 M 55.5 300.5 L 59.5 300.5 M 55.5 285.5 L 59.5 285.5 M 55.5 270.5 L 59.5 270.5 M 55.5 256.5 L 59.5 256.5 M 55.5 241.5 L 59.5 241.5 M 55.5 226.5 L 59.5 226.5 M 55.5 212.5 L 59.5 212.5 M 55.5 197.5 L 59.5 197.5 M 55.5 183.5 L 59.5 183.5 M 55.5 168.5 L 59.5 168.5 M 55.5 153.5 L 59.5 153.5 M 55.5 139.5 L 59.5 139.5 M 55.5 124.5 L 59.5 124.5 M 55.5 109.5 L 59.5 109.5 M 55.5 95.5 L 59.5 95.5 M 55.5 80.5 L 59.5 80.5 M 55.5 66.5 L 59.5 66.5 M 55.5 51.5 L 59.5 51.5 M 55.5 36.5 L 59.5 36.5 M 55.5 22.5 L 59.5 22.5" stroke-opacity="1" stroke-linejoin="bevel" stroke-miterlimit="10" stroke-dasharray=""/><text fill="rgb(68,68,68)" stroke="none" font-family="helvetica" font-size="10pt" font-style="normal" font-weight="normal" text-decoration="normal" x="29.472061157226562" y="479.5263366699219" text-anchor="start" dominant-baseline="alphabetic" transform="matrix(1, 0, 0, 1, 0.5, 0.5)" fill-opacity="1">0.5</text><text fill="rgb(68,68,68)" stroke="none" font-family="helvetica" font-size="10pt" font-style="normal" font-weight="normal" text-decoration="normal" x="40.5875244140625" y="406.3995056152344" text-anchor="start" dominant-baseline="alphabetic" transform="matrix(1, 0, 0, 1, 0.5, 0.5)" fill-opacity="1">1</text><text fill="rgb(68,68,68)" stroke="none" font-family="helvetica" font-size="10pt" font-style="normal" font-weight="normal" text-decoration="normal" x="29.472061157226562" y="333.272705078125" text-anchor="start" dominant-baseline="alphabetic" transform="matrix(1, 0, 0, 1, 0.5, 0.5)" fill-opacity="1">1.5</text><text fill="rgb(68,68,68)" stroke="none" font-family="helvetica" font-size="10pt" font-style="normal" font-weight="normal" text-decoration="normal" x="40.5875244140625" y="260.14585876464844" text-anchor="start" dominant-baseline="alphabetic" transform="matrix(1, 0, 0, 1, 0.5, 0.5)" fill-opacity="1">2</text><text fill="rgb(68,68,68)" stroke="none" font-family="helvetica" font-size="10pt" font-style="normal" font-weight="normal" text-decoration="normal" x="29.472061157226562" y="187.01902770996094" text-anchor="start" dominant-baseline="alphabetic" transform="matrix(1, 0, 0, 1, 0.5, 0.5)" fill-opacity="1">2.5</text><text fill="rgb(68,68,68)" stroke="none" font-family="helvetica" font-size="10pt" font-style="normal" font-weight="normal" text-decoration="normal" x="40.5875244140625" y="113.89220428466797" text-anchor="start" dominant-baseline="alphabetic" transform="matrix(1, 0, 0, 1, 0.5, 0.5)" fill-opacity="1">3</text><text fill="rgb(68,68,68)" stroke="none" font-family="helvetica" font-size="10pt" font-style="normal" font-weight="normal" text-decoration="normal" x="29.472061157226562" y="40.765377044677734" text-anchor="start" dominant-baseline="alphabetic" transform="matrix(1, 0, 0, 1, 0.5, 0.5)" fill-opacity="1">3.5</text><text fill="rgb(68,68,68)" stroke="none" font-family="helvetica" font-size="14pt" font-style="italic" font-weight="normal" text-decoration="normal" x="-111.24876403808594" y="256" text-anchor="start" dominant-baseline="alphabetic" transform="matrix(6.123233995736766e-17, -1, 1, 6.123233995736766e-17, -238.02793884277344, 281.97206115722656)" fill-opacity="1">mutation rate, mScarlettI / LEU2</text></svg>