<svg version="1.1" xmlns="http://www.w3.org/2000/svg" width="400" height="400"><defs><clipPath id="GltCKaTzyEGZ"><path fill="none" stroke="none" d="M 68.5 10.5 L 370.5 10.5 L 370.5 316.5 L 68.5 316.5 L 68.5 10.5"/></clipPath><clipPath id="AagpQmcKxkmx"><path fill="none" stroke="none" d="M 68.5 10.5 L 370.5 10.5 L 370.5 316.5 L 68.5 316.5 L 68.5 10.5"/></clipPath><clipPath id="FykOyKfPHpWT"><path fill="none" stroke="none" d="M 68.5 10.5 L 370.5 10.5 L 370.5 316.5 L 68.5 316.5 L 68.5 10.5"/></clipPath><clipPath id="NJqpREkhShVB"><path fill="none" stroke="none" d="M 68.5 10.5 L 370.5 10.5 L 370.5 316.5 L 68.5 316.5 L 68.5 10.5"/></clipPath><clipPath id="gtoXPCwqVqvT"><path fill="none" stroke="none" d="M 68.5 10.5 L 370.5 10.5 L 370.5 316.5 L 68.5 316.5 L 68.5 10.5"/></clipPath><clipPath id="JDPtsmdTkCqC"><path fill="none" stroke="none" d="M 68.5 10.5 L 370.5 10.5 L 370.5 316.5 L 68.5 316.5 L 68.5 10.5"/></clipPath><clipPath id="NOgPlJGBTUlG"><path fill="none" stroke="none" d="M 68.5 10.5 L 370.5 10.5 L 370.5 316.5 L 68.5 316.5 L 68.5 10.5"/></clipPath><clipPath id="vVPxvvUqgTUN"><path fill="none" stroke="none" d="M 68.5 10.5 L 370.5 10.5 L 370.5 316.5 L 68.5 316.5 L 68.5 10.5"/></clipPath><clipPath id="aaNysZhByTop"><path fill="none" stroke="none" d="M 68.5 10.5 L 370.5 10.5 L 370.5 316.5 L 68.5 316.5 L 68.5 10.5"/></clipPath><clipPath id="OzzlJIXwIcRb"><path fill="none" stroke="none" d="M 68.5 10.5 L 370.5 10.5 L 370.5 316.5 L 68.5 316.5 L 68.5 10.5"/></clipPath><clipPath id="bkecnaGrgPOZ"><path fill="none" stroke="none" d="M 68.5 10.5 L 370.5 10.5 L 370.5 316.5 L 68.5 316.5 L 68.5 10.5"/></clipPath><clipPath id="rnaWhTvasJwT"><path fill="none" stroke="none" d="M 68.5 10.5 L 370.5 10.5 L 370.5 316.5 L 68.5 316.5 L 68.5 10.5"/></clipPath><clipPath id="RCivCUnweoHo"><path fill="none" stroke="none" d="M 68.5 10.5 L 370.5 10.5 L 370.5 316.5 L 68.5 316.5 L 68.5 10.5"/></clipPath><clipPath id="rrHaKEiACaQr"><path fill="none" stroke="none" d="M 68.5 10.5 L 370.5 10.5 L 370.5 316.5 L 68.5 316.5 L 68.5 10.5"/></clipPath><clipPath id="lThMtixdngBa"><path fill="none" stroke="none" d="M 68.5 10.5 L 370.5 10.5 L 370.5 316.5 L 68.5 316.5 L 68.5 10.5"/></clipPath><clipPath id="womBUtWGTUDR"><path fill="none" stroke="none" d="M 68.5 10.5 L 370.5 10.5 L 370.5 316.5 L 68.5 316.5 L 68.5 10.5"/></clipPath><clipPath id="yMnefJffTabi"><path fill="none" stroke="none" d="M 68.5 10.5 L 370.5 10.5 L 370.5 316.5 L 68.5 316.5 L 68.5 10.5"/></clipPath><clipPath id="bHenvOagaTqH"><path fill="none" stroke="none" d="M 68.5 10.5 L 370.5 10.5 L 370.5 316.5 L 68.5 316.5 L 68.5 10.5"/></clipPath><clipPath id="TfTTFvSwmPiv"><path fill="none" stroke="none" d="M 68.5 10.5 L 370.5 10.5 L 370.5 316.5 L 68.5 316.5 L 68.5 10.5"/></clipPath><clipPath id="RLKETBiAnLPO"><path fill="none" stroke="none" d="M 68.5 10.5 L 370.5 10.5 L 370.5 316.5 L 68.5 316.5 L 68.5 10.5"/></clipPath><clipPath id="ehimfmFafIIk"><path fill="none" stroke="none" d="M 68.5 10.5 L 370.5 10.5 L 370.5 316.5 L 68.5 316.5 L 68.5 10.5"/></clipPath></defs><path fill="rgb(255,255,255)" stroke="none" paint-order="stroke" d="M 0.5 0.5 L 400.5 0.5 L 400.5 400.5 L 0.5 400.5 L 0.5 0.5" fill-opacity="1"/><rect fill="#FFFFFF" stroke="none" x="68" y="10" width="302" height="306" transform="matrix(1, 0, 0, 1, 0.5, 0.5)"/><path fill="rgb(255,255,255)" stroke="none" paint-order="stroke" d="M 68.5 10.5 L 370.5 10.5 L 370.5 316.5 L 68.5 316.5 L 68.5 10.5" fill-opacity="1"/><path fill="none" stroke="rgb(229,229,229)" paint-order="fill" d="M 68.5 10.5 L 370.5 10.5 L 370.5 316.5 L 68.5 316.5 L 68.5 10.5" stroke-opacity="1" stroke-linejoin="bevel" stroke-miterlimit="10" stroke-dasharray=""/><path fill="none" stroke="rgb(211,211,211)" paint-order="fill" d="M 68.5 511.8619621221048 L 370.5 511.8619621221048" stroke-opacity="1" stroke-linejoin="bevel" stroke-miterlimit="10" stroke-width="3" stroke-dasharray="6" clip-path="url(#FykOyKfPHpWT)"/><path fill="none" stroke="rgb(211,211,211)" paint-order="fill" d="M 68.5 446.74130808140313 L 370.5 446.74130808140313" stroke-opacity="1" stroke-linejoin="bevel" stroke-miterlimit="10" stroke-width="3" stroke-dasharray="6" clip-path="url(#NJqpREkhShVB)"/><path fill="none" stroke="rgb(211,211,211)" paint-order="fill" d="M 68.5 381.62065404070154 L 370.5 381.62065404070154" stroke-opacity="1" stroke-linejoin="bevel" stroke-miterlimit="10" stroke-width="3" stroke-dasharray="6" clip-path="url(#gtoXPCwqVqvT)"/><path fill="none" stroke="rgb(211,211,211)" paint-order="fill" d="M 68.5 316.5 L 370.5 316.5" stroke-opacity="1" stroke-linejoin="bevel" stroke-miterlimit="10" stroke-width="3" stroke-dasharray="6" clip-path="url(#JDPtsmdTkCqC)"/><path fill="none" stroke="rgb(211,211,211)" paint-order="fill" d="M 68.5 251.37934595929838 L 370.5 251.37934595929838" stroke-opacity="1" stroke-linejoin="bevel" stroke-miterlimit="10" stroke-width="3" stroke-dasharray="6" clip-path="url(#NOgPlJGBTUlG)"/><path fill="none" stroke="rgb(211,211,211)" paint-order="fill" d="M 68.5 186.25869191859675 L 370.5 186.25869191859675" stroke-opacity="1" stroke-linejoin="bevel" stroke-miterlimit="10" stroke-width="3" stroke-dasharray="6" clip-path="url(#vVPxvvUqgTUN)"/><path fill="none" stroke="rgb(211,211,211)" paint-order="fill" d="M 68.5 121.13803787789516 L 370.5 121.13803787789516" stroke-opacity="1" stroke-linejoin="bevel" stroke-miterlimit="10" stroke-width="3" stroke-dasharray="6" clip-path="url(#aaNysZhByTop)"/><path fill="none" stroke="rgb(211,211,211)" paint-order="fill" d="M 68.5 56.01738383719356 L 370.5 56.01738383719356" stroke-opacity="1" stroke-linejoin="bevel" stroke-miterlimit="10" stroke-width="3" stroke-dasharray="6" clip-path="url(#OzzlJIXwIcRb)"/><path fill="none" stroke="rgb(211,211,211)" paint-order="fill" d="M 68.5 -9.103270203507975 L 370.5 -9.103270203507975" stroke-opacity="1" stroke-linejoin="bevel" stroke-miterlimit="10" stroke-width="3" stroke-dasharray="6" clip-path="url(#bkecnaGrgPOZ)"/><path fill="none" stroke="rgb(211,211,211)" paint-order="fill" d="M 68.5 -74.22392424420968 L 370.5 -74.22392424420968" stroke-opacity="1" stroke-linejoin="bevel" stroke-miterlimit="10" stroke-width="3" stroke-dasharray="6" clip-path="url(#rnaWhTvasJwT)"/><path fill="none" stroke="none"/><path fill="none" stroke="rgb(0,0,0)" paint-order="fill" d="M 87.375 132.2440185546875 L 87.375 132.2440185546875" stroke-opacity="1" stroke-linejoin="bevel" stroke-miterlimit="10" stroke-dasharray="" clip-path="url(#rrHaKEiACaQr)"/><path fill="none" stroke="rgb(0,0,0)" paint-order="fill" d="M 125.125 118.09811401367188 L 125.125 118.09811401367188" stroke-opacity="1" stroke-linejoin="bevel" stroke-miterlimit="10" stroke-dasharray="" clip-path="url(#rrHaKEiACaQr)"/><path fill="none" stroke="rgb(0,0,0)" paint-order="fill" d="M 162.875 101.21744537353516 L 162.875 101.21744537353516" stroke-opacity="1" stroke-linejoin="bevel" stroke-miterlimit="10" stroke-dasharray="" clip-path="url(#rrHaKEiACaQr)"/><path fill="none" stroke="rgb(0,0,0)" paint-order="fill" d="M 200.625 104.84657287597656 L 200.625 104.84657287597656" stroke-opacity="1" stroke-linejoin="bevel" stroke-miterlimit="10" stroke-dasharray="" clip-path="url(#rrHaKEiACaQr)"/><path fill="none" stroke="rgb(0,0,0)" paint-order="fill" d="M 238.375 103.29822540283203 L 238.375 103.29822540283203" stroke-opacity="1" stroke-linejoin="bevel" stroke-miterlimit="10" stroke-dasharray="" clip-path="url(#rrHaKEiACaQr)"/><path fill="none" stroke="rgb(0,0,0)" paint-order="fill" d="M 276.125 124.33061218261719 L 276.125 124.33061218261719" stroke-opacity="1" stroke-linejoin="bevel" stroke-miterlimit="10" stroke-dasharray="" clip-path="url(#rrHaKEiACaQr)"/><path fill="none" stroke="rgb(0,0,0)" paint-order="fill" d="M 313.875 99.22079467773438 L 313.875 101.37328338623047" stroke-opacity="1" stroke-linejoin="bevel" stroke-miterlimit="10" stroke-dasharray="" clip-path="url(#rrHaKEiACaQr)"/><path fill="none" stroke="rgb(0,0,0)" paint-order="fill" d="M 351.625 71.09172058105469 L 351.625 71.09172058105469" stroke-opacity="1" stroke-linejoin="bevel" stroke-miterlimit="10" stroke-dasharray="" clip-path="url(#rrHaKEiACaQr)"/><path fill="none" stroke="rgb(0,0,0)" paint-order="fill" d="M 87.375 132.2440185546875 L 87.375 132.2440185546875" stroke-opacity="1" stroke-linejoin="bevel" stroke-miterlimit="10" stroke-dasharray="" clip-path="url(#lThMtixdngBa)"/><path fill="none" stroke="rgb(0,0,0)" paint-order="fill" d="M 125.125 118.09811401367188 L 125.125 118.09811401367188" stroke-opacity="1" stroke-linejoin="bevel" stroke-miterlimit="10" stroke-dasharray="" clip-path="url(#lThMtixdngBa)"/><path fill="none" stroke="rgb(0,0,0)" paint-order="fill" d="M 162.875 101.21744537353516 L 162.875 101.21744537353516" stroke-opacity="1" stroke-linejoin="bevel" stroke-miterlimit="10" stroke-dasharray="" clip-path="url(#lThMtixdngBa)"/><path fill="none" stroke="rgb(0,0,0)" paint-order="fill" d="M 200.625 104.84657287597656 L 200.625 104.84657287597656" stroke-opacity="1" stroke-linejoin="bevel" stroke-miterlimit="10" stroke-dasharray="" clip-path="url(#lThMtixdngBa)"/><path fill="none" stroke="rgb(0,0,0)" paint-order="fill" d="M 238.375 103.29822540283203 L 238.375 103.29822540283203" stroke-opacity="1" stroke-linejoin="bevel" stroke-miterlimit="10" stroke-dasharray="" clip-path="url(#lThMtixdngBa)"/><path fill="none" stroke="rgb(0,0,0)" paint-order="fill" d="M 276.125 124.33061218261719 L 276.125 124.33061218261719" stroke-opacity="1" stroke-linejoin="bevel" stroke-miterlimit="10" stroke-dasharray="" clip-path="url(#lThMtixdngBa)"/><path fill="none" stroke="rgb(0,0,0)" paint-order="fill" d="M 313.875 109.3296127319336 L 313.875 109.3296127319336" stroke-opacity="1" stroke-linejoin="bevel" stroke-miterlimit="10" stroke-dasharray="" clip-path="url(#lThMtixdngBa)"/><path fill="none" stroke="rgb(0,0,0)" paint-order="fill" d="M 351.625 71.09172058105469 L 351.625 71.09172058105469" stroke-opacity="1" stroke-linejoin="bevel" stroke-miterlimit="10" stroke-dasharray="" clip-path="url(#lThMtixdngBa)"/><path fill="none" stroke="rgb(0,0,0)" paint-order="fill" d="M 79.82499694824219 132.2440185546875 L 94.92500305175781 132.2440185546875" stroke-opacity="1" stroke-linejoin="bevel" stroke-miterlimit="10" stroke-dasharray="" clip-path="url(#womBUtWGTUDR)"/><path fill="none" stroke="rgb(0,0,0)" paint-order="fill" d="M 117.57499694824219 118.09811401367188 L 132.6750030517578 118.09811401367188" stroke-opacity="1" stroke-linejoin="bevel" stroke-miterlimit="10" stroke-dasharray="" clip-path="url(#womBUtWGTUDR)"/><path fill="none" stroke="rgb(0,0,0)" paint-order="fill" d="M 155.3249969482422 101.21744537353516 L 170.4250030517578 101.21744537353516" stroke-opacity="1" stroke-linejoin="bevel" stroke-miterlimit="10" stroke-dasharray="" clip-path="url(#womBUtWGTUDR)"/><path fill="none" stroke="rgb(0,0,0)" paint-order="fill" d="M 193.0749969482422 104.84657287597656 L 208.1750030517578 104.84657287597656" stroke-opacity="1" stroke-linejoin="bevel" stroke-miterlimit="10" stroke-dasharray="" clip-path="url(#womBUtWGTUDR)"/><path fill="none" stroke="rgb(0,0,0)" paint-order="fill" d="M 230.82501220703125 103.29822540283203 L 245.92498779296875 103.29822540283203" stroke-opacity="1" stroke-linejoin="bevel" stroke-miterlimit="10" stroke-dasharray="" clip-path="url(#womBUtWGTUDR)"/><path fill="none" stroke="rgb(0,0,0)" paint-order="fill" d="M 268.57501220703125 124.33061218261719 L 283.67498779296875 124.33061218261719" stroke-opacity="1" stroke-linejoin="bevel" stroke-miterlimit="10" stroke-dasharray="" clip-path="url(#womBUtWGTUDR)"/><path fill="none" stroke="rgb(0,0,0)" paint-order="fill" d="M 306.32501220703125 109.3296127319336 L 321.42498779296875 109.3296127319336" stroke-opacity="1" stroke-linejoin="bevel" stroke-miterlimit="10" stroke-dasharray="" clip-path="url(#womBUtWGTUDR)"/><path fill="none" stroke="rgb(0,0,0)" paint-order="fill" d="M 344.07501220703125 71.09172058105469 L 359.17498779296875 71.09172058105469" stroke-opacity="1" stroke-linejoin="bevel" stroke-miterlimit="10" stroke-dasharray="" clip-path="url(#womBUtWGTUDR)"/><path fill="none" stroke="rgb(0,0,0)" paint-order="fill" d="M 79.82499694824219 132.2440185546875 L 94.92500305175781 132.2440185546875" stroke-opacity="1" stroke-linejoin="bevel" stroke-miterlimit="10" stroke-dasharray="" clip-path="url(#yMnefJffTabi)"/><path fill="none" stroke="rgb(0,0,0)" paint-order="fill" d="M 117.57499694824219 118.09811401367188 L 132.6750030517578 118.09811401367188" stroke-opacity="1" stroke-linejoin="bevel" stroke-miterlimit="10" stroke-dasharray="" clip-path="url(#yMnefJffTabi)"/><path fill="none" stroke="rgb(0,0,0)" paint-order="fill" d="M 155.3249969482422 101.21744537353516 L 170.4250030517578 101.21744537353516" stroke-opacity="1" stroke-linejoin="bevel" stroke-miterlimit="10" stroke-dasharray="" clip-path="url(#yMnefJffTabi)"/><path fill="none" stroke="rgb(0,0,0)" paint-order="fill" d="M 193.0749969482422 104.84657287597656 L 208.1750030517578 104.84657287597656" stroke-opacity="1" stroke-linejoin="bevel" stroke-miterlimit="10" stroke-dasharray="" clip-path="url(#yMnefJffTabi)"/><path fill="none" stroke="rgb(0,0,0)" paint-order="fill" d="M 230.82501220703125 103.29822540283203 L 245.92498779296875 103.29822540283203" stroke-opacity="1" stroke-linejoin="bevel" stroke-miterlimit="10" stroke-dasharray="" clip-path="url(#yMnefJffTabi)"/><path fill="none" stroke="rgb(0,0,0)" paint-order="fill" d="M 268.57501220703125 124.33061218261719 L 283.67498779296875 124.33061218261719" stroke-opacity="1" stroke-linejoin="bevel" stroke-miterlimit="10" stroke-dasharray="" clip-path="url(#yMnefJffTabi)"/><path fill="none" stroke="rgb(0,0,0)" paint-order="fill" d="M 306.32501220703125 99.22079467773438 L 321.42498779296875 99.22079467773438" stroke-opacity="1" stroke-linejoin="bevel" stroke-miterlimit="10" stroke-dasharray="" clip-path="url(#yMnefJffTabi)"/><path fill="none" stroke="rgb(0,0,0)" paint-order="fill" d="M 344.07501220703125 71.09172058105469 L 359.17498779296875 71.09172058105469" stroke-opacity="1" stroke-linejoin="bevel" stroke-miterlimit="10" stroke-dasharray="" clip-path="url(#yMnefJffTabi)"/><path fill="rgb(128,128,128)" stroke="rgb(0,0,0)" paint-order="fill" d="M 74.1624984741211 132.2440185546875 L 100.5875015258789 132.2440185546875 L 100.5875015258789 132.2440185546875 L 74.1624984741211 132.2440185546875 L 74.1624984741211 132.2440185546875" fill-opacity="1" clip-path="url(#bHenvOagaTqH)" stroke-opacity="1" stroke-linejoin="bevel" stroke-miterlimit="10" stroke-dasharray=""/><path fill="rgb(128,128,128)" stroke="rgb(0,0,0)" paint-order="fill" d="M 111.9124984741211 118.09811401367188 L 138.33749389648438 118.09811401367188 L 138.33749389648438 118.09811401367188 L 111.9124984741211 118.09811401367188 L 111.9124984741211 118.09811401367188" fill-opacity="1" clip-path="url(#bHenvOagaTqH)" stroke-opacity="1" stroke-linejoin="bevel" stroke-miterlimit="10" stroke-dasharray=""/><path fill="rgb(128,128,128)" stroke="rgb(0,0,0)" paint-order="fill" d="M 149.66250610351562 101.21744537353516 L 176.08749389648438 101.21744537353516 L 176.08749389648438 101.21744537353516 L 149.66250610351562 101.21744537353516 L 149.66250610351562 101.21744537353516" fill-opacity="1" clip-path="url(#bHenvOagaTqH)" stroke-opacity="1" stroke-linejoin="bevel" stroke-miterlimit="10" stroke-dasharray=""/><path fill="rgb(128,128,128)" stroke="rgb(0,0,0)" paint-order="fill" d="M 187.41250610351562 104.84657287597656 L 213.83749389648438 104.84657287597656 L 213.83749389648438 104.84657287597656 L 187.41250610351562 104.84657287597656 L 187.41250610351562 104.84657287597656" fill-opacity="1" clip-path="url(#bHenvOagaTqH)" stroke-opacity="1" stroke-linejoin="bevel" stroke-miterlimit="10" stroke-dasharray=""/><path fill="rgb(128,128,128)" stroke="rgb(0,0,0)" paint-order="fill" d="M 225.16250610351562 103.29822540283203 L 251.58749389648438 103.29822540283203 L 251.58749389648438 103.29822540283203 L 225.16250610351562 103.29822540283203 L 225.16250610351562 103.29822540283203" fill-opacity="1" clip-path="url(#bHenvOagaTqH)" stroke-opacity="1" stroke-linejoin="bevel" stroke-miterlimit="10" stroke-dasharray=""/><path fill="rgb(128,128,128)" stroke="rgb(0,0,0)" paint-order="fill" d="M 262.9125061035156 124.33061218261719 L 289.3374938964844 124.33061218261719 L 289.3374938964844 124.33061218261719 L 262.9125061035156 124.33061218261719 L 262.9125061035156 124.33061218261719" fill-opacity="1" clip-path="url(#bHenvOagaTqH)" stroke-opacity="1" stroke-linejoin="bevel" stroke-miterlimit="10" stroke-dasharray=""/><path fill="rgb(128,128,128)" stroke="rgb(0,0,0)" paint-order="fill" d="M 300.6625061035156 102.34247589111328 L 327.0874938964844 102.34247589111328 L 327.0874938964844 101.37328338623047 L 300.6625061035156 101.37328338623047 L 300.6625061035156 102.34247589111328" fill-opacity="1" clip-path="url(#bHenvOagaTqH)" stroke-opacity="1" stroke-linejoin="bevel" stroke-miterlimit="10" stroke-dasharray=""/><path fill="rgb(128,128,128)" stroke="rgb(0,0,0)" paint-order="fill" d="M 338.4125061035156 71.09172058105469 L 364.8374938964844 71.09172058105469 L 364.8374938964844 71.09172058105469 L 338.4125061035156 71.09172058105469 L 338.4125061035156 71.09172058105469" fill-opacity="1" clip-path="url(#bHenvOagaTqH)" stroke-opacity="1" stroke-linejoin="bevel" stroke-miterlimit="10" stroke-dasharray=""/><path fill="rgb(128,128,128)" stroke="rgb(0,0,0)" paint-order="fill" d="M 74.1624984741211 132.2440185546875 L 100.5875015258789 132.2440185546875 L 100.5875015258789 132.2440185546875 L 74.1624984741211 132.2440185546875 L 74.1624984741211 132.2440185546875" fill-opacity="1" clip-path="url(#TfTTFvSwmPiv)" stroke-opacity="1" stroke-linejoin="bevel" stroke-miterlimit="10" stroke-dasharray=""/><path fill="rgb(128,128,128)" stroke="rgb(0,0,0)" paint-order="fill" d="M 111.9124984741211 118.09811401367188 L 138.33749389648438 118.09811401367188 L 138.33749389648438 118.09811401367188 L 111.9124984741211 118.09811401367188 L 111.9124984741211 118.09811401367188" fill-opacity="1" clip-path="url(#TfTTFvSwmPiv)" stroke-opacity="1" stroke-linejoin="bevel" stroke-miterlimit="10" stroke-dasharray=""/><path fill="rgb(128,128,128)" stroke="rgb(0,0,0)" paint-order="fill" d="M 149.66250610351562 101.21744537353516 L 176.08749389648438 101.21744537353516 L 176.08749389648438 101.21744537353516 L 149.66250610351562 101.21744537353516 L 149.66250610351562 101.21744537353516" fill-opacity="1" clip-path="url(#TfTTFvSwmPiv)" stroke-opacity="1" stroke-linejoin="bevel" stroke-miterlimit="10" stroke-dasharray=""/><path fill="rgb(128,128,128)" stroke="rgb(0,0,0)" paint-order="fill" d="M 187.41250610351562 104.84657287597656 L 213.83749389648438 104.84657287597656 L 213.83749389648438 104.84657287597656 L 187.41250610351562 104.84657287597656 L 187.41250610351562 104.84657287597656" fill-opacity="1" clip-path="url(#TfTTFvSwmPiv)" stroke-opacity="1" stroke-linejoin="bevel" stroke-miterlimit="10" stroke-dasharray=""/><path fill="rgb(128,128,128)" stroke="rgb(0,0,0)" paint-order="fill" d="M 225.16250610351562 103.29822540283203 L 251.58749389648438 103.29822540283203 L 251.58749389648438 103.29822540283203 L 225.16250610351562 103.29822540283203 L 225.16250610351562 103.29822540283203" fill-opacity="1" clip-path="url(#TfTTFvSwmPiv)" stroke-opacity="1" stroke-linejoin="bevel" stroke-miterlimit="10" stroke-dasharray=""/><path fill="rgb(128,128,128)" stroke="rgb(0,0,0)" paint-order="fill" d="M 262.9125061035156 124.33061218261719 L 289.3374938964844 124.33061218261719 L 289.3374938964844 124.33061218261719 L 262.9125061035156 124.33061218261719 L 262.9125061035156 124.33061218261719" fill-opacity="1" clip-path="url(#TfTTFvSwmPiv)" stroke-opacity="1" stroke-linejoin="bevel" stroke-miterlimit="10" stroke-dasharray=""/><path fill="rgb(128,128,128)" stroke="rgb(0,0,0)" paint-order="fill" d="M 300.6625061035156 109.3296127319336 L 327.0874938964844 109.3296127319336 L 327.0874938964844 102.34247589111328 L 300.6625061035156 102.34247589111328 L 300.6625061035156 109.3296127319336" fill-opacity="1" clip-path="url(#TfTTFvSwmPiv)" stroke-opacity="1" stroke-linejoin="bevel" stroke-miterlimit="10" stroke-dasharray=""/><path fill="rgb(128,128,128)" stroke="rgb(0,0,0)" paint-order="fill" d="M 338.4125061035156 71.09172058105469 L 364.8374938964844 71.09172058105469 L 364.8374938964844 71.09172058105469 L 338.4125061035156 71.09172058105469 L 338.4125061035156 71.09172058105469" fill-opacity="1" clip-path="url(#TfTTFvSwmPiv)" stroke-opacity="1" stroke-linejoin="bevel" stroke-miterlimit="10" stroke-dasharray=""/><path fill="rgb(0,0,0)" stroke="rgb(0,0,0)" paint-order="fill" d="M 93.84014892578125 132.2440185546875 A 3 3 0 0 1 87.84014892578125 132.2440185546875 A 3 3 0 0 1 93.84014892578125 132.2440185546875" fill-opacity="0.7019607843137254" clip-path="url(#RLKETBiAnLPO)" stroke-opacity="0.7019607843137254" stroke-linejoin="bevel" stroke-miterlimit="10" stroke-dasharray=""/><path fill="rgb(0,0,0)" stroke="rgb(0,0,0)" paint-order="fill" d="M 129.73248291015625 118.09811401367188 A 3 3 0 0 1 123.73248291015625 118.09811401367188 A 3 3 0 0 1 129.73248291015625 118.09811401367188" fill-opacity="0.7019607843137254" clip-path="url(#RLKETBiAnLPO)" stroke-opacity="0.7019607843137254" stroke-linejoin="bevel" stroke-miterlimit="10" stroke-dasharray=""/><path fill="rgb(0,0,0)" stroke="rgb(0,0,0)" paint-order="fill" d="M 163.39447021484375 101.21744537353516 A 3 3 0 0 1 157.39447021484375 101.21744537353516 A 3 3 0 0 1 163.39447021484375 101.21744537353516" fill-opacity="0.7019607843137254" clip-path="url(#RLKETBiAnLPO)" stroke-opacity="0.7019607843137254" stroke-linejoin="bevel" stroke-miterlimit="10" stroke-dasharray=""/><path fill="rgb(0,0,0)" stroke="rgb(0,0,0)" paint-order="fill" d="M 200.13697814941406 104.84657287597656 A 3 3 0 0 1 194.13697814941406 104.84657287597656 A 3 3 0 0 1 200.13697814941406 104.84657287597656" fill-opacity="0.7019607843137254" clip-path="url(#RLKETBiAnLPO)" stroke-opacity="0.7019607843137254" stroke-linejoin="bevel" stroke-miterlimit="10" stroke-dasharray=""/><path fill="rgb(0,0,0)" stroke="rgb(0,0,0)" paint-order="fill" d="M 242.06765747070312 103.29822540283203 A 3 3 0 0 1 236.06765747070312 103.29822540283203 A 3 3 0 0 1 242.06765747070312 103.29822540283203" fill-opacity="0.7019607843137254" clip-path="url(#RLKETBiAnLPO)" stroke-opacity="0.7019607843137254" stroke-linejoin="bevel" stroke-miterlimit="10" stroke-dasharray=""/><path fill="rgb(0,0,0)" stroke="rgb(0,0,0)" paint-order="fill" d="M 278.4001770019531 124.33061218261719 A 3 3 0 0 1 272.4001770019531 124.33061218261719 A 3 3 0 0 1 278.4001770019531 124.33061218261719" fill-opacity="0.7019607843137254" clip-path="url(#RLKETBiAnLPO)" stroke-opacity="0.7019607843137254" stroke-linejoin="bevel" stroke-miterlimit="10" stroke-dasharray=""/><path fill="rgb(0,0,0)" stroke="rgb(0,0,0)" paint-order="fill" d="M 316.8489074707031 102.55779266357422 A 3 3 0 0 1 310.8489074707031 102.55779266357422 A 3 3 0 0 1 316.8489074707031 102.55779266357422" fill-opacity="0.7019607843137254" clip-path="url(#RLKETBiAnLPO)" stroke-opacity="0.7019607843137254" stroke-linejoin="bevel" stroke-miterlimit="10" stroke-dasharray=""/><path fill="rgb(0,0,0)" stroke="rgb(0,0,0)" paint-order="fill" d="M 314.63079833984375 156.54042053222656 A 3 3 0 0 1 308.63079833984375 156.54042053222656 A 3 3 0 0 1 314.63079833984375 156.54042053222656" fill-opacity="0.7019607843137254" clip-path="url(#RLKETBiAnLPO)" stroke-opacity="0.7019607843137254" stroke-linejoin="bevel" stroke-miterlimit="10" stroke-dasharray=""/><path fill="rgb(0,0,0)" stroke="rgb(0,0,0)" paint-order="fill" d="M 315.40594482421875 99.22079467773438 A 3 3 0 0 1 309.40594482421875 99.22079467773438 A 3 3 0 0 1 315.40594482421875 99.22079467773438" fill-opacity="0.7019607843137254" clip-path="url(#RLKETBiAnLPO)" stroke-opacity="0.7019607843137254" stroke-linejoin="bevel" stroke-miterlimit="10" stroke-dasharray=""/><path fill="rgb(0,0,0)" stroke="rgb(0,0,0)" paint-order="fill" d="M 318.84893798828125 102.12879180908203 A 3 3 0 0 1 312.84893798828125 102.12879180908203 A 3 3 0 0 1 318.84893798828125 102.12879180908203" fill-opacity="0.7019607843137254" clip-path="url(#RLKETBiAnLPO)" stroke-opacity="0.7019607843137254" stroke-linejoin="bevel" stroke-miterlimit="10" stroke-dasharray=""/><path fill="rgb(0,0,0)" stroke="rgb(0,0,0)" paint-order="fill" d="M 352.4030456542969 71.09172058105469 A 3 3 0 0 1 346.4030456542969 71.09172058105469 A 3 3 0 0 1 352.4030456542969 71.09172058105469" fill-opacity="0.7019607843137254" clip-path="url(#RLKETBiAnLPO)" stroke-opacity="0.7019607843137254" stroke-linejoin="bevel" stroke-miterlimit="10" stroke-dasharray=""/><path fill="none" stroke="rgb(0,0,0)" paint-order="fill" d="M 68.5 316.5 L 370.5 316.5" stroke-opacity="1" stroke-linejoin="bevel" stroke-miterlimit="10" stroke-dasharray=""/><path fill="none" stroke="rgb(0,0,0)" paint-order="fill" d="M 87.5 322.5 L 87.5 314.5 M 125.5 322.5 L 125.5 314.5 M 162.5 322.5 L 162.5 314.5 M 200.5 322.5 L 200.5 314.5 M 238.5 322.5 L 238.5 314.5 M 276.5 322.5 L 276.5 314.5 M 313.5 322.5 L 313.5 314.5 M 351.5 322.5 L 351.5 314.5" stroke-opacity="1" stroke-linejoin="bevel" stroke-miterlimit="10" stroke-dasharray=""/><path fill="none" stroke="rgb(0,0,0)" paint-order="fill" d="" stroke-opacity="1" stroke-linejoin="bevel" stroke-miterlimit="10" stroke-dasharray=""/><text fill="rgb(68,68,68)" stroke="none" font-family="helvetica" font-size="10pt" font-style="normal" font-weight="normal" text-decoration="normal" x="77.98524475097656" y="331.5" text-anchor="start" dominant-baseline="alphabetic" transform="matrix(0.3420201433256688, -0.9396926207859083, 0.9396926207859083, 0.3420201433256688, -249.61748694840952, 297.29520956328207)" fill-opacity="1">A</text><text fill="rgb(68,68,68)" stroke="none" font-family="helvetica" font-size="10pt" font-style="normal" font-weight="normal" text-decoration="normal" x="115.73524475097656" y="331.5" text-anchor="start" dominant-baseline="alphabetic" transform="matrix(0.3420201433256688, -0.9396926207859083, 0.9396926207859083, 0.3420201433256688, -224.77874735895352, 332.7686059979501)" fill-opacity="1">B</text><text fill="rgb(68,68,68)" stroke="none" font-family="helvetica" font-size="10pt" font-style="normal" font-weight="normal" text-decoration="normal" x="152.74984741210938" y="331.5" text-anchor="start" dominant-baseline="alphabetic" transform="matrix(0.3420201433256688, -0.9396926207859083, 0.9396926207859083, 0.3420201433256688, -199.94000776949753, 368.24200243261816)" fill-opacity="1">C</text><text fill="rgb(68,68,68)" stroke="none" font-family="helvetica" font-size="10pt" font-style="normal" font-weight="normal" text-decoration="normal" x="190.49984741210938" y="331.5" text-anchor="start" dominant-baseline="alphabetic" transform="matrix(0.3420201433256688, -0.9396926207859083, 0.9396926207859083, 0.3420201433256688, -175.10126818004153, 403.7153988672862)" fill-opacity="1">D</text><text fill="rgb(68,68,68)" stroke="none" font-family="helvetica" font-size="10pt" font-style="normal" font-weight="normal" text-decoration="normal" x="228.98524475097656" y="331.5" text-anchor="start" dominant-baseline="alphabetic" transform="matrix(0.3420201433256688, -0.9396926207859083, 0.9396926207859083, 0.3420201433256688, -150.26252859058548, 439.1887953019542)" fill-opacity="1">E</text><text fill="rgb(68,68,68)" stroke="none" font-family="helvetica" font-size="10pt" font-style="normal" font-weight="normal" text-decoration="normal" x="267.483642578125" y="331.5" text-anchor="start" dominant-baseline="alphabetic" transform="matrix(0.3420201433256688, -0.9396926207859083, 0.9396926207859083, 0.3420201433256688, -125.42378900112953, 474.6621917366223)" fill-opacity="1">F</text><text fill="rgb(68,68,68)" stroke="none" font-family="helvetica" font-size="10pt" font-style="normal" font-weight="normal" text-decoration="normal" x="274.85487365722656" y="331.5" text-anchor="start" dominant-baseline="alphabetic" transform="matrix(0.3420201433256688, -0.9396926207859083, 0.9396926207859083, 0.3420201433256688, -100.58504941167348, 510.1355881712903)" fill-opacity="1">SgtKis</text><text fill="rgb(68,68,68)" stroke="none" font-family="helvetica" font-size="10pt" font-style="normal" font-weight="normal" text-decoration="normal" x="322.750732421875" y="331.5" text-anchor="start" dominant-baseline="alphabetic" transform="matrix(0.3420201433256688, -0.9396926207859083, 0.9396926207859083, 0.3420201433256688, -75.74630982221748, 545.6089846059583)" fill-opacity="1">Trixy</text><text fill="rgb(68,68,68)" stroke="none" font-family="helvetica" font-size="14pt" font-style="italic" font-weight="normal" text-decoration="normal" x="188.92955017089844" y="393.3273806259301" text-anchor="start" dominant-baseline="alphabetic" transform="matrix(1, 0, 0, 1, 0.5, 0.5)" fill-opacity="1">sample</text><path fill="none" stroke="rgb(0,0,0)" paint-order="fill" d="M 68.5 316.5 L 68.5 10.5" stroke-opacity="1" stroke-linejoin="bevel" stroke-miterlimit="10" stroke-dasharray=""/><path fill="none" stroke="rgb(0,0,0)" paint-order="fill" d="M 62.5 316.5 L 70.5 316.5 M 62.5 251.5 L 70.5 251.5 M 62.5 186.5 L 70.5 186.5 M 62.5 121.5 L 70.5 121.5 M 62.5 56.5 L 70.5 56.5" stroke-opacity="1" stroke-linejoin="bevel" stroke-miterlimit="10" stroke-dasharray=""/><path fill="none" stroke="rgb(0,0,0)" paint-order="fill" d="M 64.5 316.5 L 68.5 316.5 M 64.5 316.5 L 68.5 316.5 M 64.5 316.5 L 68.5 316.5 M 64.5 296.5 L 68.5 296.5 M 64.5 285.5 L 68.5 285.5 M 64.5 277.5 L 68.5 277.5 M 64.5 270.5 L 68.5 270.5 M 64.5 265.5 L 68.5 265.5 M 64.5 261.5 L 68.5 261.5 M 64.5 257.5 L 68.5 257.5 M 64.5 254.5 L 68.5 254.5 M 64.5 251.5 L 68.5 251.5 M 64.5 251.5 L 68.5 251.5 M 64.5 231.5 L 68.5 231.5 M 64.5 220.5 L 68.5 220.5 M 64.5 212.5 L 68.5 212.5 M 64.5 205.5 L 68.5 205.5 M 64.5 200.5 L 68.5 200.5 M 64.5 196.5 L 68.5 196.5 M 64.5 192.5 L 68.5 192.5 M 64.5 189.5 L 68.5 189.5 M 64.5 186.5 L 68.5 186.5 M 64.5 186.5 L 68.5 186.5 M 64.5 166.5 L 68.5 166.5 M 64.5 155.5 L 68.5 155.5 M 64.5 147.5 L 68.5 147.5 M 64.5 140.5 L 68.5 140.5 M 64.5 135.5 L 68.5 135.5 M 64.5 131.5 L 68.5 131.5 M 64.5 127.5 L 68.5 127.5 M 64.5 124.5 L 68.5 124.5 M 64.5 121.5 L 68.5 121.5 M 64.5 121.5 L 68.5 121.5 M 64.5 101.5 L 68.5 101.5 M 64.5 90.5 L 68.5 90.5 M 64.5 81.5 L 68.5 81.5 M 64.5 75.5 L 68.5 75.5 M 64.5 70.5 L 68.5 70.5 M 64.5 66.5 L 68.5 66.5 M 64.5 62.5 L 68.5 62.5 M 64.5 58.5 L 68.5 58.5 M 64.5 56.5 L 68.5 56.5 M 64.5 56.5 L 68.5 56.5 M 64.5 36.5 L 68.5 36.5 M 64.5 24.5 L 68.5 24.5 M 64.5 16.5 L 68.5 16.5 M 64.5 10.5 L 68.5 10.5" stroke-opacity="1" stroke-linejoin="bevel" stroke-miterlimit="10" stroke-dasharray=""/><text fill="rgb(68,68,68)" stroke="none" font-family="helvetica" font-size="10pt" font-style="normal" font-weight="normal" text-decoration="normal" x="0" y="13" text-anchor="start" dominant-baseline="alphabetic" transform="matrix(1, 0, 0, 1, 32.039703369140625, 310)" fill-opacity="1">10</text><text fill="rgb(68,68,68)" stroke="none" font-family="helvetica" font-size="7pt" font-style="normal" font-weight="normal" text-decoration="normal" x="14.824951171875" y="7" text-anchor="start" dominant-baseline="alphabetic" transform="matrix(1, 0, 0, 1, 32.039703369140625, 310)" fill-opacity="1">−8</text><text fill="rgb(68,68,68)" stroke="none" font-family="helvetica" font-size="10pt" font-style="normal" font-weight="normal" text-decoration="normal" x="0" y="13" text-anchor="start" dominant-baseline="alphabetic" transform="matrix(1, 0, 0, 1, 32.039703369140625, 244.8793487548828)" fill-opacity="1">10</text><text fill="rgb(68,68,68)" stroke="none" font-family="helvetica" font-size="7pt" font-style="normal" font-weight="normal" text-decoration="normal" x="14.824951171875" y="7" text-anchor="start" dominant-baseline="alphabetic" transform="matrix(1, 0, 0, 1, 32.039703369140625, 244.8793487548828)" fill-opacity="1">−7</text><text fill="rgb(68,68,68)" stroke="none" font-family="helvetica" font-size="10pt" font-style="normal" font-weight="normal" text-decoration="normal" x="0" y="13" text-anchor="start" dominant-baseline="alphabetic" transform="matrix(1, 0, 0, 1, 32.039703369140625, 179.75869750976562)" fill-opacity="1">10</text><text fill="rgb(68,68,68)" stroke="none" font-family="helvetica" font-size="7pt" font-style="normal" font-weight="normal" text-decoration="normal" x="14.824951171875" y="7" text-anchor="start" dominant-baseline="alphabetic" transform="matrix(1, 0, 0, 1, 32.039703369140625, 179.75869750976562)" fill-opacity="1">−6</text><text fill="rgb(68,68,68)" stroke="none" font-family="helvetica" font-size="10pt" font-style="normal" font-weight="normal" text-decoration="normal" x="0" y="13" text-anchor="start" dominant-baseline="alphabetic" transform="matrix(1, 0, 0, 1, 32.039703369140625, 114.6380386352539)" fill-opacity="1">10</text><text fill="rgb(68,68,68)" stroke="none" font-family="helvetica" font-size="7pt" font-style="normal" font-weight="normal" text-decoration="normal" x="14.824951171875" y="7" text-anchor="start" dominant-baseline="alphabetic" transform="matrix(1, 0, 0, 1, 32.039703369140625, 114.6380386352539)" fill-opacity="1">−5</text><text fill="rgb(68,68,68)" stroke="none" font-family="helvetica" font-size="10pt" font-style="normal" font-weight="normal" text-decoration="normal" x="0" y="13" text-anchor="start" dominant-baseline="alphabetic" transform="matrix(1, 0, 0, 1, 32.039703369140625, 49.51738357543945)" fill-opacity="1">10</text><text fill="rgb(68,68,68)" stroke="none" font-family="helvetica" font-size="7pt" font-style="normal" font-weight="normal" text-decoration="normal" x="14.824951171875" y="7" text-anchor="start" dominant-baseline="alphabetic" transform="matrix(1, 0, 0, 1, 32.039703369140625, 49.51738357543945)" fill-opacity="1">−4</text><text fill="rgb(68,68,68)" stroke="none" font-family="helvetica" font-size="14pt" font-style="italic" font-weight="normal" text-decoration="normal" x="-93.13018035888672" y="159" text-anchor="start" dominant-baseline="alphabetic" transform="matrix(6.123233995736766e-17, -1, 1, 6.123233995736766e-17, -138.96029663085938, 187.03970336914062)" fill-opacity="1">per base all substitution rate</text></svg>