<svg version="1.1" xmlns="http://www.w3.org/2000/svg" width="800" height="600"><defs><clipPath id="wohbsHQsoLoZ"><path fill="none" stroke="none" d="M 65.5 60.5 L 683.5 60.5 L 683.5 545.5 L 65.5 545.5 L 65.5 60.5"/></clipPath><clipPath id="VhCiVIbcMkBV"><path fill="none" stroke="none" d="M 65.5 60.5 L 683.5 60.5 L 683.5 545.5 L 65.5 545.5 L 65.5 60.5"/></clipPath><clipPath id="xeXgBOAePmqp"><path fill="none" stroke="none" d="M 65.5 60.5 L 683.5 60.5 L 683.5 545.5 L 65.5 545.5 L 65.5 60.5"/></clipPath><clipPath id="SVCkKErwCCIR"><path fill="none" stroke="none" d="M 65.5 60.5 L 683.5 60.5 L 683.5 545.5 L 65.5 545.5 L 65.5 60.5"/></clipPath><clipPath id="BrkzIJEDDDtE"><path fill="none" stroke="none" d="M 65.5 60.5 L 683.5 60.5 L 683.5 545.5 L 65.5 545.5 L 65.5 60.5"/></clipPath><clipPath id="RPmLXaSqHBOP"><path fill="none" stroke="none" d="M 65.5 60.5 L 683.5 60.5 L 683.5 545.5 L 65.5 545.5 L 65.5 60.5"/></clipPath><clipPath id="JyHPqCNfqrNn"><path fill="none" stroke="none" d="M 65.5 60.5 L 683.5 60.5 L 683.5 545.5 L 65.5 545.5 L 65.5 60.5"/></clipPath></defs><path fill="rgb(255,255,255)" stroke="none" paint-order="stroke" d="M 0.5 0.5 L 800.5 0.5 L 800.5 600.5 L 0.5 600.5 L 0.5 0.5" fill-opacity="1"/><rect fill="#FFFFFF" stroke="none" x="65" y="60" width="618" height="485" transform="matrix(1, 0, 0, 1, 0.5, 0.5)"/><path fill="rgb(255,255,255)" stroke="none" paint-order="stroke" d="M 65.5 60.5 L 683.5 60.5 L 683.5 545.5 L 65.5 545.5 L 65.5 60.5" fill-opacity="1"/><path fill="none" stroke="rgb(229,229,229)" paint-order="fill" d="M 65.5 60.5 L 683.5 60.5 L 683.5 545.5 L 65.5 545.5 L 65.5 60.5" stroke-opacity="1" stroke-linejoin="bevel" stroke-miterlimit="10" stroke-dasharray=""/><path fill="none" stroke="rgb(0,12,124)" paint-order="fill" d="M 65.5 165.6339111328125 L 134.1666717529297 165.3236846923828 L 202.8333282470703 157.97344970703125 L 271.5 141.6046905517578 L 340.1666564941406 121.96414947509766 L 408.8333435058594 106.97183990478516 L 477.5 96.79010772705078 L 546.1666870117188 90.05413818359375 L 614.8333129882812 85.26858520507812 L 683.5 81.69169616699219 L 752.1666870117188 78.93184661865234 L 820.8333129882812 76.72299194335938 L 889.5 74.92595672607422 L 958.1666870117188 73.42688751220703 L 1026.8333740234375 72.17345428466797 L 1095.5 71.18061828613281 L 1164.1666259765625 70.25604248046875 L 1232.8333740234375 69.37130737304688 L 1301.5 68.48265838623047 L 1370.1666259765625 67.68148803710938 L 1438.8333740234375 67.05052185058594 L 1507.5 66.56118774414062 L 1576.1666259765625 66.08208465576172 L 1644.8333740234375 65.60775756835938 L 1713.5 65.1568832397461 L 1782.1666259765625 64.76202392578125 L 1850.8333740234375 64.38618850708008 L 1919.5 64.06609725952148 L 1988.1666259765625 63.7823600769043 L 2056.833251953125 63.538185119628906 L 2125.5 63.31050491333008 L 2194.166748046875 63.0888671875 L 2262.833251953125 62.854087829589844 L 2331.5 62.64731216430664 L 2400.166748046875 62.52524948120117 L 2468.833251953125 62.39930725097656 L 2537.5 62.247352600097656 L 2606.166748046875 62.068641662597656 L 2674.833251953125 61.89053726196289 L 2743.5 61.71086502075195 L 2812.166748046875 61.573402404785156 L 2880.833251953125 61.47932815551758 L 2949.5 61.39637756347656 L 3018.166748046875 61.33168029785156 L 3086.833251953125 61.28330612182617 L 3155.5 61.25202560424805 L 3224.166748046875 61.21752166748047 L 3292.833251953125 61.16994094848633 L 3361.5 61.11565017700195 L 3430.166748046875 61.06778335571289 L 3498.833251953125 61.02507019042969 L 3567.5 60.977760314941406 L 3636.166748046875 60.924415588378906 L 3704.833251953125 60.87193298339844 L 3773.5 60.827476501464844 L 3842.166748046875 60.798892974853516 L 3910.833251953125 60.759159088134766 L 3979.5 60.70978927612305 L 4048.166748046875 60.669525146484375 L 4116.83349609375 60.65087890625 L 4185.5 60.64013671875 L 4254.16650390625 60.6331672668457 L 4322.83349609375 60.62773132324219 L 4391.5 60.62233352661133 L 4460.16650390625 60.615379333496094 L 4528.83349609375 60.5987434387207 L 4597.5 60.57977294921875 L 4666.16650390625 60.57133865356445 L 4734.83349609375 60.56658935546875 L 4803.5 60.564048767089844 L 4872.16650390625 60.56212615966797 L 4940.83349609375 60.56062316894531 L 5009.5 60.55908966064453 L 5078.16650390625 60.55789566040039 L 5146.83349609375 60.55693817138672 L 5215.5 60.55611801147461 L 5284.16650390625 60.55533981323242 L 5352.83349609375 60.554534912109375 L 5421.5 60.55401611328125 L 5490.16650390625 60.5535774230957 L 5558.83349609375 60.552913665771484 L 5627.5 60.55217361450195 L 5696.16650390625 60.54987716674805 L 5764.83349609375 60.54335021972656 L 5833.5 60.52753448486328 L 5902.16650390625 60.513065338134766 L 5970.83349609375 60.50739669799805 L 6039.5 60.50520324707031 L 6108.16650390625 60.50400924682617 L 6176.83349609375 60.5033073425293 L 6245.5 60.502647399902344 L 6314.16650390625 60.50212860107422 L 6382.83349609375 60.50170135498047 L 6451.5 60.50148010253906 L 6520.16650390625 60.5012321472168 L 6588.83349609375 60.50102615356445 L 6657.5 60.50088119506836 L 6726.16650390625 60.50075149536133 L 6794.83349609375 60.5006217956543 L 6863.5 60.500518798828125 L 6932.16650390625 60.50048065185547 L 7000.83349609375 60.50045394897461 L 7069.5 60.50040054321289 L 7138.16650390625 60.500362396240234 L 7206.83349609375 60.50025939941406 L 7275.5 60.5002326965332 L 7344.16650390625 60.500205993652344 L 7412.83349609375 60.50019454956055 L 7481.5 60.50015640258789 L 7550.16650390625 60.50010299682617 L 7618.83349609375 60.50010299682617 L 7687.5 60.500091552734375 L 7756.16650390625 60.50007629394531 L 7824.83349609375 60.50007629394531 L 7893.5 60.50007629394531 L 7962.16650390625 60.500064849853516 L 8030.83349609375 60.500064849853516 L 8099.5 60.500064849853516 L 8168.16650390625 60.50005340576172 L 8236.8330078125 60.500038146972656 L 8305.5 60.50002670288086 L 8374.1669921875 60.50002670288086 L 8442.8330078125 60.50002670288086 L 8511.5 60.5000114440918 L 8580.1669921875 60.5000114440918 L 8648.8330078125 60.5000114440918 L 8717.5 60.5" stroke-opacity="1" stroke-linejoin="bevel" stroke-miterlimit="10" stroke-width="2" stroke-dasharray="" clip-path="url(#xeXgBOAePmqp)"/><path fill="none" stroke="rgb(168,0,139)" paint-order="fill" d="M 65.5 295.4847106933594 L 134.1666717529297 295.0068664550781 L 202.8333282470703 284.1835021972656 L 271.5 252.46542358398438 L 340.1666564941406 195.79640197753906 L 408.8333435058594 148.55792236328125 L 477.5 121.66900634765625 L 546.1666870117188 106.88188934326172 L 614.8333129882812 97.25593566894531 L 683.5 90.83979797363281 L 752.1666870117188 86.1673583984375 L 820.8333129882812 82.4482650756836 L 889.5 79.4217758178711 L 958.1666870117188 77.01683807373047 L 1026.8333740234375 74.98173522949219 L 1095.5 73.36084747314453 L 1164.1666259765625 72.15054321289062 L 1232.8333740234375 71.239013671875 L 1301.5 70.28160858154297 L 1370.1666259765625 69.30147552490234 L 1438.8333740234375 68.46159362792969 L 1507.5 67.68833923339844 L 1576.1666259765625 67.02508544921875 L 1644.8333740234375 66.52836608886719 L 1713.5 66.03527069091797 L 1782.1666259765625 65.58541107177734 L 1850.8333740234375 65.1805191040039 L 1919.5 64.84854888916016 L 1988.1666259765625 64.5895767211914 L 2056.833251953125 64.36103057861328 L 2125.5 64.12880325317383 L 2194.166748046875 63.90449142456055 L 2262.833251953125 63.67205810546875 L 2331.5 63.43190383911133 L 2400.166748046875 63.18903732299805 L 2468.833251953125 62.994110107421875 L 2537.5 62.81499481201172 L 2606.166748046875 62.57079315185547 L 2674.833251953125 62.309349060058594 L 2743.5 62.11284255981445 L 2812.166748046875 62.01504898071289 L 2880.833251953125 61.93656921386719 L 2949.5 61.810333251953125 L 3018.166748046875 61.68526077270508 L 3086.833251953125 61.59657287597656 L 3155.5 61.49403762817383 L 3224.166748046875 61.3765869140625 L 3292.833251953125 61.319515228271484 L 3361.5 61.292266845703125 L 3430.166748046875 61.262901306152344 L 3498.833251953125 61.21808624267578 L 3567.5 61.189571380615234 L 3636.166748046875 61.15676498413086 L 3704.833251953125 61.098838806152344 L 3773.5 61.04273986816406 L 3842.166748046875 61.002899169921875 L 3910.833251953125 60.956199645996094 L 3979.5 60.916561126708984 L 4048.166748046875 60.86042022705078 L 4116.83349609375 60.806114196777344 L 4185.5 60.77206802368164 L 4254.16650390625 60.74052429199219 L 4322.83349609375 60.706451416015625 L 4391.5 60.69268035888672 L 4460.16650390625 60.68598556518555 L 4528.83349609375 60.68185043334961 L 4597.5 60.67836380004883 L 4666.16650390625 60.675933837890625 L 4734.83349609375 60.67397689819336 L 4803.5 60.67234420776367 L 4872.16650390625 60.67103576660156 L 4940.83349609375 60.66986083984375 L 5009.5 60.66904830932617 L 5078.16650390625 60.66810989379883 L 5146.83349609375 60.667327880859375 L 5215.5 60.666725158691406 L 5284.16650390625 60.66532897949219 L 5352.83349609375 60.66081237792969 L 5421.5 60.64128494262695 L 5490.16650390625 60.6104621887207 L 5558.83349609375 60.595970153808594 L 5627.5 60.590850830078125 L 5696.16650390625 60.588600158691406 L 5764.83349609375 60.5872917175293 L 5833.5 60.58623123168945 L 5902.16650390625 60.585479736328125 L 5970.83349609375 60.584835052490234 L 6039.5 60.58409881591797 L 6108.16650390625 60.58356857299805 L 6176.83349609375 60.58268737792969 L 6245.5 60.5789794921875 L 6314.16650390625 60.56776809692383 L 6382.83349609375 60.539459228515625 L 6451.5 60.51388931274414 L 6520.16650390625 60.50706100463867 L 6588.83349609375 60.50470733642578 L 6657.5 60.5036506652832 L 6726.16650390625 60.50286865234375 L 6794.83349609375 60.50242614746094 L 6863.5 60.50205993652344 L 6932.16650390625 60.50169372558594 L 7000.83349609375 60.50154495239258 L 7069.5 60.50130844116211 L 7138.16650390625 60.50113296508789 L 7206.83349609375 60.501060485839844 L 7275.5 60.50092697143555 L 7344.16650390625 60.50077819824219 L 7412.83349609375 60.50069046020508 L 7481.5 60.50061798095703 L 7550.16650390625 60.50053024291992 L 7618.83349609375 60.500457763671875 L 7687.5 60.50042724609375 L 7756.16650390625 60.50041198730469 L 7824.83349609375 60.5003547668457 L 7893.5 60.500308990478516 L 7962.16650390625 60.50026321411133 L 8030.83349609375 60.50026321411133 L 8099.5 60.50026321411133 L 8168.16650390625 60.50023651123047 L 8236.8330078125 60.50023651123047 L 8305.5 60.500221252441406 L 8374.1669921875 60.500221252441406 L 8442.8330078125 60.50019073486328 L 8511.5 60.50017547607422 L 8580.1669921875 60.50017547607422 L 8648.8330078125 60.500160217285156 L 8717.5 60.50014877319336 L 8786.1669921875 60.50010299682617 L 8854.8330078125 60.50007247924805 L 8923.5 60.50007247924805 L 8992.1669921875 60.50007247924805 L 9060.8330078125 60.50007247924805 L 9129.5 60.50004577636719 L 9198.1669921875 60.50004577636719 L 9266.8330078125 60.50001525878906 L 9335.5 60.50001525878906 L 9404.1669921875 60.50001525878906 L 9472.8330078125 60.50001525878906 L 9541.5 60.50001525878906 L 9610.1669921875 60.5" stroke-opacity="1" stroke-linejoin="bevel" stroke-miterlimit="10" stroke-width="2" stroke-dasharray="" clip-path="url(#SVCkKErwCCIR)"/><path fill="none" stroke="rgb(255,113,82)" paint-order="fill" d="M 65.5 403.7805480957031 L 134.1666717529297 403.3558044433594 L 202.8333282470703 393.5838623046875 L 271.5 359.6827087402344 L 340.1666564941406 286.9845886230469 L 408.8333435058594 213.1984100341797 L 477.5 163.94374084472656 L 546.1666870117188 135.44143676757812 L 614.8333129882812 118.7700424194336 L 683.5 107.87565612792969 L 752.1666870117188 99.58281707763672 L 820.8333129882812 93.4336166381836 L 889.5 88.57850646972656 L 958.1666870117188 84.78681182861328 L 1026.8333740234375 81.8095703125 L 1095.5 79.23595428466797 L 1164.1666259765625 77.0423583984375 L 1232.8333740234375 75.25270080566406 L 1301.5 73.68744659423828 L 1370.1666259765625 72.43842315673828 L 1438.8333740234375 71.3453598022461 L 1507.5 70.34407043457031 L 1576.1666259765625 69.58997344970703 L 1644.8333740234375 69.0599594116211 L 1713.5 68.51324462890625 L 1782.1666259765625 67.8679428100586 L 1850.8333740234375 67.12372589111328 L 1919.5 66.58000946044922 L 1988.1666259765625 66.21831512451172 L 2056.833251953125 65.93895721435547 L 2125.5 65.55072021484375 L 2194.166748046875 65.13134765625 L 2262.833251953125 64.72587585449219 L 2331.5 64.39543151855469 L 2400.166748046875 64.13003921508789 L 2468.833251953125 63.79891586303711 L 2537.5 63.45584487915039 L 2606.166748046875 63.1435432434082 L 2674.833251953125 62.95688247680664 L 2743.5 62.805511474609375 L 2812.166748046875 62.680233001708984 L 2880.833251953125 62.53630065917969 L 2949.5 62.39690399169922 L 3018.166748046875 62.24608612060547 L 3086.833251953125 62.10117721557617 L 3155.5 61.9202880859375 L 3224.166748046875 61.710533142089844 L 3292.833251953125 61.54163360595703 L 3361.5 61.45609664916992 L 3430.166748046875 61.385223388671875 L 3498.833251953125 61.33839416503906 L 3567.5 61.29375076293945 L 3636.166748046875 61.24313735961914 L 3704.833251953125 61.21762466430664 L 3773.5 61.19792556762695 L 3842.166748046875 61.16388702392578 L 3910.833251953125 61.105247497558594 L 3979.5 61.04774475097656 L 4048.166748046875 60.972530364990234 L 4116.83349609375 60.93075180053711 L 4185.5 60.9140510559082 L 4254.16650390625 60.90549850463867 L 4322.83349609375 60.896453857421875 L 4391.5 60.879634857177734 L 4460.16650390625 60.84980392456055 L 4528.83349609375 60.80873107910156 L 4597.5 60.76905822753906 L 4666.16650390625 60.729034423828125 L 4734.83349609375 60.71335220336914 L 4803.5 60.70659255981445 L 4872.16650390625 60.70302200317383 L 4940.83349609375 60.700496673583984 L 5009.5 60.69863510131836 L 5078.16650390625 60.69741439819336 L 5146.83349609375 60.6959342956543 L 5215.5 60.69260787963867 L 5284.16650390625 60.68220520019531 L 5352.83349609375 60.65422439575195 L 5421.5 60.616912841796875 L 5490.16650390625 60.59574508666992 L 5558.83349609375 60.56447982788086 L 5627.5 60.52787399291992 L 5696.16650390625 60.51462173461914 L 5764.83349609375 60.5100212097168 L 5833.5 60.50748062133789 L 5902.16650390625 60.505836486816406 L 5970.83349609375 60.50472640991211 L 6039.5 60.5038948059082 L 6108.16650390625 60.503273010253906 L 6176.83349609375 60.502784729003906 L 6245.5 60.502376556396484 L 6314.16650390625 60.5021858215332 L 6382.83349609375 60.501888275146484 L 6451.5 60.50172424316406 L 6520.16650390625 60.50146484375 L 6588.83349609375 60.5013313293457 L 6657.5 60.501155853271484 L 6726.16650390625 60.5010871887207 L 6794.83349609375 60.50094985961914 L 6863.5 60.50078582763672 L 6932.16650390625 60.50067901611328 L 7000.83349609375 60.50062561035156 L 7069.5 60.50056838989258 L 7138.16650390625 60.50046157836914 L 7206.83349609375 60.50041961669922 L 7275.5 60.50033950805664 L 7344.16650390625 60.50031280517578 L 7412.83349609375 60.50025939941406 L 7481.5 60.500244140625 L 7550.16650390625 60.50020217895508 L 7618.83349609375 60.50019073486328 L 7687.5 60.50014877319336 L 7756.16650390625 60.50013732910156 L 7824.83349609375 60.50009536743164 L 7893.5 60.50008010864258 L 7962.16650390625 60.50006866455078 L 8030.83349609375 60.50005340576172 L 8099.5 60.50005340576172 L 8168.16650390625 60.50004196166992 L 8236.8330078125 60.50002670288086 L 8305.5 60.50001525878906 L 8374.1669921875 60.50001525878906 L 8442.8330078125 60.5" stroke-opacity="1" stroke-linejoin="bevel" stroke-miterlimit="10" stroke-width="2" stroke-dasharray="" clip-path="url(#BrkzIJEDDDtE)"/><path fill="none" stroke="rgb(255,241,35)" paint-order="fill" d="M 65.5 468.7455749511719 L 134.1666717529297 468.320068359375 L 202.8333282470703 459.02960205078125 L 271.5 424.393798828125 L 340.1666564941406 343.736083984375 L 408.8333435058594 254.40892028808594 L 477.5 189.0975799560547 L 546.1666870117188 150.12945556640625 L 614.8333129882812 127.64999389648438 L 683.5 113.23595428466797 L 752.1666870117188 103.40626525878906 L 820.8333129882812 96.27690124511719 L 889.5 91.0274429321289 L 958.1666870117188 86.91288757324219 L 1026.8333740234375 83.35580444335938 L 1095.5 80.57820892333984 L 1164.1666259765625 78.40161895751953 L 1232.8333740234375 76.49172973632812 L 1301.5 74.74119567871094 L 1370.1666259765625 73.20767974853516 L 1438.8333740234375 71.94518280029297 L 1507.5 70.77021026611328 L 1576.1666259765625 69.7707748413086 L 1644.8333740234375 68.9538345336914 L 1713.5 68.16431427001953 L 1782.1666259765625 67.40933227539062 L 1850.8333740234375 66.62278747558594 L 1919.5 65.96845245361328 L 1988.1666259765625 65.5162353515625 L 2056.833251953125 65.12097930908203 L 2125.5 64.69654083251953 L 2194.166748046875 64.1805191040039 L 2262.833251953125 63.79022216796875 L 2331.5 63.473026275634766 L 2400.166748046875 63.23627471923828 L 2468.833251953125 63.0401725769043 L 2537.5 62.886192321777344 L 2606.166748046875 62.72835922241211 L 2674.833251953125 62.58705520629883 L 2743.5 62.43952178955078 L 2812.166748046875 62.2575798034668 L 2880.833251953125 62.07249069213867 L 2949.5 61.92225646972656 L 3018.166748046875 61.81642532348633 L 3086.833251953125 61.75099182128906 L 3155.5 61.66722869873047 L 3224.166748046875 61.53159713745117 L 3292.833251953125 61.38275146484375 L 3361.5 61.27496337890625 L 3430.166748046875 61.21441650390625 L 3498.833251953125 61.16399383544922 L 3567.5 61.087989807128906 L 3636.166748046875 61.01156234741211 L 3704.833251953125 60.964988708496094 L 3773.5 60.91462326049805 L 3842.166748046875 60.84649658203125 L 3910.833251953125 60.78590774536133 L 3979.5 60.75797653198242 L 4048.166748046875 60.7453727722168 L 4116.83349609375 60.73834228515625 L 4185.5 60.7336311340332 L 4254.16650390625 60.73055648803711 L 4322.83349609375 60.72806167602539 L 4391.5 60.725582122802734 L 4460.16650390625 60.72072219848633 L 4528.83349609375 60.7027702331543 L 4597.5 60.66023635864258 L 4666.16650390625 60.6286735534668 L 4734.83349609375 60.593990325927734 L 4803.5 60.54667282104492 L 4872.16650390625 60.52526092529297 L 4940.83349609375 60.51567840576172 L 5009.5 60.51114273071289 L 5078.16650390625 60.508750915527344 L 5146.83349609375 60.507205963134766 L 5215.5 60.50589370727539 L 5284.16650390625 60.504974365234375 L 5352.83349609375 60.504215240478516 L 5421.5 60.50347137451172 L 5490.16650390625 60.502872467041016 L 5558.83349609375 60.50249481201172 L 5627.5 60.502071380615234 L 5696.16650390625 60.50177764892578 L 5764.83349609375 60.501590728759766 L 5833.5 60.50132751464844 L 5902.16650390625 60.501182556152344 L 5970.83349609375 60.50102233886719 L 6039.5 60.50088882446289 L 6108.16650390625 60.50077438354492 L 6176.83349609375 60.500640869140625 L 6245.5 60.50058364868164 L 6314.16650390625 60.500511169433594 L 6382.83349609375 60.50045394897461 L 6451.5 60.5003776550293 L 6520.16650390625 60.500335693359375 L 6588.83349609375 60.50027847290039 L 6657.5 60.5002326965332 L 6726.16650390625 60.50019073486328 L 6794.83349609375 60.50017547607422 L 6863.5 60.500160217285156 L 6932.16650390625 60.500160217285156 L 7000.83349609375 60.500144958496094 L 7069.5 60.500144958496094 L 7138.16650390625 60.50010299682617 L 7206.83349609375 60.50008773803711 L 7275.5 60.500057220458984 L 7344.16650390625 60.50004196166992 L 7412.83349609375 60.500030517578125 L 7481.5 60.500030517578125 L 7550.16650390625 60.500030517578125 L 7618.83349609375 60.500030517578125 L 7687.5 60.50001525878906 L 7756.16650390625 60.50001525878906 L 7824.83349609375 60.50001525878906 L 7893.5 60.50001525878906 L 7962.16650390625 60.50001525878906 L 8030.83349609375 60.50001525878906 L 8099.5 60.50001525878906 L 8168.16650390625 60.50001525878906 L 8236.8330078125 60.50001525878906 L 8305.5 60.50001525878906 L 8374.1669921875 60.50001525878906 L 8442.8330078125 60.50001525878906 L 8511.5 60.50001525878906 L 8580.1669921875 60.50001525878906 L 8648.8330078125 60.5" stroke-opacity="1" stroke-linejoin="bevel" stroke-miterlimit="10" stroke-width="2" stroke-dasharray="" clip-path="url(#RPmLXaSqHBOP)"/><path fill="none" stroke="rgb(0,0,0)" paint-order="fill" d="M 65.5 545.5 L 683.5 545.5" stroke-opacity="1" stroke-linejoin="bevel" stroke-miterlimit="10" stroke-dasharray=""/><path fill="none" stroke="rgb(0,0,0)" paint-order="fill" d="M 65.5 551.5 L 65.5 543.5 M 202.5 551.5 L 202.5 543.5 M 340.5 551.5 L 340.5 543.5 M 477.5 551.5 L 477.5 543.5 M 614.5 551.5 L 614.5 543.5" stroke-opacity="1" stroke-linejoin="bevel" stroke-miterlimit="10" stroke-dasharray=""/><path fill="none" stroke="rgb(0,0,0)" paint-order="fill" d="M 65.5 549.5 L 65.5 545.5 M 92.5 549.5 L 92.5 545.5 M 120.5 549.5 L 120.5 545.5 M 147.5 549.5 L 147.5 545.5 M 175.5 549.5 L 175.5 545.5 M 202.5 549.5 L 202.5 545.5 M 230.5 549.5 L 230.5 545.5 M 257.5 549.5 L 257.5 545.5 M 285.5 549.5 L 285.5 545.5 M 312.5 549.5 L 312.5 545.5 M 340.5 549.5 L 340.5 545.5 M 367.5 549.5 L 367.5 545.5 M 395.5 549.5 L 395.5 545.5 M 422.5 549.5 L 422.5 545.5 M 450.5 549.5 L 450.5 545.5 M 477.5 549.5 L 477.5 545.5 M 504.5 549.5 L 504.5 545.5 M 532.5 549.5 L 532.5 545.5 M 559.5 549.5 L 559.5 545.5 M 587.5 549.5 L 587.5 545.5 M 614.5 549.5 L 614.5 545.5 M 642.5 549.5 L 642.5 545.5 M 669.5 549.5 L 669.5 545.5" stroke-opacity="1" stroke-linejoin="bevel" stroke-miterlimit="10" stroke-dasharray=""/><text fill="rgb(68,68,68)" stroke="none" font-family="helvetica" font-size="12pt" font-style="normal" font-weight="normal" text-decoration="normal" x="60.55078125" y="568" text-anchor="start" dominant-baseline="alphabetic" transform="matrix(1, 0, 0, 1, 0.5, 0.5)" fill-opacity="1">0</text><text fill="rgb(68,68,68)" stroke="none" font-family="helvetica" font-size="12pt" font-style="normal" font-weight="normal" text-decoration="normal" x="197.8841094970703" y="568" text-anchor="start" dominant-baseline="alphabetic" transform="matrix(1, 0, 0, 1, 0.5, 0.5)" fill-opacity="1">2</text><text fill="rgb(68,68,68)" stroke="none" font-family="helvetica" font-size="12pt" font-style="normal" font-weight="normal" text-decoration="normal" x="335.2174377441406" y="568" text-anchor="start" dominant-baseline="alphabetic" transform="matrix(1, 0, 0, 1, 0.5, 0.5)" fill-opacity="1">4</text><text fill="rgb(68,68,68)" stroke="none" font-family="helvetica" font-size="12pt" font-style="normal" font-weight="normal" text-decoration="normal" x="472.55078125" y="568" text-anchor="start" dominant-baseline="alphabetic" transform="matrix(1, 0, 0, 1, 0.5, 0.5)" fill-opacity="1">6</text><text fill="rgb(68,68,68)" stroke="none" font-family="helvetica" font-size="12pt" font-style="normal" font-weight="normal" text-decoration="normal" x="609.8840942382812" y="568" text-anchor="start" dominant-baseline="alphabetic" transform="matrix(1, 0, 0, 1, 0.5, 0.5)" fill-opacity="1">8</text><text fill="rgb(68,68,68)" stroke="none" font-family="helvetica" font-size="14pt" font-style="italic" font-weight="normal" text-decoration="normal" x="283.27396392822266" y="593" text-anchor="start" dominant-baseline="alphabetic" transform="matrix(1, 0, 0, 1, 0.5, 0.5)" fill-opacity="1">NT hamming distance</text><path fill="none" stroke="rgb(0,0,0)" paint-order="fill" d="M 65.5 545.5 L 65.5 60.5" stroke-opacity="1" stroke-linejoin="bevel" stroke-miterlimit="10" stroke-dasharray=""/><path fill="none" stroke="rgb(0,0,0)" paint-order="fill" d="M 59.5 545.5 L 67.5 545.5 M 59.5 448.5 L 67.5 448.5 M 59.5 351.5 L 67.5 351.5 M 59.5 254.5 L 67.5 254.5 M 59.5 157.5 L 67.5 157.5 M 59.5 60.5 L 67.5 60.5" stroke-opacity="1" stroke-linejoin="bevel" stroke-miterlimit="10" stroke-dasharray=""/><path fill="none" stroke="rgb(0,0,0)" paint-order="fill" d="M 61.5 545.5 L 65.5 545.5 M 61.5 526.5 L 65.5 526.5 M 61.5 506.5 L 65.5 506.5 M 61.5 487.5 L 65.5 487.5 M 61.5 467.5 L 65.5 467.5 M 61.5 448.5 L 65.5 448.5 M 61.5 429.5 L 65.5 429.5 M 61.5 409.5 L 65.5 409.5 M 61.5 390.5 L 65.5 390.5 M 61.5 370.5 L 65.5 370.5 M 61.5 351.5 L 65.5 351.5 M 61.5 332.5 L 65.5 332.5 M 61.5 312.5 L 65.5 312.5 M 61.5 293.5 L 65.5 293.5 M 61.5 273.5 L 65.5 273.5 M 61.5 254.5 L 65.5 254.5 M 61.5 235.5 L 65.5 235.5 M 61.5 215.5 L 65.5 215.5 M 61.5 196.5 L 65.5 196.5 M 61.5 176.5 L 65.5 176.5 M 61.5 157.5 L 65.5 157.5 M 61.5 138.5 L 65.5 138.5 M 61.5 118.5 L 65.5 118.5 M 61.5 99.5 L 65.5 99.5 M 61.5 79.5 L 65.5 79.5 M 61.5 60.5 L 65.5 60.5" stroke-opacity="1" stroke-linejoin="bevel" stroke-miterlimit="10" stroke-dasharray=""/><text fill="rgb(68,68,68)" stroke="none" font-family="helvetica" font-size="12pt" font-style="normal" font-weight="normal" text-decoration="normal" x="45.1015625" y="551" text-anchor="start" dominant-baseline="alphabetic" transform="matrix(1, 0, 0, 1, 0.5, 0.5)" fill-opacity="1">0</text><text fill="rgb(68,68,68)" stroke="none" font-family="helvetica" font-size="12pt" font-style="normal" font-weight="normal" text-decoration="normal" x="31.7578125" y="454" text-anchor="start" dominant-baseline="alphabetic" transform="matrix(1, 0, 0, 1, 0.5, 0.5)" fill-opacity="1">0.2</text><text fill="rgb(68,68,68)" stroke="none" font-family="helvetica" font-size="12pt" font-style="normal" font-weight="normal" text-decoration="normal" x="31.7578125" y="357" text-anchor="start" dominant-baseline="alphabetic" transform="matrix(1, 0, 0, 1, 0.5, 0.5)" fill-opacity="1">0.4</text><text fill="rgb(68,68,68)" stroke="none" font-family="helvetica" font-size="12pt" font-style="normal" font-weight="normal" text-decoration="normal" x="31.7578125" y="260" text-anchor="start" dominant-baseline="alphabetic" transform="matrix(1, 0, 0, 1, 0.5, 0.5)" fill-opacity="1">0.6</text><text fill="rgb(68,68,68)" stroke="none" font-family="helvetica" font-size="12pt" font-style="normal" font-weight="normal" text-decoration="normal" x="31.7578125" y="163" text-anchor="start" dominant-baseline="alphabetic" transform="matrix(1, 0, 0, 1, 0.5, 0.5)" fill-opacity="1">0.8</text><text fill="rgb(68,68,68)" stroke="none" font-family="helvetica" font-size="12pt" font-style="normal" font-weight="normal" text-decoration="normal" x="45.1015625" y="66" text-anchor="start" dominant-baseline="alphabetic" transform="matrix(1, 0, 0, 1, 0.5, 0.5)" fill-opacity="1">1</text><text fill="rgb(68,68,68)" stroke="none" font-family="helvetica" font-size="14pt" font-style="italic" font-weight="normal" text-decoration="normal" x="-64.38568115234375" y="298.5" text-anchor="start" dominant-baseline="alphabetic" transform="matrix(6.123233995736766e-17, -1, 1, 6.123233995736766e-17, -278.2421875, 326.7578125)" fill-opacity="1">cumulative frequency</text><path fill="rgb(255,255,255)" stroke="rgb(229,229,229)" paint-order="fill" d="M 683.5 436.5 L 750.18994140625 436.5 L 750.18994140625 545.5 L 683.5 545.5 L 683.5 436.5" fill-opacity="0.9490196078431372" stroke-opacity="0.5019607843137255" stroke-linejoin="bevel" stroke-miterlimit="10" stroke-dasharray=""/><text fill="rgb(68,68,68)" stroke="none" font-family="helvetica" font-size="13px" font-style="normal" font-weight="normal" text-decoration="normal" x="718" y="456" text-anchor="start" dominant-baseline="central" transform="matrix(1, 0, 0, 1, 0.5, 0.5)" fill-opacity="1">40</text><path fill="none" stroke="rgb(0,12,124)" paint-order="fill" d="M 693.5 456.5 L 713.5 456.5" stroke-opacity="1" stroke-linejoin="bevel" stroke-miterlimit="10" stroke-width="2" stroke-dasharray=""/><text fill="rgb(68,68,68)" stroke="none" font-family="helvetica" font-size="13px" font-style="normal" font-weight="normal" text-decoration="normal" x="718" y="479" text-anchor="start" dominant-baseline="central" transform="matrix(1, 0, 0, 1, 0.5, 0.5)" fill-opacity="1">100</text><path fill="none" stroke="rgb(168,0,139)" paint-order="fill" d="M 693.5 479.5 L 713.5 479.5" stroke-opacity="1" stroke-linejoin="bevel" stroke-miterlimit="10" stroke-width="2" stroke-dasharray=""/><text fill="rgb(68,68,68)" stroke="none" font-family="helvetica" font-size="13px" font-style="normal" font-weight="normal" text-decoration="normal" x="718" y="502" text-anchor="start" dominant-baseline="central" transform="matrix(1, 0, 0, 1, 0.5, 0.5)" fill-opacity="1">140</text><path fill="none" stroke="rgb(255,113,82)" paint-order="fill" d="M 693.5 502.5 L 713.5 502.5" stroke-opacity="1" stroke-linejoin="bevel" stroke-miterlimit="10" stroke-width="2" stroke-dasharray=""/><text fill="rgb(68,68,68)" stroke="none" font-family="helvetica" font-size="13px" font-style="normal" font-weight="normal" text-decoration="normal" x="718" y="525" text-anchor="start" dominant-baseline="central" transform="matrix(1, 0, 0, 1, 0.5, 0.5)" fill-opacity="1">170</text><path fill="none" stroke="rgb(255,241,35)" paint-order="fill" d="M 693.5 525.5 L 713.5 525.5" stroke-opacity="1" stroke-linejoin="bevel" stroke-miterlimit="10" stroke-width="2" stroke-dasharray=""/><text fill="rgb(68,68,68)" stroke="none" font-family="helvetica" font-size="16pt" font-style="normal" font-weight="bold" text-decoration="normal" x="65" y="26" text-anchor="start" dominant-baseline="alphabetic" transform="matrix(1, 0, 0, 1, 0.5, 0.5)" fill-opacity="1">NT hamming distance among sequence pairs, cumulative distribution</text><text fill="rgb(68,68,68)" stroke="none" font-family="helvetica" font-size="16pt" font-style="normal" font-weight="bold" text-decoration="normal" x="65" y="50" text-anchor="start" dominant-baseline="alphabetic" transform="matrix(1, 0, 0, 1, 0.5, 0.5)" fill-opacity="1">sample: TPDNAP(I777K-L900S)</text></svg>