<svg version="1.1" xmlns="http://www.w3.org/2000/svg" width="800" height="600"><defs><clipPath id="WWPdkNpJqhZp"><path fill="none" stroke="none" d="M 65.5 60.5 L 683.5 60.5 L 683.5 545.5 L 65.5 545.5 L 65.5 60.5"/></clipPath><clipPath id="ugVvCHMigaPF"><path fill="none" stroke="none" d="M 65.5 60.5 L 683.5 60.5 L 683.5 545.5 L 65.5 545.5 L 65.5 60.5"/></clipPath><clipPath id="ltnMfcuMdlvp"><path fill="none" stroke="none" d="M 65.5 60.5 L 683.5 60.5 L 683.5 545.5 L 65.5 545.5 L 65.5 60.5"/></clipPath><clipPath id="AUcbncFBlblC"><path fill="none" stroke="none" d="M 65.5 60.5 L 683.5 60.5 L 683.5 545.5 L 65.5 545.5 L 65.5 60.5"/></clipPath><clipPath id="yMpqytctzdyu"><path fill="none" stroke="none" d="M 65.5 60.5 L 683.5 60.5 L 683.5 545.5 L 65.5 545.5 L 65.5 60.5"/></clipPath><clipPath id="WITneonSimgG"><path fill="none" stroke="none" d="M 65.5 60.5 L 683.5 60.5 L 683.5 545.5 L 65.5 545.5 L 65.5 60.5"/></clipPath><clipPath id="gpfwNOSpHgNH"><path fill="none" stroke="none" d="M 65.5 60.5 L 683.5 60.5 L 683.5 545.5 L 65.5 545.5 L 65.5 60.5"/></clipPath></defs><path fill="rgb(255,255,255)" stroke="none" paint-order="stroke" d="M 0.5 0.5 L 800.5 0.5 L 800.5 600.5 L 0.5 600.5 L 0.5 0.5" fill-opacity="1"/><rect fill="#FFFFFF" stroke="none" x="65" y="60" width="618" height="485" transform="matrix(1, 0, 0, 1, 0.5, 0.5)"/><path fill="rgb(255,255,255)" stroke="none" paint-order="stroke" d="M 65.5 60.5 L 683.5 60.5 L 683.5 545.5 L 65.5 545.5 L 65.5 60.5" fill-opacity="1"/><path fill="none" stroke="rgb(229,229,229)" paint-order="fill" d="M 65.5 60.5 L 683.5 60.5 L 683.5 545.5 L 65.5 545.5 L 65.5 60.5" stroke-opacity="1" stroke-linejoin="bevel" stroke-miterlimit="10" stroke-dasharray=""/><path fill="none" stroke="rgb(0,12,124)" paint-order="fill" d="M 65.5 141.65611267089844 L 134.1666717529297 141.30616760253906 L 202.8333282470703 134.2718048095703 L 271.5 123.21675109863281 L 340.1666564941406 109.77156066894531 L 408.8333435058594 100.40937042236328 L 477.5 93.73285675048828 L 546.1666870117188 88.5419921875 L 614.8333129882812 84.41351318359375 L 683.5 81.16067504882812 L 752.1666870117188 78.5453109741211 L 820.8333129882812 76.43904876708984 L 889.5 74.71456909179688 L 958.1666870117188 73.18329620361328 L 1026.8333740234375 71.8676986694336 L 1095.5 70.77603149414062 L 1164.1666259765625 69.7850341796875 L 1232.8333740234375 68.8945083618164 L 1301.5 68.08993530273438 L 1370.1666259765625 67.34148406982422 L 1438.8333740234375 66.69795989990234 L 1507.5 66.15873718261719 L 1576.1666259765625 65.64063262939453 L 1644.8333740234375 65.17063903808594 L 1713.5 64.77102661132812 L 1782.1666259765625 64.40501022338867 L 1850.8333740234375 64.0907974243164 L 1919.5 63.82587814331055 L 1988.1666259765625 63.5829963684082 L 2056.833251953125 63.3233642578125 L 2125.5 63.07527160644531 L 2194.166748046875 62.83854293823242 L 2262.833251953125 62.61226272583008 L 2331.5 62.43855667114258 L 2400.166748046875 62.28058624267578 L 2468.833251953125 62.11785888671875 L 2537.5 61.98114776611328 L 2606.166748046875 61.86417007446289 L 2674.833251953125 61.73256301879883 L 2743.5 61.59904861450195 L 2812.166748046875 61.496185302734375 L 2880.833251953125 61.40519332885742 L 2949.5 61.32707977294922 L 3018.166748046875 61.270652770996094 L 3086.833251953125 61.21215057373047 L 3155.5 61.15686798095703 L 3224.166748046875 61.111698150634766 L 3292.833251953125 61.06612014770508 L 3361.5 61.008487701416016 L 3430.166748046875 60.9521369934082 L 3498.833251953125 60.90789031982422 L 3567.5 60.8707275390625 L 3636.166748046875 60.842071533203125 L 3704.833251953125 60.81808853149414 L 3773.5 60.79745864868164 L 3842.166748046875 60.7774543762207 L 3910.833251953125 60.758277893066406 L 3979.5 60.741119384765625 L 4048.166748046875 60.7108268737793 L 4116.83349609375 60.667266845703125 L 4185.5 60.62431335449219 L 4254.16650390625 60.59208297729492 L 4322.83349609375 60.577354431152344 L 4391.5 60.56761932373047 L 4460.16650390625 60.560829162597656 L 4528.83349609375 60.55580520629883 L 4597.5 60.55096435546875 L 4666.16650390625 60.54530715942383 L 4734.83349609375 60.534114837646484 L 4803.5 60.5227165222168 L 4872.16650390625 60.51737976074219 L 4940.83349609375 60.514156341552734 L 5009.5 60.51168441772461 L 5078.16650390625 60.510066986083984 L 5146.83349609375 60.50862503051758 L 5215.5 60.50740432739258 L 5284.16650390625 60.50637435913086 L 5352.83349609375 60.50539779663086 L 5421.5 60.504722595214844 L 5490.16650390625 60.50403594970703 L 5558.83349609375 60.50345230102539 L 5627.5 60.503047943115234 L 5696.16650390625 60.502681732177734 L 5764.83349609375 60.50239181518555 L 5833.5 60.502037048339844 L 5902.16650390625 60.501827239990234 L 5970.83349609375 60.501556396484375 L 6039.5 60.501312255859375 L 6108.16650390625 60.50117111206055 L 6176.83349609375 60.501007080078125 L 6245.5 60.500858306884766 L 6314.16650390625 60.50074768066406 L 6382.83349609375 60.50065612792969 L 6451.5 60.500545501708984 L 6520.16650390625 60.5004768371582 L 6588.83349609375 60.50039291381836 L 6657.5 60.500335693359375 L 6726.16650390625 60.50030517578125 L 6794.83349609375 60.500282287597656 L 6863.5 60.50022506713867 L 6932.16650390625 60.50020217895508 L 7000.83349609375 60.500179290771484 L 7069.5 60.50017166137695 L 7138.16650390625 60.50014114379883 L 7206.83349609375 60.50010299682617 L 7275.5 60.50008773803711 L 7344.16650390625 60.50008010864258 L 7412.83349609375 60.50007247924805 L 7481.5 60.50006103515625 L 7550.16650390625 60.50005340576172 L 7618.83349609375 60.50004959106445 L 7687.5 60.500038146972656 L 7756.16650390625 60.500022888183594 L 7824.83349609375 60.500022888183594 L 7893.5 60.500022888183594 L 7962.16650390625 60.50001907348633 L 8030.83349609375 60.5000114440918 L 8099.5 60.50000762939453 L 8168.16650390625 60.50000762939453 L 8236.8330078125 60.50000762939453 L 8305.5 60.5" stroke-opacity="1" stroke-linejoin="bevel" stroke-miterlimit="10" stroke-width="2" stroke-dasharray="" clip-path="url(#ltnMfcuMdlvp)"/><path fill="none" stroke="rgb(168,0,139)" paint-order="fill" d="M 65.5 231.6877899169922 L 134.1666717529297 231.2062225341797 L 202.8333282470703 221.86083984375 L 271.5 201.37570190429688 L 340.1666564941406 170.08602905273438 L 408.8333435058594 141.69503784179688 L 477.5 121.01748657226562 L 546.1666870117188 107.23163604736328 L 614.8333129882812 97.94713592529297 L 683.5 91.3114013671875 L 752.1666870117188 86.3548812866211 L 820.8333129882812 82.61841583251953 L 889.5 79.79851531982422 L 958.1666870117188 77.38653564453125 L 1026.8333740234375 75.37975311279297 L 1095.5 73.78984832763672 L 1164.1666259765625 72.42481994628906 L 1232.8333740234375 71.18399047851562 L 1301.5 70.07010650634766 L 1370.1666259765625 69.05028533935547 L 1438.8333740234375 68.10601043701172 L 1507.5 67.3238754272461 L 1576.1666259765625 66.67843627929688 L 1644.8333740234375 66.08089447021484 L 1713.5 65.4692611694336 L 1782.1666259765625 64.99114990234375 L 1850.8333740234375 64.6473159790039 L 1919.5 64.3631706237793 L 1988.1666259765625 64.06301498413086 L 2056.833251953125 63.74816131591797 L 2125.5 63.46651077270508 L 2194.166748046875 63.19012451171875 L 2262.833251953125 62.90269470214844 L 2331.5 62.65134811401367 L 2400.166748046875 62.459716796875 L 2468.833251953125 62.26806640625 L 2537.5 62.0955810546875 L 2606.166748046875 61.93194580078125 L 2674.833251953125 61.802608489990234 L 2743.5 61.70367431640625 L 2812.166748046875 61.61459732055664 L 2880.833251953125 61.52207946777344 L 2949.5 61.422786712646484 L 3018.166748046875 61.315086364746094 L 3086.833251953125 61.230716705322266 L 3155.5 61.17197036743164 L 3224.166748046875 61.110382080078125 L 3292.833251953125 61.038570404052734 L 3361.5 60.987098693847656 L 3430.166748046875 60.9438362121582 L 3498.833251953125 60.8955078125 L 3567.5 60.82782745361328 L 3636.166748046875 60.76926803588867 L 3704.833251953125 60.72885513305664 L 3773.5 60.69782638549805 L 3842.166748046875 60.66822814941406 L 3910.833251953125 60.64695358276367 L 3979.5 60.62572479248047 L 4048.166748046875 60.59429931640625 L 4116.83349609375 60.55756378173828 L 4185.5 60.539066314697266 L 4254.16650390625 60.528255462646484 L 4322.83349609375 60.52222442626953 L 4391.5 60.518043518066406 L 4460.16650390625 60.514991760253906 L 4528.83349609375 60.512638092041016 L 4597.5 60.5107421875 L 4666.16650390625 60.50914001464844 L 4734.83349609375 60.50801086425781 L 4803.5 60.50692367553711 L 4872.16650390625 60.50598907470703 L 4940.83349609375 60.50508117675781 L 5009.5 60.50441360473633 L 5078.16650390625 60.50374221801758 L 5146.83349609375 60.503334045410156 L 5215.5 60.50279998779297 L 5284.16650390625 60.50240707397461 L 5352.83349609375 60.502132415771484 L 5421.5 60.50178909301758 L 5490.16650390625 60.50150680541992 L 5558.83349609375 60.501312255859375 L 5627.5 60.50117492675781 L 5696.16650390625 60.50103759765625 L 5764.83349609375 60.50090789794922 L 5833.5 60.500762939453125 L 5902.16650390625 60.50068664550781 L 5970.83349609375 60.50058364868164 L 6039.5 60.50048828125 L 6108.16650390625 60.50044631958008 L 6176.83349609375 60.500404357910156 L 6245.5 60.50031661987305 L 6314.16650390625 60.500240325927734 L 6382.83349609375 60.500213623046875 L 6451.5 60.500179290771484 L 6520.16650390625 60.50016403198242 L 6588.83349609375 60.500118255615234 L 6657.5 60.50010299682617 L 6726.16650390625 60.50009536743164 L 6794.83349609375 60.50009536743164 L 6863.5 60.50007629394531 L 6932.16650390625 60.50006103515625 L 7000.83349609375 60.50003433227539 L 7069.5 60.50003433227539 L 7138.16650390625 60.50002670288086 L 7206.83349609375 60.50002670288086 L 7275.5 60.50002670288086 L 7344.16650390625 60.5" stroke-opacity="1" stroke-linejoin="bevel" stroke-miterlimit="10" stroke-width="2" stroke-dasharray="" clip-path="url(#AUcbncFBlblC)"/><path fill="none" stroke="rgb(255,113,82)" paint-order="fill" d="M 65.5 200.5684814453125 L 134.1666717529297 200.0624542236328 L 202.8333282470703 190.4369659423828 L 271.5 171.37420654296875 L 340.1666564941406 144.5083770751953 L 408.8333435058594 123.73992919921875 L 477.5 109.64445495605469 L 546.1666870117188 99.98451232910156 L 614.8333129882812 93.39798736572266 L 683.5 88.52120971679688 L 752.1666870117188 84.70387268066406 L 820.8333129882812 81.4034194946289 L 889.5 78.63270568847656 L 958.1666870117188 76.31195068359375 L 1026.8333740234375 74.36373901367188 L 1095.5 72.71047973632812 L 1164.1666259765625 71.31050109863281 L 1232.8333740234375 70.05693054199219 L 1301.5 68.93726348876953 L 1370.1666259765625 67.92684173583984 L 1438.8333740234375 66.96202087402344 L 1507.5 66.15962982177734 L 1576.1666259765625 65.50154876708984 L 1644.8333740234375 64.94290924072266 L 1713.5 64.45973205566406 L 1782.1666259765625 64.06062698364258 L 1850.8333740234375 63.712501525878906 L 1919.5 63.4346923828125 L 1988.1666259765625 63.19968032836914 L 2056.833251953125 63.02165985107422 L 2125.5 62.85673904418945 L 2194.166748046875 62.676692962646484 L 2262.833251953125 62.4969367980957 L 2331.5 62.34382629394531 L 2400.166748046875 62.203338623046875 L 2468.833251953125 62.058616638183594 L 2537.5 61.917083740234375 L 2606.166748046875 61.77109146118164 L 2674.833251953125 61.615478515625 L 2743.5 61.48488998413086 L 2812.166748046875 61.375431060791016 L 2880.833251953125 61.26974105834961 L 2949.5 61.17597198486328 L 3018.166748046875 61.081111907958984 L 3086.833251953125 60.99481964111328 L 3155.5 60.92854309082031 L 3224.166748046875 60.88048553466797 L 3292.833251953125 60.84428405761719 L 3361.5 60.813720703125 L 3430.166748046875 60.794578552246094 L 3498.833251953125 60.77238464355469 L 3567.5 60.74245071411133 L 3636.166748046875 60.71287155151367 L 3704.833251953125 60.67636489868164 L 3773.5 60.64812469482422 L 3842.166748046875 60.633811950683594 L 3910.833251953125 60.62538146972656 L 3979.5 60.61973190307617 L 4048.166748046875 60.615665435791016 L 4116.83349609375 60.6119499206543 L 4185.5 60.6060676574707 L 4254.16650390625 60.59137725830078 L 4322.83349609375 60.57368850708008 L 4391.5 60.56545639038086 L 4460.16650390625 60.5613899230957 L 4528.83349609375 60.55879211425781 L 4597.5 60.556983947753906 L 4666.16650390625 60.55556106567383 L 4734.83349609375 60.55438232421875 L 4803.5 60.553466796875 L 4872.16650390625 60.552772521972656 L 4940.83349609375 60.55179214477539 L 5009.5 60.54948806762695 L 5078.16650390625 60.542964935302734 L 5146.83349609375 60.527042388916016 L 5215.5 60.512657165527344 L 5284.16650390625 60.507450103759766 L 5352.83349609375 60.50535202026367 L 5421.5 60.50404739379883 L 5490.16650390625 60.50307846069336 L 5558.83349609375 60.5024299621582 L 5627.5 60.50201416015625 L 5696.16650390625 60.5015754699707 L 5764.83349609375 60.501258850097656 L 5833.5 60.50102615356445 L 5902.16650390625 60.50088119506836 L 5970.83349609375 60.500755310058594 L 6039.5 60.5006217956543 L 6108.16650390625 60.50057601928711 L 6176.83349609375 60.5004768371582 L 6245.5 60.50038528442383 L 6314.16650390625 60.50032424926758 L 6382.83349609375 60.50028610229492 L 6451.5 60.50021743774414 L 6520.16650390625 60.500179290771484 L 6588.83349609375 60.500160217285156 L 6657.5 60.5001335144043 L 6726.16650390625 60.500125885009766 L 6794.83349609375 60.500118255615234 L 6863.5 60.500099182128906 L 6932.16650390625 60.50008010864258 L 7000.83349609375 60.500064849853516 L 7069.5 60.50005340576172 L 7138.16650390625 60.50004577636719 L 7206.83349609375 60.50002670288086 L 7275.5 60.50002670288086 L 7344.16650390625 60.50002670288086 L 7412.83349609375 60.50002670288086 L 7481.5 60.50002670288086 L 7550.16650390625 60.50001907348633 L 7618.83349609375 60.50001907348633 L 7687.5 60.50000762939453 L 7756.16650390625 60.50000762939453 L 7824.83349609375 60.50000762939453 L 7893.5 60.50000762939453 L 7962.16650390625 60.50000762939453 L 8030.83349609375 60.50000762939453 L 8099.5 60.50000762939453 L 8168.16650390625 60.50000762939453 L 8236.8330078125 60.50000762939453 L 8305.5 60.50000762939453 L 8374.1669921875 60.50000762939453 L 8442.8330078125 60.5" stroke-opacity="1" stroke-linejoin="bevel" stroke-miterlimit="10" stroke-width="2" stroke-dasharray="" clip-path="url(#yMpqytctzdyu)"/><path fill="none" stroke="rgb(255,241,35)" paint-order="fill" d="M 65.5 203.66415405273438 L 134.1666717529297 203.1315155029297 L 202.8333282470703 193.0921630859375 L 271.5 172.09780883789062 L 340.1666564941406 141.18075561523438 L 408.8333435058594 120.18802642822266 L 477.5 107.15719604492188 L 546.1666870117188 98.15909576416016 L 614.8333129882812 91.72570037841797 L 683.5 87.0496597290039 L 752.1666870117188 83.55154418945312 L 820.8333129882812 80.71051025390625 L 889.5 78.15953063964844 L 958.1666870117188 75.96643829345703 L 1026.8333740234375 74.21725463867188 L 1095.5 72.78478240966797 L 1164.1666259765625 71.54837036132812 L 1232.8333740234375 70.5041732788086 L 1301.5 69.63661193847656 L 1370.1666259765625 68.77469635009766 L 1438.8333740234375 67.95282745361328 L 1507.5 67.37550354003906 L 1576.1666259765625 66.87618255615234 L 1644.8333740234375 66.26715087890625 L 1713.5 65.6808853149414 L 1782.1666259765625 65.2096939086914 L 1850.8333740234375 64.79090881347656 L 1919.5 64.33097457885742 L 1988.1666259765625 63.96080780029297 L 2056.833251953125 63.68663787841797 L 2125.5 63.48250961303711 L 2194.166748046875 63.244449615478516 L 2262.833251953125 62.91532897949219 L 2331.5 62.6267204284668 L 2400.166748046875 62.45493698120117 L 2468.833251953125 62.32653045654297 L 2537.5 62.20308303833008 L 2606.166748046875 62.081058502197266 L 2674.833251953125 61.96035385131836 L 2743.5 61.81755447387695 L 2812.166748046875 61.639320373535156 L 2880.833251953125 61.4800910949707 L 2949.5 61.369747161865234 L 3018.166748046875 61.29081344604492 L 3086.833251953125 61.23005294799805 L 3155.5 61.17386245727539 L 3224.166748046875 61.11444091796875 L 3292.833251953125 61.07049560546875 L 3361.5 61.01982498168945 L 3430.166748046875 60.970306396484375 L 3498.833251953125 60.93231201171875 L 3567.5 60.910945892333984 L 3636.166748046875 60.88628005981445 L 3704.833251953125 60.859493255615234 L 3773.5 60.845306396484375 L 3842.166748046875 60.832916259765625 L 3910.833251953125 60.814613342285156 L 3979.5 60.792110443115234 L 4048.166748046875 60.782745361328125 L 4116.83349609375 60.7762451171875 L 4185.5 60.76797103881836 L 4254.16650390625 60.74976348876953 L 4322.83349609375 60.72499084472656 L 4391.5 60.702110290527344 L 4460.16650390625 60.675628662109375 L 4528.83349609375 60.653404235839844 L 4597.5 60.63103103637695 L 4666.16650390625 60.621742248535156 L 4734.83349609375 60.616920471191406 L 4803.5 60.61381912231445 L 4872.16650390625 60.61177062988281 L 4940.83349609375 60.61025619506836 L 5009.5 60.60895919799805 L 5078.16650390625 60.607887268066406 L 5146.83349609375 60.60638427734375 L 5215.5 60.60210037231445 L 5284.16650390625 60.58879089355469 L 5352.83349609375 60.57001876831055 L 5421.5 60.563079833984375 L 5490.16650390625 60.56006622314453 L 5558.83349609375 60.55826187133789 L 5627.5 60.55697250366211 L 5696.16650390625 60.555870056152344 L 5764.83349609375 60.55510711669922 L 5833.5 60.5545539855957 L 5902.16650390625 60.554073333740234 L 5970.83349609375 60.55375289916992 L 6039.5 60.5534782409668 L 6108.16650390625 60.553226470947266 L 6176.83349609375 60.55294418334961 L 6245.5 60.55280685424805 L 6314.16650390625 60.55265808105469 L 6382.83349609375 60.5525016784668 L 6451.5 60.55237579345703 L 6520.16650390625 60.55223083496094 L 6588.83349609375 60.55214309692383 L 6657.5 60.55206298828125 L 6726.16650390625 60.55197525024414 L 6794.83349609375 60.55190658569336 L 6863.5 60.55189895629883 L 6932.16650390625 60.551780700683594 L 7000.83349609375 60.55174255371094 L 7069.5 60.551692962646484 L 7138.16650390625 60.5516357421875 L 7206.83349609375 60.55155563354492 L 7275.5 60.55134201049805 L 7344.16650390625 60.550697326660156 L 7412.83349609375 60.548065185546875 L 7481.5 60.539859771728516 L 7550.16650390625 60.522911071777344 L 7618.83349609375 60.50885009765625 L 7687.5 60.5047721862793 L 7756.16650390625 60.503170013427734 L 7824.83349609375 60.50220489501953 L 7893.5 60.501609802246094 L 7962.16650390625 60.50123977661133 L 8030.83349609375 60.50104522705078 L 8099.5 60.50083923339844 L 8168.16650390625 60.50064468383789 L 8236.8330078125 60.50053787231445 L 8305.5 60.500431060791016 L 8374.1669921875 60.500370025634766 L 8442.8330078125 60.50033187866211 L 8511.5 60.500274658203125 L 8580.1669921875 60.50022506713867 L 8648.8330078125 60.500205993652344 L 8717.5 60.50017547607422 L 8786.1669921875 60.50015640258789 L 8854.8330078125 60.500118255615234 L 8923.5 60.50008773803711 L 8992.1669921875 60.50007629394531 L 9060.8330078125 60.50006866455078 L 9129.5 60.50004959106445 L 9198.1669921875 60.50004959106445 L 9266.8330078125 60.50004959106445 L 9335.5 60.50004959106445 L 9404.1669921875 60.50004959106445 L 9472.8330078125 60.50004959106445 L 9541.5 60.500030517578125 L 9610.1669921875 60.500030517578125 L 9678.8330078125 60.500030517578125 L 9747.5 60.500030517578125 L 9816.1669921875 60.500030517578125 L 9884.8330078125 60.50001907348633 L 9953.5 60.50001907348633 L 10022.1669921875 60.50001907348633 L 10090.8330078125 60.5000114440918 L 10159.5 60.5000114440918 L 10228.1669921875 60.5000114440918 L 10296.8330078125 60.5000114440918 L 10365.5 60.5000114440918 L 10434.1669921875 60.5000114440918 L 10502.8330078125 60.5000114440918 L 10571.5 60.5000114440918 L 10640.1669921875 60.5" stroke-opacity="1" stroke-linejoin="bevel" stroke-miterlimit="10" stroke-width="2" stroke-dasharray="" clip-path="url(#WITneonSimgG)"/><path fill="none" stroke="rgb(0,0,0)" paint-order="fill" d="M 65.5 545.5 L 683.5 545.5" stroke-opacity="1" stroke-linejoin="bevel" stroke-miterlimit="10" stroke-dasharray=""/><path fill="none" stroke="rgb(0,0,0)" paint-order="fill" d="M 65.5 551.5 L 65.5 543.5 M 202.5 551.5 L 202.5 543.5 M 340.5 551.5 L 340.5 543.5 M 477.5 551.5 L 477.5 543.5 M 614.5 551.5 L 614.5 543.5" stroke-opacity="1" stroke-linejoin="bevel" stroke-miterlimit="10" stroke-dasharray=""/><path fill="none" stroke="rgb(0,0,0)" paint-order="fill" d="M 65.5 549.5 L 65.5 545.5 M 92.5 549.5 L 92.5 545.5 M 120.5 549.5 L 120.5 545.5 M 147.5 549.5 L 147.5 545.5 M 175.5 549.5 L 175.5 545.5 M 202.5 549.5 L 202.5 545.5 M 230.5 549.5 L 230.5 545.5 M 257.5 549.5 L 257.5 545.5 M 285.5 549.5 L 285.5 545.5 M 312.5 549.5 L 312.5 545.5 M 340.5 549.5 L 340.5 545.5 M 367.5 549.5 L 367.5 545.5 M 395.5 549.5 L 395.5 545.5 M 422.5 549.5 L 422.5 545.5 M 450.5 549.5 L 450.5 545.5 M 477.5 549.5 L 477.5 545.5 M 504.5 549.5 L 504.5 545.5 M 532.5 549.5 L 532.5 545.5 M 559.5 549.5 L 559.5 545.5 M 587.5 549.5 L 587.5 545.5 M 614.5 549.5 L 614.5 545.5 M 642.5 549.5 L 642.5 545.5 M 669.5 549.5 L 669.5 545.5" stroke-opacity="1" stroke-linejoin="bevel" stroke-miterlimit="10" stroke-dasharray=""/><text fill="rgb(68,68,68)" stroke="none" font-family="helvetica" font-size="12pt" font-style="normal" font-weight="normal" text-decoration="normal" x="60.55078125" y="568" text-anchor="start" dominant-baseline="alphabetic" transform="matrix(1, 0, 0, 1, 0.5, 0.5)" fill-opacity="1">0</text><text fill="rgb(68,68,68)" stroke="none" font-family="helvetica" font-size="12pt" font-style="normal" font-weight="normal" text-decoration="normal" x="197.8841094970703" y="568" text-anchor="start" dominant-baseline="alphabetic" transform="matrix(1, 0, 0, 1, 0.5, 0.5)" fill-opacity="1">2</text><text fill="rgb(68,68,68)" stroke="none" font-family="helvetica" font-size="12pt" font-style="normal" font-weight="normal" text-decoration="normal" x="335.2174377441406" y="568" text-anchor="start" dominant-baseline="alphabetic" transform="matrix(1, 0, 0, 1, 0.5, 0.5)" fill-opacity="1">4</text><text fill="rgb(68,68,68)" stroke="none" font-family="helvetica" font-size="12pt" font-style="normal" font-weight="normal" text-decoration="normal" x="472.55078125" y="568" text-anchor="start" dominant-baseline="alphabetic" transform="matrix(1, 0, 0, 1, 0.5, 0.5)" fill-opacity="1">6</text><text fill="rgb(68,68,68)" stroke="none" font-family="helvetica" font-size="12pt" font-style="normal" font-weight="normal" text-decoration="normal" x="609.8840942382812" y="568" text-anchor="start" dominant-baseline="alphabetic" transform="matrix(1, 0, 0, 1, 0.5, 0.5)" fill-opacity="1">8</text><text fill="rgb(68,68,68)" stroke="none" font-family="helvetica" font-size="14pt" font-style="italic" font-weight="normal" text-decoration="normal" x="283.27396392822266" y="593" text-anchor="start" dominant-baseline="alphabetic" transform="matrix(1, 0, 0, 1, 0.5, 0.5)" fill-opacity="1">NT hamming distance</text><path fill="none" stroke="rgb(0,0,0)" paint-order="fill" d="M 65.5 545.5 L 65.5 60.5" stroke-opacity="1" stroke-linejoin="bevel" stroke-miterlimit="10" stroke-dasharray=""/><path fill="none" stroke="rgb(0,0,0)" paint-order="fill" d="M 59.5 545.5 L 67.5 545.5 M 59.5 448.5 L 67.5 448.5 M 59.5 351.5 L 67.5 351.5 M 59.5 254.5 L 67.5 254.5 M 59.5 157.5 L 67.5 157.5 M 59.5 60.5 L 67.5 60.5" stroke-opacity="1" stroke-linejoin="bevel" stroke-miterlimit="10" stroke-dasharray=""/><path fill="none" stroke="rgb(0,0,0)" paint-order="fill" d="M 61.5 545.5 L 65.5 545.5 M 61.5 526.5 L 65.5 526.5 M 61.5 506.5 L 65.5 506.5 M 61.5 487.5 L 65.5 487.5 M 61.5 467.5 L 65.5 467.5 M 61.5 448.5 L 65.5 448.5 M 61.5 429.5 L 65.5 429.5 M 61.5 409.5 L 65.5 409.5 M 61.5 390.5 L 65.5 390.5 M 61.5 370.5 L 65.5 370.5 M 61.5 351.5 L 65.5 351.5 M 61.5 332.5 L 65.5 332.5 M 61.5 312.5 L 65.5 312.5 M 61.5 293.5 L 65.5 293.5 M 61.5 273.5 L 65.5 273.5 M 61.5 254.5 L 65.5 254.5 M 61.5 235.5 L 65.5 235.5 M 61.5 215.5 L 65.5 215.5 M 61.5 196.5 L 65.5 196.5 M 61.5 176.5 L 65.5 176.5 M 61.5 157.5 L 65.5 157.5 M 61.5 138.5 L 65.5 138.5 M 61.5 118.5 L 65.5 118.5 M 61.5 99.5 L 65.5 99.5 M 61.5 79.5 L 65.5 79.5 M 61.5 60.5 L 65.5 60.5" stroke-opacity="1" stroke-linejoin="bevel" stroke-miterlimit="10" stroke-dasharray=""/><text fill="rgb(68,68,68)" stroke="none" font-family="helvetica" font-size="12pt" font-style="normal" font-weight="normal" text-decoration="normal" x="45.1015625" y="551" text-anchor="start" dominant-baseline="alphabetic" transform="matrix(1, 0, 0, 1, 0.5, 0.5)" fill-opacity="1">0</text><text fill="rgb(68,68,68)" stroke="none" font-family="helvetica" font-size="12pt" font-style="normal" font-weight="normal" text-decoration="normal" x="31.7578125" y="454" text-anchor="start" dominant-baseline="alphabetic" transform="matrix(1, 0, 0, 1, 0.5, 0.5)" fill-opacity="1">0.2</text><text fill="rgb(68,68,68)" stroke="none" font-family="helvetica" font-size="12pt" font-style="normal" font-weight="normal" text-decoration="normal" x="31.7578125" y="357" text-anchor="start" dominant-baseline="alphabetic" transform="matrix(1, 0, 0, 1, 0.5, 0.5)" fill-opacity="1">0.4</text><text fill="rgb(68,68,68)" stroke="none" font-family="helvetica" font-size="12pt" font-style="normal" font-weight="normal" text-decoration="normal" x="31.7578125" y="260" text-anchor="start" dominant-baseline="alphabetic" transform="matrix(1, 0, 0, 1, 0.5, 0.5)" fill-opacity="1">0.6</text><text fill="rgb(68,68,68)" stroke="none" font-family="helvetica" font-size="12pt" font-style="normal" font-weight="normal" text-decoration="normal" x="31.7578125" y="163" text-anchor="start" dominant-baseline="alphabetic" transform="matrix(1, 0, 0, 1, 0.5, 0.5)" fill-opacity="1">0.8</text><text fill="rgb(68,68,68)" stroke="none" font-family="helvetica" font-size="12pt" font-style="normal" font-weight="normal" text-decoration="normal" x="45.1015625" y="66" text-anchor="start" dominant-baseline="alphabetic" transform="matrix(1, 0, 0, 1, 0.5, 0.5)" fill-opacity="1">1</text><text fill="rgb(68,68,68)" stroke="none" font-family="helvetica" font-size="14pt" font-style="italic" font-weight="normal" text-decoration="normal" x="-64.38568115234375" y="298.5" text-anchor="start" dominant-baseline="alphabetic" transform="matrix(6.123233995736766e-17, -1, 1, 6.123233995736766e-17, -278.2421875, 326.7578125)" fill-opacity="1">cumulative frequency</text><path fill="rgb(255,255,255)" stroke="rgb(229,229,229)" paint-order="fill" d="M 683.5 436.5 L 750.18994140625 436.5 L 750.18994140625 545.5 L 683.5 545.5 L 683.5 436.5" fill-opacity="0.9490196078431372" stroke-opacity="0.5019607843137255" stroke-linejoin="bevel" stroke-miterlimit="10" stroke-dasharray=""/><text fill="rgb(68,68,68)" stroke="none" font-family="helvetica" font-size="13px" font-style="normal" font-weight="normal" text-decoration="normal" x="718" y="456" text-anchor="start" dominant-baseline="central" transform="matrix(1, 0, 0, 1, 0.5, 0.5)" fill-opacity="1">40</text><path fill="none" stroke="rgb(0,12,124)" paint-order="fill" d="M 693.5 456.5 L 713.5 456.5" stroke-opacity="1" stroke-linejoin="bevel" stroke-miterlimit="10" stroke-width="2" stroke-dasharray=""/><text fill="rgb(68,68,68)" stroke="none" font-family="helvetica" font-size="13px" font-style="normal" font-weight="normal" text-decoration="normal" x="718" y="479" text-anchor="start" dominant-baseline="central" transform="matrix(1, 0, 0, 1, 0.5, 0.5)" fill-opacity="1">100</text><path fill="none" stroke="rgb(168,0,139)" paint-order="fill" d="M 693.5 479.5 L 713.5 479.5" stroke-opacity="1" stroke-linejoin="bevel" stroke-miterlimit="10" stroke-width="2" stroke-dasharray=""/><text fill="rgb(68,68,68)" stroke="none" font-family="helvetica" font-size="13px" font-style="normal" font-weight="normal" text-decoration="normal" x="718" y="502" text-anchor="start" dominant-baseline="central" transform="matrix(1, 0, 0, 1, 0.5, 0.5)" fill-opacity="1">140</text><path fill="none" stroke="rgb(255,113,82)" paint-order="fill" d="M 693.5 502.5 L 713.5 502.5" stroke-opacity="1" stroke-linejoin="bevel" stroke-miterlimit="10" stroke-width="2" stroke-dasharray=""/><text fill="rgb(68,68,68)" stroke="none" font-family="helvetica" font-size="13px" font-style="normal" font-weight="normal" text-decoration="normal" x="718" y="525" text-anchor="start" dominant-baseline="central" transform="matrix(1, 0, 0, 1, 0.5, 0.5)" fill-opacity="1">170</text><path fill="none" stroke="rgb(255,241,35)" paint-order="fill" d="M 693.5 525.5 L 713.5 525.5" stroke-opacity="1" stroke-linejoin="bevel" stroke-miterlimit="10" stroke-width="2" stroke-dasharray=""/><text fill="rgb(68,68,68)" stroke="none" font-family="helvetica" font-size="16pt" font-style="normal" font-weight="bold" text-decoration="normal" x="65" y="26" text-anchor="start" dominant-baseline="alphabetic" transform="matrix(1, 0, 0, 1, 0.5, 0.5)" fill-opacity="1">NT hamming distance among sequence pairs, cumulative distribution</text><text fill="rgb(68,68,68)" stroke="none" font-family="helvetica" font-size="16pt" font-style="normal" font-weight="bold" text-decoration="normal" x="65" y="50" text-anchor="start" dominant-baseline="alphabetic" transform="matrix(1, 0, 0, 1, 0.5, 0.5)" fill-opacity="1">sample: TPDNAP-4-2</text></svg>