<svg version="1.1" xmlns="http://www.w3.org/2000/svg" width="300" height="400"><defs><clipPath id="yZThRLAtLbyT"><path fill="none" stroke="none" d="M 68.5 10.5 L 270.5 10.5 L 270.5 279.5 L 68.5 279.5 L 68.5 10.5"/></clipPath><clipPath id="vaLysxUaUGQd"><path fill="none" stroke="none" d="M 68.5 10.5 L 270.5 10.5 L 270.5 279.5 L 68.5 279.5 L 68.5 10.5"/></clipPath><clipPath id="AkxgLTQRGllp"><path fill="none" stroke="none" d="M 68.5 10.5 L 270.5 10.5 L 270.5 279.5 L 68.5 279.5 L 68.5 10.5"/></clipPath><clipPath id="VoHbFxKfEAHd"><path fill="none" stroke="none" d="M 68.5 10.5 L 270.5 10.5 L 270.5 279.5 L 68.5 279.5 L 68.5 10.5"/></clipPath><clipPath id="iMMysuWFSJgA"><path fill="none" stroke="none" d="M 68.5 10.5 L 270.5 10.5 L 270.5 279.5 L 68.5 279.5 L 68.5 10.5"/></clipPath><clipPath id="ffqeeulKiTiX"><path fill="none" stroke="none" d="M 68.5 10.5 L 270.5 10.5 L 270.5 279.5 L 68.5 279.5 L 68.5 10.5"/></clipPath><clipPath id="PnQTUacTgGID"><path fill="none" stroke="none" d="M 68.5 10.5 L 270.5 10.5 L 270.5 279.5 L 68.5 279.5 L 68.5 10.5"/></clipPath><clipPath id="amRQPKRcTyMH"><path fill="none" stroke="none" d="M 68.5 10.5 L 270.5 10.5 L 270.5 279.5 L 68.5 279.5 L 68.5 10.5"/></clipPath><clipPath id="nTxIlPvedLAO"><path fill="none" stroke="none" d="M 68.5 10.5 L 270.5 10.5 L 270.5 279.5 L 68.5 279.5 L 68.5 10.5"/></clipPath><clipPath id="uGwgvgmtSQcf"><path fill="none" stroke="none" d="M 68.5 10.5 L 270.5 10.5 L 270.5 279.5 L 68.5 279.5 L 68.5 10.5"/></clipPath><clipPath id="EykfuTxhWCfS"><path fill="none" stroke="none" d="M 68.5 10.5 L 270.5 10.5 L 270.5 279.5 L 68.5 279.5 L 68.5 10.5"/></clipPath><clipPath id="ofGEgpmytgrP"><path fill="none" stroke="none" d="M 68.5 10.5 L 270.5 10.5 L 270.5 279.5 L 68.5 279.5 L 68.5 10.5"/></clipPath><clipPath id="vtkaTGUZQufX"><path fill="none" stroke="none" d="M 68.5 10.5 L 270.5 10.5 L 270.5 279.5 L 68.5 279.5 L 68.5 10.5"/></clipPath><clipPath id="LWWtsVKVhRmw"><path fill="none" stroke="none" d="M 68.5 10.5 L 270.5 10.5 L 270.5 279.5 L 68.5 279.5 L 68.5 10.5"/></clipPath><clipPath id="GlSAIhxMdRIc"><path fill="none" stroke="none" d="M 68.5 10.5 L 270.5 10.5 L 270.5 279.5 L 68.5 279.5 L 68.5 10.5"/></clipPath><clipPath id="ttUONQEEUknW"><path fill="none" stroke="none" d="M 68.5 10.5 L 270.5 10.5 L 270.5 279.5 L 68.5 279.5 L 68.5 10.5"/></clipPath><clipPath id="ftUPkPhzBVrK"><path fill="none" stroke="none" d="M 68.5 10.5 L 270.5 10.5 L 270.5 279.5 L 68.5 279.5 L 68.5 10.5"/></clipPath><clipPath id="kRQKcbIQipQy"><path fill="none" stroke="none" d="M 68.5 10.5 L 270.5 10.5 L 270.5 279.5 L 68.5 279.5 L 68.5 10.5"/></clipPath><clipPath id="sBvuQEIncusr"><path fill="none" stroke="none" d="M 68.5 10.5 L 270.5 10.5 L 270.5 279.5 L 68.5 279.5 L 68.5 10.5"/></clipPath><clipPath id="oszTLxyikWOa"><path fill="none" stroke="none" d="M 68.5 10.5 L 270.5 10.5 L 270.5 279.5 L 68.5 279.5 L 68.5 10.5"/></clipPath><clipPath id="SaVzwAbFKhEQ"><path fill="none" stroke="none" d="M 68.5 10.5 L 270.5 10.5 L 270.5 279.5 L 68.5 279.5 L 68.5 10.5"/></clipPath></defs><path fill="rgb(255,255,255)" stroke="none" paint-order="stroke" d="M 0.5 0.5 L 300.5 0.5 L 300.5 400.5 L 0.5 400.5 L 0.5 0.5" fill-opacity="1"/><rect fill="#FFFFFF" stroke="none" x="68" y="10" width="202" height="269" transform="matrix(1, 0, 0, 1, 0.5, 0.5)"/><path fill="rgb(255,255,255)" stroke="none" paint-order="stroke" d="M 68.5 10.5 L 270.5 10.5 L 270.5 279.5 L 68.5 279.5 L 68.5 10.5" fill-opacity="1"/><path fill="none" stroke="rgb(229,229,229)" paint-order="fill" d="M 68.5 10.5 L 270.5 10.5 L 270.5 279.5 L 68.5 279.5 L 68.5 10.5" stroke-opacity="1" stroke-linejoin="bevel" stroke-miterlimit="10" stroke-dasharray=""/><path fill="none" stroke="rgb(211,211,211)" paint-order="fill" d="M 68.5 451.2397640877326 L 270.5 451.2397640877326" stroke-opacity="1" stroke-linejoin="bevel" stroke-miterlimit="10" stroke-width="3" stroke-dasharray="6" clip-path="url(#AkxgLTQRGllp)"/><path fill="none" stroke="rgb(211,211,211)" paint-order="fill" d="M 68.5 393.9931760584884 L 270.5 393.9931760584884" stroke-opacity="1" stroke-linejoin="bevel" stroke-miterlimit="10" stroke-width="3" stroke-dasharray="6" clip-path="url(#VoHbFxKfEAHd)"/><path fill="none" stroke="rgb(211,211,211)" paint-order="fill" d="M 68.5 336.74658802924415 L 270.5 336.74658802924415" stroke-opacity="1" stroke-linejoin="bevel" stroke-miterlimit="10" stroke-width="3" stroke-dasharray="6" clip-path="url(#iMMysuWFSJgA)"/><path fill="none" stroke="rgb(211,211,211)" paint-order="fill" d="M 68.5 279.5 L 270.5 279.5" stroke-opacity="1" stroke-linejoin="bevel" stroke-miterlimit="10" stroke-width="3" stroke-dasharray="6" clip-path="url(#ffqeeulKiTiX)"/><path fill="none" stroke="rgb(211,211,211)" paint-order="fill" d="M 68.5 222.25341197075576 L 270.5 222.25341197075576" stroke-opacity="1" stroke-linejoin="bevel" stroke-miterlimit="10" stroke-width="3" stroke-dasharray="6" clip-path="url(#PnQTUacTgGID)"/><path fill="none" stroke="rgb(211,211,211)" paint-order="fill" d="M 68.5 165.00682394151153 L 270.5 165.00682394151153" stroke-opacity="1" stroke-linejoin="bevel" stroke-miterlimit="10" stroke-width="3" stroke-dasharray="6" clip-path="url(#amRQPKRcTyMH)"/><path fill="none" stroke="rgb(211,211,211)" paint-order="fill" d="M 68.5 107.76023591226732 L 270.5 107.76023591226732" stroke-opacity="1" stroke-linejoin="bevel" stroke-miterlimit="10" stroke-width="3" stroke-dasharray="6" clip-path="url(#nTxIlPvedLAO)"/><path fill="none" stroke="rgb(211,211,211)" paint-order="fill" d="M 68.5 50.51364788302308 L 270.5 50.51364788302308" stroke-opacity="1" stroke-linejoin="bevel" stroke-miterlimit="10" stroke-width="3" stroke-dasharray="6" clip-path="url(#uGwgvgmtSQcf)"/><path fill="none" stroke="rgb(211,211,211)" paint-order="fill" d="M 68.5 -6.732940146221097 L 270.5 -6.732940146221097" stroke-opacity="1" stroke-linejoin="bevel" stroke-miterlimit="10" stroke-width="3" stroke-dasharray="6" clip-path="url(#EykfuTxhWCfS)"/><path fill="none" stroke="rgb(211,211,211)" paint-order="fill" d="M 68.5 -63.97952817546536 L 270.5 -63.97952817546536" stroke-opacity="1" stroke-linejoin="bevel" stroke-miterlimit="10" stroke-width="3" stroke-dasharray="6" clip-path="url(#ofGEgpmytgrP)"/><path fill="none" stroke="rgb(0,0,0)" paint-order="fill" d="M 85.33333587646484 112.62943267822266 L 85.33333587646484 113.77323913574219" stroke-opacity="1" stroke-linejoin="bevel" stroke-miterlimit="10" stroke-dasharray="" clip-path="url(#LWWtsVKVhRmw)"/><path fill="none" stroke="rgb(0,0,0)" paint-order="fill" d="M 119 123.12639617919922 L 119 123.63379669189453" stroke-opacity="1" stroke-linejoin="bevel" stroke-miterlimit="10" stroke-dasharray="" clip-path="url(#LWWtsVKVhRmw)"/><path fill="none" stroke="rgb(0,0,0)" paint-order="fill" d="M 152.6666717529297 111.46114349365234 L 152.6666717529297 111.46114349365234" stroke-opacity="1" stroke-linejoin="bevel" stroke-miterlimit="10" stroke-dasharray="" clip-path="url(#LWWtsVKVhRmw)"/><path fill="none" stroke="rgb(0,0,0)" paint-order="fill" d="M 186.3333282470703 94.84953308105469 L 186.3333282470703 94.84953308105469" stroke-opacity="1" stroke-linejoin="bevel" stroke-miterlimit="10" stroke-dasharray="" clip-path="url(#LWWtsVKVhRmw)"/><path fill="none" stroke="rgb(0,0,0)" paint-order="fill" d="M 220 121.91820526123047 L 220 121.91820526123047" stroke-opacity="1" stroke-linejoin="bevel" stroke-miterlimit="10" stroke-dasharray="" clip-path="url(#LWWtsVKVhRmw)"/><path fill="none" stroke="rgb(0,0,0)" paint-order="fill" d="M 253.6666717529297 117.2745361328125 L 253.6666717529297 117.2745361328125" stroke-opacity="1" stroke-linejoin="bevel" stroke-miterlimit="10" stroke-dasharray="" clip-path="url(#LWWtsVKVhRmw)"/><path fill="none" stroke="rgb(0,0,0)" paint-order="fill" d="M 85.33333587646484 117.55894470214844 L 85.33333587646484 116.23194885253906" stroke-opacity="1" stroke-linejoin="bevel" stroke-miterlimit="10" stroke-dasharray="" clip-path="url(#GlSAIhxMdRIc)"/><path fill="none" stroke="rgb(0,0,0)" paint-order="fill" d="M 119 125.22127532958984 L 119 124.68077850341797" stroke-opacity="1" stroke-linejoin="bevel" stroke-miterlimit="10" stroke-dasharray="" clip-path="url(#GlSAIhxMdRIc)"/><path fill="none" stroke="rgb(0,0,0)" paint-order="fill" d="M 152.6666717529297 111.46114349365234 L 152.6666717529297 111.46114349365234" stroke-opacity="1" stroke-linejoin="bevel" stroke-miterlimit="10" stroke-dasharray="" clip-path="url(#GlSAIhxMdRIc)"/><path fill="none" stroke="rgb(0,0,0)" paint-order="fill" d="M 186.3333282470703 94.84953308105469 L 186.3333282470703 94.84953308105469" stroke-opacity="1" stroke-linejoin="bevel" stroke-miterlimit="10" stroke-dasharray="" clip-path="url(#GlSAIhxMdRIc)"/><path fill="none" stroke="rgb(0,0,0)" paint-order="fill" d="M 220 121.91820526123047 L 220 121.91820526123047" stroke-opacity="1" stroke-linejoin="bevel" stroke-miterlimit="10" stroke-dasharray="" clip-path="url(#GlSAIhxMdRIc)"/><path fill="none" stroke="rgb(0,0,0)" paint-order="fill" d="M 253.6666717529297 117.2745361328125 L 253.6666717529297 117.2745361328125" stroke-opacity="1" stroke-linejoin="bevel" stroke-miterlimit="10" stroke-dasharray="" clip-path="url(#GlSAIhxMdRIc)"/><path fill="none" stroke="rgb(0,0,0)" paint-order="fill" d="M 78.5999984741211 117.55894470214844 L 92.06666564941406 117.55894470214844" stroke-opacity="1" stroke-linejoin="bevel" stroke-miterlimit="10" stroke-dasharray="" clip-path="url(#ttUONQEEUknW)"/><path fill="none" stroke="rgb(0,0,0)" paint-order="fill" d="M 112.26666259765625 125.22127532958984 L 125.73333740234375 125.22127532958984" stroke-opacity="1" stroke-linejoin="bevel" stroke-miterlimit="10" stroke-dasharray="" clip-path="url(#ttUONQEEUknW)"/><path fill="none" stroke="rgb(0,0,0)" paint-order="fill" d="M 145.93333435058594 111.46114349365234 L 159.40000915527344 111.46114349365234" stroke-opacity="1" stroke-linejoin="bevel" stroke-miterlimit="10" stroke-dasharray="" clip-path="url(#ttUONQEEUknW)"/><path fill="none" stroke="rgb(0,0,0)" paint-order="fill" d="M 179.59999084472656 94.84953308105469 L 193.06666564941406 94.84953308105469" stroke-opacity="1" stroke-linejoin="bevel" stroke-miterlimit="10" stroke-dasharray="" clip-path="url(#ttUONQEEUknW)"/><path fill="none" stroke="rgb(0,0,0)" paint-order="fill" d="M 213.2666778564453 121.91820526123047 L 226.7333221435547 121.91820526123047" stroke-opacity="1" stroke-linejoin="bevel" stroke-miterlimit="10" stroke-dasharray="" clip-path="url(#ttUONQEEUknW)"/><path fill="none" stroke="rgb(0,0,0)" paint-order="fill" d="M 246.93333435058594 117.2745361328125 L 260.3999938964844 117.2745361328125" stroke-opacity="1" stroke-linejoin="bevel" stroke-miterlimit="10" stroke-dasharray="" clip-path="url(#ttUONQEEUknW)"/><path fill="none" stroke="rgb(0,0,0)" paint-order="fill" d="M 78.5999984741211 112.62943267822266 L 92.06666564941406 112.62943267822266" stroke-opacity="1" stroke-linejoin="bevel" stroke-miterlimit="10" stroke-dasharray="" clip-path="url(#ftUPkPhzBVrK)"/><path fill="none" stroke="rgb(0,0,0)" paint-order="fill" d="M 112.26666259765625 123.12639617919922 L 125.73333740234375 123.12639617919922" stroke-opacity="1" stroke-linejoin="bevel" stroke-miterlimit="10" stroke-dasharray="" clip-path="url(#ftUPkPhzBVrK)"/><path fill="none" stroke="rgb(0,0,0)" paint-order="fill" d="M 145.93333435058594 111.46114349365234 L 159.40000915527344 111.46114349365234" stroke-opacity="1" stroke-linejoin="bevel" stroke-miterlimit="10" stroke-dasharray="" clip-path="url(#ftUPkPhzBVrK)"/><path fill="none" stroke="rgb(0,0,0)" paint-order="fill" d="M 179.59999084472656 94.84953308105469 L 193.06666564941406 94.84953308105469" stroke-opacity="1" stroke-linejoin="bevel" stroke-miterlimit="10" stroke-dasharray="" clip-path="url(#ftUPkPhzBVrK)"/><path fill="none" stroke="rgb(0,0,0)" paint-order="fill" d="M 213.2666778564453 121.91820526123047 L 226.7333221435547 121.91820526123047" stroke-opacity="1" stroke-linejoin="bevel" stroke-miterlimit="10" stroke-dasharray="" clip-path="url(#ftUPkPhzBVrK)"/><path fill="none" stroke="rgb(0,0,0)" paint-order="fill" d="M 246.93333435058594 117.2745361328125 L 260.3999938964844 117.2745361328125" stroke-opacity="1" stroke-linejoin="bevel" stroke-miterlimit="10" stroke-dasharray="" clip-path="url(#ftUPkPhzBVrK)"/><path fill="rgb(128,128,128)" stroke="rgb(0,0,0)" paint-order="fill" d="M 73.55000305175781 114.97221374511719 L 97.11666870117188 114.97221374511719 L 97.11666870117188 113.77323913574219 L 73.55000305175781 113.77323913574219 L 73.55000305175781 114.97221374511719" fill-opacity="1" clip-path="url(#kRQKcbIQipQy)" stroke-opacity="1" stroke-linejoin="bevel" stroke-miterlimit="10" stroke-dasharray=""/><path fill="rgb(128,128,128)" stroke="rgb(0,0,0)" paint-order="fill" d="M 107.21666717529297 124.15177917480469 L 130.78334045410156 124.15177917480469 L 130.78334045410156 123.63379669189453 L 107.21666717529297 123.63379669189453 L 107.21666717529297 124.15177917480469" fill-opacity="1" clip-path="url(#kRQKcbIQipQy)" stroke-opacity="1" stroke-linejoin="bevel" stroke-miterlimit="10" stroke-dasharray=""/><path fill="rgb(128,128,128)" stroke="rgb(0,0,0)" paint-order="fill" d="M 140.88333129882812 111.46114349365234 L 164.45001220703125 111.46114349365234 L 164.45001220703125 111.46114349365234 L 140.88333129882812 111.46114349365234 L 140.88333129882812 111.46114349365234" fill-opacity="1" clip-path="url(#kRQKcbIQipQy)" stroke-opacity="1" stroke-linejoin="bevel" stroke-miterlimit="10" stroke-dasharray=""/><path fill="rgb(128,128,128)" stroke="rgb(0,0,0)" paint-order="fill" d="M 174.54998779296875 94.84953308105469 L 198.11666870117188 94.84953308105469 L 198.11666870117188 94.84953308105469 L 174.54998779296875 94.84953308105469 L 174.54998779296875 94.84953308105469" fill-opacity="1" clip-path="url(#kRQKcbIQipQy)" stroke-opacity="1" stroke-linejoin="bevel" stroke-miterlimit="10" stroke-dasharray=""/><path fill="rgb(128,128,128)" stroke="rgb(0,0,0)" paint-order="fill" d="M 208.21665954589844 121.91820526123047 L 231.78334045410156 121.91820526123047 L 231.78334045410156 121.91820526123047 L 208.21665954589844 121.91820526123047 L 208.21665954589844 121.91820526123047" fill-opacity="1" clip-path="url(#kRQKcbIQipQy)" stroke-opacity="1" stroke-linejoin="bevel" stroke-miterlimit="10" stroke-dasharray=""/><path fill="rgb(128,128,128)" stroke="rgb(0,0,0)" paint-order="fill" d="M 241.88333129882812 117.2745361328125 L 265.45001220703125 117.2745361328125 L 265.45001220703125 117.2745361328125 L 241.88333129882812 117.2745361328125 L 241.88333129882812 117.2745361328125" fill-opacity="1" clip-path="url(#kRQKcbIQipQy)" stroke-opacity="1" stroke-linejoin="bevel" stroke-miterlimit="10" stroke-dasharray=""/><path fill="rgb(128,128,128)" stroke="rgb(0,0,0)" paint-order="fill" d="M 73.55000305175781 116.23194885253906 L 97.11666870117188 116.23194885253906 L 97.11666870117188 114.97221374511719 L 73.55000305175781 114.97221374511719 L 73.55000305175781 116.23194885253906" fill-opacity="1" clip-path="url(#sBvuQEIncusr)" stroke-opacity="1" stroke-linejoin="bevel" stroke-miterlimit="10" stroke-dasharray=""/><path fill="rgb(128,128,128)" stroke="rgb(0,0,0)" paint-order="fill" d="M 107.21666717529297 124.68077850341797 L 130.78334045410156 124.68077850341797 L 130.78334045410156 124.15177917480469 L 107.21666717529297 124.15177917480469 L 107.21666717529297 124.68077850341797" fill-opacity="1" clip-path="url(#sBvuQEIncusr)" stroke-opacity="1" stroke-linejoin="bevel" stroke-miterlimit="10" stroke-dasharray=""/><path fill="rgb(128,128,128)" stroke="rgb(0,0,0)" paint-order="fill" d="M 140.88333129882812 111.46114349365234 L 164.45001220703125 111.46114349365234 L 164.45001220703125 111.46114349365234 L 140.88333129882812 111.46114349365234 L 140.88333129882812 111.46114349365234" fill-opacity="1" clip-path="url(#sBvuQEIncusr)" stroke-opacity="1" stroke-linejoin="bevel" stroke-miterlimit="10" stroke-dasharray=""/><path fill="rgb(128,128,128)" stroke="rgb(0,0,0)" paint-order="fill" d="M 174.54998779296875 94.84953308105469 L 198.11666870117188 94.84953308105469 L 198.11666870117188 94.84953308105469 L 174.54998779296875 94.84953308105469 L 174.54998779296875 94.84953308105469" fill-opacity="1" clip-path="url(#sBvuQEIncusr)" stroke-opacity="1" stroke-linejoin="bevel" stroke-miterlimit="10" stroke-dasharray=""/><path fill="rgb(128,128,128)" stroke="rgb(0,0,0)" paint-order="fill" d="M 208.21665954589844 121.91820526123047 L 231.78334045410156 121.91820526123047 L 231.78334045410156 121.91820526123047 L 208.21665954589844 121.91820526123047 L 208.21665954589844 121.91820526123047" fill-opacity="1" clip-path="url(#sBvuQEIncusr)" stroke-opacity="1" stroke-linejoin="bevel" stroke-miterlimit="10" stroke-dasharray=""/><path fill="rgb(128,128,128)" stroke="rgb(0,0,0)" paint-order="fill" d="M 241.88333129882812 117.2745361328125 L 265.45001220703125 117.2745361328125 L 265.45001220703125 117.2745361328125 L 241.88333129882812 117.2745361328125 L 241.88333129882812 117.2745361328125" fill-opacity="1" clip-path="url(#sBvuQEIncusr)" stroke-opacity="1" stroke-linejoin="bevel" stroke-miterlimit="10" stroke-dasharray=""/><path fill="rgb(0,0,0)" stroke="rgb(0,0,0)" paint-order="fill" d="M 88.04903411865234 112.62943267822266 A 3 3 0 0 1 82.04903411865234 112.62943267822266 A 3 3 0 0 1 88.04903411865234 112.62943267822266" fill-opacity="0.7019607843137254" clip-path="url(#oszTLxyikWOa)" stroke-opacity="0.7019607843137254" stroke-linejoin="bevel" stroke-miterlimit="10" stroke-dasharray=""/><path fill="rgb(0,0,0)" stroke="rgb(0,0,0)" paint-order="fill" d="M 85.32882690429688 117.55894470214844 A 3 3 0 0 1 79.32882690429688 117.55894470214844 A 3 3 0 0 1 85.32882690429688 117.55894470214844" fill-opacity="0.7019607843137254" clip-path="url(#oszTLxyikWOa)" stroke-opacity="0.7019607843137254" stroke-linejoin="bevel" stroke-miterlimit="10" stroke-dasharray=""/><path fill="rgb(0,0,0)" stroke="rgb(0,0,0)" paint-order="fill" d="M 125.29239654541016 123.12639617919922 A 3 3 0 0 1 119.29239654541016 123.12639617919922 A 3 3 0 0 1 125.29239654541016 123.12639617919922" fill-opacity="0.7019607843137254" clip-path="url(#oszTLxyikWOa)" stroke-opacity="0.7019607843137254" stroke-linejoin="bevel" stroke-miterlimit="10" stroke-dasharray=""/><path fill="rgb(0,0,0)" stroke="rgb(0,0,0)" paint-order="fill" d="M 120.57102966308594 125.22127532958984 A 3 3 0 0 1 114.57102966308594 125.22127532958984 A 3 3 0 0 1 120.57102966308594 125.22127532958984" fill-opacity="0.7019607843137254" clip-path="url(#oszTLxyikWOa)" stroke-opacity="0.7019607843137254" stroke-linejoin="bevel" stroke-miterlimit="10" stroke-dasharray=""/><path fill="rgb(0,0,0)" stroke="rgb(0,0,0)" paint-order="fill" d="M 152.37509155273438 111.46114349365234 A 3 3 0 0 1 146.37509155273438 111.46114349365234 A 3 3 0 0 1 152.37509155273438 111.46114349365234" fill-opacity="0.7019607843137254" clip-path="url(#oszTLxyikWOa)" stroke-opacity="0.7019607843137254" stroke-linejoin="bevel" stroke-miterlimit="10" stroke-dasharray=""/><path fill="rgb(0,0,0)" stroke="rgb(0,0,0)" paint-order="fill" d="M 190.27516174316406 94.84953308105469 A 3 3 0 0 1 184.27516174316406 94.84953308105469 A 3 3 0 0 1 190.27516174316406 94.84953308105469" fill-opacity="0.7019607843137254" clip-path="url(#oszTLxyikWOa)" stroke-opacity="0.7019607843137254" stroke-linejoin="bevel" stroke-miterlimit="10" stroke-dasharray=""/><path fill="rgb(0,0,0)" stroke="rgb(0,0,0)" paint-order="fill" d="M 224.10011291503906 121.91820526123047 A 3 3 0 0 1 218.10011291503906 121.91820526123047 A 3 3 0 0 1 224.10011291503906 121.91820526123047" fill-opacity="0.7019607843137254" clip-path="url(#oszTLxyikWOa)" stroke-opacity="0.7019607843137254" stroke-linejoin="bevel" stroke-miterlimit="10" stroke-dasharray=""/><path fill="rgb(0,0,0)" stroke="rgb(0,0,0)" paint-order="fill" d="M 253.39407348632812 117.2745361328125 A 3 3 0 0 1 247.39407348632812 117.2745361328125 A 3 3 0 0 1 253.39407348632812 117.2745361328125" fill-opacity="0.7019607843137254" clip-path="url(#oszTLxyikWOa)" stroke-opacity="0.7019607843137254" stroke-linejoin="bevel" stroke-miterlimit="10" stroke-dasharray=""/><path fill="none" stroke="rgb(0,0,0)" paint-order="fill" d="M 68.5 279.5 L 270.5 279.5" stroke-opacity="1" stroke-linejoin="bevel" stroke-miterlimit="10" stroke-dasharray=""/><path fill="none" stroke="rgb(0,0,0)" paint-order="fill" d="M 85.5 285.5 L 85.5 277.5 M 119.5 285.5 L 119.5 277.5 M 152.5 285.5 L 152.5 277.5 M 186.5 285.5 L 186.5 277.5 M 220.5 285.5 L 220.5 277.5 M 253.5 285.5 L 253.5 277.5" stroke-opacity="1" stroke-linejoin="bevel" stroke-miterlimit="10" stroke-dasharray=""/><path fill="none" stroke="rgb(0,0,0)" paint-order="fill" d="" stroke-opacity="1" stroke-linejoin="bevel" stroke-miterlimit="10" stroke-dasharray=""/><text fill="rgb(68,68,68)" stroke="none" font-family="helvetica" font-size="10pt" font-style="normal" font-weight="normal" text-decoration="normal" x="7.025138854980469" y="294.5" text-anchor="start" dominant-baseline="alphabetic" transform="matrix(0.3420201433256688, -0.9396926207859083, 0.9396926207859083, 0.3420201433256688, -216.19223384671164, 271.0314181553225)" fill-opacity="1">I777K-L900S</text><text fill="rgb(68,68,68)" stroke="none" font-family="helvetica" font-size="10pt" font-style="normal" font-weight="normal" text-decoration="normal" x="78.48306274414062" y="294.5" text-anchor="start" dominant-baseline="alphabetic" transform="matrix(0.3420201433256688, -0.9396926207859083, 0.9396926207859083, 0.3420201433256688, -194.04024701200512, 302.6677339986862)" fill-opacity="1">V405A</text><text fill="rgb(68,68,68)" stroke="none" font-family="helvetica" font-size="10pt" font-style="normal" font-weight="normal" text-decoration="normal" x="111.41433715820312" y="294.5" text-anchor="start" dominant-baseline="alphabetic" transform="matrix(0.3420201433256688, -0.9396926207859083, 0.9396926207859083, 0.3420201433256688, -171.8882551573107, 334.30405701133554)" fill-opacity="1">D460E</text><text fill="rgb(68,68,68)" stroke="none" font-family="helvetica" font-size="10pt" font-style="normal" font-weight="normal" text-decoration="normal" x="146.56478881835938" y="294.5" text-anchor="start" dominant-baseline="alphabetic" transform="matrix(0.3420201433256688, -0.9396926207859083, 0.9396926207859083, 0.3420201433256688, -149.73627334259214, 365.9403656854135)" fill-opacity="1">P680T</text><text fill="rgb(68,68,68)" stroke="none" font-family="helvetica" font-size="10pt" font-style="normal" font-weight="normal" text-decoration="normal" x="185.41822814941406" y="294.5" text-anchor="start" dominant-baseline="alphabetic" transform="matrix(0.3420201433256688, -0.9396926207859083, 0.9396926207859083, 0.3420201433256688, -127.58428148789767, 397.5766886980629)" fill-opacity="1">I726F</text><text fill="rgb(68,68,68)" stroke="none" font-family="helvetica" font-size="10pt" font-style="normal" font-weight="normal" text-decoration="normal" x="213.89813232421875" y="294.5" text-anchor="start" dominant-baseline="alphabetic" transform="matrix(0.3420201433256688, -0.9396926207859083, 0.9396926207859083, 0.3420201433256688, -105.43228963320325, 429.2130117107123)" fill-opacity="1">T698A</text><text fill="rgb(68,68,68)" stroke="none" font-family="helvetica" font-size="14pt" font-style="italic" font-weight="normal" text-decoration="normal" x="138.92955017089844" y="393.24609072762996" text-anchor="start" dominant-baseline="alphabetic" transform="matrix(1, 0, 0, 1, 0.5, 0.5)" fill-opacity="1">sample</text><path fill="none" stroke="rgb(0,0,0)" paint-order="fill" d="M 68.5 279.5 L 68.5 10.5" stroke-opacity="1" stroke-linejoin="bevel" stroke-miterlimit="10" stroke-dasharray=""/><path fill="none" stroke="rgb(0,0,0)" paint-order="fill" d="M 62.5 279.5 L 70.5 279.5 M 62.5 222.5 L 70.5 222.5 M 62.5 165.5 L 70.5 165.5 M 62.5 107.5 L 70.5 107.5 M 62.5 50.5 L 70.5 50.5" stroke-opacity="1" stroke-linejoin="bevel" stroke-miterlimit="10" stroke-dasharray=""/><path fill="none" stroke="rgb(0,0,0)" paint-order="fill" d="M 64.5 279.5 L 68.5 279.5 M 64.5 279.5 L 68.5 279.5 M 64.5 279.5 L 68.5 279.5 M 64.5 262.5 L 68.5 262.5 M 64.5 252.5 L 68.5 252.5 M 64.5 245.5 L 68.5 245.5 M 64.5 239.5 L 68.5 239.5 M 64.5 234.5 L 68.5 234.5 M 64.5 231.5 L 68.5 231.5 M 64.5 227.5 L 68.5 227.5 M 64.5 224.5 L 68.5 224.5 M 64.5 222.5 L 68.5 222.5 M 64.5 222.5 L 68.5 222.5 M 64.5 205.5 L 68.5 205.5 M 64.5 194.5 L 68.5 194.5 M 64.5 187.5 L 68.5 187.5 M 64.5 182.5 L 68.5 182.5 M 64.5 177.5 L 68.5 177.5 M 64.5 173.5 L 68.5 173.5 M 64.5 170.5 L 68.5 170.5 M 64.5 167.5 L 68.5 167.5 M 64.5 165.5 L 68.5 165.5 M 64.5 165.5 L 68.5 165.5 M 64.5 147.5 L 68.5 147.5 M 64.5 137.5 L 68.5 137.5 M 64.5 130.5 L 68.5 130.5 M 64.5 124.5 L 68.5 124.5 M 64.5 120.5 L 68.5 120.5 M 64.5 116.5 L 68.5 116.5 M 64.5 113.5 L 68.5 113.5 M 64.5 110.5 L 68.5 110.5 M 64.5 107.5 L 68.5 107.5 M 64.5 107.5 L 68.5 107.5 M 64.5 90.5 L 68.5 90.5 M 64.5 80.5 L 68.5 80.5 M 64.5 73.5 L 68.5 73.5 M 64.5 67.5 L 68.5 67.5 M 64.5 63.5 L 68.5 63.5 M 64.5 59.5 L 68.5 59.5 M 64.5 56.5 L 68.5 56.5 M 64.5 53.5 L 68.5 53.5 M 64.5 50.5 L 68.5 50.5 M 64.5 50.5 L 68.5 50.5 M 64.5 33.5 L 68.5 33.5 M 64.5 23.5 L 68.5 23.5 M 64.5 16.5 L 68.5 16.5 M 64.5 10.5 L 68.5 10.5" stroke-opacity="1" stroke-linejoin="bevel" stroke-miterlimit="10" stroke-dasharray=""/><text fill="rgb(68,68,68)" stroke="none" font-family="helvetica" font-size="10pt" font-style="normal" font-weight="normal" text-decoration="normal" x="0" y="13" text-anchor="start" dominant-baseline="alphabetic" transform="matrix(1, 0, 0, 1, 32.039703369140625, 273)" fill-opacity="1">10</text><text fill="rgb(68,68,68)" stroke="none" font-family="helvetica" font-size="7pt" font-style="normal" font-weight="normal" text-decoration="normal" x="14.824951171875" y="7" text-anchor="start" dominant-baseline="alphabetic" transform="matrix(1, 0, 0, 1, 32.039703369140625, 273)" fill-opacity="1">−8</text><text fill="rgb(68,68,68)" stroke="none" font-family="helvetica" font-size="10pt" font-style="normal" font-weight="normal" text-decoration="normal" x="0" y="13" text-anchor="start" dominant-baseline="alphabetic" transform="matrix(1, 0, 0, 1, 32.039703369140625, 215.75341796875)" fill-opacity="1">10</text><text fill="rgb(68,68,68)" stroke="none" font-family="helvetica" font-size="7pt" font-style="normal" font-weight="normal" text-decoration="normal" x="14.824951171875" y="7" text-anchor="start" dominant-baseline="alphabetic" transform="matrix(1, 0, 0, 1, 32.039703369140625, 215.75341796875)" fill-opacity="1">−7</text><text fill="rgb(68,68,68)" stroke="none" font-family="helvetica" font-size="10pt" font-style="normal" font-weight="normal" text-decoration="normal" x="0" y="13" text-anchor="start" dominant-baseline="alphabetic" transform="matrix(1, 0, 0, 1, 32.039703369140625, 158.50682067871094)" fill-opacity="1">10</text><text fill="rgb(68,68,68)" stroke="none" font-family="helvetica" font-size="7pt" font-style="normal" font-weight="normal" text-decoration="normal" x="14.824951171875" y="7" text-anchor="start" dominant-baseline="alphabetic" transform="matrix(1, 0, 0, 1, 32.039703369140625, 158.50682067871094)" fill-opacity="1">−6</text><text fill="rgb(68,68,68)" stroke="none" font-family="helvetica" font-size="10pt" font-style="normal" font-weight="normal" text-decoration="normal" x="0" y="13" text-anchor="start" dominant-baseline="alphabetic" transform="matrix(1, 0, 0, 1, 32.039703369140625, 101.26023864746094)" fill-opacity="1">10</text><text fill="rgb(68,68,68)" stroke="none" font-family="helvetica" font-size="7pt" font-style="normal" font-weight="normal" text-decoration="normal" x="14.824951171875" y="7" text-anchor="start" dominant-baseline="alphabetic" transform="matrix(1, 0, 0, 1, 32.039703369140625, 101.26023864746094)" fill-opacity="1">−5</text><text fill="rgb(68,68,68)" stroke="none" font-family="helvetica" font-size="10pt" font-style="normal" font-weight="normal" text-decoration="normal" x="0" y="13" text-anchor="start" dominant-baseline="alphabetic" transform="matrix(1, 0, 0, 1, 32.039703369140625, 44.013648986816406)" fill-opacity="1">10</text><text fill="rgb(68,68,68)" stroke="none" font-family="helvetica" font-size="7pt" font-style="normal" font-weight="normal" text-decoration="normal" x="14.824951171875" y="7" text-anchor="start" dominant-baseline="alphabetic" transform="matrix(1, 0, 0, 1, 32.039703369140625, 44.013648986816406)" fill-opacity="1">−4</text><text fill="rgb(68,68,68)" stroke="none" font-family="helvetica" font-size="14pt" font-style="italic" font-weight="normal" text-decoration="normal" x="-93.13018035888672" y="140.5" text-anchor="start" dominant-baseline="alphabetic" transform="matrix(6.123233995736766e-17, -1, 1, 6.123233995736766e-17, -120.46029663085938, 168.53970336914062)" fill-opacity="1">per base all substitution rate</text></svg>