<svg version="1.1" xmlns="http://www.w3.org/2000/svg" width="800" height="600"><defs><clipPath id="paoepZywvUxJ"><path fill="none" stroke="none" d="M 65.5 60.5 L 656.5 60.5 L 656.5 545.5 L 65.5 545.5 L 65.5 60.5"/></clipPath><clipPath id="RJUuxNVOozCx"><path fill="none" stroke="none" d="M 65.5 60.5 L 656.5 60.5 L 656.5 545.5 L 65.5 545.5 L 65.5 60.5"/></clipPath><clipPath id="LqRROpfsxXXU"><path fill="none" stroke="none" d="M 65.5 60.5 L 656.5 60.5 L 656.5 545.5 L 65.5 545.5 L 65.5 60.5"/></clipPath><clipPath id="wUSSgdQiUWOA"><path fill="none" stroke="none" d="M 65.5 60.5 L 656.5 60.5 L 656.5 545.5 L 65.5 545.5 L 65.5 60.5"/></clipPath><clipPath id="VZbAhiEdvWtG"><path fill="none" stroke="none" d="M 65.5 60.5 L 656.5 60.5 L 656.5 545.5 L 65.5 545.5 L 65.5 60.5"/></clipPath><clipPath id="CtkFQKXDTtzP"><path fill="none" stroke="none" d="M 65.5 60.5 L 656.5 60.5 L 656.5 545.5 L 65.5 545.5 L 65.5 60.5"/></clipPath><clipPath id="pDKMgevhgnhF"><path fill="none" stroke="none" d="M 65.5 60.5 L 656.5 60.5 L 656.5 545.5 L 65.5 545.5 L 65.5 60.5"/></clipPath><clipPath id="pukTSNoSPISr"><path fill="none" stroke="none" d="M 65.5 60.5 L 656.5 60.5 L 656.5 545.5 L 65.5 545.5 L 65.5 60.5"/></clipPath><clipPath id="HBMQOEnmhnnA"><path fill="none" stroke="none" d="M 65.5 60.5 L 656.5 60.5 L 656.5 545.5 L 65.5 545.5 L 65.5 60.5"/></clipPath><clipPath id="zHvswmgwFgcw"><path fill="none" stroke="none" d="M 65.5 60.5 L 656.5 60.5 L 656.5 545.5 L 65.5 545.5 L 65.5 60.5"/></clipPath><clipPath id="CBNwxdIotalB"><path fill="none" stroke="none" d="M 65.5 60.5 L 656.5 60.5 L 656.5 545.5 L 65.5 545.5 L 65.5 60.5"/></clipPath><clipPath id="TzvZBiOWbdLd"><path fill="none" stroke="none" d="M 65.5 60.5 L 656.5 60.5 L 656.5 545.5 L 65.5 545.5 L 65.5 60.5"/></clipPath></defs><path fill="rgb(255,255,255)" stroke="none" paint-order="stroke" d="M 0.5 0.5 L 800.5 0.5 L 800.5 600.5 L 0.5 600.5 L 0.5 0.5" fill-opacity="1"/><rect fill="#FFFFFF" stroke="none" x="65" y="60" width="591" height="485" transform="matrix(1, 0, 0, 1, 0.5, 0.5)"/><path fill="rgb(255,255,255)" stroke="none" paint-order="stroke" d="M 65.5 60.5 L 656.5 60.5 L 656.5 545.5 L 65.5 545.5 L 65.5 60.5" fill-opacity="1"/><path fill="none" stroke="rgb(229,229,229)" paint-order="fill" d="M 65.5 60.5 L 656.5 60.5 L 656.5 545.5 L 65.5 545.5 L 65.5 60.5" stroke-opacity="1" stroke-linejoin="bevel" stroke-miterlimit="10" stroke-dasharray=""/><path fill="none" stroke="rgb(255,241,35)" paint-order="fill" d="M 79.91463470458984 523.0867309570312 L 108.74390411376953 522.6906127929688 L 137.5731658935547 519.5386962890625 L 166.40243530273438 508.88885498046875 L 195.23170471191406 484.13739013671875 L 224.06097412109375 442.0700378417969 L 252.89024353027344 386.1217346191406 L 281.7195129394531 320.6383972167969 L 310.54876708984375 257.1922302246094 L 339.3780517578125 202.46620178222656 L 368.2073059082031 160.07632446289062 L 397.0365905761719 131.1599884033203 L 425.8658447265625 112.51998138427734 L 454.69512939453125 101.38351440429688 L 483.5243835449219 94.8985595703125 L 512.3536682128906 91.08454895019531 L 541.1829223632812 88.70220184326172 L 570.01220703125 86.99324798583984 L 598.8414916992188 85.9633560180664 L 627.6707153320312 85.34654998779297 L 656.5 84.99004364013672 L 685.3292846679688 84.86555480957031 L 714.1585083007812 84.80330657958984 L 742.98779296875 84.78067016601562 L 771.8170776367188 84.77500915527344 L 800.6463623046875 84.77500915527344 L 829.4755859375 84.77500915527344 L 858.3048706054688 84.7636947631836 L 887.1341552734375 84.75238037109375 L 915.9634399414062 84.66183471679688 L 944.7926635742188 84.3449478149414 L 973.6219482421875 83.96580505371094 L 1002.4512329101562 83.62062072753906 L 1031.280517578125 83.20187377929688 L 1060.1097412109375 82.93025207519531 L 1088.93896484375 82.74351501464844 L 1117.768310546875 82.6473159790039 L 1146.5975341796875 82.5907211303711 L 1175.4268798828125 82.5680923461914 L 1204.256103515625 82.56243133544922 L 1233.0853271484375 82.55677032470703 L 1261.9146728515625 82.55677032470703 L 1290.743896484375 82.55111694335938 L 1319.5731201171875 82.54545593261719" stroke-opacity="1" stroke-linejoin="bevel" stroke-miterlimit="10" stroke-width="2" stroke-dasharray="" clip-path="url(#LqRROpfsxXXU)"/><path fill="none" stroke="rgb(255,193,30)" paint-order="fill" d="M 79.91463470458984 523.2903442382812 L 108.74390411376953 521.9357299804688 L 137.5731658935547 514.6289672851562 L 166.40243530273438 495.4590148925781 L 195.23170471191406 458.1042785644531 L 224.06097412109375 399.814453125 L 252.89024353027344 332.9043273925781 L 281.7195129394531 270.22222900390625 L 310.54876708984375 220.79904174804688 L 339.3780517578125 185.578857421875 L 368.2073059082031 159.2252960205078 L 397.0365905761719 138.78280639648438 L 425.8658447265625 123.18412780761719 L 454.69512939453125 112.71659088134766 L 483.5243835449219 105.28668975830078 L 512.3536682128906 100.40184020996094 L 541.1829223632812 96.58426666259766 L 570.01220703125 94.36761474609375 L 598.8414916992188 92.68460083007812 L 627.6707153320312 91.00157928466797 L 656.5 89.8111572265625 L 685.3292846679688 89.11331939697266 L 714.1585083007812 88.33338928222656 L 742.98779296875 87.06085968017578 L 771.8170776367188 85.45994567871094 L 800.6463623046875 84.22846984863281 L 829.4755859375 83.57168579101562 L 858.3048706054688 83.16119384765625 L 887.1341552734375 83.03804779052734 L 915.9634399414062 82.83280181884766 L 944.7926635742188 82.75070190429688 L 973.6219482421875 82.70964813232422 L 1002.4512329101562 82.6686019897461 L 1031.280517578125 82.62755584716797 L 1060.1097412109375 82.58650207519531 L 1088.93896484375 82.58650207519531 L 1117.768310546875 82.58650207519531 L 1146.5975341796875 82.54545593261719" stroke-opacity="1" stroke-linejoin="bevel" stroke-miterlimit="10" stroke-width="2" stroke-dasharray="" clip-path="url(#wUSSgdQiUWOA)"/><path fill="none" stroke="rgb(255,136,69)" paint-order="fill" d="M 79.91463470458984 521.343994140625 L 108.74390411376953 519.8934326171875 L 137.5731658935547 510.6495056152344 L 166.40243530273438 487.26556396484375 L 195.23170471191406 445.8076171875 L 224.06097412109375 390.5154724121094 L 252.89024353027344 331.59881591796875 L 281.7195129394531 278.04058837890625 L 310.54876708984375 236.5789337158203 L 339.3780517578125 207.7769012451172 L 368.2073059082031 188.93475341796875 L 397.0365905761719 175.8351287841797 L 425.8658447265625 166.66201782226562 L 454.69512939453125 160.3564453125 L 483.5243835449219 156.1241455078125 L 512.3536682128906 153.18203735351562 L 541.1829223632812 150.52706909179688 L 570.01220703125 147.7825927734375 L 598.8414916992188 145.09405517578125 L 627.6707153320312 142.58822631835938 L 656.5 139.8064727783203 L 685.3292846679688 136.83827209472656 L 714.1585083007812 131.56187438964844 L 742.98779296875 124.42475128173828 L 771.8170776367188 115.38589477539062 L 800.6463623046875 106.30229187011719 L 829.4755859375 98.61701965332031 L 858.3048706054688 92.80366516113281 L 887.1341552734375 88.80628204345703 L 915.9634399414062 86.53165435791016 L 944.7926635742188 85.39060974121094 L 973.6219482421875 84.573974609375 L 1002.4512329101562 84.00345611572266 L 1031.280517578125 83.63056182861328 L 1060.1097412109375 83.42174530029297 L 1088.93896484375 83.33598327636719 L 1117.768310546875 83.23902893066406 L 1146.5975341796875 83.1644515991211 L 1175.4268798828125 83.11597442626953 L 1204.256103515625 83.03766632080078 L 1233.0853271484375 82.97055053710938 L 1261.9146728515625 82.94817352294922 L 1290.743896484375 82.91834259033203 L 1319.5731201171875 82.88478088378906 L 1348.4024658203125 82.84003448486328 L 1377.231689453125 82.76173400878906 L 1406.06103515625 82.70579528808594 L 1434.8902587890625 82.68714904785156 L 1463.719482421875 82.67969512939453 L 1492.548828125 82.65359497070312 L 1521.3780517578125 82.64986419677734 L 1550.207275390625 82.6125717163086 L 1579.03662109375 82.5827407836914 L 1607.8658447265625 82.56410217285156 L 1636.695068359375 82.556640625 L 1665.5244140625 82.54545593261719" stroke-opacity="1" stroke-linejoin="bevel" stroke-miterlimit="10" stroke-width="2" stroke-dasharray="" clip-path="url(#VZbAhiEdvWtG)"/><path fill="none" stroke="rgb(255,62,103)" paint-order="fill" d="M 79.91463470458984 521.1878051757812 L 108.74390411376953 519.39501953125 L 137.5731658935547 508.84674072265625 L 166.40243530273438 477.67596435546875 L 195.23170471191406 423.3503723144531 L 224.06097412109375 354.71539306640625 L 252.89024353027344 283.4713439941406 L 281.7195129394531 221.0310516357422 L 310.54876708984375 176.36720275878906 L 339.3780517578125 146.53717041015625 L 368.2073059082031 127.16761779785156 L 397.0365905761719 116.04005432128906 L 425.8658447265625 109.74226379394531 L 454.69512939453125 105.81656646728516 L 483.5243835449219 103.44447326660156 L 512.3536682128906 102.15419006347656 L 541.1829223632812 101.19087219238281 L 570.01220703125 100.35920715332031 L 598.8414916992188 99.5187759399414 L 627.6707153320312 98.72003173828125 L 656.5 98.09024810791016 L 685.3292846679688 97.3090591430664 L 714.1585083007812 96.24040985107422 L 742.98779296875 94.80091094970703 L 771.8170776367188 92.93351745605469 L 800.6463623046875 91.10781860351562 L 829.4755859375 89.74512481689453 L 858.3048706054688 88.79277801513672 L 887.1341552734375 88.05108642578125 L 915.9634399414062 87.55077362060547 L 944.7926635742188 87.23258972167969 L 973.6219482421875 86.9780502319336 L 1002.4512329101562 86.87930297851562 L 1031.280517578125 86.83322143554688 L 1060.1097412109375 86.79591369628906 L 1088.93896484375 86.76958465576172 L 1117.768310546875 86.75422668457031 L 1146.5975341796875 86.7322769165039 L 1175.4268798828125 86.7015609741211 L 1204.256103515625 86.63792419433594 L 1233.0853271484375 86.4250717163086 L 1261.9146728515625 85.95767211914062 L 1290.743896484375 85.37178039550781 L 1319.5731201171875 84.88902282714844 L 1348.4024658203125 84.47867584228516 L 1377.231689453125 84.20438385009766 L 1406.06103515625 84.09906005859375 L 1434.8902587890625 84.03761291503906 L 1463.719482421875 84.00031280517578 L 1492.548828125 83.98494720458984 L 1521.3780517578125 83.98275756835938 L 1550.207275390625 83.97836303710938 L 1579.03662109375 83.9739761352539 L 1607.8658447265625 83.97178649902344 L 1636.695068359375 83.96739196777344 L 1665.5244140625 83.93667602539062 L 1694.3536376953125 83.81817626953125 L 1723.1829833984375 83.55266571044922 L 1752.01220703125 83.17084503173828 L 1780.8414306640625 82.92507934570312 L 1809.6707763671875 82.7802505493164 L 1838.5 82.64420318603516 L 1867.3292236328125 82.61128234863281 L 1896.1585693359375 82.5981216430664 L 1924.98779296875 82.58934020996094 L 1953.8170166015625 82.578369140625 L 1982.6463623046875 82.576171875 L 2011.4755859375 82.576171875 L 2040.304931640625 82.57178497314453 L 2069.134033203125 82.56959533691406 L 2097.96337890625 82.56959533691406 L 2126.792724609375 82.56959533691406 L 2155.6220703125 82.56959533691406 L 2184.451171875 82.56739807128906 L 2213.280517578125 82.56520080566406 L 2242.10986328125 82.5630111694336 L 2270.93896484375 82.55862426757812 L 2299.768310546875 82.55422973632812 L 2328.59765625 82.55204010009766 L 2357.4267578125 82.55204010009766 L 2386.256103515625 82.55204010009766 L 2415.08544921875 82.55204010009766 L 2443.91455078125 82.54984283447266 L 2472.743896484375 82.54984283447266 L 2501.5732421875 82.54984283447266 L 2530.40234375 82.54984283447266 L 2559.231689453125 82.54984283447266 L 2588.06103515625 82.54984283447266 L 2616.89013671875 82.54984283447266 L 2645.719482421875 82.54984283447266 L 2674.548828125 82.54984283447266 L 2703.3779296875 82.54984283447266 L 2732.207275390625 82.54984283447266 L 2761.03662109375 82.54984283447266 L 2789.865966796875 82.54984283447266 L 2818.695068359375 82.54764556884766 L 2847.5244140625 82.54545593261719" stroke-opacity="1" stroke-linejoin="bevel" stroke-miterlimit="10" stroke-width="2" stroke-dasharray="" clip-path="url(#CtkFQKXDTtzP)"/><path fill="none" stroke="rgb(212,0,127)" paint-order="fill" d="M 79.91463470458984 522.4746704101562 L 108.74390411376953 521.2044677734375 L 137.5731658935547 516.0872802734375 L 166.40243530273438 505.92559814453125 L 195.23170471191406 491.59033203125 L 224.06097412109375 471.1943664550781 L 252.89024353027344 442.0520324707031 L 281.7195129394531 400.78826904296875 L 310.54876708984375 351.3951110839844 L 339.3780517578125 302.8003845214844 L 368.2073059082031 256.4557647705078 L 397.0365905761719 216.60736083984375 L 425.8658447265625 182.96487426757812 L 454.69512939453125 153.53221130371094 L 483.5243835449219 133.02734375 L 512.3536682128906 117.0589599609375 L 541.1829223632812 106.42546081542969 L 570.01220703125 100.18327331542969 L 598.8414916992188 96.91700744628906 L 627.6707153320312 94.84837341308594 L 656.5 94.1225357055664 L 685.3292846679688 93.86849975585938 L 714.1585083007812 93.79591369628906 L 742.98779296875 93.61445617675781 L 771.8170776367188 93.28782653808594 L 800.6463623046875 92.23536682128906 L 829.4755859375 91.07402801513672 L 858.3048706054688 90.02156829833984 L 887.1341552734375 89.4408950805664 L 915.9634399414062 89.04168701171875 L 944.7926635742188 88.6424789428711 L 973.6219482421875 88.46102142333984 L 1002.4512329101562 88.31584930419922 L 1031.280517578125 88.20697784423828 L 1060.1097412109375 88.17068481445312 L 1088.93896484375 88.17068481445312 L 1117.768310546875 88.17068481445312 L 1146.5975341796875 88.17068481445312 L 1175.4268798828125 88.13439178466797 L 1204.256103515625 88.0255126953125 L 1233.0853271484375 87.8803482055664 L 1261.9146728515625 87.62630462646484 L 1290.743896484375 87.55372619628906 L 1319.5731201171875 87.22709655761719 L 1348.4024658203125 86.71900939941406 L 1377.231689453125 85.7391357421875 L 1406.06103515625 84.9044189453125 L 1434.8902587890625 83.99712371826172 L 1463.719482421875 83.48904418945312 L 1492.548828125 83.1261215209961 L 1521.3780517578125 82.8357925415039 L 1550.207275390625 82.7632064819336 L 1579.03662109375 82.65432739257812 L 1607.8658447265625 82.58174896240234 L 1636.695068359375 82.58174896240234 L 1665.5244140625 82.58174896240234 L 1694.3536376953125 82.58174896240234 L 1723.1829833984375 82.58174896240234 L 1752.01220703125 82.58174896240234 L 1780.8414306640625 82.58174896240234 L 1809.6707763671875 82.58174896240234 L 1838.5 82.58174896240234 L 1867.3292236328125 82.58174896240234 L 1896.1585693359375 82.58174896240234 L 1924.98779296875 82.54545593261719" stroke-opacity="1" stroke-linejoin="bevel" stroke-miterlimit="10" stroke-width="2" stroke-dasharray="" clip-path="url(#pDKMgevhgnhF)"/><path fill="none" stroke="rgb(145,4,144)" paint-order="fill" d="M 79.91463470458984 523.3037109375 L 108.74390411376953 522.7825927734375 L 137.5731658935547 520.7529296875 L 166.40243530273438 516.2548828125 L 195.23170471191406 509.302001953125 L 224.06097412109375 499.0852966308594 L 252.89024353027344 484.7133483886719 L 281.7195129394531 466.227294921875 L 310.54876708984375 443.8053894042969 L 339.3780517578125 416.29571533203125 L 368.2073059082031 385.8924560546875 L 397.0365905761719 352.69158935546875 L 425.8658447265625 319.0244445800781 L 454.69512939453125 285.6178894042969 L 483.5243835449219 252.485595703125 L 512.3536682128906 220.3269805908203 L 541.1829223632812 189.3477325439453 L 570.01220703125 162.2494659423828 L 598.8414916992188 138.92247009277344 L 627.6707153320312 120.54611206054688 L 656.5 108.72490692138672 L 685.3292846679688 99.9892807006836 L 714.1585083007812 94.28437805175781 L 742.98779296875 91.11651611328125 L 771.8170776367188 88.82632446289062 L 800.6463623046875 87.6606674194336 L 829.4755859375 86.79669952392578 L 858.3048706054688 86.15216064453125 L 887.1341552734375 85.83673858642578 L 915.9634399414062 85.56246948242188 L 944.7926635742188 85.41162109375 L 973.6219482421875 85.30191040039062 L 1002.4512329101562 85.13734436035156 L 1031.280517578125 84.95906829833984 L 1060.1097412109375 84.60250854492188 L 1088.93896484375 84.28709411621094 L 1117.768310546875 83.83454132080078 L 1146.5975341796875 83.36827850341797 L 1175.4268798828125 83.13514709472656 L 1204.256103515625 82.94315338134766 L 1233.0853271484375 82.75115966796875 L 1261.9146728515625 82.65516662597656 L 1290.743896484375 82.58659362792969 L 1319.5731201171875 82.58659362792969 L 1348.4024658203125 82.58659362792969 L 1377.231689453125 82.57288360595703 L 1406.06103515625 82.57288360595703 L 1434.8902587890625 82.54545593261719" stroke-opacity="1" stroke-linejoin="bevel" stroke-miterlimit="10" stroke-width="2" stroke-dasharray="" clip-path="url(#pukTSNoSPISr)"/><path fill="none" stroke="rgb(10,21,169)" paint-order="fill" d="M 79.91463470458984 522.6287841796875 L 108.74390411376953 521.3776245117188 L 137.5731658935547 513.3451538085938 L 166.40243530273438 485.9447326660156 L 195.23170471191406 436.89923095703125 L 224.06097412109375 376.6433410644531 L 252.89024353027344 317.9138488769531 L 281.7195129394531 265.0647888183594 L 310.54876708984375 220.3983612060547 L 339.3780517578125 183.163818359375 L 368.2073059082031 154.61231994628906 L 397.0365905761719 135.94500732421875 L 425.8658447265625 123.35832214355469 L 454.69512939453125 113.74940490722656 L 483.5243835449219 107.01815795898438 L 512.3536682128906 101.98849487304688 L 541.1829223632812 98.00980377197266 L 570.01220703125 95.40738677978516 L 598.8414916992188 94.03111267089844 L 627.6707153320312 93.05520629882812 L 656.5 92.47967529296875 L 685.3292846679688 92.20441436767578 L 714.1585083007812 92.00423431396484 L 742.98779296875 91.97920989990234 L 771.8170776367188 91.95418548583984 L 800.6463623046875 91.35363006591797 L 829.4755859375 90.17753601074219 L 858.3048706054688 89.15158081054688 L 887.1341552734375 88.551025390625 L 915.9634399414062 88.1006088256836 L 944.7926635742188 87.17475128173828 L 973.6219482421875 85.79846954345703 L 1002.4512329101562 84.62238311767578 L 1031.280517578125 83.8967056274414 L 1060.1097412109375 83.57140350341797 L 1088.93896484375 83.12098693847656 L 1117.768310546875 82.9458236694336 L 1146.5975341796875 82.74564361572266 L 1175.4268798828125 82.69559478759766 L 1204.256103515625 82.69559478759766 L 1233.0853271484375 82.59550476074219 L 1261.9146728515625 82.59550476074219 L 1290.743896484375 82.59550476074219 L 1319.5731201171875 82.57048034667969 L 1348.4024658203125 82.57048034667969 L 1377.231689453125 82.57048034667969 L 1406.06103515625 82.57048034667969 L 1434.8902587890625 82.57048034667969 L 1463.719482421875 82.57048034667969 L 1492.548828125 82.57048034667969 L 1521.3780517578125 82.57048034667969 L 1550.207275390625 82.57048034667969 L 1579.03662109375 82.57048034667969 L 1607.8658447265625 82.54545593261719" stroke-opacity="1" stroke-linejoin="bevel" stroke-miterlimit="10" stroke-width="2" stroke-dasharray="" clip-path="url(#HBMQOEnmhnnA)"/><path fill="none" stroke="rgb(0,12,124)" paint-order="fill" d="M 79.91463470458984 522.939208984375 L 108.74390411376953 522.3988037109375 L 137.5731658935547 518.7762451171875 L 166.40243530273438 504.14599609375 L 195.23170471191406 471.8633728027344 L 224.06097412109375 421.1978454589844 L 252.89024353027344 358.0736083984375 L 281.7195129394531 295.8099670410156 L 310.54876708984375 238.99012756347656 L 339.3780517578125 194.69407653808594 L 368.2073059082031 159.3542938232422 L 397.0365905761719 134.73204040527344 L 425.8658447265625 117.02462768554688 L 454.69512939453125 105.18632507324219 L 483.5243835449219 97.30580139160156 L 512.3536682128906 92.61751556396484 L 541.1829223632812 89.85557556152344 L 570.01220703125 88.24445343017578 L 598.8414916992188 87.32880401611328 L 627.6707153320312 86.96855163574219 L 656.5 86.67334747314453 L 685.3292846679688 86.22303009033203 L 714.1585083007812 85.52754211425781 L 742.98779296875 84.73699188232422 L 771.8170776367188 84.04150390625 L 800.6463623046875 83.48611450195312 L 829.4755859375 83.08583068847656 L 858.3048706054688 82.85066986083984 L 887.1341552734375 82.69055938720703 L 915.9634399414062 82.6305160522461 L 944.7926635742188 82.59048461914062 L 973.6219482421875 82.55545806884766 L 1002.4512329101562 82.54545593261719" stroke-opacity="1" stroke-linejoin="bevel" stroke-miterlimit="10" stroke-width="2" stroke-dasharray="" clip-path="url(#zHvswmgwFgcw)"/><path fill="none" stroke="rgb(128,128,128)" paint-order="fill" d="M 79.91463470458984 151.4375 L 108.74390411376953 123.25438690185547 L 137.5731658935547 91.31352996826172 L 166.40243530273438 82.54545593261719" stroke-opacity="1" stroke-linejoin="bevel" stroke-miterlimit="10" stroke-width="2" stroke-dasharray="" clip-path="url(#CBNwxdIotalB)"/><path fill="none" stroke="rgb(0,0,0)" paint-order="fill" d="M 65.5 545.5 L 656.5 545.5" stroke-opacity="1" stroke-linejoin="bevel" stroke-miterlimit="10" stroke-dasharray=""/><path fill="none" stroke="rgb(0,0,0)" paint-order="fill" d="M 79.5 551.5 L 79.5 543.5 M 224.5 551.5 L 224.5 543.5 M 368.5 551.5 L 368.5 543.5 M 512.5 551.5 L 512.5 543.5 M 656.5 551.5 L 656.5 543.5" stroke-opacity="1" stroke-linejoin="bevel" stroke-miterlimit="10" stroke-dasharray=""/><path fill="none" stroke="rgb(0,0,0)" paint-order="fill" d="M 79.5 549.5 L 79.5 545.5 M 108.5 549.5 L 108.5 545.5 M 137.5 549.5 L 137.5 545.5 M 166.5 549.5 L 166.5 545.5 M 195.5 549.5 L 195.5 545.5 M 224.5 549.5 L 224.5 545.5 M 252.5 549.5 L 252.5 545.5 M 281.5 549.5 L 281.5 545.5 M 310.5 549.5 L 310.5 545.5 M 339.5 549.5 L 339.5 545.5 M 368.5 549.5 L 368.5 545.5 M 397.5 549.5 L 397.5 545.5 M 425.5 549.5 L 425.5 545.5 M 454.5 549.5 L 454.5 545.5 M 483.5 549.5 L 483.5 545.5 M 512.5 549.5 L 512.5 545.5 M 541.5 549.5 L 541.5 545.5 M 570.5 549.5 L 570.5 545.5 M 598.5 549.5 L 598.5 545.5 M 627.5 549.5 L 627.5 545.5 M 656.5 549.5 L 656.5 545.5" stroke-opacity="1" stroke-linejoin="bevel" stroke-miterlimit="10" stroke-dasharray=""/><text fill="rgb(68,68,68)" stroke="none" font-family="helvetica" font-size="12pt" font-style="normal" font-weight="normal" text-decoration="normal" x="74.96541595458984" y="568" text-anchor="start" dominant-baseline="alphabetic" transform="matrix(1, 0, 0, 1, 0.5, 0.5)" fill-opacity="1">0</text><text fill="rgb(68,68,68)" stroke="none" font-family="helvetica" font-size="12pt" font-style="normal" font-weight="normal" text-decoration="normal" x="219.11175537109375" y="568" text-anchor="start" dominant-baseline="alphabetic" transform="matrix(1, 0, 0, 1, 0.5, 0.5)" fill-opacity="1">5</text><text fill="rgb(68,68,68)" stroke="none" font-family="helvetica" font-size="12pt" font-style="normal" font-weight="normal" text-decoration="normal" x="358.8088684082031" y="568" text-anchor="start" dominant-baseline="alphabetic" transform="matrix(1, 0, 0, 1, 0.5, 0.5)" fill-opacity="1">10</text><text fill="rgb(68,68,68)" stroke="none" font-family="helvetica" font-size="12pt" font-style="normal" font-weight="normal" text-decoration="normal" x="502.9552307128906" y="568" text-anchor="start" dominant-baseline="alphabetic" transform="matrix(1, 0, 0, 1, 0.5, 0.5)" fill-opacity="1">15</text><text fill="rgb(68,68,68)" stroke="none" font-family="helvetica" font-size="12pt" font-style="normal" font-weight="normal" text-decoration="normal" x="647.1015625" y="568" text-anchor="start" dominant-baseline="alphabetic" transform="matrix(1, 0, 0, 1, 0.5, 0.5)" fill-opacity="1">20</text><text fill="rgb(68,68,68)" stroke="none" font-family="helvetica" font-size="14pt" font-style="italic" font-weight="normal" text-decoration="normal" x="269.77396392822266" y="593" text-anchor="start" dominant-baseline="alphabetic" transform="matrix(1, 0, 0, 1, 0.5, 0.5)" fill-opacity="1">NT hamming distance</text><path fill="none" stroke="rgb(0,0,0)" paint-order="fill" d="M 65.5 545.5 L 65.5 60.5" stroke-opacity="1" stroke-linejoin="bevel" stroke-miterlimit="10" stroke-dasharray=""/><path fill="none" stroke="rgb(0,0,0)" paint-order="fill" d="M 59.5 523.5 L 67.5 523.5 M 59.5 435.5 L 67.5 435.5 M 59.5 347.5 L 67.5 347.5 M 59.5 258.5 L 67.5 258.5 M 59.5 170.5 L 67.5 170.5 M 59.5 82.5 L 67.5 82.5" stroke-opacity="1" stroke-linejoin="bevel" stroke-miterlimit="10" stroke-dasharray=""/><path fill="none" stroke="rgb(0,0,0)" paint-order="fill" d="M 61.5 541.5 L 65.5 541.5 M 61.5 523.5 L 65.5 523.5 M 61.5 505.5 L 65.5 505.5 M 61.5 488.5 L 65.5 488.5 M 61.5 470.5 L 65.5 470.5 M 61.5 452.5 L 65.5 452.5 M 61.5 435.5 L 65.5 435.5 M 61.5 417.5 L 65.5 417.5 M 61.5 400.5 L 65.5 400.5 M 61.5 382.5 L 65.5 382.5 M 61.5 364.5 L 65.5 364.5 M 61.5 347.5 L 65.5 347.5 M 61.5 329.5 L 65.5 329.5 M 61.5 311.5 L 65.5 311.5 M 61.5 294.5 L 65.5 294.5 M 61.5 276.5 L 65.5 276.5 M 61.5 258.5 L 65.5 258.5 M 61.5 241.5 L 65.5 241.5 M 61.5 223.5 L 65.5 223.5 M 61.5 206.5 L 65.5 206.5 M 61.5 188.5 L 65.5 188.5 M 61.5 170.5 L 65.5 170.5 M 61.5 153.5 L 65.5 153.5 M 61.5 135.5 L 65.5 135.5 M 61.5 117.5 L 65.5 117.5 M 61.5 100.5 L 65.5 100.5 M 61.5 82.5 L 65.5 82.5 M 61.5 64.5 L 65.5 64.5" stroke-opacity="1" stroke-linejoin="bevel" stroke-miterlimit="10" stroke-dasharray=""/><text fill="rgb(68,68,68)" stroke="none" font-family="helvetica" font-size="12pt" font-style="normal" font-weight="normal" text-decoration="normal" x="45.1015625" y="528.9545288085938" text-anchor="start" dominant-baseline="alphabetic" transform="matrix(1, 0, 0, 1, 0.5, 0.5)" fill-opacity="1">0</text><text fill="rgb(68,68,68)" stroke="none" font-family="helvetica" font-size="12pt" font-style="normal" font-weight="normal" text-decoration="normal" x="31.7578125" y="440.7727355957031" text-anchor="start" dominant-baseline="alphabetic" transform="matrix(1, 0, 0, 1, 0.5, 0.5)" fill-opacity="1">0.2</text><text fill="rgb(68,68,68)" stroke="none" font-family="helvetica" font-size="12pt" font-style="normal" font-weight="normal" text-decoration="normal" x="31.7578125" y="352.5909118652344" text-anchor="start" dominant-baseline="alphabetic" transform="matrix(1, 0, 0, 1, 0.5, 0.5)" fill-opacity="1">0.4</text><text fill="rgb(68,68,68)" stroke="none" font-family="helvetica" font-size="12pt" font-style="normal" font-weight="normal" text-decoration="normal" x="31.7578125" y="264.4090881347656" text-anchor="start" dominant-baseline="alphabetic" transform="matrix(1, 0, 0, 1, 0.5, 0.5)" fill-opacity="1">0.6</text><text fill="rgb(68,68,68)" stroke="none" font-family="helvetica" font-size="12pt" font-style="normal" font-weight="normal" text-decoration="normal" x="31.7578125" y="176.22727966308594" text-anchor="start" dominant-baseline="alphabetic" transform="matrix(1, 0, 0, 1, 0.5, 0.5)" fill-opacity="1">0.8</text><text fill="rgb(68,68,68)" stroke="none" font-family="helvetica" font-size="12pt" font-style="normal" font-weight="normal" text-decoration="normal" x="45.1015625" y="88.04545593261719" text-anchor="start" dominant-baseline="alphabetic" transform="matrix(1, 0, 0, 1, 0.5, 0.5)" fill-opacity="1">1</text><text fill="rgb(68,68,68)" stroke="none" font-family="helvetica" font-size="14pt" font-style="italic" font-weight="normal" text-decoration="normal" x="-64.38568115234375" y="298.5" text-anchor="start" dominant-baseline="alphabetic" transform="matrix(6.123233995736766e-17, -1, 1, 6.123233995736766e-17, -278.2421875, 326.7578125)" fill-opacity="1">cumulative frequency</text><path fill="rgb(255,255,255)" stroke="rgb(229,229,229)" paint-order="fill" d="M 656.5 321.5 L 750.63720703125 321.5 L 750.63720703125 545.5 L 656.5 545.5 L 656.5 321.5" fill-opacity="0.9490196078431372" stroke-opacity="0.5019607843137255" stroke-linejoin="bevel" stroke-miterlimit="10" stroke-dasharray=""/><text fill="rgb(68,68,68)" stroke="none" font-family="helvetica" font-size="13px" font-style="normal" font-weight="normal" text-decoration="normal" x="691" y="341" text-anchor="start" dominant-baseline="central" transform="matrix(1, 0, 0, 1, 0.5, 0.5)" fill-opacity="1">453-A1</text><path fill="none" stroke="rgb(255,241,35)" paint-order="fill" d="M 666.5 341.5 L 686.5 341.5" stroke-opacity="1" stroke-linejoin="bevel" stroke-miterlimit="10" stroke-width="2" stroke-dasharray=""/><text fill="rgb(68,68,68)" stroke="none" font-family="helvetica" font-size="13px" font-style="normal" font-weight="normal" text-decoration="normal" x="691" y="364" text-anchor="start" dominant-baseline="central" transform="matrix(1, 0, 0, 1, 0.5, 0.5)" fill-opacity="1">453-A2</text><path fill="none" stroke="rgb(255,193,30)" paint-order="fill" d="M 666.5 364.5 L 686.5 364.5" stroke-opacity="1" stroke-linejoin="bevel" stroke-miterlimit="10" stroke-width="2" stroke-dasharray=""/><text fill="rgb(68,68,68)" stroke="none" font-family="helvetica" font-size="13px" font-style="normal" font-weight="normal" text-decoration="normal" x="691" y="387" text-anchor="start" dominant-baseline="central" transform="matrix(1, 0, 0, 1, 0.5, 0.5)" fill-opacity="1">515-2A</text><path fill="none" stroke="rgb(255,136,69)" paint-order="fill" d="M 666.5 387.5 L 686.5 387.5" stroke-opacity="1" stroke-linejoin="bevel" stroke-miterlimit="10" stroke-width="2" stroke-dasharray=""/><text fill="rgb(68,68,68)" stroke="none" font-family="helvetica" font-size="13px" font-style="normal" font-weight="normal" text-decoration="normal" x="691" y="410" text-anchor="start" dominant-baseline="central" transform="matrix(1, 0, 0, 1, 0.5, 0.5)" fill-opacity="1">515-2B</text><path fill="none" stroke="rgb(255,62,103)" paint-order="fill" d="M 666.5 410.5 L 686.5 410.5" stroke-opacity="1" stroke-linejoin="bevel" stroke-miterlimit="10" stroke-width="2" stroke-dasharray=""/><text fill="rgb(68,68,68)" stroke="none" font-family="helvetica" font-size="13px" font-style="normal" font-weight="normal" text-decoration="normal" x="691" y="433" text-anchor="start" dominant-baseline="central" transform="matrix(1, 0, 0, 1, 0.5, 0.5)" fill-opacity="1">A8</text><path fill="none" stroke="rgb(212,0,127)" paint-order="fill" d="M 666.5 433.5 L 686.5 433.5" stroke-opacity="1" stroke-linejoin="bevel" stroke-miterlimit="10" stroke-width="2" stroke-dasharray=""/><text fill="rgb(68,68,68)" stroke="none" font-family="helvetica" font-size="13px" font-style="normal" font-weight="normal" text-decoration="normal" x="691" y="456" text-anchor="start" dominant-baseline="central" transform="matrix(1, 0, 0, 1, 0.5, 0.5)" fill-opacity="1">D3</text><path fill="none" stroke="rgb(145,4,144)" paint-order="fill" d="M 666.5 456.5 L 686.5 456.5" stroke-opacity="1" stroke-linejoin="bevel" stroke-miterlimit="10" stroke-width="2" stroke-dasharray=""/><text fill="rgb(68,68,68)" stroke="none" font-family="helvetica" font-size="13px" font-style="normal" font-weight="normal" text-decoration="normal" x="691" y="479" text-anchor="start" dominant-baseline="central" transform="matrix(1, 0, 0, 1, 0.5, 0.5)" fill-opacity="1">G3</text><path fill="none" stroke="rgb(10,21,169)" paint-order="fill" d="M 666.5 479.5 L 686.5 479.5" stroke-opacity="1" stroke-linejoin="bevel" stroke-miterlimit="10" stroke-width="2" stroke-dasharray=""/><text fill="rgb(68,68,68)" stroke="none" font-family="helvetica" font-size="13px" font-style="normal" font-weight="normal" text-decoration="normal" x="691" y="502" text-anchor="start" dominant-baseline="central" transform="matrix(1, 0, 0, 1, 0.5, 0.5)" fill-opacity="1">G4</text><path fill="none" stroke="rgb(0,12,124)" paint-order="fill" d="M 666.5 502.5 L 686.5 502.5" stroke-opacity="1" stroke-linejoin="bevel" stroke-miterlimit="10" stroke-width="2" stroke-dasharray=""/><text fill="rgb(68,68,68)" stroke="none" font-family="helvetica" font-size="13px" font-style="normal" font-weight="normal" text-decoration="normal" x="691" y="525" text-anchor="start" dominant-baseline="central" transform="matrix(1, 0, 0, 1, 0.5, 0.5)" fill-opacity="1">pControl</text><path fill="none" stroke="rgb(128,128,128)" paint-order="fill" d="M 666.5 525.5 L 686.5 525.5" stroke-opacity="1" stroke-linejoin="bevel" stroke-miterlimit="10" stroke-width="2" stroke-dasharray=""/><text fill="rgb(68,68,68)" stroke="none" font-family="helvetica" font-size="16pt" font-style="normal" font-weight="bold" text-decoration="normal" x="65" y="26" text-anchor="start" dominant-baseline="alphabetic" transform="matrix(1, 0, 0, 1, 0.5, 0.5)" fill-opacity="1">NT hamming distance among sequence pairs, cumulative distribution</text><text fill="rgb(68,68,68)" stroke="none" font-family="helvetica" font-size="16pt" font-style="normal" font-weight="bold" text-decoration="normal" x="65" y="50" text-anchor="start" dominant-baseline="alphabetic" transform="matrix(1, 0, 0, 1, 0.5, 0.5)" fill-opacity="1">sample: P10</text></svg>