<svg version="1.1" xmlns="http://www.w3.org/2000/svg" width="700" height="500"><defs><clipPath id="UcoRJqsRTxGP"><path fill="none" stroke="none" d="M 65.5 36.5 L 670.5 36.5 L 670.5 445.5 L 65.5 445.5 L 65.5 36.5 Z"/></clipPath><clipPath id="RtVTnoDSEKGz"><path fill="none" stroke="none" d="M 65.5 36.5 L 670.5 36.5 L 670.5 445.5 L 65.5 445.5 L 65.5 36.5 Z"/></clipPath><clipPath id="FiWcTTRmfKRk"><path fill="none" stroke="none" d="M 65.5 36.5 L 670.5 36.5 L 670.5 445.5 L 65.5 445.5 L 65.5 36.5 Z"/></clipPath><clipPath id="IXfKImHJzdNp"><path fill="none" stroke="none" d="M 65.5 36.5 L 670.5 36.5 L 670.5 445.5 L 65.5 445.5 L 65.5 36.5 Z"/></clipPath><clipPath id="qCwIFNDrTpTu"><path fill="none" stroke="none" d="M 65.5 36.5 L 670.5 36.5 L 670.5 445.5 L 65.5 445.5 L 65.5 36.5 Z"/></clipPath></defs><path fill="rgb(255,255,255)" stroke="none" paint-order="stroke" d="M 0.5 0.5 L 700.5 0.5 L 700.5 500.5 L 0.5 500.5 L 0.5 0.5 Z" fill-opacity="1"/><rect fill="#FFFFFF" stroke="none" x="65" y="36" width="605" height="409" transform="matrix(1, 0, 0, 1, 0.5, 0.5)"/><path fill="rgb(255,255,255)" stroke="none" paint-order="stroke" d="M 65.5 36.5 L 670.5 36.5 L 670.5 445.5 L 65.5 445.5 L 65.5 36.5 Z" fill-opacity="1"/><path fill="none" stroke="rgb(229,229,229)" paint-order="fill" d="M 65.5 36.5 L 670.5 36.5 L 670.5 445.5 L 65.5 445.5 L 65.5 36.5 Z" stroke-opacity="1" stroke-linejoin="bevel" stroke-miterlimit="10"/><path fill="none" stroke="rgb(48,162,218)" paint-order="fill" d="M 98.5 441.45050048828125 L 109.5 441.45050048828125 L 120.38999938964844 441.45050048828125 L 120.5 339.4029846191406 L 131.38999938964844 339.4029846191406 L 131.5 339.4029846191406 L 142.38999938964844 339.4029846191406 L 142.5 289.1891174316406 L 153.38999938964844 289.1891174316406 L 153.5 441.45050048828125 L 164.38999938964844 441.45050048828125 L 164.5 289.1891174316406 L 175.38999938964844 289.1891174316406 L 175.5 272.4511413574219 L 186.38999938964844 272.4511413574219 L 186.5 264.0821838378906 L 197.38999938964844 264.0821838378906 L 197.5 238.97525024414062 L 208.38999938964844 238.97525024414062 L 208.5 137.7376251220703 L 219.38999938964844 137.7376251220703 L 219.5 87.11881256103516 L 230.38999938964844 87.11881256103516 L 230.5 61.80940628051758 L 241.38999938964844 61.80940628051758 L 241.5 49.154701232910156 L 252.38999938964844 49.154701232910156 L 252.5 42.82735061645508 L 263.3900146484375 42.82735061645508 L 263.5 42.82735061645508 L 274.3900146484375 42.82735061645508 L 274.5 441.45050048828125 L 285.3900146484375 441.45050048828125 L 285.5 42.82735061645508 L 296.3900146484375 42.82735061645508 L 296.5 441.45050048828125 L 307.3900146484375 441.45050048828125 L 307.5 42.82735061645508 L 318.3900146484375 42.82735061645508 L 318.5 441.45050048828125 L 329.3900146484375 441.45050048828125 L 329.5 137.7376251220703 L 340.3900146484375 137.7376251220703 L 340.5 87.11881256103516 L 351.3900146484375 87.11881256103516 L 351.5 61.80940628051758 L 362.3900146484375 61.80940628051758 L 362.5 61.80940628051758 L 373.3900146484375 61.80940628051758 L 373.5 49.154701232910156 L 384.3900146484375 49.154701232910156 L 384.5 49.154701232910156 L 395.3900146484375 49.154701232910156 L 395.5 238.97525024414062 L 406.3900146484375 238.97525024414062 L 406.5 238.97525024414062 L 417.3900146484375 238.97525024414062 L 417.5 238.97525024414062 L 428.3900146484375 238.97525024414062 L 428.5 238.97525024414062 L 439.3900146484375 238.97525024414062 L 439.5 238.97525024414062 L 450.3900146484375 238.97525024414062 L 450.5 238.97525024414062 L 461.3900146484375 238.97525024414062 L 461.5 238.97525024414062 L 472.3900146484375 238.97525024414062 L 472.5 137.7376251220703 L 483.3900146484375 137.7376251220703 L 483.5 87.11881256103516 L 494.3900146484375 87.11881256103516 L 494.5 61.80940628051758 L 505.3900146484375 61.80940628051758 L 505.5 49.154701232910156 L 516.3900146484375 49.154701232910156 L 516.5 42.82735061645508 L 527.3900146484375 42.82735061645508 L 527.5 42.82735061645508 L 538.3900146484375 42.82735061645508 L 538.5 42.82735061645508 L 549.3900146484375 42.82735061645508 L 549.5 441.45050048828125 L 560.3900146484375 441.45050048828125 L 560.5 42.82735061645508 L 571.3900146484375 42.82735061645508 L 571.5 441.45050048828125 L 582.3900146484375 441.45050048828125 L 582.5 42.82735061645508 L 593.3900146484375 42.82735061645508 L 593.5 238.97525024414062 L 604.3900146484375 238.97525024414062 L 604.5 238.97525024414062 L 615.3900146484375 238.97525024414062 L 615.5 238.97525024414062 L 626.3900146484375 238.97525024414062 L 626.5 238.97525024414062 L 637.3900146484375 238.97525024414062 L 637.5 238.97525024414062 L 648.3900146484375 238.97525024414062 L 648.5 238.97525024414062" stroke-opacity="1" stroke-linejoin="bevel" stroke-miterlimit="10" stroke-width="2" clip-path="url(#FiWcTTRmfKRk)"/><path fill="rgb(0,0,0)" stroke="rgb(0,0,0)" paint-order="fill" d="M 123 441.45050048828125 A 2.5 2.5 0 0 1 118 441.45050048828125 A 2.5 2.5 0 0 1 123 441.45050048828125" fill-opacity="1" clip-path="url(#IXfKImHJzdNp)" stroke-opacity="1" stroke-linejoin="bevel" stroke-miterlimit="10"/><path fill="rgb(0,0,0)" stroke="rgb(0,0,0)" paint-order="fill" d="M 145 441.45050048828125 A 2.5 2.5 0 0 1 140 441.45050048828125 A 2.5 2.5 0 0 1 145 441.45050048828125" fill-opacity="1" clip-path="url(#IXfKImHJzdNp)" stroke-opacity="1" stroke-linejoin="bevel" stroke-miterlimit="10"/><path fill="rgb(0,0,0)" stroke="rgb(0,0,0)" paint-order="fill" d="M 167 441.45050048828125 A 2.5 2.5 0 0 1 162 441.45050048828125 A 2.5 2.5 0 0 1 167 441.45050048828125" fill-opacity="1" clip-path="url(#IXfKImHJzdNp)" stroke-opacity="1" stroke-linejoin="bevel" stroke-miterlimit="10"/><path fill="rgb(0,0,0)" stroke="rgb(0,0,0)" paint-order="fill" d="M 189 441.45050048828125 A 2.5 2.5 0 0 1 184 441.45050048828125 A 2.5 2.5 0 0 1 189 441.45050048828125" fill-opacity="1" clip-path="url(#IXfKImHJzdNp)" stroke-opacity="1" stroke-linejoin="bevel" stroke-miterlimit="10"/><path fill="rgb(0,0,0)" stroke="rgb(0,0,0)" paint-order="fill" d="M 211 441.45050048828125 A 2.5 2.5 0 0 1 206 441.45050048828125 A 2.5 2.5 0 0 1 211 441.45050048828125" fill-opacity="1" clip-path="url(#IXfKImHJzdNp)" stroke-opacity="1" stroke-linejoin="bevel" stroke-miterlimit="10"/><path fill="rgb(0,0,0)" stroke="rgb(0,0,0)" paint-order="fill" d="M 233 441.45050048828125 A 2.5 2.5 0 0 1 228 441.45050048828125 A 2.5 2.5 0 0 1 233 441.45050048828125" fill-opacity="1" clip-path="url(#IXfKImHJzdNp)" stroke-opacity="1" stroke-linejoin="bevel" stroke-miterlimit="10"/><path fill="rgb(0,0,0)" stroke="rgb(0,0,0)" paint-order="fill" d="M 255 441.45050048828125 A 2.5 2.5 0 0 1 250 441.45050048828125 A 2.5 2.5 0 0 1 255 441.45050048828125" fill-opacity="1" clip-path="url(#IXfKImHJzdNp)" stroke-opacity="1" stroke-linejoin="bevel" stroke-miterlimit="10"/><path fill="rgb(0,0,0)" stroke="rgb(0,0,0)" paint-order="fill" d="M 277 441.45050048828125 A 2.5 2.5 0 0 1 272 441.45050048828125 A 2.5 2.5 0 0 1 277 441.45050048828125" fill-opacity="1" clip-path="url(#IXfKImHJzdNp)" stroke-opacity="1" stroke-linejoin="bevel" stroke-miterlimit="10"/><path fill="rgb(0,0,0)" stroke="rgb(0,0,0)" paint-order="fill" d="M 299 441.45050048828125 A 2.5 2.5 0 0 1 294 441.45050048828125 A 2.5 2.5 0 0 1 299 441.45050048828125" fill-opacity="1" clip-path="url(#IXfKImHJzdNp)" stroke-opacity="1" stroke-linejoin="bevel" stroke-miterlimit="10"/><path fill="rgb(0,0,0)" stroke="rgb(0,0,0)" paint-order="fill" d="M 321 441.45050048828125 A 2.5 2.5 0 0 1 316 441.45050048828125 A 2.5 2.5 0 0 1 321 441.45050048828125" fill-opacity="1" clip-path="url(#IXfKImHJzdNp)" stroke-opacity="1" stroke-linejoin="bevel" stroke-miterlimit="10"/><path fill="rgb(0,0,0)" stroke="rgb(0,0,0)" paint-order="fill" d="M 398 441.45050048828125 A 2.5 2.5 0 0 1 393 441.45050048828125 A 2.5 2.5 0 0 1 398 441.45050048828125" fill-opacity="1" clip-path="url(#IXfKImHJzdNp)" stroke-opacity="1" stroke-linejoin="bevel" stroke-miterlimit="10"/><path fill="rgb(0,0,0)" stroke="rgb(0,0,0)" paint-order="fill" d="M 453 441.45050048828125 A 2.5 2.5 0 0 1 448 441.45050048828125 A 2.5 2.5 0 0 1 453 441.45050048828125" fill-opacity="1" clip-path="url(#IXfKImHJzdNp)" stroke-opacity="1" stroke-linejoin="bevel" stroke-miterlimit="10"/><path fill="rgb(0,0,0)" stroke="rgb(0,0,0)" paint-order="fill" d="M 530 441.45050048828125 A 2.5 2.5 0 0 1 525 441.45050048828125 A 2.5 2.5 0 0 1 530 441.45050048828125" fill-opacity="1" clip-path="url(#IXfKImHJzdNp)" stroke-opacity="1" stroke-linejoin="bevel" stroke-miterlimit="10"/><path fill="rgb(0,0,0)" stroke="rgb(0,0,0)" paint-order="fill" d="M 596 441.45050048828125 A 2.5 2.5 0 0 1 591 441.45050048828125 A 2.5 2.5 0 0 1 596 441.45050048828125" fill-opacity="1" clip-path="url(#IXfKImHJzdNp)" stroke-opacity="1" stroke-linejoin="bevel" stroke-miterlimit="10"/><path fill="rgb(0,0,0)" stroke="rgb(0,0,0)" paint-order="fill" d="M 662 441.45050048828125 A 2.5 2.5 0 0 1 657 441.45050048828125 A 2.5 2.5 0 0 1 662 441.45050048828125" fill-opacity="1" clip-path="url(#IXfKImHJzdNp)" stroke-opacity="1" stroke-linejoin="bevel" stroke-miterlimit="10"/><path fill="none" stroke="rgb(0,0,0)" paint-order="fill" d="M 65.5 445.5 L 670.5 445.5" stroke-opacity="1" stroke-linejoin="bevel" stroke-miterlimit="10"/><path fill="none" stroke="rgb(0,0,0)" paint-order="fill" d="M 65.5 451.5 L 65.5 443.5 M 175.5 451.5 L 175.5 443.5 M 285.5 451.5 L 285.5 443.5 M 395.5 451.5 L 395.5 443.5 M 505.5 451.5 L 505.5 443.5 M 615.5 451.5 L 615.5 443.5" stroke-opacity="1" stroke-linejoin="bevel" stroke-miterlimit="10"/><path fill="none" stroke="rgb(0,0,0)" paint-order="fill" d="M 65.5 449.5 L 65.5 445.5 M 87.5 449.5 L 87.5 445.5 M 109.5 449.5 L 109.5 445.5 M 131.5 449.5 L 131.5 445.5 M 153.5 449.5 L 153.5 445.5 M 175.5 449.5 L 175.5 445.5 M 197.5 449.5 L 197.5 445.5 M 219.5 449.5 L 219.5 445.5 M 241.5 449.5 L 241.5 445.5 M 263.5 449.5 L 263.5 445.5 M 285.5 449.5 L 285.5 445.5 M 307.5 449.5 L 307.5 445.5 M 329.5 449.5 L 329.5 445.5 M 351.5 449.5 L 351.5 445.5 M 373.5 449.5 L 373.5 445.5 M 395.5 449.5 L 395.5 445.5 M 417.5 449.5 L 417.5 445.5 M 439.5 449.5 L 439.5 445.5 M 461.5 449.5 L 461.5 445.5 M 483.5 449.5 L 483.5 445.5 M 505.5 449.5 L 505.5 445.5 M 527.5 449.5 L 527.5 445.5 M 549.5 449.5 L 549.5 445.5 M 571.5 449.5 L 571.5 445.5 M 593.5 449.5 L 593.5 445.5 M 615.5 449.5 L 615.5 445.5 M 637.5 449.5 L 637.5 445.5 M 659.5 449.5 L 659.5 445.5" stroke-opacity="1" stroke-linejoin="bevel" stroke-miterlimit="10"/><text fill="rgb(68,68,68)" stroke="none" font-family="helvetica" font-size="12pt" font-style="normal" font-weight="normal" text-decoration="normal" x="60.55078125" y="468" text-anchor="start" dominant-baseline="alphabetic" transform="matrix(1, 0, 0, 1, 0.5, 0.5)" fill-opacity="1">0</text><text fill="none" stroke="rgb(0,0,0)" font-family="helvetica" font-size="12pt" font-style="normal" font-weight="normal" text-decoration="normal" x="60.55078125" y="468" text-anchor="start" dominant-baseline="alphabetic" transform="matrix(1, 0, 0, 1, 0.5, 0.5)" stroke-opacity="0" stroke-linejoin="bevel" stroke-miterlimit="10">0</text><text fill="rgb(68,68,68)" stroke="none" font-family="helvetica" font-size="12pt" font-style="normal" font-weight="normal" text-decoration="normal" x="161.65234375" y="468" text-anchor="start" dominant-baseline="alphabetic" transform="matrix(1, 0, 0, 1, 0.5, 0.5)" fill-opacity="1">100</text><text fill="none" stroke="rgb(0,0,0)" font-family="helvetica" font-size="12pt" font-style="normal" font-weight="normal" text-decoration="normal" x="161.65234375" y="468" text-anchor="start" dominant-baseline="alphabetic" transform="matrix(1, 0, 0, 1, 0.5, 0.5)" stroke-opacity="0" stroke-linejoin="bevel" stroke-miterlimit="10">100</text><text fill="rgb(68,68,68)" stroke="none" font-family="helvetica" font-size="12pt" font-style="normal" font-weight="normal" text-decoration="normal" x="271.65234375" y="468" text-anchor="start" dominant-baseline="alphabetic" transform="matrix(1, 0, 0, 1, 0.5, 0.5)" fill-opacity="1">200</text><text fill="none" stroke="rgb(0,0,0)" font-family="helvetica" font-size="12pt" font-style="normal" font-weight="normal" text-decoration="normal" x="271.65234375" y="468" text-anchor="start" dominant-baseline="alphabetic" transform="matrix(1, 0, 0, 1, 0.5, 0.5)" stroke-opacity="0" stroke-linejoin="bevel" stroke-miterlimit="10">200</text><text fill="rgb(68,68,68)" stroke="none" font-family="helvetica" font-size="12pt" font-style="normal" font-weight="normal" text-decoration="normal" x="381.65234375" y="468" text-anchor="start" dominant-baseline="alphabetic" transform="matrix(1, 0, 0, 1, 0.5, 0.5)" fill-opacity="1">300</text><text fill="none" stroke="rgb(0,0,0)" font-family="helvetica" font-size="12pt" font-style="normal" font-weight="normal" text-decoration="normal" x="381.65234375" y="468" text-anchor="start" dominant-baseline="alphabetic" transform="matrix(1, 0, 0, 1, 0.5, 0.5)" stroke-opacity="0" stroke-linejoin="bevel" stroke-miterlimit="10">300</text><text fill="rgb(68,68,68)" stroke="none" font-family="helvetica" font-size="12pt" font-style="normal" font-weight="normal" text-decoration="normal" x="491.65234375" y="468" text-anchor="start" dominant-baseline="alphabetic" transform="matrix(1, 0, 0, 1, 0.5, 0.5)" fill-opacity="1">400</text><text fill="none" stroke="rgb(0,0,0)" font-family="helvetica" font-size="12pt" font-style="normal" font-weight="normal" text-decoration="normal" x="491.65234375" y="468" text-anchor="start" dominant-baseline="alphabetic" transform="matrix(1, 0, 0, 1, 0.5, 0.5)" stroke-opacity="0" stroke-linejoin="bevel" stroke-miterlimit="10">400</text><text fill="rgb(68,68,68)" stroke="none" font-family="helvetica" font-size="12pt" font-style="normal" font-weight="normal" text-decoration="normal" x="601.65234375" y="468" text-anchor="start" dominant-baseline="alphabetic" transform="matrix(1, 0, 0, 1, 0.5, 0.5)" fill-opacity="1">500</text><text fill="none" stroke="rgb(0,0,0)" font-family="helvetica" font-size="12pt" font-style="normal" font-weight="normal" text-decoration="normal" x="601.65234375" y="468" text-anchor="start" dominant-baseline="alphabetic" transform="matrix(1, 0, 0, 1, 0.5, 0.5)" stroke-opacity="0" stroke-linejoin="bevel" stroke-miterlimit="10">500</text><text fill="rgb(68,68,68)" stroke="none" font-family="helvetica" font-size="14pt" font-style="italic" font-weight="normal" text-decoration="normal" x="318.75052642822266" y="493" text-anchor="start" dominant-baseline="alphabetic" transform="matrix(1, 0, 0, 1, 0.5, 0.5)" fill-opacity="1">generations</text><text fill="none" stroke="rgb(0,0,0)" font-family="helvetica" font-size="14pt" font-style="italic" font-weight="normal" text-decoration="normal" x="318.75052642822266" y="493" text-anchor="start" dominant-baseline="alphabetic" transform="matrix(1, 0, 0, 1, 0.5, 0.5)" stroke-opacity="0" stroke-linejoin="bevel" stroke-miterlimit="10">generations</text><path fill="none" stroke="rgb(0,0,0)" paint-order="fill" d="M 65.5 445.5 L 65.5 36.5" stroke-opacity="1" stroke-linejoin="bevel" stroke-miterlimit="10"/><path fill="none" stroke="rgb(0,0,0)" paint-order="fill" d="M 59.5 441.5 L 67.5 441.5 M 59.5 360.5 L 67.5 360.5 M 59.5 279.5 L 67.5 279.5 M 59.5 198.5 L 67.5 198.5 M 59.5 117.5 L 67.5 117.5 M 59.5 36.5 L 67.5 36.5" stroke-opacity="1" stroke-linejoin="bevel" stroke-miterlimit="10"/><path fill="none" stroke="rgb(0,0,0)" paint-order="fill" d="M 61.5 441.5 L 65.5 441.5 M 61.5 425.5 L 65.5 425.5 M 61.5 409.5 L 65.5 409.5 M 61.5 392.5 L 65.5 392.5 M 61.5 376.5 L 65.5 376.5 M 61.5 360.5 L 65.5 360.5 M 61.5 344.5 L 65.5 344.5 M 61.5 328.5 L 65.5 328.5 M 61.5 311.5 L 65.5 311.5 M 61.5 295.5 L 65.5 295.5 M 61.5 279.5 L 65.5 279.5 M 61.5 263.5 L 65.5 263.5 M 61.5 247.5 L 65.5 247.5 M 61.5 230.5 L 65.5 230.5 M 61.5 214.5 L 65.5 214.5 M 61.5 198.5 L 65.5 198.5 M 61.5 182.5 L 65.5 182.5 M 61.5 166.5 L 65.5 166.5 M 61.5 149.5 L 65.5 149.5 M 61.5 133.5 L 65.5 133.5 M 61.5 117.5 L 65.5 117.5 M 61.5 101.5 L 65.5 101.5 M 61.5 85.5 L 65.5 85.5 M 61.5 68.5 L 65.5 68.5 M 61.5 52.5 L 65.5 52.5 M 61.5 36.5 L 65.5 36.5" stroke-opacity="1" stroke-linejoin="bevel" stroke-miterlimit="10"/><text fill="rgb(68,68,68)" stroke="none" font-family="helvetica" font-size="12pt" font-style="normal" font-weight="normal" text-decoration="normal" x="45.1015625" y="446.95050048828125" text-anchor="start" dominant-baseline="alphabetic" transform="matrix(1, 0, 0, 1, 0.5, 0.5)" fill-opacity="1">0</text><text fill="none" stroke="rgb(0,0,0)" font-family="helvetica" font-size="12pt" font-style="normal" font-weight="normal" text-decoration="normal" x="45.1015625" y="446.95050048828125" text-anchor="start" dominant-baseline="alphabetic" transform="matrix(1, 0, 0, 1, 0.5, 0.5)" stroke-opacity="0" stroke-linejoin="bevel" stroke-miterlimit="10">0</text><text fill="rgb(68,68,68)" stroke="none" font-family="helvetica" font-size="12pt" font-style="normal" font-weight="normal" text-decoration="normal" x="31.7578125" y="365.96038818359375" text-anchor="start" dominant-baseline="alphabetic" transform="matrix(1, 0, 0, 1, 0.5, 0.5)" fill-opacity="1">0.2</text><text fill="none" stroke="rgb(0,0,0)" font-family="helvetica" font-size="12pt" font-style="normal" font-weight="normal" text-decoration="normal" x="31.7578125" y="365.96038818359375" text-anchor="start" dominant-baseline="alphabetic" transform="matrix(1, 0, 0, 1, 0.5, 0.5)" stroke-opacity="0" stroke-linejoin="bevel" stroke-miterlimit="10">0.2</text><text fill="rgb(68,68,68)" stroke="none" font-family="helvetica" font-size="12pt" font-style="normal" font-weight="normal" text-decoration="normal" x="31.7578125" y="284.9703063964844" text-anchor="start" dominant-baseline="alphabetic" transform="matrix(1, 0, 0, 1, 0.5, 0.5)" fill-opacity="1">0.4</text><text fill="none" stroke="rgb(0,0,0)" font-family="helvetica" font-size="12pt" font-style="normal" font-weight="normal" text-decoration="normal" x="31.7578125" y="284.9703063964844" text-anchor="start" dominant-baseline="alphabetic" transform="matrix(1, 0, 0, 1, 0.5, 0.5)" stroke-opacity="0" stroke-linejoin="bevel" stroke-miterlimit="10">0.4</text><text fill="rgb(68,68,68)" stroke="none" font-family="helvetica" font-size="12pt" font-style="normal" font-weight="normal" text-decoration="normal" x="31.7578125" y="203.98019409179688" text-anchor="start" dominant-baseline="alphabetic" transform="matrix(1, 0, 0, 1, 0.5, 0.5)" fill-opacity="1">0.6</text><text fill="none" stroke="rgb(0,0,0)" font-family="helvetica" font-size="12pt" font-style="normal" font-weight="normal" text-decoration="normal" x="31.7578125" y="203.98019409179688" text-anchor="start" dominant-baseline="alphabetic" transform="matrix(1, 0, 0, 1, 0.5, 0.5)" stroke-opacity="0" stroke-linejoin="bevel" stroke-miterlimit="10">0.6</text><text fill="rgb(68,68,68)" stroke="none" font-family="helvetica" font-size="12pt" font-style="normal" font-weight="normal" text-decoration="normal" x="31.7578125" y="122.99009704589844" text-anchor="start" dominant-baseline="alphabetic" transform="matrix(1, 0, 0, 1, 0.5, 0.5)" fill-opacity="1">0.8</text><text fill="none" stroke="rgb(0,0,0)" font-family="helvetica" font-size="12pt" font-style="normal" font-weight="normal" text-decoration="normal" x="31.7578125" y="122.99009704589844" text-anchor="start" dominant-baseline="alphabetic" transform="matrix(1, 0, 0, 1, 0.5, 0.5)" stroke-opacity="0" stroke-linejoin="bevel" stroke-miterlimit="10">0.8</text><text fill="rgb(68,68,68)" stroke="none" font-family="helvetica" font-size="12pt" font-style="normal" font-weight="normal" text-decoration="normal" x="45.1015625" y="42" text-anchor="start" dominant-baseline="alphabetic" transform="matrix(1, 0, 0, 1, 0.5, 0.5)" fill-opacity="1">1</text><text fill="none" stroke="rgb(0,0,0)" font-family="helvetica" font-size="12pt" font-style="normal" font-weight="normal" text-decoration="normal" x="45.1015625" y="42" text-anchor="start" dominant-baseline="alphabetic" transform="matrix(1, 0, 0, 1, 0.5, 0.5)" stroke-opacity="0" stroke-linejoin="bevel" stroke-miterlimit="10">1</text><text fill="rgb(68,68,68)" stroke="none" font-family="helvetica" font-size="14pt" font-style="italic" font-weight="normal" text-decoration="normal" x="-74.7705078125" y="236.5" text-anchor="start" dominant-baseline="alphabetic" transform="matrix(6.123233995736766e-17, -1, 1, 6.123233995736766e-17, -216.2421875, 264.7578125)" fill-opacity="1">total_selection_strength</text><text fill="none" stroke="rgb(0,0,0)" font-family="helvetica" font-size="14pt" font-style="italic" font-weight="normal" text-decoration="normal" x="-74.7705078125" y="236.5" text-anchor="start" dominant-baseline="alphabetic" transform="matrix(6.123233995736766e-17, -1, 1, 6.123233995736766e-17, -216.2421875, 264.7578125)" stroke-opacity="0" stroke-linejoin="bevel" stroke-miterlimit="10">total_selection_strength</text><text fill="rgb(68,68,68)" stroke="none" font-family="helvetica" font-size="16pt" font-style="normal" font-weight="bold" text-decoration="normal" x="65" y="26" text-anchor="start" dominant-baseline="alphabetic" transform="matrix(1, 0, 0, 1, 0.5, 0.5)" fill-opacity="1">indole evolution passaging/timepoint schedule</text><text fill="none" stroke="rgb(0,0,0)" font-family="helvetica" font-size="16pt" font-style="normal" font-weight="bold" text-decoration="normal" x="65" y="26" text-anchor="start" dominant-baseline="alphabetic" transform="matrix(1, 0, 0, 1, 0.5, 0.5)" stroke-opacity="0" stroke-miterlimit="10" stroke-dasharray="">indole evolution passaging/timepoint schedule</text></svg>