<svg version="1.1" xmlns="http://www.w3.org/2000/svg" width="800" height="600"><defs><clipPath id="gEbuXLOTIqfI"><path fill="none" stroke="none" d="M 65.5 60.5 L 607.5 60.5 L 607.5 545.5 L 65.5 545.5 L 65.5 60.5"/></clipPath><clipPath id="GtehzlzTrFsx"><path fill="none" stroke="none" d="M 65.5 60.5 L 607.5 60.5 L 607.5 545.5 L 65.5 545.5 L 65.5 60.5"/></clipPath><clipPath id="ElKmDxusQwAe"><path fill="none" stroke="none" d="M 65.5 60.5 L 607.5 60.5 L 607.5 545.5 L 65.5 545.5 L 65.5 60.5"/></clipPath><clipPath id="nyItTbsmcLSX"><path fill="none" stroke="none" d="M 65.5 60.5 L 607.5 60.5 L 607.5 545.5 L 65.5 545.5 L 65.5 60.5"/></clipPath><clipPath id="bFhcVHdISrAg"><path fill="none" stroke="none" d="M 65.5 60.5 L 607.5 60.5 L 607.5 545.5 L 65.5 545.5 L 65.5 60.5"/></clipPath><clipPath id="lFlGmGMhRzVJ"><path fill="none" stroke="none" d="M 65.5 60.5 L 607.5 60.5 L 607.5 545.5 L 65.5 545.5 L 65.5 60.5"/></clipPath><clipPath id="kUlpotqWhZdq"><path fill="none" stroke="none" d="M 65.5 60.5 L 607.5 60.5 L 607.5 545.5 L 65.5 545.5 L 65.5 60.5"/></clipPath><clipPath id="qDOlULMdwdJx"><path fill="none" stroke="none" d="M 65.5 60.5 L 607.5 60.5 L 607.5 545.5 L 65.5 545.5 L 65.5 60.5"/></clipPath><clipPath id="GFTBLPdpIcdV"><path fill="none" stroke="none" d="M 65.5 60.5 L 607.5 60.5 L 607.5 545.5 L 65.5 545.5 L 65.5 60.5"/></clipPath><clipPath id="qJmRTSfpfCfG"><path fill="none" stroke="none" d="M 65.5 60.5 L 607.5 60.5 L 607.5 545.5 L 65.5 545.5 L 65.5 60.5"/></clipPath><clipPath id="aBblLcpOtvTT"><path fill="none" stroke="none" d="M 65.5 60.5 L 607.5 60.5 L 607.5 545.5 L 65.5 545.5 L 65.5 60.5"/></clipPath><clipPath id="rTDdEIBlZrqw"><path fill="none" stroke="none" d="M 65.5 60.5 L 607.5 60.5 L 607.5 545.5 L 65.5 545.5 L 65.5 60.5"/></clipPath><clipPath id="BWBJdFZRTRzr"><path fill="none" stroke="none" d="M 65.5 60.5 L 607.5 60.5 L 607.5 545.5 L 65.5 545.5 L 65.5 60.5"/></clipPath><clipPath id="ucivEfJEyBPv"><path fill="none" stroke="none" d="M 65.5 60.5 L 607.5 60.5 L 607.5 545.5 L 65.5 545.5 L 65.5 60.5"/></clipPath><clipPath id="pHgpbGaNgIAI"><path fill="none" stroke="none" d="M 65.5 60.5 L 607.5 60.5 L 607.5 545.5 L 65.5 545.5 L 65.5 60.5"/></clipPath><clipPath id="MZnUsyBTwOVS"><path fill="none" stroke="none" d="M 65.5 60.5 L 607.5 60.5 L 607.5 545.5 L 65.5 545.5 L 65.5 60.5"/></clipPath></defs><path fill="rgb(255,255,255)" stroke="none" paint-order="stroke" d="M 0.5 0.5 L 800.5 0.5 L 800.5 600.5 L 0.5 600.5 L 0.5 0.5" fill-opacity="1"/><rect fill="#FFFFFF" stroke="none" x="65" y="60" width="542" height="485" transform="matrix(1, 0, 0, 1, 0.5, 0.5)"/><path fill="rgb(255,255,255)" stroke="none" paint-order="stroke" d="M 65.5 60.5 L 607.5 60.5 L 607.5 545.5 L 65.5 545.5 L 65.5 60.5" fill-opacity="1"/><path fill="none" stroke="rgb(229,229,229)" paint-order="fill" d="M 65.5 60.5 L 607.5 60.5 L 607.5 545.5 L 65.5 545.5 L 65.5 60.5" stroke-opacity="1" stroke-linejoin="bevel" stroke-miterlimit="10" stroke-dasharray=""/><path fill="none" stroke="rgb(255,241,35)" paint-order="fill" d="M 65.5 545.1608276367188 L 80.9857177734375 543.8134155273438 L 96.47142791748047 535.4766235351562 L 111.95714569091797 512.8999633789062 L 127.44285583496094 476.29425048828125 L 142.92857360839844 425.1690979003906 L 158.41429138183594 361.09649658203125 L 173.89999389648438 294.96148681640625 L 189.38571166992188 233.53794860839844 L 204.87142944335938 180.92784118652344 L 220.35714721679688 141.8380584716797 L 235.8428497314453 116.61691284179688 L 251.3285675048828 100.95166778564453 L 266.8143005371094 92.28032684326172 L 282.29998779296875 88.30672454833984 L 297.78570556640625 86.62471008300781 L 313.27142333984375 85.89598846435547 L 328.75714111328125 85.71266174316406 L 344.24285888671875 85.60724639892578 L 359.72857666015625 85.38725280761719 L 375.21429443359375 84.95643615722656 L 390.70001220703125 84.42020416259766 L 406.1856994628906 84.1314697265625 L 421.6714172363281 83.85647583007812 L 437.1571350097656 83.73273468017578 L 452.6428527832031 83.66398620605469 L 468.1285705566406 83.61815643310547 L 483.6142883300781 83.6089859008789 L 499.1000061035156 83.60440063476562 L 514.585693359375 83.5952377319336" stroke-opacity="1" stroke-linejoin="bevel" stroke-miterlimit="10" stroke-width="2" stroke-dasharray="" clip-path="url(#ElKmDxusQwAe)"/><path fill="none" stroke="rgb(255,211,28)" paint-order="fill" d="M 65.5 545.16845703125 L 80.9857177734375 542.9190063476562 L 96.47142791748047 531.5288696289062 L 111.95714569091797 505.6605529785156 L 127.44285583496094 464.5793762207031 L 142.92857360839844 408.1813659667969 L 158.41429138183594 342.33056640625 L 173.89999389648438 275.9011535644531 L 189.38571166992188 217.14967346191406 L 204.87142944335938 168.6701202392578 L 220.35714721679688 132.65989685058594 L 235.8428497314453 109.2230224609375 L 251.3285675048828 95.63549041748047 L 266.8143005371094 88.64668273925781 L 282.29998779296875 85.5521011352539 L 297.78570556640625 84.23236083984375 L 313.27142333984375 83.76426696777344 L 328.75714111328125 83.62124633789062 L 344.24285888671875 83.60173797607422 L 359.72857666015625 83.5952377319336" stroke-opacity="1" stroke-linejoin="bevel" stroke-miterlimit="10" stroke-width="2" stroke-dasharray="" clip-path="url(#nyItTbsmcLSX)"/><path fill="none" stroke="rgb(255,179,36)" paint-order="fill" d="M 65.5 476.1628723144531 L 80.9857177734375 469.7481994628906 L 96.47142791748047 427.391845703125 L 111.95714569091797 328.38775634765625 L 127.44285583496094 218.058349609375 L 142.92857360839844 143.8734893798828 L 158.41429138183594 109.03704071044922 L 173.89999389648438 94.68973541259766 L 189.38571166992188 88.792724609375 L 204.87142944335938 86.74311065673828 L 220.35714721679688 86.14151763916016 L 235.8428497314453 85.8826904296875 L 251.3285675048828 85.40701293945312 L 266.8143005371094 84.58856964111328 L 282.29998779296875 83.92401885986328 L 297.78570556640625 83.67918395996094 L 313.27142333984375 83.61622619628906 L 328.75714111328125 83.6092300415039 L 344.24285888671875 83.60223388671875 L 359.72857666015625 83.5952377319336" stroke-opacity="1" stroke-linejoin="bevel" stroke-miterlimit="10" stroke-width="2" stroke-dasharray="" clip-path="url(#bFhcVHdISrAg)"/><path fill="none" stroke="rgb(255,141,65)" paint-order="fill" d="M 65.5 486.8913269042969 L 80.9857177734375 480.1113586425781 L 96.47142791748047 435.4690246582031 L 111.95714569091797 330.9986877441406 L 127.44285583496094 215.9520263671875 L 142.92857360839844 139.75611877441406 L 158.41429138183594 104.443115234375 L 173.89999389648438 92.44427490234375 L 189.38571166992188 89.52538299560547 L 204.87142944335938 88.58321380615234 L 220.35714721679688 87.4840087890625 L 235.8428497314453 86.68038940429688 L 251.3285675048828 86.35709381103516 L 266.8143005371094 86.30167388916016 L 282.29998779296875 86.29243469238281 L 297.78570556640625 86.29243469238281 L 313.27142333984375 86.29243469238281 L 328.75714111328125 86.29243469238281 L 344.24285888671875 86.29243469238281 L 359.72857666015625 86.29243469238281 L 375.21429443359375 86.29243469238281 L 390.70001220703125 86.24625396728516 L 406.1856994628906 85.53500366210938 L 421.6714172363281 84.57435607910156 L 437.1571350097656 83.89082336425781 L 452.6428527832031 83.66913604736328 L 468.1285705566406 83.60447692871094 L 483.6142883300781 83.60447692871094 L 499.1000061035156 83.60447692871094 L 514.585693359375 83.60447692871094 L 530.0714111328125 83.5952377319336" stroke-opacity="1" stroke-linejoin="bevel" stroke-miterlimit="10" stroke-width="2" stroke-dasharray="" clip-path="url(#lFlGmGMhRzVJ)"/><path fill="none" stroke="rgb(255,96,90)" paint-order="fill" d="M 65.5 545.2626953125 L 80.9857177734375 544.3316650390625 L 96.47142791748047 541.06396484375 L 111.95714569091797 532.2771606445312 L 127.44285583496094 514.673095703125 L 142.92857360839844 485.2579040527344 L 158.41429138183594 443.7760314941406 L 173.89999389648438 392.29644775390625 L 189.38571166992188 335.62017822265625 L 204.87142944335938 278.59100341796875 L 220.35714721679688 226.88015747070312 L 235.8428497314453 182.58091735839844 L 251.3285675048828 148.37071228027344 L 266.8143005371094 123.74446868896484 L 282.29998779296875 107.27220916748047 L 297.78570556640625 97.39615631103516 L 313.27142333984375 91.53623962402344 L 328.75714111328125 88.54847717285156 L 344.24285888671875 87.09414672851562 L 359.72857666015625 86.35785675048828 L 375.21429443359375 85.96232604980469 L 390.70001220703125 85.59114074707031 L 406.1856994628906 85.20777893066406 L 421.6714172363281 84.78791046142578 L 437.1571350097656 84.4471435546875 L 452.6428527832031 84.14897918701172 L 468.1285705566406 83.8934097290039 L 483.6142883300781 83.7230224609375 L 499.1000061035156 83.66217041015625 L 514.585693359375 83.61349487304688 L 530.0714111328125 83.5952377319336" stroke-opacity="1" stroke-linejoin="bevel" stroke-miterlimit="10" stroke-width="2" stroke-dasharray="" clip-path="url(#kUlpotqWhZdq)"/><path fill="none" stroke="rgb(253,48,109)" paint-order="fill" d="M 65.5 545.2879638671875 L 80.9857177734375 544.4765625 L 96.47142791748047 541.63671875 L 111.95714569091797 533.5782470703125 L 127.44285583496094 516.0598754882812 L 142.92857360839844 486.35235595703125 L 158.41429138183594 443.5613708496094 L 173.89999389648438 389.521728515625 L 189.38571166992188 328.72369384765625 L 204.87142944335938 270.304443359375 L 220.35714721679688 218.54220581054688 L 235.8428497314453 176.5718231201172 L 251.3285675048828 145.85008239746094 L 266.8143005371094 125.0492935180664 L 282.29998779296875 108.5543441772461 L 297.78570556640625 98.27381134033203 L 313.27142333984375 91.89342498779297 L 328.75714111328125 88.0670394897461 L 344.24285888671875 85.59602355957031 L 359.72857666015625 84.544921875 L 375.21429443359375 84.03781127929688 L 390.70001220703125 83.7335433959961 L 406.1856994628906 83.65978240966797 L 421.6714172363281 83.5952377319336" stroke-opacity="1" stroke-linejoin="bevel" stroke-miterlimit="10" stroke-width="2" stroke-dasharray="" clip-path="url(#qDOlULMdwdJx)"/><path fill="none" stroke="rgb(224,0,123)" paint-order="fill" d="M 65.5 545.4879150390625 L 80.9857177734375 545.42333984375 L 96.47142791748047 545.1610717773438 L 111.95714569091797 544.3299560546875 L 127.44285583496094 541.8930053710938 L 142.92857360839844 536.502685546875 L 158.41429138183594 525.4678955078125 L 173.89999389648438 506.081298828125 L 189.38571166992188 477.2173156738281 L 204.87142944335938 439.0735778808594 L 220.35714721679688 392.4731750488281 L 235.8428497314453 341.4427185058594 L 251.3285675048828 290.3153991699219 L 266.8143005371094 242.18991088867188 L 282.29998779296875 201.238037109375 L 297.78570556640625 167.71803283691406 L 313.27142333984375 142.34805297851562 L 328.75714111328125 123.82086181640625 L 344.24285888671875 110.96641540527344 L 359.72857666015625 102.0498046875 L 375.21429443359375 95.8283462524414 L 390.70001220703125 91.64440155029297 L 406.1856994628906 88.96134185791016 L 421.6714172363281 87.17398834228516 L 437.1571350097656 85.91516876220703 L 452.6428527832031 85.01140594482422 L 468.1285705566406 84.42637634277344 L 483.6142883300781 84.08343505859375 L 499.1000061035156 83.85345458984375 L 514.585693359375 83.7525863647461 L 530.0714111328125 83.68399810791016 L 545.55712890625 83.63155364990234 L 561.0428466796875 83.61944580078125 L 576.528564453125 83.61137390136719 L 592.0142822265625 83.60330963134766 L 607.5 83.5952377319336" stroke-opacity="1" stroke-linejoin="bevel" stroke-miterlimit="10" stroke-width="2" stroke-dasharray="" clip-path="url(#GFTBLPdpIcdV)"/><path fill="none" stroke="rgb(183,0,135)" paint-order="fill" d="M 65.5 545.4683227539062 L 80.9857177734375 545.4366455078125 L 96.47142791748047 545.270263671875 L 111.95714569091797 544.3038940429688 L 127.44285583496094 541.23828125 L 142.92857360839844 534.6397705078125 L 158.41429138183594 522.7259521484375 L 173.89999389648438 502.4947204589844 L 189.38571166992188 473.7479553222656 L 204.87142944335938 436.6441345214844 L 220.35714721679688 391.904052734375 L 235.8428497314453 342.9577331542969 L 251.3285675048828 294.65301513671875 L 266.8143005371094 247.59197998046875 L 282.29998779296875 206.02047729492188 L 297.78570556640625 171.0078887939453 L 313.27142333984375 143.59983825683594 L 328.75714111328125 123.52701568603516 L 344.24285888671875 109.03877258300781 L 359.72857666015625 99.77865600585938 L 375.21429443359375 94.1940689086914 L 390.70001220703125 90.62944030761719 L 406.1856994628906 88.4668960571289 L 421.6714172363281 87.09649658203125 L 437.1571350097656 86.16177368164062 L 452.6428527832031 85.48052978515625 L 468.1285705566406 84.93395233154297 L 483.6142883300781 84.45075225830078 L 499.1000061035156 84.1101303100586 L 514.585693359375 83.89624786376953 L 530.0714111328125 83.75366973876953 L 545.55712890625 83.67445373535156 L 561.0428466796875 83.61900329589844 L 576.528564453125 83.60315704345703 L 592.0142822265625 83.60315704345703 L 607.5 83.60315704345703 L 622.9857177734375 83.60315704345703 L 638.471435546875 83.5952377319336" stroke-opacity="1" stroke-linejoin="bevel" stroke-miterlimit="10" stroke-width="2" stroke-dasharray="" clip-path="url(#qJmRTSfpfCfG)"/><path fill="none" stroke="rgb(139,5,146)" paint-order="fill" d="M 65.5 543.7553100585938 L 80.9857177734375 542.0724487304688 L 96.47142791748047 526.6422119140625 L 111.95714569091797 483.82855224609375 L 127.44285583496094 414.4729309082031 L 142.92857360839844 331.1224365234375 L 158.41429138183594 251.5707244873047 L 173.89999389648438 190.3199920654297 L 189.38571166992188 149.5480499267578 L 204.87142944335938 124.47855377197266 L 220.35714721679688 110.73117065429688 L 235.8428497314453 102.24268341064453 L 251.3285675048828 97.09514617919922 L 266.8143005371094 94.08829498291016 L 282.29998779296875 92.17034149169922 L 297.78570556640625 90.66072845458984 L 313.27142333984375 89.41096496582031 L 328.75714111328125 87.90135192871094 L 344.24285888671875 86.40411376953125 L 359.72857666015625 85.26570892333984 L 375.21429443359375 84.51090240478516 L 390.70001220703125 84.01595306396484 L 406.1856994628906 83.79322052001953 L 421.6714172363281 83.68185424804688 L 437.1571350097656 83.6571044921875 L 452.6428527832031 83.64473724365234 L 468.1285705566406 83.61998748779297 L 483.6142883300781 83.61998748779297 L 499.1000061035156 83.60761260986328 L 514.585693359375 83.60761260986328 L 530.0714111328125 83.60761260986328 L 545.55712890625 83.5952377319336" stroke-opacity="1" stroke-linejoin="bevel" stroke-miterlimit="10" stroke-width="2" stroke-dasharray="" clip-path="url(#aBblLcpOtvTT)"/><path fill="none" stroke="rgb(71,18,165)" paint-order="fill" d="M 65.5 542.5064086914062 L 80.9857177734375 540.15185546875 L 96.47142791748047 526.2310180664062 L 111.95714569091797 488.7302551269531 L 127.44285583496094 425.2557373046875 L 142.92857360839844 345.7073059082031 L 158.41429138183594 266.345703125 L 173.89999389648438 201.00816345214844 L 189.38571166992188 154.22683715820312 L 204.87142944335938 124.3648452758789 L 220.35714721679688 107.02767944335938 L 235.8428497314453 97.25556182861328 L 251.3285675048828 91.64199829101562 L 266.8143005371094 88.75165557861328 L 282.29998779296875 87.0951156616211 L 297.78570556640625 86.21522521972656 L 313.27142333984375 85.77774047851562 L 328.75714111328125 85.2222900390625 L 344.24285888671875 84.6766586303711 L 359.72857666015625 84.19001770019531 L 375.21429443359375 83.88525390625 L 390.70001220703125 83.72795867919922 L 406.1856994628906 83.66405487060547 L 421.6714172363281 83.63455963134766 L 437.1571350097656 83.61489868164062 L 452.6428527832031 83.60507202148438 L 468.1285705566406 83.60507202148438 L 483.6142883300781 83.5952377319336" stroke-opacity="1" stroke-linejoin="bevel" stroke-miterlimit="10" stroke-width="2" stroke-dasharray="" clip-path="url(#rTDdEIBlZrqw)"/><path fill="none" stroke="rgb(0,20,160)" paint-order="fill" d="M 65.5 545.5 L 80.9857177734375 545.4642944335938 L 96.47142791748047 545.4642944335938 L 111.95714569091797 545.4523315429688 L 127.44285583496094 545.4523315429688 L 142.92857360839844 545.392822265625 L 158.41429138183594 545.333251953125 L 173.89999389648438 545.0831298828125 L 189.38571166992188 544.6185913085938 L 204.87142944335938 543.6181030273438 L 220.35714721679688 542.0339965820312 L 235.8428497314453 538.9134521484375 L 251.3285675048828 532.6484985351562 L 266.8143005371094 522.8460693359375 L 282.29998779296875 507.1002502441406 L 297.78570556640625 485.51824951171875 L 313.27142333984375 457.6236267089844 L 328.75714111328125 422.7732238769531 L 344.24285888671875 384.6593322753906 L 359.72857666015625 343.4844055175781 L 375.21429443359375 301.18988037109375 L 390.70001220703125 261.2179260253906 L 406.1856994628906 223.9735107421875 L 421.6714172363281 191.87445068359375 L 437.1571350097656 164.7540283203125 L 452.6428527832031 143.07675170898438 L 468.1285705566406 125.17512512207031 L 483.6142883300781 112.38314819335938 L 499.1000061035156 102.92613220214844 L 514.585693359375 96.10136413574219 L 530.0714111328125 91.1346435546875 L 545.55712890625 88.4428482055664 L 561.0428466796875 86.32276153564453 L 576.528564453125 85.1912612915039 L 592.0142822265625 84.4289779663086 L 607.5 84.03592681884766 L 622.9857177734375 83.82154083251953 L 638.471435546875 83.6786117553711 L 653.9571533203125 83.63096618652344 L 669.44287109375 83.60714721679688 L 684.9285888671875 83.5952377319336" stroke-opacity="1" stroke-linejoin="bevel" stroke-miterlimit="10" stroke-width="2" stroke-dasharray="" clip-path="url(#BWBJdFZRTRzr)"/><path fill="none" stroke="rgb(0,12,124)" paint-order="fill" d="M 65.5 545.5 L 80.9857177734375 545.4738159179688 L 96.47142791748047 545.42138671875 L 111.95714569091797 545.3951416015625 L 127.44285583496094 545.3951416015625 L 142.92857360839844 545.290283203125 L 158.41429138183594 545.0281982421875 L 173.89999389648438 544.3336181640625 L 189.38571166992188 543.1278686523438 L 204.87142944335938 540.5723266601562 L 220.35714721679688 535.6970825195312 L 235.8428497314453 528.4627685546875 L 251.3285675048828 517.5196533203125 L 266.8143005371094 502.3172302246094 L 282.29998779296875 482.0167541503906 L 297.78570556640625 456.9327697753906 L 313.27142333984375 425.96435546875 L 328.75714111328125 391.575439453125 L 344.24285888671875 354.05426025390625 L 359.72857666015625 314.8555908203125 L 375.21429443359375 276.8626403808594 L 390.70001220703125 240.599609375 L 406.1856994628906 207.1280517578125 L 421.6714172363281 179.26568603515625 L 437.1571350097656 154.4831085205078 L 452.6428527832031 136.18777465820312 L 468.1285705566406 121.26055908203125 L 483.6142883300781 110.38296508789062 L 499.1000061035156 102.63758850097656 L 514.585693359375 96.70077514648438 L 530.0714111328125 92.65116882324219 L 545.55712890625 90.12179565429688 L 561.0428466796875 87.85453796386719 L 576.528564453125 86.50466918945312 L 592.0142822265625 85.49554443359375 L 607.5 84.787841796875 L 622.9857177734375 84.32914733886719 L 638.471435546875 84.132568359375 L 653.9571533203125 83.87045288085938 L 669.44287109375 83.75250244140625 L 684.9285888671875 83.70008087158203 L 700.414306640625 83.64765930175781 L 715.9000244140625 83.63455200195312 L 731.3857421875 83.5952377319336" stroke-opacity="1" stroke-linejoin="bevel" stroke-miterlimit="10" stroke-width="2" stroke-dasharray="" clip-path="url(#ucivEfJEyBPv)"/><path fill="none" stroke="rgb(128,128,128)" paint-order="fill" d="M 65.5 84.92739868164062 L 80.9857177734375 84.18905639648438 L 96.47142791748047 83.909423828125 L 111.95714569091797 83.6957778930664 L 127.44285583496094 83.61094665527344 L 142.92857360839844 83.5952377319336" stroke-opacity="1" stroke-linejoin="bevel" stroke-miterlimit="10" stroke-width="2" stroke-dasharray="" clip-path="url(#pHgpbGaNgIAI)"/><path fill="none" stroke="rgb(0,0,0)" paint-order="fill" d="M 65.5 545.5 L 607.5 545.5" stroke-opacity="1" stroke-linejoin="bevel" stroke-miterlimit="10" stroke-dasharray=""/><path fill="none" stroke="rgb(0,0,0)" paint-order="fill" d="M 65.5 551.5 L 65.5 543.5 M 142.5 551.5 L 142.5 543.5 M 220.5 551.5 L 220.5 543.5 M 297.5 551.5 L 297.5 543.5 M 375.5 551.5 L 375.5 543.5 M 452.5 551.5 L 452.5 543.5 M 530.5 551.5 L 530.5 543.5 M 607.5 551.5 L 607.5 543.5" stroke-opacity="1" stroke-linejoin="bevel" stroke-miterlimit="10" stroke-dasharray=""/><path fill="none" stroke="rgb(0,0,0)" paint-order="fill" d="M 65.5 549.5 L 65.5 545.5 M 80.5 549.5 L 80.5 545.5 M 96.5 549.5 L 96.5 545.5 M 111.5 549.5 L 111.5 545.5 M 127.5 549.5 L 127.5 545.5 M 142.5 549.5 L 142.5 545.5 M 158.5 549.5 L 158.5 545.5 M 173.5 549.5 L 173.5 545.5 M 189.5 549.5 L 189.5 545.5 M 204.5 549.5 L 204.5 545.5 M 220.5 549.5 L 220.5 545.5 M 235.5 549.5 L 235.5 545.5 M 251.5 549.5 L 251.5 545.5 M 266.5 549.5 L 266.5 545.5 M 282.5 549.5 L 282.5 545.5 M 297.5 549.5 L 297.5 545.5 M 313.5 549.5 L 313.5 545.5 M 328.5 549.5 L 328.5 545.5 M 344.5 549.5 L 344.5 545.5 M 359.5 549.5 L 359.5 545.5 M 375.5 549.5 L 375.5 545.5 M 390.5 549.5 L 390.5 545.5 M 406.5 549.5 L 406.5 545.5 M 421.5 549.5 L 421.5 545.5 M 437.5 549.5 L 437.5 545.5 M 452.5 549.5 L 452.5 545.5 M 468.5 549.5 L 468.5 545.5 M 483.5 549.5 L 483.5 545.5 M 499.5 549.5 L 499.5 545.5 M 514.5 549.5 L 514.5 545.5 M 530.5 549.5 L 530.5 545.5 M 545.5 549.5 L 545.5 545.5 M 561.5 549.5 L 561.5 545.5 M 576.5 549.5 L 576.5 545.5 M 592.5 549.5 L 592.5 545.5 M 607.5 549.5 L 607.5 545.5" stroke-opacity="1" stroke-linejoin="bevel" stroke-miterlimit="10" stroke-dasharray=""/><text fill="rgb(68,68,68)" stroke="none" font-family="helvetica" font-size="12pt" font-style="normal" font-weight="normal" text-decoration="normal" x="60.55078125" y="568" text-anchor="start" dominant-baseline="alphabetic" transform="matrix(1, 0, 0, 1, 0.5, 0.5)" fill-opacity="1">0</text><text fill="rgb(68,68,68)" stroke="none" font-family="helvetica" font-size="12pt" font-style="normal" font-weight="normal" text-decoration="normal" x="137.97935485839844" y="568" text-anchor="start" dominant-baseline="alphabetic" transform="matrix(1, 0, 0, 1, 0.5, 0.5)" fill-opacity="1">5</text><text fill="rgb(68,68,68)" stroke="none" font-family="helvetica" font-size="12pt" font-style="normal" font-weight="normal" text-decoration="normal" x="210.95870971679688" y="568" text-anchor="start" dominant-baseline="alphabetic" transform="matrix(1, 0, 0, 1, 0.5, 0.5)" fill-opacity="1">10</text><text fill="rgb(68,68,68)" stroke="none" font-family="helvetica" font-size="12pt" font-style="normal" font-weight="normal" text-decoration="normal" x="288.38726806640625" y="568" text-anchor="start" dominant-baseline="alphabetic" transform="matrix(1, 0, 0, 1, 0.5, 0.5)" fill-opacity="1">15</text><text fill="rgb(68,68,68)" stroke="none" font-family="helvetica" font-size="12pt" font-style="normal" font-weight="normal" text-decoration="normal" x="365.81585693359375" y="568" text-anchor="start" dominant-baseline="alphabetic" transform="matrix(1, 0, 0, 1, 0.5, 0.5)" fill-opacity="1">20</text><text fill="rgb(68,68,68)" stroke="none" font-family="helvetica" font-size="12pt" font-style="normal" font-weight="normal" text-decoration="normal" x="443.2444152832031" y="568" text-anchor="start" dominant-baseline="alphabetic" transform="matrix(1, 0, 0, 1, 0.5, 0.5)" fill-opacity="1">25</text><text fill="rgb(68,68,68)" stroke="none" font-family="helvetica" font-size="12pt" font-style="normal" font-weight="normal" text-decoration="normal" x="520.6729736328125" y="568" text-anchor="start" dominant-baseline="alphabetic" transform="matrix(1, 0, 0, 1, 0.5, 0.5)" fill-opacity="1">30</text><text fill="rgb(68,68,68)" stroke="none" font-family="helvetica" font-size="12pt" font-style="normal" font-weight="normal" text-decoration="normal" x="598.1015625" y="568" text-anchor="start" dominant-baseline="alphabetic" transform="matrix(1, 0, 0, 1, 0.5, 0.5)" fill-opacity="1">35</text><text fill="rgb(68,68,68)" stroke="none" font-family="helvetica" font-size="14pt" font-style="italic" font-weight="normal" text-decoration="normal" x="245.27396392822266" y="593" text-anchor="start" dominant-baseline="alphabetic" transform="matrix(1, 0, 0, 1, 0.5, 0.5)" fill-opacity="1">NT hamming distance</text><path fill="none" stroke="rgb(0,0,0)" paint-order="fill" d="M 65.5 545.5 L 65.5 60.5" stroke-opacity="1" stroke-linejoin="bevel" stroke-miterlimit="10" stroke-dasharray=""/><path fill="none" stroke="rgb(0,0,0)" paint-order="fill" d="M 59.5 545.5 L 67.5 545.5 M 59.5 453.5 L 67.5 453.5 M 59.5 360.5 L 67.5 360.5 M 59.5 268.5 L 67.5 268.5 M 59.5 175.5 L 67.5 175.5 M 59.5 83.5 L 67.5 83.5" stroke-opacity="1" stroke-linejoin="bevel" stroke-miterlimit="10" stroke-dasharray=""/><path fill="none" stroke="rgb(0,0,0)" paint-order="fill" d="M 61.5 545.5 L 65.5 545.5 M 61.5 527.5 L 65.5 527.5 M 61.5 508.5 L 65.5 508.5 M 61.5 490.5 L 65.5 490.5 M 61.5 471.5 L 65.5 471.5 M 61.5 453.5 L 65.5 453.5 M 61.5 434.5 L 65.5 434.5 M 61.5 416.5 L 65.5 416.5 M 61.5 397.5 L 65.5 397.5 M 61.5 379.5 L 65.5 379.5 M 61.5 360.5 L 65.5 360.5 M 61.5 342.5 L 65.5 342.5 M 61.5 323.5 L 65.5 323.5 M 61.5 305.5 L 65.5 305.5 M 61.5 286.5 L 65.5 286.5 M 61.5 268.5 L 65.5 268.5 M 61.5 249.5 L 65.5 249.5 M 61.5 231.5 L 65.5 231.5 M 61.5 212.5 L 65.5 212.5 M 61.5 194.5 L 65.5 194.5 M 61.5 175.5 L 65.5 175.5 M 61.5 157.5 L 65.5 157.5 M 61.5 139.5 L 65.5 139.5 M 61.5 120.5 L 65.5 120.5 M 61.5 102.5 L 65.5 102.5 M 61.5 83.5 L 65.5 83.5 M 61.5 65.5 L 65.5 65.5" stroke-opacity="1" stroke-linejoin="bevel" stroke-miterlimit="10" stroke-dasharray=""/><text fill="rgb(68,68,68)" stroke="none" font-family="helvetica" font-size="12pt" font-style="normal" font-weight="normal" text-decoration="normal" x="45.1015625" y="551" text-anchor="start" dominant-baseline="alphabetic" transform="matrix(1, 0, 0, 1, 0.5, 0.5)" fill-opacity="1">0</text><text fill="rgb(68,68,68)" stroke="none" font-family="helvetica" font-size="12pt" font-style="normal" font-weight="normal" text-decoration="normal" x="31.7578125" y="458.6190490722656" text-anchor="start" dominant-baseline="alphabetic" transform="matrix(1, 0, 0, 1, 0.5, 0.5)" fill-opacity="1">0.2</text><text fill="rgb(68,68,68)" stroke="none" font-family="helvetica" font-size="12pt" font-style="normal" font-weight="normal" text-decoration="normal" x="31.7578125" y="366.23809814453125" text-anchor="start" dominant-baseline="alphabetic" transform="matrix(1, 0, 0, 1, 0.5, 0.5)" fill-opacity="1">0.4</text><text fill="rgb(68,68,68)" stroke="none" font-family="helvetica" font-size="12pt" font-style="normal" font-weight="normal" text-decoration="normal" x="31.7578125" y="273.8571472167969" text-anchor="start" dominant-baseline="alphabetic" transform="matrix(1, 0, 0, 1, 0.5, 0.5)" fill-opacity="1">0.6</text><text fill="rgb(68,68,68)" stroke="none" font-family="helvetica" font-size="12pt" font-style="normal" font-weight="normal" text-decoration="normal" x="31.7578125" y="181.4761962890625" text-anchor="start" dominant-baseline="alphabetic" transform="matrix(1, 0, 0, 1, 0.5, 0.5)" fill-opacity="1">0.8</text><text fill="rgb(68,68,68)" stroke="none" font-family="helvetica" font-size="12pt" font-style="normal" font-weight="normal" text-decoration="normal" x="45.1015625" y="89.0952377319336" text-anchor="start" dominant-baseline="alphabetic" transform="matrix(1, 0, 0, 1, 0.5, 0.5)" fill-opacity="1">1</text><text fill="rgb(68,68,68)" stroke="none" font-family="helvetica" font-size="14pt" font-style="italic" font-weight="normal" text-decoration="normal" x="-64.38568115234375" y="298.5" text-anchor="start" dominant-baseline="alphabetic" transform="matrix(6.123233995736766e-17, -1, 1, 6.123233995736766e-17, -278.2421875, 326.7578125)" fill-opacity="1">cumulative frequency</text><path fill="rgb(255,255,255)" stroke="rgb(229,229,229)" paint-order="fill" d="M 607.5 229.5 L 750.05078125 229.5 L 750.05078125 545.5 L 607.5 545.5 L 607.5 229.5" fill-opacity="0.9490196078431372" stroke-opacity="0.5019607843137255" stroke-linejoin="bevel" stroke-miterlimit="10" stroke-dasharray=""/><text fill="rgb(68,68,68)" stroke="none" font-family="helvetica" font-size="13px" font-style="normal" font-weight="normal" text-decoration="normal" x="642" y="249" text-anchor="start" dominant-baseline="central" transform="matrix(1, 0, 0, 1, 0.5, 0.5)" fill-opacity="1">trx-1-P0</text><path fill="none" stroke="rgb(255,241,35)" paint-order="fill" d="M 617.5 249.5 L 637.5 249.5" stroke-opacity="1" stroke-linejoin="bevel" stroke-miterlimit="10" stroke-width="2" stroke-dasharray=""/><text fill="rgb(68,68,68)" stroke="none" font-family="helvetica" font-size="13px" font-style="normal" font-weight="normal" text-decoration="normal" x="642" y="272" text-anchor="start" dominant-baseline="central" transform="matrix(1, 0, 0, 1, 0.5, 0.5)" fill-opacity="1">trx-2-P0</text><path fill="none" stroke="rgb(255,211,28)" paint-order="fill" d="M 617.5 272.5 L 637.5 272.5" stroke-opacity="1" stroke-linejoin="bevel" stroke-miterlimit="10" stroke-width="2" stroke-dasharray=""/><text fill="rgb(68,68,68)" stroke="none" font-family="helvetica" font-size="13px" font-style="normal" font-weight="normal" text-decoration="normal" x="642" y="295" text-anchor="start" dominant-baseline="central" transform="matrix(1, 0, 0, 1, 0.5, 0.5)" fill-opacity="1">D3-1-P0</text><path fill="none" stroke="rgb(255,179,36)" paint-order="fill" d="M 617.5 295.5 L 637.5 295.5" stroke-opacity="1" stroke-linejoin="bevel" stroke-miterlimit="10" stroke-width="2" stroke-dasharray=""/><text fill="rgb(68,68,68)" stroke="none" font-family="helvetica" font-size="13px" font-style="normal" font-weight="normal" text-decoration="normal" x="642" y="318" text-anchor="start" dominant-baseline="central" transform="matrix(1, 0, 0, 1, 0.5, 0.5)" fill-opacity="1">D3-2-P0</text><path fill="none" stroke="rgb(255,141,65)" paint-order="fill" d="M 617.5 318.5 L 637.5 318.5" stroke-opacity="1" stroke-linejoin="bevel" stroke-miterlimit="10" stroke-width="2" stroke-dasharray=""/><text fill="rgb(68,68,68)" stroke="none" font-family="helvetica" font-size="13px" font-style="normal" font-weight="normal" text-decoration="normal" x="642" y="341" text-anchor="start" dominant-baseline="central" transform="matrix(1, 0, 0, 1, 0.5, 0.5)" fill-opacity="1">trxSgk123-1-P0</text><path fill="none" stroke="rgb(255,96,90)" paint-order="fill" d="M 617.5 341.5 L 637.5 341.5" stroke-opacity="1" stroke-linejoin="bevel" stroke-miterlimit="10" stroke-width="2" stroke-dasharray=""/><text fill="rgb(68,68,68)" stroke="none" font-family="helvetica" font-size="13px" font-style="normal" font-weight="normal" text-decoration="normal" x="642" y="364" text-anchor="start" dominant-baseline="central" transform="matrix(1, 0, 0, 1, 0.5, 0.5)" fill-opacity="1">trxSgk123-2-P0</text><path fill="none" stroke="rgb(253,48,109)" paint-order="fill" d="M 617.5 364.5 L 637.5 364.5" stroke-opacity="1" stroke-linejoin="bevel" stroke-miterlimit="10" stroke-width="2" stroke-dasharray=""/><text fill="rgb(68,68,68)" stroke="none" font-family="helvetica" font-size="13px" font-style="normal" font-weight="normal" text-decoration="normal" x="642" y="387" text-anchor="start" dominant-baseline="central" transform="matrix(1, 0, 0, 1, 0.5, 0.5)" fill-opacity="1">trx-1-P10</text><path fill="none" stroke="rgb(224,0,123)" paint-order="fill" d="M 617.5 387.5 L 637.5 387.5" stroke-opacity="1" stroke-linejoin="bevel" stroke-miterlimit="10" stroke-width="2" stroke-dasharray=""/><text fill="rgb(68,68,68)" stroke="none" font-family="helvetica" font-size="13px" font-style="normal" font-weight="normal" text-decoration="normal" x="642" y="410" text-anchor="start" dominant-baseline="central" transform="matrix(1, 0, 0, 1, 0.5, 0.5)" fill-opacity="1">trx-2-P10</text><path fill="none" stroke="rgb(183,0,135)" paint-order="fill" d="M 617.5 410.5 L 637.5 410.5" stroke-opacity="1" stroke-linejoin="bevel" stroke-miterlimit="10" stroke-width="2" stroke-dasharray=""/><text fill="rgb(68,68,68)" stroke="none" font-family="helvetica" font-size="13px" font-style="normal" font-weight="normal" text-decoration="normal" x="642" y="433" text-anchor="start" dominant-baseline="central" transform="matrix(1, 0, 0, 1, 0.5, 0.5)" fill-opacity="1">D3-1-P10</text><path fill="none" stroke="rgb(139,5,146)" paint-order="fill" d="M 617.5 433.5 L 637.5 433.5" stroke-opacity="1" stroke-linejoin="bevel" stroke-miterlimit="10" stroke-width="2" stroke-dasharray=""/><text fill="rgb(68,68,68)" stroke="none" font-family="helvetica" font-size="13px" font-style="normal" font-weight="normal" text-decoration="normal" x="642" y="456" text-anchor="start" dominant-baseline="central" transform="matrix(1, 0, 0, 1, 0.5, 0.5)" fill-opacity="1">D3-2-P10</text><path fill="none" stroke="rgb(71,18,165)" paint-order="fill" d="M 617.5 456.5 L 637.5 456.5" stroke-opacity="1" stroke-linejoin="bevel" stroke-miterlimit="10" stroke-width="2" stroke-dasharray=""/><text fill="rgb(68,68,68)" stroke="none" font-family="helvetica" font-size="13px" font-style="normal" font-weight="normal" text-decoration="normal" x="642" y="479" text-anchor="start" dominant-baseline="central" transform="matrix(1, 0, 0, 1, 0.5, 0.5)" fill-opacity="1">trxSgk123-1-P10</text><path fill="none" stroke="rgb(0,20,160)" paint-order="fill" d="M 617.5 479.5 L 637.5 479.5" stroke-opacity="1" stroke-linejoin="bevel" stroke-miterlimit="10" stroke-width="2" stroke-dasharray=""/><text fill="rgb(68,68,68)" stroke="none" font-family="helvetica" font-size="13px" font-style="normal" font-weight="normal" text-decoration="normal" x="642" y="502" text-anchor="start" dominant-baseline="central" transform="matrix(1, 0, 0, 1, 0.5, 0.5)" fill-opacity="1">trxSgk123-2-P10</text><path fill="none" stroke="rgb(0,12,124)" paint-order="fill" d="M 617.5 502.5 L 637.5 502.5" stroke-opacity="1" stroke-linejoin="bevel" stroke-miterlimit="10" stroke-width="2" stroke-dasharray=""/><text fill="rgb(68,68,68)" stroke="none" font-family="helvetica" font-size="13px" font-style="normal" font-weight="normal" text-decoration="normal" x="642" y="525" text-anchor="start" dominant-baseline="central" transform="matrix(1, 0, 0, 1, 0.5, 0.5)" fill-opacity="1">GR562-ctrl</text><path fill="none" stroke="rgb(128,128,128)" paint-order="fill" d="M 617.5 525.5 L 637.5 525.5" stroke-opacity="1" stroke-linejoin="bevel" stroke-miterlimit="10" stroke-width="2" stroke-dasharray=""/><text fill="rgb(68,68,68)" stroke="none" font-family="helvetica" font-size="16pt" font-style="normal" font-weight="bold" text-decoration="normal" x="65" y="26" text-anchor="start" dominant-baseline="alphabetic" transform="matrix(1, 0, 0, 1, 0.5, 0.5)" fill-opacity="1">NT hamming distance among sequence pairs, cumulative distribution</text><text fill="rgb(68,68,68)" stroke="none" font-family="helvetica" font-size="16pt" font-style="normal" font-weight="bold" text-decoration="normal" x="65" y="50" text-anchor="start" dominant-baseline="alphabetic" transform="matrix(1, 0, 0, 1, 0.5, 0.5)" fill-opacity="1">sample: Trixy-Sgk-Prog-P0P10-220413</text></svg>