<svg version="1.1" xmlns="http://www.w3.org/2000/svg" width="600" height="400"><defs><clipPath id="STOJswnKedpC"><path fill="none" stroke="none" d="M 68.5 10.5 L 570.5 10.5 L 570.5 258.5 L 68.5 258.5 L 68.5 10.5"/></clipPath><clipPath id="HaEqhNuDPaWr"><path fill="none" stroke="none" d="M 68.5 10.5 L 570.5 10.5 L 570.5 258.5 L 68.5 258.5 L 68.5 10.5"/></clipPath><clipPath id="adRzHCtMzDlZ"><path fill="none" stroke="none" d="M 68.5 10.5 L 570.5 10.5 L 570.5 258.5 L 68.5 258.5 L 68.5 10.5"/></clipPath><clipPath id="utxVneTPvcob"><path fill="none" stroke="none" d="M 68.5 10.5 L 570.5 10.5 L 570.5 258.5 L 68.5 258.5 L 68.5 10.5"/></clipPath><clipPath id="GnndlTwFHvNE"><path fill="none" stroke="none" d="M 68.5 10.5 L 570.5 10.5 L 570.5 258.5 L 68.5 258.5 L 68.5 10.5"/></clipPath><clipPath id="yUaKzEsDPkfo"><path fill="none" stroke="none" d="M 68.5 10.5 L 570.5 10.5 L 570.5 258.5 L 68.5 258.5 L 68.5 10.5"/></clipPath><clipPath id="ebQahXXxbvWJ"><path fill="none" stroke="none" d="M 68.5 10.5 L 570.5 10.5 L 570.5 258.5 L 68.5 258.5 L 68.5 10.5"/></clipPath><clipPath id="XNnZwPumRoQm"><path fill="none" stroke="none" d="M 68.5 10.5 L 570.5 10.5 L 570.5 258.5 L 68.5 258.5 L 68.5 10.5"/></clipPath><clipPath id="PXiTbnaGarxK"><path fill="none" stroke="none" d="M 68.5 10.5 L 570.5 10.5 L 570.5 258.5 L 68.5 258.5 L 68.5 10.5"/></clipPath><clipPath id="PXUWzbqTGgFB"><path fill="none" stroke="none" d="M 68.5 10.5 L 570.5 10.5 L 570.5 258.5 L 68.5 258.5 L 68.5 10.5"/></clipPath><clipPath id="scIPZVGuXdTR"><path fill="none" stroke="none" d="M 68.5 10.5 L 570.5 10.5 L 570.5 258.5 L 68.5 258.5 L 68.5 10.5"/></clipPath><clipPath id="NmarcvBGxBIp"><path fill="none" stroke="none" d="M 68.5 10.5 L 570.5 10.5 L 570.5 258.5 L 68.5 258.5 L 68.5 10.5"/></clipPath><clipPath id="OSCCTEDMrOaa"><path fill="none" stroke="none" d="M 68.5 10.5 L 570.5 10.5 L 570.5 258.5 L 68.5 258.5 L 68.5 10.5"/></clipPath><clipPath id="vZkraDHSiIlO"><path fill="none" stroke="none" d="M 68.5 10.5 L 570.5 10.5 L 570.5 258.5 L 68.5 258.5 L 68.5 10.5"/></clipPath><clipPath id="UcdKwEBOfggt"><path fill="none" stroke="none" d="M 68.5 10.5 L 570.5 10.5 L 570.5 258.5 L 68.5 258.5 L 68.5 10.5"/></clipPath><clipPath id="zPJbJWVOMBER"><path fill="none" stroke="none" d="M 68.5 10.5 L 570.5 10.5 L 570.5 258.5 L 68.5 258.5 L 68.5 10.5"/></clipPath><clipPath id="OFOCWPLJBBpp"><path fill="none" stroke="none" d="M 68.5 10.5 L 570.5 10.5 L 570.5 258.5 L 68.5 258.5 L 68.5 10.5"/></clipPath><clipPath id="rsytpSoxytLi"><path fill="none" stroke="none" d="M 68.5 10.5 L 570.5 10.5 L 570.5 258.5 L 68.5 258.5 L 68.5 10.5"/></clipPath><clipPath id="nsrPOPRiXfon"><path fill="none" stroke="none" d="M 68.5 10.5 L 570.5 10.5 L 570.5 258.5 L 68.5 258.5 L 68.5 10.5"/></clipPath><clipPath id="ZhGzOXgdoFqH"><path fill="none" stroke="none" d="M 68.5 10.5 L 570.5 10.5 L 570.5 258.5 L 68.5 258.5 L 68.5 10.5"/></clipPath><clipPath id="OyKXoVokNUhh"><path fill="none" stroke="none" d="M 68.5 10.5 L 570.5 10.5 L 570.5 258.5 L 68.5 258.5 L 68.5 10.5"/></clipPath></defs><path fill="rgb(255,255,255)" stroke="none" paint-order="stroke" d="M 0.5 0.5 L 600.5 0.5 L 600.5 400.5 L 0.5 400.5 L 0.5 0.5" fill-opacity="1"/><rect fill="#FFFFFF" stroke="none" x="68" y="10" width="502" height="248" transform="matrix(1, 0, 0, 1, 0.5, 0.5)"/><path fill="rgb(255,255,255)" stroke="none" paint-order="stroke" d="M 68.5 10.5 L 570.5 10.5 L 570.5 258.5 L 68.5 258.5 L 68.5 10.5" fill-opacity="1"/><path fill="none" stroke="rgb(229,229,229)" paint-order="fill" d="M 68.5 10.5 L 570.5 10.5 L 570.5 258.5 L 68.5 258.5 L 68.5 10.5" stroke-opacity="1" stroke-linejoin="bevel" stroke-miterlimit="10" stroke-dasharray=""/><path fill="none" stroke="rgb(211,211,211)" paint-order="fill" d="M 68.5 416.8325706087646 L 570.5 416.8325706087646" stroke-opacity="1" stroke-linejoin="bevel" stroke-miterlimit="10" stroke-width="3" stroke-dasharray="6" clip-path="url(#adRzHCtMzDlZ)"/><path fill="none" stroke="rgb(211,211,211)" paint-order="fill" d="M 68.5 364.05504707250975 L 570.5 364.05504707250975" stroke-opacity="1" stroke-linejoin="bevel" stroke-miterlimit="10" stroke-width="3" stroke-dasharray="6" clip-path="url(#utxVneTPvcob)"/><path fill="none" stroke="rgb(211,211,211)" paint-order="fill" d="M 68.5 311.2775235362548 L 570.5 311.2775235362548" stroke-opacity="1" stroke-linejoin="bevel" stroke-miterlimit="10" stroke-width="3" stroke-dasharray="6" clip-path="url(#GnndlTwFHvNE)"/><path fill="none" stroke="rgb(211,211,211)" paint-order="fill" d="M 68.5 258.5 L 570.5 258.5" stroke-opacity="1" stroke-linejoin="bevel" stroke-miterlimit="10" stroke-width="3" stroke-dasharray="6" clip-path="url(#yUaKzEsDPkfo)"/><path fill="none" stroke="rgb(211,211,211)" paint-order="fill" d="M 68.5 205.7224764637451 L 570.5 205.7224764637451" stroke-opacity="1" stroke-linejoin="bevel" stroke-miterlimit="10" stroke-width="3" stroke-dasharray="6" clip-path="url(#ebQahXXxbvWJ)"/><path fill="none" stroke="rgb(211,211,211)" paint-order="fill" d="M 68.5 152.9449529274902 L 570.5 152.9449529274902" stroke-opacity="1" stroke-linejoin="bevel" stroke-miterlimit="10" stroke-width="3" stroke-dasharray="6" clip-path="url(#XNnZwPumRoQm)"/><path fill="none" stroke="rgb(211,211,211)" paint-order="fill" d="M 68.5 100.16742939123529 L 570.5 100.16742939123529" stroke-opacity="1" stroke-linejoin="bevel" stroke-miterlimit="10" stroke-width="3" stroke-dasharray="6" clip-path="url(#PXiTbnaGarxK)"/><path fill="none" stroke="rgb(211,211,211)" paint-order="fill" d="M 68.5 47.389905854980384 L 570.5 47.389905854980384" stroke-opacity="1" stroke-linejoin="bevel" stroke-miterlimit="10" stroke-width="3" stroke-dasharray="6" clip-path="url(#PXUWzbqTGgFB)"/><path fill="none" stroke="rgb(211,211,211)" paint-order="fill" d="M 68.5 -5.387617681274435 L 570.5 -5.387617681274435" stroke-opacity="1" stroke-linejoin="bevel" stroke-miterlimit="10" stroke-width="3" stroke-dasharray="6" clip-path="url(#scIPZVGuXdTR)"/><path fill="none" stroke="rgb(211,211,211)" paint-order="fill" d="M 68.5 -58.165141217529424 L 570.5 -58.165141217529424" stroke-opacity="1" stroke-linejoin="bevel" stroke-miterlimit="10" stroke-width="3" stroke-dasharray="6" clip-path="url(#NmarcvBGxBIp)"/><path fill="none" stroke="rgb(0,0,0)" paint-order="fill" d="M 89.41666412353516 174.6470947265625 L 89.41666412353516 179.00338745117188" stroke-opacity="1" stroke-linejoin="bevel" stroke-miterlimit="10" stroke-dasharray="" clip-path="url(#vZkraDHSiIlO)"/><path fill="none" stroke="rgb(0,0,0)" paint-order="fill" d="M 131.25 91.22576904296875 L 131.25 91.95484161376953" stroke-opacity="1" stroke-linejoin="bevel" stroke-miterlimit="10" stroke-dasharray="" clip-path="url(#vZkraDHSiIlO)"/><path fill="none" stroke="rgb(0,0,0)" paint-order="fill" d="M 173.0833282470703 93.39537048339844 L 173.0833282470703 93.54676818847656" stroke-opacity="1" stroke-linejoin="bevel" stroke-miterlimit="10" stroke-dasharray="" clip-path="url(#vZkraDHSiIlO)"/><path fill="none" stroke="rgb(0,0,0)" paint-order="fill" d="M 214.9166717529297 78.58880615234375 L 214.9166717529297 79.31547546386719" stroke-opacity="1" stroke-linejoin="bevel" stroke-miterlimit="10" stroke-dasharray="" clip-path="url(#vZkraDHSiIlO)"/><path fill="none" stroke="rgb(0,0,0)" paint-order="fill" d="M 256.75 81.04438781738281 L 256.75 81.36135864257812" stroke-opacity="1" stroke-linejoin="bevel" stroke-miterlimit="10" stroke-dasharray="" clip-path="url(#vZkraDHSiIlO)"/><path fill="none" stroke="rgb(0,0,0)" paint-order="fill" d="M 298.5833435058594 73.02902221679688 L 298.5833435058594 73.23661804199219" stroke-opacity="1" stroke-linejoin="bevel" stroke-miterlimit="10" stroke-dasharray="" clip-path="url(#vZkraDHSiIlO)"/><path fill="none" stroke="rgb(0,0,0)" paint-order="fill" d="M 340.4166564941406 37.19295883178711 L 340.4166564941406 37.85105514526367" stroke-opacity="1" stroke-linejoin="bevel" stroke-miterlimit="10" stroke-dasharray="" clip-path="url(#vZkraDHSiIlO)"/><path fill="none" stroke="rgb(0,0,0)" paint-order="fill" d="M 382.25 75.97454071044922 L 382.25 76.0582275390625" stroke-opacity="1" stroke-linejoin="bevel" stroke-miterlimit="10" stroke-dasharray="" clip-path="url(#vZkraDHSiIlO)"/><path fill="none" stroke="rgb(0,0,0)" paint-order="fill" d="M 424.0833435058594 47.65689468383789 L 424.0833435058594 49.644752502441406" stroke-opacity="1" stroke-linejoin="bevel" stroke-miterlimit="10" stroke-dasharray="" clip-path="url(#vZkraDHSiIlO)"/><path fill="none" stroke="rgb(0,0,0)" paint-order="fill" d="M 465.9166564941406 74.905029296875 L 465.9166564941406 75.0267562866211" stroke-opacity="1" stroke-linejoin="bevel" stroke-miterlimit="10" stroke-dasharray="" clip-path="url(#vZkraDHSiIlO)"/><path fill="none" stroke="rgb(0,0,0)" paint-order="fill" d="M 507.75 46.06544494628906 L 507.75 46.701656341552734" stroke-opacity="1" stroke-linejoin="bevel" stroke-miterlimit="10" stroke-dasharray="" clip-path="url(#vZkraDHSiIlO)"/><path fill="none" stroke="rgb(0,0,0)" paint-order="fill" d="M 549.5833129882812 49.500572204589844 L 549.5833129882812 49.95368194580078" stroke-opacity="1" stroke-linejoin="bevel" stroke-miterlimit="10" stroke-dasharray="" clip-path="url(#vZkraDHSiIlO)"/><path fill="none" stroke="rgb(0,0,0)" paint-order="fill" d="M 89.41666412353516 201.6663818359375 L 89.41666412353516 191.435302734375" stroke-opacity="1" stroke-linejoin="bevel" stroke-miterlimit="10" stroke-dasharray="" clip-path="url(#UcdKwEBOfggt)"/><path fill="none" stroke="rgb(0,0,0)" paint-order="fill" d="M 131.25 94.90145874023438 L 131.25 93.77843475341797" stroke-opacity="1" stroke-linejoin="bevel" stroke-miterlimit="10" stroke-dasharray="" clip-path="url(#UcdKwEBOfggt)"/><path fill="none" stroke="rgb(0,0,0)" paint-order="fill" d="M 173.0833282470703 95.61028289794922 L 173.0833282470703 94.63481903076172" stroke-opacity="1" stroke-linejoin="bevel" stroke-miterlimit="10" stroke-dasharray="" clip-path="url(#UcdKwEBOfggt)"/><path fill="none" stroke="rgb(0,0,0)" paint-order="fill" d="M 214.9166717529297 81.6448745727539 L 214.9166717529297 80.8418197631836" stroke-opacity="1" stroke-linejoin="bevel" stroke-miterlimit="10" stroke-dasharray="" clip-path="url(#UcdKwEBOfggt)"/><path fill="none" stroke="rgb(0,0,0)" paint-order="fill" d="M 256.75 82.33946228027344 L 256.75 82.0087661743164" stroke-opacity="1" stroke-linejoin="bevel" stroke-miterlimit="10" stroke-dasharray="" clip-path="url(#UcdKwEBOfggt)"/><path fill="none" stroke="rgb(0,0,0)" paint-order="fill" d="M 298.5833435058594 73.87094116210938 L 298.5833435058594 73.65754699707031" stroke-opacity="1" stroke-linejoin="bevel" stroke-miterlimit="10" stroke-dasharray="" clip-path="url(#UcdKwEBOfggt)"/><path fill="none" stroke="rgb(0,0,0)" paint-order="fill" d="M 340.4166564941406 39.94692611694336 L 340.4166564941406 39.22679901123047" stroke-opacity="1" stroke-linejoin="bevel" stroke-miterlimit="10" stroke-dasharray="" clip-path="url(#UcdKwEBOfggt)"/><path fill="none" stroke="rgb(0,0,0)" paint-order="fill" d="M 382.25 76.31114196777344 L 382.25 76.22652435302734" stroke-opacity="1" stroke-linejoin="bevel" stroke-miterlimit="10" stroke-dasharray="" clip-path="url(#UcdKwEBOfggt)"/><path fill="none" stroke="rgb(0,0,0)" paint-order="fill" d="M 424.0833435058594 56.91466522216797 L 424.0833435058594 54.22692108154297" stroke-opacity="1" stroke-linejoin="bevel" stroke-miterlimit="10" stroke-dasharray="" clip-path="url(#UcdKwEBOfggt)"/><path fill="none" stroke="rgb(0,0,0)" paint-order="fill" d="M 465.9166564941406 75.3958740234375 L 465.9166564941406 75.27217864990234" stroke-opacity="1" stroke-linejoin="bevel" stroke-miterlimit="10" stroke-dasharray="" clip-path="url(#UcdKwEBOfggt)"/><path fill="none" stroke="rgb(0,0,0)" paint-order="fill" d="M 507.75 48.72364044189453 L 507.75 48.02963638305664" stroke-opacity="1" stroke-linejoin="bevel" stroke-miterlimit="10" stroke-dasharray="" clip-path="url(#UcdKwEBOfggt)"/><path fill="none" stroke="rgb(0,0,0)" paint-order="fill" d="M 549.5833129882812 52.086429595947266 L 549.5833129882812 51.235965728759766" stroke-opacity="1" stroke-linejoin="bevel" stroke-miterlimit="10" stroke-dasharray="" clip-path="url(#UcdKwEBOfggt)"/><path fill="none" stroke="rgb(0,0,0)" paint-order="fill" d="M 81.05000305175781 201.6663818359375 L 97.78333282470703 201.6663818359375" stroke-opacity="1" stroke-linejoin="bevel" stroke-miterlimit="10" stroke-dasharray="" clip-path="url(#zPJbJWVOMBER)"/><path fill="none" stroke="rgb(0,0,0)" paint-order="fill" d="M 122.88333129882812 94.90145874023438 L 139.61666870117188 94.90145874023438" stroke-opacity="1" stroke-linejoin="bevel" stroke-miterlimit="10" stroke-dasharray="" clip-path="url(#zPJbJWVOMBER)"/><path fill="none" stroke="rgb(0,0,0)" paint-order="fill" d="M 164.71665954589844 95.61028289794922 L 181.4499969482422 95.61028289794922" stroke-opacity="1" stroke-linejoin="bevel" stroke-miterlimit="10" stroke-dasharray="" clip-path="url(#zPJbJWVOMBER)"/><path fill="none" stroke="rgb(0,0,0)" paint-order="fill" d="M 206.5500030517578 81.6448745727539 L 223.28334045410156 81.6448745727539" stroke-opacity="1" stroke-linejoin="bevel" stroke-miterlimit="10" stroke-dasharray="" clip-path="url(#zPJbJWVOMBER)"/><path fill="none" stroke="rgb(0,0,0)" paint-order="fill" d="M 248.3833465576172 82.33946228027344 L 265.1166687011719 82.33946228027344" stroke-opacity="1" stroke-linejoin="bevel" stroke-miterlimit="10" stroke-dasharray="" clip-path="url(#zPJbJWVOMBER)"/><path fill="none" stroke="rgb(0,0,0)" paint-order="fill" d="M 290.2166748046875 73.87094116210938 L 306.9499816894531 73.87094116210938" stroke-opacity="1" stroke-linejoin="bevel" stroke-miterlimit="10" stroke-dasharray="" clip-path="url(#zPJbJWVOMBER)"/><path fill="none" stroke="rgb(0,0,0)" paint-order="fill" d="M 332.0500183105469 39.94692611694336 L 348.7833251953125 39.94692611694336" stroke-opacity="1" stroke-linejoin="bevel" stroke-miterlimit="10" stroke-dasharray="" clip-path="url(#zPJbJWVOMBER)"/><path fill="none" stroke="rgb(0,0,0)" paint-order="fill" d="M 373.8833312988281 76.31114196777344 L 390.6166687011719 76.31114196777344" stroke-opacity="1" stroke-linejoin="bevel" stroke-miterlimit="10" stroke-dasharray="" clip-path="url(#zPJbJWVOMBER)"/><path fill="none" stroke="rgb(0,0,0)" paint-order="fill" d="M 415.7166748046875 56.91466522216797 L 432.4499816894531 56.91466522216797" stroke-opacity="1" stroke-linejoin="bevel" stroke-miterlimit="10" stroke-dasharray="" clip-path="url(#zPJbJWVOMBER)"/><path fill="none" stroke="rgb(0,0,0)" paint-order="fill" d="M 457.5500183105469 75.3958740234375 L 474.2833251953125 75.3958740234375" stroke-opacity="1" stroke-linejoin="bevel" stroke-miterlimit="10" stroke-dasharray="" clip-path="url(#zPJbJWVOMBER)"/><path fill="none" stroke="rgb(0,0,0)" paint-order="fill" d="M 499.3833312988281 48.72364044189453 L 516.1166381835938 48.72364044189453" stroke-opacity="1" stroke-linejoin="bevel" stroke-miterlimit="10" stroke-dasharray="" clip-path="url(#zPJbJWVOMBER)"/><path fill="none" stroke="rgb(0,0,0)" paint-order="fill" d="M 541.2166748046875 52.086429595947266 L 557.9500122070312 52.086429595947266" stroke-opacity="1" stroke-linejoin="bevel" stroke-miterlimit="10" stroke-dasharray="" clip-path="url(#zPJbJWVOMBER)"/><path fill="none" stroke="rgb(0,0,0)" paint-order="fill" d="M 81.05000305175781 174.6470947265625 L 97.78333282470703 174.6470947265625" stroke-opacity="1" stroke-linejoin="bevel" stroke-miterlimit="10" stroke-dasharray="" clip-path="url(#OFOCWPLJBBpp)"/><path fill="none" stroke="rgb(0,0,0)" paint-order="fill" d="M 122.88333129882812 91.22576904296875 L 139.61666870117188 91.22576904296875" stroke-opacity="1" stroke-linejoin="bevel" stroke-miterlimit="10" stroke-dasharray="" clip-path="url(#OFOCWPLJBBpp)"/><path fill="none" stroke="rgb(0,0,0)" paint-order="fill" d="M 164.71665954589844 93.39537048339844 L 181.4499969482422 93.39537048339844" stroke-opacity="1" stroke-linejoin="bevel" stroke-miterlimit="10" stroke-dasharray="" clip-path="url(#OFOCWPLJBBpp)"/><path fill="none" stroke="rgb(0,0,0)" paint-order="fill" d="M 206.5500030517578 78.58880615234375 L 223.28334045410156 78.58880615234375" stroke-opacity="1" stroke-linejoin="bevel" stroke-miterlimit="10" stroke-dasharray="" clip-path="url(#OFOCWPLJBBpp)"/><path fill="none" stroke="rgb(0,0,0)" paint-order="fill" d="M 248.3833465576172 81.04438781738281 L 265.1166687011719 81.04438781738281" stroke-opacity="1" stroke-linejoin="bevel" stroke-miterlimit="10" stroke-dasharray="" clip-path="url(#OFOCWPLJBBpp)"/><path fill="none" stroke="rgb(0,0,0)" paint-order="fill" d="M 290.2166748046875 73.02902221679688 L 306.9499816894531 73.02902221679688" stroke-opacity="1" stroke-linejoin="bevel" stroke-miterlimit="10" stroke-dasharray="" clip-path="url(#OFOCWPLJBBpp)"/><path fill="none" stroke="rgb(0,0,0)" paint-order="fill" d="M 332.0500183105469 37.19295883178711 L 348.7833251953125 37.19295883178711" stroke-opacity="1" stroke-linejoin="bevel" stroke-miterlimit="10" stroke-dasharray="" clip-path="url(#OFOCWPLJBBpp)"/><path fill="none" stroke="rgb(0,0,0)" paint-order="fill" d="M 373.8833312988281 75.97454071044922 L 390.6166687011719 75.97454071044922" stroke-opacity="1" stroke-linejoin="bevel" stroke-miterlimit="10" stroke-dasharray="" clip-path="url(#OFOCWPLJBBpp)"/><path fill="none" stroke="rgb(0,0,0)" paint-order="fill" d="M 415.7166748046875 47.65689468383789 L 432.4499816894531 47.65689468383789" stroke-opacity="1" stroke-linejoin="bevel" stroke-miterlimit="10" stroke-dasharray="" clip-path="url(#OFOCWPLJBBpp)"/><path fill="none" stroke="rgb(0,0,0)" paint-order="fill" d="M 457.5500183105469 74.905029296875 L 474.2833251953125 74.905029296875" stroke-opacity="1" stroke-linejoin="bevel" stroke-miterlimit="10" stroke-dasharray="" clip-path="url(#OFOCWPLJBBpp)"/><path fill="none" stroke="rgb(0,0,0)" paint-order="fill" d="M 499.3833312988281 46.06544494628906 L 516.1166381835938 46.06544494628906" stroke-opacity="1" stroke-linejoin="bevel" stroke-miterlimit="10" stroke-dasharray="" clip-path="url(#OFOCWPLJBBpp)"/><path fill="none" stroke="rgb(0,0,0)" paint-order="fill" d="M 541.2166748046875 49.500572204589844 L 557.9500122070312 49.500572204589844" stroke-opacity="1" stroke-linejoin="bevel" stroke-miterlimit="10" stroke-dasharray="" clip-path="url(#OFOCWPLJBBpp)"/><path fill="rgb(128,128,128)" stroke="rgb(0,0,0)" paint-order="fill" d="M 74.77499389648438 184.38662719726562 L 104.05833435058594 184.38662719726562 L 104.05833435058594 179.00338745117188 L 74.77499389648438 179.00338745117188 L 74.77499389648438 184.38662719726562" fill-opacity="1" clip-path="url(#rsytpSoxytLi)" stroke-opacity="1" stroke-linejoin="bevel" stroke-miterlimit="10" stroke-dasharray=""/><path fill="rgb(128,128,128)" stroke="rgb(0,0,0)" paint-order="fill" d="M 116.60833740234375 92.70787811279297 L 145.89166259765625 92.70787811279297 L 145.89166259765625 91.95484161376953 L 116.60833740234375 91.95484161376953 L 116.60833740234375 92.70787811279297" fill-opacity="1" clip-path="url(#rsytpSoxytLi)" stroke-opacity="1" stroke-linejoin="bevel" stroke-miterlimit="10" stroke-dasharray=""/><path fill="rgb(128,128,128)" stroke="rgb(0,0,0)" paint-order="fill" d="M 158.44166564941406 93.69918060302734 L 187.72499084472656 93.69918060302734 L 187.72499084472656 93.54676818847656 L 158.44166564941406 93.54676818847656 L 158.44166564941406 93.69918060302734" fill-opacity="1" clip-path="url(#rsytpSoxytLi)" stroke-opacity="1" stroke-linejoin="bevel" stroke-miterlimit="10" stroke-dasharray=""/><path fill="rgb(128,128,128)" stroke="rgb(0,0,0)" paint-order="fill" d="M 200.27500915527344 80.0659408569336 L 229.55833435058594 80.0659408569336 L 229.55833435058594 79.31547546386719 L 200.27500915527344 79.31547546386719 L 200.27500915527344 80.0659408569336" fill-opacity="1" clip-path="url(#rsytpSoxytLi)" stroke-opacity="1" stroke-linejoin="bevel" stroke-miterlimit="10" stroke-dasharray=""/><path fill="rgb(128,128,128)" stroke="rgb(0,0,0)" paint-order="fill" d="M 242.10833740234375 81.68277740478516 L 271.39166259765625 81.68277740478516 L 271.39166259765625 81.36135864257812 L 242.10833740234375 81.36135864257812 L 242.10833740234375 81.68277740478516" fill-opacity="1" clip-path="url(#rsytpSoxytLi)" stroke-opacity="1" stroke-linejoin="bevel" stroke-miterlimit="10" stroke-dasharray=""/><path fill="rgb(128,128,128)" stroke="rgb(0,0,0)" paint-order="fill" d="M 283.9416809082031 73.44611358642578 L 313.2250061035156 73.44611358642578 L 313.2250061035156 73.23661804199219 L 283.9416809082031 73.23661804199219 L 283.9416809082031 73.44611358642578" fill-opacity="1" clip-path="url(#rsytpSoxytLi)" stroke-opacity="1" stroke-linejoin="bevel" stroke-miterlimit="10" stroke-dasharray=""/><path fill="rgb(128,128,128)" stroke="rgb(0,0,0)" paint-order="fill" d="M 325.7749938964844 38.52860641479492 L 355.0583190917969 38.52860641479492 L 355.0583190917969 37.85105514526367 L 325.7749938964844 37.85105514526367 L 325.7749938964844 38.52860641479492" fill-opacity="1" clip-path="url(#rsytpSoxytLi)" stroke-opacity="1" stroke-linejoin="bevel" stroke-miterlimit="10" stroke-dasharray=""/><path fill="rgb(128,128,128)" stroke="rgb(0,0,0)" paint-order="fill" d="M 367.60833740234375 76.14221954345703 L 396.89166259765625 76.14221954345703 L 396.89166259765625 76.0582275390625 L 367.60833740234375 76.0582275390625 L 367.60833740234375 76.14221954345703" fill-opacity="1" clip-path="url(#rsytpSoxytLi)" stroke-opacity="1" stroke-linejoin="bevel" stroke-miterlimit="10" stroke-dasharray=""/><path fill="rgb(128,128,128)" stroke="rgb(0,0,0)" paint-order="fill" d="M 409.4416809082031 51.8215217590332 L 438.7250061035156 51.8215217590332 L 438.7250061035156 49.644752502441406 L 409.4416809082031 49.644752502441406 L 409.4416809082031 51.8215217590332" fill-opacity="1" clip-path="url(#rsytpSoxytLi)" stroke-opacity="1" stroke-linejoin="bevel" stroke-miterlimit="10" stroke-dasharray=""/><path fill="rgb(128,128,128)" stroke="rgb(0,0,0)" paint-order="fill" d="M 451.2749938964844 75.14913940429688 L 480.5583190917969 75.14913940429688 L 480.5583190917969 75.0267562866211 L 451.2749938964844 75.0267562866211 L 451.2749938964844 75.14913940429688" fill-opacity="1" clip-path="url(#rsytpSoxytLi)" stroke-opacity="1" stroke-linejoin="bevel" stroke-miterlimit="10" stroke-dasharray=""/><path fill="rgb(128,128,128)" stroke="rgb(0,0,0)" paint-order="fill" d="M 493.10833740234375 47.35602951049805 L 522.3916625976562 47.35602951049805 L 522.3916625976562 46.701656341552734 L 493.10833740234375 46.701656341552734 L 493.10833740234375 47.35602951049805" fill-opacity="1" clip-path="url(#rsytpSoxytLi)" stroke-opacity="1" stroke-linejoin="bevel" stroke-miterlimit="10" stroke-dasharray=""/><path fill="rgb(128,128,128)" stroke="rgb(0,0,0)" paint-order="fill" d="M 534.941650390625 50.41592788696289 L 564.2249755859375 50.41592788696289 L 564.2249755859375 49.95368194580078 L 534.941650390625 49.95368194580078 L 534.941650390625 50.41592788696289" fill-opacity="1" clip-path="url(#rsytpSoxytLi)" stroke-opacity="1" stroke-linejoin="bevel" stroke-miterlimit="10" stroke-dasharray=""/><path fill="rgb(128,128,128)" stroke="rgb(0,0,0)" paint-order="fill" d="M 74.77499389648438 191.435302734375 L 104.05833435058594 191.435302734375 L 104.05833435058594 184.38662719726562 L 74.77499389648438 184.38662719726562 L 74.77499389648438 191.435302734375" fill-opacity="1" clip-path="url(#nsrPOPRiXfon)" stroke-opacity="1" stroke-linejoin="bevel" stroke-miterlimit="10" stroke-dasharray=""/><path fill="rgb(128,128,128)" stroke="rgb(0,0,0)" paint-order="fill" d="M 116.60833740234375 93.77843475341797 L 145.89166259765625 93.77843475341797 L 145.89166259765625 92.70787811279297 L 116.60833740234375 92.70787811279297 L 116.60833740234375 93.77843475341797" fill-opacity="1" clip-path="url(#nsrPOPRiXfon)" stroke-opacity="1" stroke-linejoin="bevel" stroke-miterlimit="10" stroke-dasharray=""/><path fill="rgb(128,128,128)" stroke="rgb(0,0,0)" paint-order="fill" d="M 158.44166564941406 94.63481903076172 L 187.72499084472656 94.63481903076172 L 187.72499084472656 93.69918060302734 L 158.44166564941406 93.69918060302734 L 158.44166564941406 94.63481903076172" fill-opacity="1" clip-path="url(#nsrPOPRiXfon)" stroke-opacity="1" stroke-linejoin="bevel" stroke-miterlimit="10" stroke-dasharray=""/><path fill="rgb(128,128,128)" stroke="rgb(0,0,0)" paint-order="fill" d="M 200.27500915527344 80.8418197631836 L 229.55833435058594 80.8418197631836 L 229.55833435058594 80.0659408569336 L 200.27500915527344 80.0659408569336 L 200.27500915527344 80.8418197631836" fill-opacity="1" clip-path="url(#nsrPOPRiXfon)" stroke-opacity="1" stroke-linejoin="bevel" stroke-miterlimit="10" stroke-dasharray=""/><path fill="rgb(128,128,128)" stroke="rgb(0,0,0)" paint-order="fill" d="M 242.10833740234375 82.0087661743164 L 271.39166259765625 82.0087661743164 L 271.39166259765625 81.68277740478516 L 242.10833740234375 81.68277740478516 L 242.10833740234375 82.0087661743164" fill-opacity="1" clip-path="url(#nsrPOPRiXfon)" stroke-opacity="1" stroke-linejoin="bevel" stroke-miterlimit="10" stroke-dasharray=""/><path fill="rgb(128,128,128)" stroke="rgb(0,0,0)" paint-order="fill" d="M 283.9416809082031 73.65754699707031 L 313.2250061035156 73.65754699707031 L 313.2250061035156 73.44611358642578 L 283.9416809082031 73.44611358642578 L 283.9416809082031 73.65754699707031" fill-opacity="1" clip-path="url(#nsrPOPRiXfon)" stroke-opacity="1" stroke-linejoin="bevel" stroke-miterlimit="10" stroke-dasharray=""/><path fill="rgb(128,128,128)" stroke="rgb(0,0,0)" paint-order="fill" d="M 325.7749938964844 39.22679901123047 L 355.0583190917969 39.22679901123047 L 355.0583190917969 38.52860641479492 L 325.7749938964844 38.52860641479492 L 325.7749938964844 39.22679901123047" fill-opacity="1" clip-path="url(#nsrPOPRiXfon)" stroke-opacity="1" stroke-linejoin="bevel" stroke-miterlimit="10" stroke-dasharray=""/><path fill="rgb(128,128,128)" stroke="rgb(0,0,0)" paint-order="fill" d="M 367.60833740234375 76.22652435302734 L 396.89166259765625 76.22652435302734 L 396.89166259765625 76.14221954345703 L 367.60833740234375 76.14221954345703 L 367.60833740234375 76.22652435302734" fill-opacity="1" clip-path="url(#nsrPOPRiXfon)" stroke-opacity="1" stroke-linejoin="bevel" stroke-miterlimit="10" stroke-dasharray=""/><path fill="rgb(128,128,128)" stroke="rgb(0,0,0)" paint-order="fill" d="M 409.4416809082031 54.22692108154297 L 438.7250061035156 54.22692108154297 L 438.7250061035156 51.8215217590332 L 409.4416809082031 51.8215217590332 L 409.4416809082031 54.22692108154297" fill-opacity="1" clip-path="url(#nsrPOPRiXfon)" stroke-opacity="1" stroke-linejoin="bevel" stroke-miterlimit="10" stroke-dasharray=""/><path fill="rgb(128,128,128)" stroke="rgb(0,0,0)" paint-order="fill" d="M 451.2749938964844 75.27217864990234 L 480.5583190917969 75.27217864990234 L 480.5583190917969 75.14913940429688 L 451.2749938964844 75.14913940429688 L 451.2749938964844 75.27217864990234" fill-opacity="1" clip-path="url(#nsrPOPRiXfon)" stroke-opacity="1" stroke-linejoin="bevel" stroke-miterlimit="10" stroke-dasharray=""/><path fill="rgb(128,128,128)" stroke="rgb(0,0,0)" paint-order="fill" d="M 493.10833740234375 48.02963638305664 L 522.3916625976562 48.02963638305664 L 522.3916625976562 47.35602951049805 L 493.10833740234375 47.35602951049805 L 493.10833740234375 48.02963638305664" fill-opacity="1" clip-path="url(#nsrPOPRiXfon)" stroke-opacity="1" stroke-linejoin="bevel" stroke-miterlimit="10" stroke-dasharray=""/><path fill="rgb(128,128,128)" stroke="rgb(0,0,0)" paint-order="fill" d="M 534.941650390625 51.235965728759766 L 564.2249755859375 51.235965728759766 L 564.2249755859375 50.41592788696289 L 534.941650390625 50.41592788696289 L 534.941650390625 51.235965728759766" fill-opacity="1" clip-path="url(#nsrPOPRiXfon)" stroke-opacity="1" stroke-linejoin="bevel" stroke-miterlimit="10" stroke-dasharray=""/><path fill="rgb(0,0,0)" stroke="rgb(0,0,0)" paint-order="fill" d="M 95.19693756103516 201.6663818359375 A 3 3 0 0 1 89.19693756103516 201.6663818359375 A 3 3 0 0 1 95.19693756103516 201.6663818359375" fill-opacity="0.7019607843137254" clip-path="url(#ZhGzOXgdoFqH)" stroke-opacity="0.7019607843137254" stroke-linejoin="bevel" stroke-miterlimit="10" stroke-dasharray=""/><path fill="rgb(0,0,0)" stroke="rgb(0,0,0)" paint-order="fill" d="M 92.46456909179688 174.6470947265625 A 3 3 0 0 1 86.46456909179688 174.6470947265625 A 3 3 0 0 1 92.46456909179688 174.6470947265625" fill-opacity="0.7019607843137254" clip-path="url(#ZhGzOXgdoFqH)" stroke-opacity="0.7019607843137254" stroke-linejoin="bevel" stroke-miterlimit="10" stroke-dasharray=""/><path fill="rgb(0,0,0)" stroke="rgb(0,0,0)" paint-order="fill" d="M 134.33724975585938 92.70787811279297 A 3 3 0 0 1 128.33724975585938 92.70787811279297 A 3 3 0 0 1 134.33724975585938 92.70787811279297" fill-opacity="0.7019607843137254" clip-path="url(#ZhGzOXgdoFqH)" stroke-opacity="0.7019607843137254" stroke-linejoin="bevel" stroke-miterlimit="10" stroke-dasharray=""/><path fill="rgb(0,0,0)" stroke="rgb(0,0,0)" paint-order="fill" d="M 132.30648803710938 91.22576904296875 A 3 3 0 0 1 126.30648803710938 91.22576904296875 A 3 3 0 0 1 132.30648803710938 91.22576904296875" fill-opacity="0.7019607843137254" clip-path="url(#ZhGzOXgdoFqH)" stroke-opacity="0.7019607843137254" stroke-linejoin="bevel" stroke-miterlimit="10" stroke-dasharray=""/><path fill="rgb(0,0,0)" stroke="rgb(0,0,0)" paint-order="fill" d="M 136.2470245361328 94.90145874023438 A 3 3 0 0 1 130.2470245361328 94.90145874023438 A 3 3 0 0 1 136.2470245361328 94.90145874023438" fill-opacity="0.7019607843137254" clip-path="url(#ZhGzOXgdoFqH)" stroke-opacity="0.7019607843137254" stroke-linejoin="bevel" stroke-miterlimit="10" stroke-dasharray=""/><path fill="rgb(0,0,0)" stroke="rgb(0,0,0)" paint-order="fill" d="M 180.11880493164062 93.39537048339844 A 3 3 0 0 1 174.11880493164062 93.39537048339844 A 3 3 0 0 1 180.11880493164062 93.39537048339844" fill-opacity="0.7019607843137254" clip-path="url(#ZhGzOXgdoFqH)" stroke-opacity="0.7019607843137254" stroke-linejoin="bevel" stroke-miterlimit="10" stroke-dasharray=""/><path fill="rgb(0,0,0)" stroke="rgb(0,0,0)" paint-order="fill" d="M 179.38197326660156 95.61028289794922 A 3 3 0 0 1 173.38197326660156 95.61028289794922 A 3 3 0 0 1 179.38197326660156 95.61028289794922" fill-opacity="0.7019607843137254" clip-path="url(#ZhGzOXgdoFqH)" stroke-opacity="0.7019607843137254" stroke-linejoin="bevel" stroke-miterlimit="10" stroke-dasharray=""/><path fill="rgb(0,0,0)" stroke="rgb(0,0,0)" paint-order="fill" d="M 177.258056640625 93.69918060302734 A 3 3 0 0 1 171.258056640625 93.69918060302734 A 3 3 0 0 1 177.258056640625 93.69918060302734" fill-opacity="0.7019607843137254" clip-path="url(#ZhGzOXgdoFqH)" stroke-opacity="0.7019607843137254" stroke-linejoin="bevel" stroke-miterlimit="10" stroke-dasharray=""/><path fill="rgb(0,0,0)" stroke="rgb(0,0,0)" paint-order="fill" d="M 214.610595703125 78.58880615234375 A 3 3 0 0 1 208.610595703125 78.58880615234375 A 3 3 0 0 1 214.610595703125 78.58880615234375" fill-opacity="0.7019607843137254" clip-path="url(#ZhGzOXgdoFqH)" stroke-opacity="0.7019607843137254" stroke-linejoin="bevel" stroke-miterlimit="10" stroke-dasharray=""/><path fill="rgb(0,0,0)" stroke="rgb(0,0,0)" paint-order="fill" d="M 219.7373504638672 81.6448745727539 A 3 3 0 0 1 213.7373504638672 81.6448745727539 A 3 3 0 0 1 219.7373504638672 81.6448745727539" fill-opacity="0.7019607843137254" clip-path="url(#ZhGzOXgdoFqH)" stroke-opacity="0.7019607843137254" stroke-linejoin="bevel" stroke-miterlimit="10" stroke-dasharray=""/><path fill="rgb(0,0,0)" stroke="rgb(0,0,0)" paint-order="fill" d="M 256.77931213378906 82.33946228027344 A 3 3 0 0 1 250.77931213378906 82.33946228027344 A 3 3 0 0 1 256.77931213378906 82.33946228027344" fill-opacity="0.7019607843137254" clip-path="url(#ZhGzOXgdoFqH)" stroke-opacity="0.7019607843137254" stroke-linejoin="bevel" stroke-miterlimit="10" stroke-dasharray=""/><path fill="rgb(0,0,0)" stroke="rgb(0,0,0)" paint-order="fill" d="M 263.442138671875 81.04438781738281 A 3 3 0 0 1 257.442138671875 81.04438781738281 A 3 3 0 0 1 263.442138671875 81.04438781738281" fill-opacity="0.7019607843137254" clip-path="url(#ZhGzOXgdoFqH)" stroke-opacity="0.7019607843137254" stroke-linejoin="bevel" stroke-miterlimit="10" stroke-dasharray=""/><path fill="rgb(0,0,0)" stroke="rgb(0,0,0)" paint-order="fill" d="M 297.5180969238281 73.02902221679688 A 3 3 0 0 1 291.5180969238281 73.02902221679688 A 3 3 0 0 1 297.5180969238281 73.02902221679688" fill-opacity="0.7019607843137254" clip-path="url(#ZhGzOXgdoFqH)" stroke-opacity="0.7019607843137254" stroke-linejoin="bevel" stroke-miterlimit="10" stroke-dasharray=""/><path fill="rgb(0,0,0)" stroke="rgb(0,0,0)" paint-order="fill" d="M 305.68017578125 73.87094116210938 A 3 3 0 0 1 299.68017578125 73.87094116210938 A 3 3 0 0 1 305.68017578125 73.87094116210938" fill-opacity="0.7019607843137254" clip-path="url(#ZhGzOXgdoFqH)" stroke-opacity="0.7019607843137254" stroke-linejoin="bevel" stroke-miterlimit="10" stroke-dasharray=""/><path fill="rgb(0,0,0)" stroke="rgb(0,0,0)" paint-order="fill" d="M 344.1485595703125 37.19295883178711 A 3 3 0 0 1 338.1485595703125 37.19295883178711 A 3 3 0 0 1 344.1485595703125 37.19295883178711" fill-opacity="0.7019607843137254" clip-path="url(#ZhGzOXgdoFqH)" stroke-opacity="0.7019607843137254" stroke-linejoin="bevel" stroke-miterlimit="10" stroke-dasharray=""/><path fill="rgb(0,0,0)" stroke="rgb(0,0,0)" paint-order="fill" d="M 341.93109130859375 39.94692611694336 A 3 3 0 0 1 335.93109130859375 39.94692611694336 A 3 3 0 0 1 341.93109130859375 39.94692611694336" fill-opacity="0.7019607843137254" clip-path="url(#ZhGzOXgdoFqH)" stroke-opacity="0.7019607843137254" stroke-linejoin="bevel" stroke-miterlimit="10" stroke-dasharray=""/><path fill="rgb(0,0,0)" stroke="rgb(0,0,0)" paint-order="fill" d="M 382.05877685546875 76.31114196777344 A 3 3 0 0 1 376.05877685546875 76.31114196777344 A 3 3 0 0 1 382.05877685546875 76.31114196777344" fill-opacity="0.7019607843137254" clip-path="url(#ZhGzOXgdoFqH)" stroke-opacity="0.7019607843137254" stroke-linejoin="bevel" stroke-miterlimit="10" stroke-dasharray=""/><path fill="rgb(0,0,0)" stroke="rgb(0,0,0)" paint-order="fill" d="M 381.2774353027344 75.97454071044922 A 3 3 0 0 1 375.2774353027344 75.97454071044922 A 3 3 0 0 1 381.2774353027344 75.97454071044922" fill-opacity="0.7019607843137254" clip-path="url(#ZhGzOXgdoFqH)" stroke-opacity="0.7019607843137254" stroke-linejoin="bevel" stroke-miterlimit="10" stroke-dasharray=""/><path fill="rgb(0,0,0)" stroke="rgb(0,0,0)" paint-order="fill" d="M 428.04632568359375 47.65689468383789 A 3 3 0 0 1 422.04632568359375 47.65689468383789 A 3 3 0 0 1 428.04632568359375 47.65689468383789" fill-opacity="0.7019607843137254" clip-path="url(#ZhGzOXgdoFqH)" stroke-opacity="0.7019607843137254" stroke-linejoin="bevel" stroke-miterlimit="10" stroke-dasharray=""/><path fill="rgb(0,0,0)" stroke="rgb(0,0,0)" paint-order="fill" d="M 427.286865234375 56.91466522216797 A 3 3 0 0 1 421.286865234375 56.91466522216797 A 3 3 0 0 1 427.286865234375 56.91466522216797" fill-opacity="0.7019607843137254" clip-path="url(#ZhGzOXgdoFqH)" stroke-opacity="0.7019607843137254" stroke-linejoin="bevel" stroke-miterlimit="10" stroke-dasharray=""/><path fill="rgb(0,0,0)" stroke="rgb(0,0,0)" paint-order="fill" d="M 468.96124267578125 75.3958740234375 A 3 3 0 0 1 462.96124267578125 75.3958740234375 A 3 3 0 0 1 468.96124267578125 75.3958740234375" fill-opacity="0.7019607843137254" clip-path="url(#ZhGzOXgdoFqH)" stroke-opacity="0.7019607843137254" stroke-linejoin="bevel" stroke-miterlimit="10" stroke-dasharray=""/><path fill="rgb(0,0,0)" stroke="rgb(0,0,0)" paint-order="fill" d="M 471.5626220703125 74.905029296875 A 3 3 0 0 1 465.5626220703125 74.905029296875 A 3 3 0 0 1 471.5626220703125 74.905029296875" fill-opacity="0.7019607843137254" clip-path="url(#ZhGzOXgdoFqH)" stroke-opacity="0.7019607843137254" stroke-linejoin="bevel" stroke-miterlimit="10" stroke-dasharray=""/><path fill="rgb(0,0,0)" stroke="rgb(0,0,0)" paint-order="fill" d="M 509.6438293457031 48.72364044189453 A 3 3 0 0 1 503.6438293457031 48.72364044189453 A 3 3 0 0 1 509.6438293457031 48.72364044189453" fill-opacity="0.7019607843137254" clip-path="url(#ZhGzOXgdoFqH)" stroke-opacity="0.7019607843137254" stroke-linejoin="bevel" stroke-miterlimit="10" stroke-dasharray=""/><path fill="rgb(0,0,0)" stroke="rgb(0,0,0)" paint-order="fill" d="M 510.54925537109375 46.06544494628906 A 3 3 0 0 1 504.54925537109375 46.06544494628906 A 3 3 0 0 1 510.54925537109375 46.06544494628906" fill-opacity="0.7019607843137254" clip-path="url(#ZhGzOXgdoFqH)" stroke-opacity="0.7019607843137254" stroke-linejoin="bevel" stroke-miterlimit="10" stroke-dasharray=""/><path fill="rgb(0,0,0)" stroke="rgb(0,0,0)" paint-order="fill" d="M 550.2295532226562 50.41592788696289 A 3 3 0 0 1 544.2295532226562 50.41592788696289 A 3 3 0 0 1 550.2295532226562 50.41592788696289" fill-opacity="0.7019607843137254" clip-path="url(#ZhGzOXgdoFqH)" stroke-opacity="0.7019607843137254" stroke-linejoin="bevel" stroke-miterlimit="10" stroke-dasharray=""/><path fill="rgb(0,0,0)" stroke="rgb(0,0,0)" paint-order="fill" d="M 550.68896484375 52.086429595947266 A 3 3 0 0 1 544.68896484375 52.086429595947266 A 3 3 0 0 1 550.68896484375 52.086429595947266" fill-opacity="0.7019607843137254" clip-path="url(#ZhGzOXgdoFqH)" stroke-opacity="0.7019607843137254" stroke-linejoin="bevel" stroke-miterlimit="10" stroke-dasharray=""/><path fill="rgb(0,0,0)" stroke="rgb(0,0,0)" paint-order="fill" d="M 549.5584106445312 49.500572204589844 A 3 3 0 0 1 543.5584106445312 49.500572204589844 A 3 3 0 0 1 549.5584106445312 49.500572204589844" fill-opacity="0.7019607843137254" clip-path="url(#ZhGzOXgdoFqH)" stroke-opacity="0.7019607843137254" stroke-linejoin="bevel" stroke-miterlimit="10" stroke-dasharray=""/><path fill="none" stroke="rgb(0,0,0)" paint-order="fill" d="M 68.5 258.5 L 570.5 258.5" stroke-opacity="1" stroke-linejoin="bevel" stroke-miterlimit="10" stroke-dasharray=""/><path fill="none" stroke="rgb(0,0,0)" paint-order="fill" d="M 89.5 264.5 L 89.5 256.5 M 131.5 264.5 L 131.5 256.5 M 173.5 264.5 L 173.5 256.5 M 214.5 264.5 L 214.5 256.5 M 256.5 264.5 L 256.5 256.5 M 298.5 264.5 L 298.5 256.5 M 340.5 264.5 L 340.5 256.5 M 382.5 264.5 L 382.5 256.5 M 424.5 264.5 L 424.5 256.5 M 465.5 264.5 L 465.5 256.5 M 507.5 264.5 L 507.5 256.5 M 549.5 264.5 L 549.5 256.5" stroke-opacity="1" stroke-linejoin="bevel" stroke-miterlimit="10" stroke-dasharray=""/><path fill="none" stroke="rgb(0,0,0)" paint-order="fill" d="" stroke-opacity="1" stroke-linejoin="bevel" stroke-miterlimit="10" stroke-dasharray=""/><text fill="rgb(68,68,68)" stroke="none" font-family="helvetica" font-size="10pt" font-style="normal" font-weight="normal" text-decoration="normal" x="68.1955795288086" y="273.5" text-anchor="start" dominant-baseline="alphabetic" transform="matrix(0.3420201433256688, -0.9396926207859083, 0.9396926207859083, 0.3420201433256688, -193.77194107544602, 261.05091458718016)" fill-opacity="1">WT</text><text fill="rgb(68,68,68)" stroke="none" font-family="helvetica" font-size="10pt" font-style="normal" font-weight="normal" text-decoration="normal" x="52.941802978515625" y="273.5" text-anchor="start" dominant-baseline="alphabetic" transform="matrix(0.3420201433256688, -0.9396926207859083, 0.9396926207859083, 0.3420201433256688, -166.24644873124055, 300.3613916131526)" fill-opacity="1">I777K-L900S</text><text fill="rgb(68,68,68)" stroke="none" font-family="helvetica" font-size="10pt" font-style="normal" font-weight="normal" text-decoration="normal" x="146.66246032714844" y="273.5" text-anchor="start" dominant-baseline="alphabetic" transform="matrix(0.3420201433256688, -0.9396926207859083, 0.9396926207859083, 0.3420201433256688, -138.72096140702297, 339.67186146983926)" fill-opacity="1">TKS</text><text fill="rgb(68,68,68)" stroke="none" font-family="helvetica" font-size="10pt" font-style="normal" font-weight="normal" text-decoration="normal" x="175.89654541015625" y="273.5" text-anchor="start" dominant-baseline="alphabetic" transform="matrix(0.3420201433256688, -0.9396926207859083, 0.9396926207859083, 0.3420201433256688, -111.19546404282954, 378.9823456650974)" fill-opacity="1">SgtKis</text><text fill="rgb(68,68,68)" stroke="none" font-family="helvetica" font-size="10pt" font-style="normal" font-weight="normal" text-decoration="normal" x="227.875732421875" y="273.5" text-anchor="start" dominant-baseline="alphabetic" transform="matrix(0.3420201433256688, -0.9396926207859083, 0.9396926207859083, 0.3420201433256688, -83.66997671861196, 418.29281552178406)" fill-opacity="1">Trixy</text><text fill="rgb(68,68,68)" stroke="none" font-family="helvetica" font-size="10pt" font-style="normal" font-weight="normal" text-decoration="normal" x="271.4205627441406" y="273.5" text-anchor="start" dominant-baseline="alphabetic" transform="matrix(0.3420201433256688, -0.9396926207859083, 0.9396926207859083, 0.3420201433256688, -56.144479354418536, 457.6032997170422)" fill-opacity="1">RC1</text><text fill="rgb(68,68,68)" stroke="none" font-family="helvetica" font-size="10pt" font-style="normal" font-weight="normal" text-decoration="normal" x="254.72203063964844" y="273.5" text-anchor="start" dominant-baseline="alphabetic" transform="matrix(0.3420201433256688, -0.9396926207859083, 0.9396926207859083, 0.3420201433256688, -28.619002070176805, 496.9137552351574)" fill-opacity="1">RC2-BadBoy1</text><text fill="rgb(68,68,68)" stroke="none" font-family="helvetica" font-size="10pt" font-style="normal" font-weight="normal" text-decoration="normal" x="355.08721923828125" y="273.5" text-anchor="start" dominant-baseline="alphabetic" transform="matrix(0.3420201433256688, -0.9396926207859083, 0.9396926207859083, 0.3420201433256688, -1.0935047059833778, 536.2242394304155)" fill-opacity="1">RC3</text><text fill="rgb(68,68,68)" stroke="none" font-family="helvetica" font-size="10pt" font-style="normal" font-weight="normal" text-decoration="normal" x="389.5080871582031" y="273.5" text-anchor="start" dominant-baseline="alphabetic" transform="matrix(0.3420201433256688, -0.9396926207859083, 0.9396926207859083, 0.3420201433256688, 26.431992658209992, 575.5347236256737)" fill-opacity="1">RC12</text><text fill="rgb(68,68,68)" stroke="none" font-family="helvetica" font-size="10pt" font-style="normal" font-weight="normal" text-decoration="normal" x="431.3414001464844" y="273.5" text-anchor="start" dominant-baseline="alphabetic" transform="matrix(0.3420201433256688, -0.9396926207859083, 0.9396926207859083, 0.3420201433256688, 53.95746994245178, 614.845179143789)" fill-opacity="1">RC13</text><text fill="rgb(68,68,68)" stroke="none" font-family="helvetica" font-size="10pt" font-style="normal" font-weight="normal" text-decoration="normal" x="414.6428985595703" y="273.5" text-anchor="start" dominant-baseline="alphabetic" transform="matrix(0.3420201433256688, -0.9396926207859083, 0.9396926207859083, 0.3420201433256688, 81.48296730664515, 654.1556633390471)" fill-opacity="1">RC23-BadBoy2</text><text fill="rgb(68,68,68)" stroke="none" font-family="helvetica" font-size="10pt" font-style="normal" font-weight="normal" text-decoration="normal" x="449.06373596191406" y="273.5" text-anchor="start" dominant-baseline="alphabetic" transform="matrix(0.3420201433256688, -0.9396926207859083, 0.9396926207859083, 0.3420201433256688, 109.00844459088694, 693.4661188571622)" fill-opacity="1">RC123-BadBoy3</text><text fill="rgb(68,68,68)" stroke="none" font-family="helvetica" font-size="14pt" font-style="italic" font-weight="normal" text-decoration="normal" x="288.92955017089844" y="393.11796061569004" text-anchor="start" dominant-baseline="alphabetic" transform="matrix(1, 0, 0, 1, 0.5, 0.5)" fill-opacity="1">sample</text><path fill="none" stroke="rgb(0,0,0)" paint-order="fill" d="M 68.5 258.5 L 68.5 10.5" stroke-opacity="1" stroke-linejoin="bevel" stroke-miterlimit="10" stroke-dasharray=""/><path fill="none" stroke="rgb(0,0,0)" paint-order="fill" d="M 62.5 258.5 L 70.5 258.5 M 62.5 205.5 L 70.5 205.5 M 62.5 152.5 L 70.5 152.5 M 62.5 100.5 L 70.5 100.5 M 62.5 47.5 L 70.5 47.5" stroke-opacity="1" stroke-linejoin="bevel" stroke-miterlimit="10" stroke-dasharray=""/><path fill="none" stroke="rgb(0,0,0)" paint-order="fill" d="M 64.5 258.5 L 68.5 258.5 M 64.5 258.5 L 68.5 258.5 M 64.5 258.5 L 68.5 258.5 M 64.5 242.5 L 68.5 242.5 M 64.5 233.5 L 68.5 233.5 M 64.5 226.5 L 68.5 226.5 M 64.5 221.5 L 68.5 221.5 M 64.5 217.5 L 68.5 217.5 M 64.5 213.5 L 68.5 213.5 M 64.5 210.5 L 68.5 210.5 M 64.5 208.5 L 68.5 208.5 M 64.5 205.5 L 68.5 205.5 M 64.5 205.5 L 68.5 205.5 M 64.5 189.5 L 68.5 189.5 M 64.5 180.5 L 68.5 180.5 M 64.5 173.5 L 68.5 173.5 M 64.5 168.5 L 68.5 168.5 M 64.5 164.5 L 68.5 164.5 M 64.5 161.5 L 68.5 161.5 M 64.5 158.5 L 68.5 158.5 M 64.5 155.5 L 68.5 155.5 M 64.5 152.5 L 68.5 152.5 M 64.5 152.5 L 68.5 152.5 M 64.5 137.5 L 68.5 137.5 M 64.5 127.5 L 68.5 127.5 M 64.5 121.5 L 68.5 121.5 M 64.5 116.5 L 68.5 116.5 M 64.5 111.5 L 68.5 111.5 M 64.5 108.5 L 68.5 108.5 M 64.5 105.5 L 68.5 105.5 M 64.5 102.5 L 68.5 102.5 M 64.5 100.5 L 68.5 100.5 M 64.5 100.5 L 68.5 100.5 M 64.5 84.5 L 68.5 84.5 M 64.5 74.5 L 68.5 74.5 M 64.5 68.5 L 68.5 68.5 M 64.5 63.5 L 68.5 63.5 M 64.5 59.5 L 68.5 59.5 M 64.5 55.5 L 68.5 55.5 M 64.5 52.5 L 68.5 52.5 M 64.5 49.5 L 68.5 49.5 M 64.5 47.5 L 68.5 47.5 M 64.5 47.5 L 68.5 47.5 M 64.5 31.5 L 68.5 31.5 M 64.5 22.5 L 68.5 22.5 M 64.5 15.5 L 68.5 15.5 M 64.5 10.5 L 68.5 10.5" stroke-opacity="1" stroke-linejoin="bevel" stroke-miterlimit="10" stroke-dasharray=""/><text fill="rgb(68,68,68)" stroke="none" font-family="helvetica" font-size="10pt" font-style="normal" font-weight="normal" text-decoration="normal" x="0" y="13" text-anchor="start" dominant-baseline="alphabetic" transform="matrix(1, 0, 0, 1, 32.039703369140625, 252)" fill-opacity="1">10</text><text fill="rgb(68,68,68)" stroke="none" font-family="helvetica" font-size="7pt" font-style="normal" font-weight="normal" text-decoration="normal" x="14.824951171875" y="7" text-anchor="start" dominant-baseline="alphabetic" transform="matrix(1, 0, 0, 1, 32.039703369140625, 252)" fill-opacity="1">−8</text><text fill="rgb(68,68,68)" stroke="none" font-family="helvetica" font-size="10pt" font-style="normal" font-weight="normal" text-decoration="normal" x="0" y="13" text-anchor="start" dominant-baseline="alphabetic" transform="matrix(1, 0, 0, 1, 32.039703369140625, 199.22247314453125)" fill-opacity="1">10</text><text fill="rgb(68,68,68)" stroke="none" font-family="helvetica" font-size="7pt" font-style="normal" font-weight="normal" text-decoration="normal" x="14.824951171875" y="7" text-anchor="start" dominant-baseline="alphabetic" transform="matrix(1, 0, 0, 1, 32.039703369140625, 199.22247314453125)" fill-opacity="1">−7</text><text fill="rgb(68,68,68)" stroke="none" font-family="helvetica" font-size="10pt" font-style="normal" font-weight="normal" text-decoration="normal" x="0" y="13" text-anchor="start" dominant-baseline="alphabetic" transform="matrix(1, 0, 0, 1, 32.039703369140625, 146.4449462890625)" fill-opacity="1">10</text><text fill="rgb(68,68,68)" stroke="none" font-family="helvetica" font-size="7pt" font-style="normal" font-weight="normal" text-decoration="normal" x="14.824951171875" y="7" text-anchor="start" dominant-baseline="alphabetic" transform="matrix(1, 0, 0, 1, 32.039703369140625, 146.4449462890625)" fill-opacity="1">−6</text><text fill="rgb(68,68,68)" stroke="none" font-family="helvetica" font-size="10pt" font-style="normal" font-weight="normal" text-decoration="normal" x="0" y="13" text-anchor="start" dominant-baseline="alphabetic" transform="matrix(1, 0, 0, 1, 32.039703369140625, 93.66742706298828)" fill-opacity="1">10</text><text fill="rgb(68,68,68)" stroke="none" font-family="helvetica" font-size="7pt" font-style="normal" font-weight="normal" text-decoration="normal" x="14.824951171875" y="7" text-anchor="start" dominant-baseline="alphabetic" transform="matrix(1, 0, 0, 1, 32.039703369140625, 93.66742706298828)" fill-opacity="1">−5</text><text fill="rgb(68,68,68)" stroke="none" font-family="helvetica" font-size="10pt" font-style="normal" font-weight="normal" text-decoration="normal" x="0" y="13" text-anchor="start" dominant-baseline="alphabetic" transform="matrix(1, 0, 0, 1, 32.039703369140625, 40.8899040222168)" fill-opacity="1">10</text><text fill="rgb(68,68,68)" stroke="none" font-family="helvetica" font-size="7pt" font-style="normal" font-weight="normal" text-decoration="normal" x="14.824951171875" y="7" text-anchor="start" dominant-baseline="alphabetic" transform="matrix(1, 0, 0, 1, 32.039703369140625, 40.8899040222168)" fill-opacity="1">−4</text><text fill="rgb(68,68,68)" stroke="none" font-family="helvetica" font-size="14pt" font-style="italic" font-weight="normal" text-decoration="normal" x="-93.13018035888672" y="130" text-anchor="start" dominant-baseline="alphabetic" transform="matrix(6.123233995736766e-17, -1, 1, 6.123233995736766e-17, -109.96029663085938, 158.03970336914062)" fill-opacity="1">per base all substitution rate</text></svg>